<svg width="25" height="25" viewBox="0 0 25 25" fill="none" xmlns="http://www.w3.org/2000/svg">
<g clip-path="url(#clip0_1166_3419)">
<path d="M23.9973 12.6861L21.5573 9.89614L21.8973 6.20614L18.2873 5.38614L16.3973 2.18614L12.9973 3.64614L9.59731 2.18614L7.70731 5.37614L4.09731 6.18614L4.43731 9.88614L1.99731 12.6861L4.43731 15.4761L4.09731 19.1761L7.70731 19.9961L9.59731 23.1861L12.9973 21.7161L16.3973 23.1761L18.2873 19.9861L21.8973 19.1661L21.5573 15.4761L23.9973 12.6861ZM11.0873 17.4061L7.28731 13.5961L8.76731 12.1161L11.0873 14.4461L16.9373 8.57614L18.4173 10.0561L11.0873 17.4061Z" fill="#31B94F"/>
</g>
<defs>
<clipPath id="clip0_1166_3419">
<rect width="24" height="24" fill="white" transform="translate(0.99707 0.686127)"/>
</clipPath>
</defs>
</svg>
