<svg width="155" height="142" viewBox="0 0 155 142" fill="none" xmlns="http://www.w3.org/2000/svg">
<g clip-path="url(#clip0_1145_65)">
<path d="M5.01611 64.587L10.4411 78.831H26.0213C26.0213 78.831 21.5703 76.7351 19.7619 74.7794C17.9536 72.8237 9.74634 64.5837 9.74634 64.5837H5.01611V64.587Z" fill="#E0E0E0"/>
<path d="M7.09082 78.8311H101.601C103.585 78.8311 105.562 79.144 107.419 79.8415C107.968 80.0468 108.513 80.288 109.019 80.5716C110.941 81.644 110.993 84.4406 109.094 85.5521C107.581 86.4355 105.098 87.2699 101.121 87.2699C92.6569 87.2699 27.2811 86.0313 27.2811 86.0313C27.2811 86.0313 8.03232 83.0423 7.09407 78.8311H7.09082Z" fill="#EBEBEB"/>
<path d="M26.875 81.0442C26.875 81.0442 26.9627 81.7548 27.9691 81.8167H48.5944V81.0442H26.875Z" fill="#E0E0E0"/>
<path d="M79.3232 81.0442H53.1138V81.8167H79.3232V81.0442Z" fill="#E0E0E0"/>
<path d="M99.2635 81.0442H83.9268V81.8167H99.2635V81.0442Z" fill="#E0E0E0"/>
<path d="M105.318 80.7932V81.6602H110.026C110.026 81.6602 109.403 80.8551 108.854 80.5715L105.322 80.7932H105.318Z" fill="#E0E0E0"/>
<path d="M100.289 87.2699H99.5005V89.9362H100.289V87.2699Z" fill="#E0E0E0"/>
<path d="M100.289 87.3742C100.289 87.3742 99.6465 84.7177 91.5951 84.7177H26.742C25.5668 84.5351 16.9375 83.7952 17.3368 78.73H6.92511C6.92511 78.73 6.27905 79.6948 11.4053 82.1785C14.1227 83.4954 22.0475 85.764 25.3363 86.0476C26.6382 86.1584 27.5147 86.1356 28.427 86.1519L100.286 87.3774L100.289 87.3742Z" fill="#E0E0E0"/>
<path d="M58.2304 83.3552C58.2304 83.3552 46.5526 82.863 46.6175 86.9895C46.6175 86.9895 46.0689 90.6076 58.2304 89.8937V83.3552Z" fill="#EBEBEB"/>
<path d="M57.6719 85.839C57.6719 85.839 61.1879 85.7053 61.7755 86.6213C61.7755 86.6213 59.951 87.1917 57.6719 87.2666V85.839Z" fill="#EBEBEB"/>
<path d="M58.2302 89.8937C58.2302 89.8937 58.2204 89.8513 58.2172 89.7731C58.2139 89.6786 58.2107 89.5612 58.2042 89.4178C58.1977 89.0886 58.1912 88.6421 58.1815 88.0879C58.175 86.9276 58.162 85.3271 58.1522 83.4627L58.2269 83.5409C57.1978 83.4888 56.0777 83.3975 54.9057 83.3682C54.2369 83.3519 53.5811 83.3617 52.9545 83.4171C52.3312 83.479 51.7241 83.5735 51.1559 83.6778C50.0164 83.8832 49.0262 84.2483 48.273 84.6948C47.5198 85.1348 46.9452 85.5879 46.7504 86.0442C46.5556 86.4941 46.627 86.7841 46.601 86.7809C46.5978 86.7809 46.5848 86.7124 46.5815 86.5821C46.5815 86.4517 46.5945 86.2528 46.6919 86.0182C46.877 85.5325 47.4614 85.0468 48.2113 84.5938C48.9678 84.1277 49.9742 83.743 51.1235 83.5279C51.6981 83.4171 52.302 83.3193 52.9383 83.2541C53.5746 83.1954 54.2337 83.1857 54.9089 83.1987C56.0874 83.2248 57.2107 83.3226 58.2334 83.3812H58.3081V83.4595C58.2951 85.3239 58.2854 86.9243 58.2789 88.0847C58.2691 88.6355 58.2626 89.0821 58.2561 89.4146C58.2496 89.5547 58.2464 89.6721 58.2431 89.7698C58.2399 89.8513 58.2334 89.8904 58.2302 89.8904V89.8937Z" fill="#E0E0E0"/>
<path d="M56.2988 89.9492C56.2533 89.9492 56.2144 88.4792 56.2144 86.6636C56.2144 84.8481 56.2533 83.3781 56.2988 83.3781C56.3442 83.3781 56.3832 84.8481 56.3832 86.6636C56.3832 88.4792 56.3442 89.9492 56.2988 89.9492Z" fill="#E0E0E0"/>
<path d="M55.3764 89.985C55.331 89.985 55.292 88.4987 55.292 86.6636C55.292 84.8285 55.331 83.3422 55.3764 83.3422C55.4219 83.3422 55.4608 84.8285 55.4608 86.6636C55.4608 88.4987 55.4219 89.985 55.3764 89.985Z" fill="#E0E0E0"/>
<path d="M108.812 65.529C108.812 65.5746 86.7189 65.6137 59.4739 65.6137C32.2288 65.6137 10.1328 65.5746 10.1328 65.529C10.1328 65.4833 32.2191 65.4442 59.4739 65.4442C86.7286 65.4442 108.812 65.4833 108.812 65.529Z" fill="#E0E0E0"/>
<path d="M114.568 19.4983C114.834 17.5622 112.113 15.9715 110.068 15.8053C109.094 15.7271 108.081 15.877 107.156 15.5543C105.156 14.8535 104.354 12.259 102.403 11.4311C100.942 10.8118 99.2633 11.3626 97.8478 12.0797C96.4323 12.7935 95.033 13.6932 93.452 13.7975C92.0754 13.8855 90.582 13.3737 89.3808 14.0484C88.4847 14.5504 88.014 15.5869 87.1894 16.1997C86.381 16.7995 85.3258 16.9266 84.3227 16.9787C83.3195 17.0341 82.2806 17.0439 81.3683 17.4644C80.456 17.8849 79.6996 18.8529 79.8879 19.8438L114.568 19.5016V19.4983Z" fill="#F5F5F5"/>
<path d="M52.8022 65.5289L64.347 61.7739H69.2752L84.6866 59.6357L102.374 58.019L110.487 54.2771L132.193 58.3384L138.657 58.9447L142.138 61.1318L146.985 65.5289H52.8022Z" fill="#E0E0E0"/>
<path d="M83.8262 44.779C84.1704 42.2692 80.6414 40.2059 77.9922 39.9908C76.7293 39.8898 75.4144 40.0821 74.2165 39.6649C71.6225 38.7555 70.5836 35.3917 68.0513 34.3193C66.1585 33.5174 63.9801 34.2313 62.1425 35.1602C60.3082 36.0859 58.4934 37.2561 56.4448 37.3865C54.6625 37.5005 52.7243 36.8356 51.1627 37.7124C50.0004 38.3643 49.3901 39.7105 48.3187 40.5025C47.2701 41.2783 45.9033 41.4445 44.6014 41.513C43.2996 41.5847 41.9522 41.5977 40.7705 42.1421C39.5855 42.6864 38.6051 43.9446 38.8518 45.2288L83.8262 44.7823V44.779Z" fill="#EBEBEB"/>
<path d="M152.988 58.019H139.638V65.5289H152.988V58.019Z" fill="#EBEBEB"/>
<path d="M151.705 59.3489H140.975V61.4578H151.705V59.3489Z" fill="#E0E0E0"/>
<path d="M141.959 38.7456V41.6694L144.407 43.7685V58.0223H149.036V43.7685L151.247 41.6042V38.7489H141.959V38.7456Z" fill="#EBEBEB"/>
<path d="M143.589 35.623H142.962V38.7456H143.589V35.623Z" fill="#EBEBEB"/>
<path d="M144.933 37.1158H144.306V40.2384H144.933V37.1158Z" fill="#EBEBEB"/>
<path d="M150.757 39.8701H142.608V41.4542H150.757V39.8701Z" fill="#FAFAFA"/>
<path d="M148.987 141.915C148.987 141.961 116.204 142 75.771 142C35.3385 142 2.54834 141.961 2.54834 141.915C2.54834 141.87 35.3255 141.831 75.771 141.831C116.217 141.831 148.987 141.87 148.987 141.915Z" fill="#263238"/>
<path d="M35.8451 0H33.1895V106.318H35.8451V0Z" fill="#455A64"/>
<path d="M125.489 1.20605H122.833V107.524H125.489V1.20605Z" fill="#455A64"/>
<path d="M144.825 105.044H2.94434V107.593H144.825V105.044Z" fill="#455A64"/>
<path d="M88.6921 29.1399C88.7214 29.1758 80.8063 35.2678 71.0179 42.7451C61.2263 50.2224 53.269 56.2557 53.2398 56.2166C53.2106 56.1807 61.1224 50.0887 70.914 42.6114C80.7024 35.1341 88.6597 29.1041 88.6889 29.1399H88.6921Z" fill="#263238"/>
<path d="M92.1464 21.9625C92.1756 21.9984 86.9487 26.1933 80.4718 31.327C73.9917 36.464 68.7193 40.5938 68.6901 40.5579C68.6608 40.5221 73.8878 36.3304 80.3679 31.1934C86.8448 26.0597 92.1204 21.9267 92.1496 21.9625H92.1464Z" fill="#263238"/>
<path d="M26.1895 53.9708C26.2188 54.0066 20.3815 58.9545 13.1514 65.0205C5.91483 71.0897 0.0288399 75.9789 -0.000379066 75.9431C-0.029598 75.9072 5.8077 70.9593 13.041 64.8901C20.2711 58.8242 26.1603 53.9349 26.1895 53.9708Z" fill="#263238"/>
<path d="M29.3616 46.4446C29.3908 46.4804 24.2905 50.8286 17.9694 56.1546C11.6452 61.4839 6.49939 65.7734 6.46692 65.7343C6.4377 65.6984 11.538 61.3502 17.8591 56.0242C24.1801 50.6982 29.3291 46.4087 29.3583 46.4446H29.3616Z" fill="#263238"/>
<path d="M151.828 72.3707C151.857 72.4065 146.02 77.3544 138.79 83.4204C131.556 89.4896 125.67 94.3788 125.641 94.343C125.612 94.3071 131.449 89.3592 138.683 83.29C145.913 77.2241 151.802 72.3348 151.831 72.3707H151.828Z" fill="#263238"/>
<path d="M155 64.8445C155.029 64.8803 149.929 69.2285 143.608 74.5545C137.283 79.8838 132.138 84.1733 132.105 84.1342C132.076 84.0983 137.176 79.7501 143.497 74.4241C149.818 69.0981 154.967 64.8086 154.997 64.8445H155Z" fill="#263238"/>
<path d="M26.7061 78.8342H10.0513V107.697H26.7061V78.8342Z" fill="#263238"/>
<path d="M22.849 82.4197H13.7911C13.0775 82.4197 12.499 83.0005 12.499 83.717V85.6401C12.499 86.3565 13.0775 86.9373 13.7911 86.9373H22.849C23.5626 86.9373 24.1411 86.3565 24.1411 85.6401V83.717C24.1411 83.0005 23.5626 82.4197 22.849 82.4197Z" fill="#455A64"/>
<path d="M26.8198 89.9556C26.8198 90.0012 23.0928 90.0403 18.4924 90.0403C13.8921 90.0403 10.165 90.0012 10.165 89.9556C10.165 89.91 13.8921 89.8708 18.4924 89.8708C23.0928 89.8708 26.8198 89.91 26.8198 89.9556Z" fill="#455A64"/>
<path d="M26.8198 103.936C26.8198 103.981 23.0928 104.02 18.4924 104.02C13.8921 104.02 10.165 103.981 10.165 103.936C10.165 103.89 13.8921 103.851 18.4924 103.851C23.0928 103.851 26.8198 103.89 26.8198 103.936Z" fill="#455A64"/>
<path d="M80.0114 50.1636C80.6218 49.6063 81.0276 48.8109 81.0536 47.983C81.0795 47.1551 80.6997 46.3109 80.0277 45.8318C79.3556 45.3526 78.3979 45.2809 77.6934 45.7112C77.0765 46.0893 76.6415 46.8129 75.9305 46.9367C75.265 47.0541 74.5085 46.6075 73.9469 46.9824C73.6287 47.1942 73.5021 47.6049 73.2196 47.8657C72.856 48.1982 72.3171 48.2177 71.8593 48.4035C71.2165 48.6643 70.7393 49.2966 70.6646 49.9876C70.5834 50.7275 70.9211 51.4381 71.2068 52.1226C71.4925 52.8103 71.7262 53.5926 71.447 54.2804" fill="#263238"/>
<path d="M72.424 63.733L71.2163 50.7993L71.5572 50.4994C73.8622 48.4818 74.9271 47.341 77.8068 48.3775C79.1281 48.9544 80.0502 50.18 80.2482 51.6109C80.482 53.3026 80.7644 55.5353 80.8293 56.9043C80.9495 59.3392 78.1055 59.877 78.1055 59.877L78.5568 64.1469L72.424 63.733Z" fill="#FFBE9D"/>
<path d="M79.2027 53.1201C79.0502 52.9995 79.0274 52.7746 79.1476 52.6214C79.2677 52.4682 79.4917 52.4453 79.6443 52.566C79.7969 52.6866 79.8196 52.9115 79.6995 53.0647C79.5793 53.2178 79.3553 53.2407 79.2027 53.1201Z" fill="#263238"/>
<path d="M80.1704 52.4812C80.1347 52.5269 79.8847 52.3574 79.5536 52.3769C79.2192 52.39 78.9887 52.5823 78.9497 52.5432C78.9302 52.5236 78.9627 52.4454 79.0633 52.3606C79.1607 52.2726 79.3361 52.1846 79.5438 52.1748C79.7516 52.1651 79.9334 52.2368 80.0406 52.3117C80.1509 52.39 80.1899 52.4617 80.1737 52.4845L80.1704 52.4812Z" fill="#263238"/>
<path d="M76.0959 53.006C76.268 53.0972 76.3329 53.3123 76.242 53.4851C76.1511 53.6579 75.9369 53.723 75.7648 53.6318C75.5927 53.5405 75.5278 53.3254 75.6187 53.1526C75.7096 52.9799 75.9239 52.9147 76.0959 53.006Z" fill="#263238"/>
<path d="M76.6704 52.944C76.6347 52.9896 76.3847 52.8201 76.0536 52.8397C75.7192 52.8527 75.4887 53.0451 75.4497 53.0059C75.4302 52.9864 75.4627 52.9082 75.5633 52.8234C75.6607 52.7354 75.8361 52.6474 76.0438 52.6376C76.2516 52.6278 76.4334 52.6995 76.5406 52.7745C76.6509 52.8527 76.6899 52.9245 76.6737 52.9473L76.6704 52.944Z" fill="#263238"/>
<path d="M78.1023 55.7309C78.0991 55.7048 78.3036 55.6494 78.6348 55.5842C78.7224 55.568 78.7873 55.5451 78.7906 55.4962C78.8036 55.4408 78.7646 55.3496 78.7127 55.2485C78.612 55.0334 78.5114 54.815 78.4075 54.5836C77.9822 53.6351 77.6803 52.8528 77.7257 52.83C77.7744 52.8072 78.1543 53.5568 78.5796 54.5054C78.6802 54.7368 78.7776 54.9584 78.8717 55.1768C78.9107 55.2746 78.9789 55.3919 78.9432 55.5386C78.9237 55.6136 78.8588 55.669 78.8003 55.6886C78.7451 55.7081 78.6932 55.7114 78.6542 55.7179C78.3166 55.7505 78.1056 55.757 78.1023 55.7309Z" fill="#263238"/>
<path d="M78.1054 59.8769C78.1054 59.8769 77.0276 60.0464 75.3394 59.1207C75.3394 59.1207 75.7711 60.8743 78.1736 60.506L78.1054 59.8769Z" fill="#EB996E"/>
<path d="M78.6573 51.764C78.7028 51.927 78.9592 51.9987 79.2287 51.9954C79.5014 51.9889 79.7839 51.9139 79.8942 51.7477C80.0046 51.5847 79.7806 51.3598 79.3521 51.3663C78.9235 51.3729 78.6086 51.6043 78.6573 51.764Z" fill="#263238"/>
<path d="M74.9593 52.2498C75.0794 52.3769 75.4236 52.328 75.7645 52.2759C76.1703 52.1846 76.5274 52.1064 76.6281 51.9532C76.706 51.8652 76.6962 51.7511 76.5664 51.6696C76.4398 51.5881 76.1898 51.5457 75.8813 51.6011C75.5762 51.6566 75.2937 51.7902 75.1281 51.9271C74.9593 52.0607 74.9106 52.1846 74.9593 52.2498Z" fill="#263238"/>
<path d="M76.7127 55.796C76.6575 55.8058 76.7581 56.21 77.1542 56.4838C77.5503 56.7608 77.9626 56.7054 77.9529 56.6533C77.9529 56.5946 77.6055 56.5555 77.2711 56.3175C76.9302 56.0861 76.7679 55.7765 76.7127 55.7993V55.796Z" fill="#263238"/>
<path d="M80.011 50.1636C79.2708 50.7015 77.9494 50.6298 77.1215 50.2386C76.5372 49.9616 75.9917 49.4498 75.3522 49.5443C74.7613 49.6323 74.4529 50.0789 74.3035 50.6623C74.1639 51.2034 73.5406 51.7021 72.7906 51.5131C72.8848 52.6995 73.0569 53.5796 72.7062 54.6748C72.6445 54.8704 72.3718 55.0236 72.2225 55.1572C72.0699 55.2941 71.8264 55.3462 71.6641 55.2224C71.505 55.105 71.479 54.8769 71.4661 54.678C71.3914 53.5014 71.1511 52.2432 71.0797 51.0665C71.0537 50.6265 71.1966 50.2419 71.3881 49.8442C71.6057 49.3944 72.0569 49.1173 72.4855 48.8631C73.3328 48.3611 74.1899 47.8559 75.1314 47.5723C76.0729 47.2888 77.1215 47.2464 78.0143 47.6636C78.9039 48.0808 79.972 48.8827 79.8973 49.867" fill="#263238"/>
<path d="M72.1902 53.7686C72.148 53.7491 70.4533 53.4785 70.6416 55.1474C70.8039 56.5914 72.359 56.2296 72.359 56.1807C72.359 56.1318 72.1902 53.7654 72.1902 53.7654V53.7686Z" fill="#FFBE9D"/>
<path d="M71.7907 55.5223C71.7907 55.5223 71.768 55.5418 71.7258 55.5614C71.6868 55.5809 71.6154 55.5972 71.5407 55.5712C71.3881 55.519 71.2583 55.2843 71.2453 55.0268C71.2388 54.8964 71.2615 54.7726 71.307 54.6683C71.3492 54.564 71.4141 54.489 71.4888 54.4727C71.5634 54.4531 71.6186 54.4988 71.6381 54.5379C71.6576 54.577 71.6511 54.6063 71.6576 54.6096C71.6608 54.6129 71.6868 54.5835 71.6738 54.5248C71.6673 54.4955 71.6511 54.4629 71.6154 54.4368C71.5797 54.4108 71.531 54.3977 71.479 54.4042C71.3687 54.414 71.2745 54.5183 71.2258 54.6324C71.1739 54.7465 71.1414 54.8867 71.1511 55.0333C71.1674 55.3202 71.32 55.5842 71.5277 55.6396C71.6284 55.6624 71.7095 55.6298 71.7517 55.5972C71.794 55.5614 71.8004 55.5288 71.7972 55.5255L71.7907 55.5223Z" fill="#EB996E"/>
<path d="M92.1468 134.431L95.0395 141.915L104.331 138.349C103.938 137.479 98.4483 137.534 98.4483 137.534L96.7894 132.665L92.1436 134.435L92.1468 134.431Z" fill="#31B9B9"/>
<g opacity="0.6">
<path d="M95.4225 138.232C95.2602 138.349 95.2148 138.6 95.3251 138.767C95.4355 138.933 95.6888 138.982 95.8543 138.868C96.0167 138.754 96.0816 138.454 95.955 138.3C95.8284 138.147 95.5264 138.105 95.3933 138.258" fill="white"/>
</g>
<g opacity="0.6">
<path d="M95.0428 141.915L94.7798 141.149L103.786 138.017C103.786 138.017 104.269 138.04 104.334 138.349L95.0428 141.915Z" fill="white"/>
</g>
<path d="M98.5845 137.427C98.6007 137.473 98.38 137.58 98.2144 137.812C98.0423 138.04 98.0001 138.281 97.9514 138.278C97.906 138.284 97.8703 137.988 98.078 137.711C98.2826 137.43 98.578 137.381 98.5845 137.427Z" fill="#263238"/>
<path d="M99.7115 137.459C99.7375 137.499 99.5719 137.652 99.4907 137.903C99.4031 138.154 99.442 138.375 99.3966 138.392C99.3576 138.415 99.2245 138.16 99.3284 137.851C99.4323 137.538 99.692 137.417 99.7082 137.459H99.7115Z" fill="#263238"/>
<path d="M100.711 138.418C100.672 138.444 100.523 138.239 100.546 137.945C100.565 137.652 100.741 137.469 100.776 137.502C100.815 137.528 100.731 137.717 100.715 137.958C100.695 138.199 100.754 138.398 100.715 138.418H100.711Z" fill="#263238"/>
<path d="M98.0815 136.361C98.0815 136.41 97.8478 136.426 97.5978 136.544C97.3446 136.654 97.179 136.817 97.14 136.788C97.1011 136.765 97.231 136.521 97.5264 136.39C97.8218 136.257 98.088 136.319 98.0815 136.364V136.361Z" fill="#263238"/>
<path d="M97.4385 135.338C97.445 135.357 97.2762 135.452 96.971 135.514C96.8184 135.543 96.6334 135.563 96.4256 135.549C96.3217 135.543 96.2146 135.53 96.1042 135.51C96.0522 135.501 95.9906 135.491 95.9224 135.455C95.8542 135.426 95.7795 135.318 95.8088 135.22C95.8282 135.129 95.9029 135.067 95.9678 135.041C96.036 135.012 96.0977 135.005 96.1529 134.999C96.2665 134.986 96.3769 134.982 96.4808 134.989C96.6886 135.002 96.8736 135.048 97.0165 135.106C97.3087 135.224 97.4483 135.367 97.4353 135.38C97.419 135.403 97.26 135.302 96.9775 135.22C96.8379 135.181 96.6659 135.149 96.4743 135.145C96.3802 135.145 96.2795 135.149 96.1756 135.165C96.0685 135.178 95.9841 135.207 95.9743 135.263C95.9743 135.282 95.9743 135.289 96.0036 135.312C96.036 135.331 96.0847 135.341 96.1367 135.351C96.2406 135.373 96.3412 135.387 96.4353 135.396C96.6269 135.416 96.8055 135.409 96.9515 135.396C97.247 135.37 97.4255 135.315 97.4353 135.338H97.4385Z" fill="#263238"/>
<path d="M97.4061 135.426C97.4061 135.426 97.2405 135.311 97.1106 135.021C97.0457 134.878 96.9938 134.695 96.9808 134.487C96.9743 134.383 96.9775 134.272 96.9905 134.158C97.01 134.044 97.0295 133.897 97.1983 133.809C97.2892 133.77 97.3931 133.812 97.4418 133.864C97.497 133.916 97.523 133.969 97.5554 134.017C97.6139 134.119 97.6528 134.226 97.6755 134.334C97.721 134.542 97.7048 134.741 97.6593 134.891C97.5684 135.204 97.4028 135.331 97.3931 135.315C97.3704 135.298 97.4937 135.149 97.5457 134.865C97.5717 134.725 97.5749 134.549 97.5262 134.369C97.5035 134.278 97.4678 134.187 97.4158 134.102C97.3639 134.008 97.2957 133.942 97.2632 133.969C97.2178 133.985 97.1658 134.089 97.1593 134.184C97.1431 134.285 97.1366 134.386 97.1399 134.48C97.1464 134.673 97.1821 134.842 97.2275 134.982C97.3184 135.263 97.4321 135.413 97.4093 135.429L97.4061 135.426Z" fill="#263238"/>
<path d="M60.6357 130.285C60.626 129.995 72.9045 112.472 72.9045 112.472L79.68 115.083L64.2232 132.965L60.6357 130.285Z" fill="#FFBE9D"/>
<path d="M60.6361 130.285L60.5257 130.429L58.4219 133.189L55.8149 134.985L59.305 141.739H63.1489C63.1489 141.739 62.8697 140.817 61.0224 140.334L60.9023 136.628L64.2235 132.965" fill="#31B9B9"/>
<g opacity="0.6">
<path d="M55.8115 134.982L59.3048 141.736L63.1487 141.739L62.7169 141.159L59.5905 140.983L56.3667 134.601L55.8115 134.982Z" fill="white"/>
</g>
<path d="M60.9963 138.633C60.9671 138.672 60.7464 138.545 60.4477 138.555C60.149 138.555 59.9315 138.688 59.9023 138.649C59.8665 138.62 60.0841 138.388 60.4444 138.385C60.808 138.379 61.0288 138.604 60.9931 138.633H60.9963Z" fill="#263238"/>
<path d="M60.938 137.714C60.8991 137.74 60.727 137.512 60.4218 137.453C60.1167 137.391 59.8699 137.534 59.844 137.492C59.831 137.476 59.8764 137.411 59.9836 137.352C60.0907 137.293 60.266 137.248 60.4543 137.287C60.6426 137.326 60.7887 137.433 60.8634 137.531C60.9413 137.629 60.9575 137.704 60.938 137.714Z" fill="#263238"/>
<path d="M60.9604 136.534C60.9182 136.557 60.7883 136.332 60.5189 136.237C60.2526 136.139 60.0091 136.231 59.9929 136.188C59.9832 136.169 60.0319 136.117 60.139 136.074C60.2429 136.035 60.4085 136.015 60.5773 136.074C60.7461 136.133 60.863 136.253 60.9214 136.351C60.9799 136.449 60.9831 136.521 60.9636 136.53L60.9604 136.534Z" fill="#263238"/>
<path d="M61.9929 135.618C61.9474 135.634 61.8403 135.416 61.6 135.259C61.3663 135.096 61.1228 135.08 61.1195 135.031C61.1066 134.986 61.4052 134.92 61.6942 135.116C61.9864 135.308 62.0383 135.611 61.9929 135.615V135.618Z" fill="#263238"/>
<path d="M62.4928 134.826C62.4733 134.839 62.3467 134.682 62.1584 134.422C62.0512 134.268 61.9441 134.115 61.8337 133.959C61.7785 133.868 61.7006 133.789 61.6552 133.646C61.6357 133.574 61.6357 133.489 61.6779 133.411C61.7168 133.33 61.824 133.278 61.9084 133.291C62.0772 133.317 62.1681 133.401 62.2687 133.476C62.3629 133.558 62.4408 133.649 62.5025 133.744C62.6259 133.933 62.6843 134.135 62.7038 134.301C62.7395 134.643 62.6291 134.836 62.6161 134.829C62.5869 134.823 62.6486 134.624 62.5869 134.321C62.5544 134.171 62.4895 133.995 62.3759 133.832C62.3174 133.75 62.246 133.672 62.1649 133.603C62.0837 133.538 61.9798 133.467 61.8986 133.457C61.8597 133.457 61.8435 133.467 61.8272 133.493C61.811 133.522 61.8077 133.561 61.8175 133.603C61.837 133.685 61.9116 133.783 61.9668 133.871C62.0675 134.034 62.1649 134.197 62.2623 134.356C62.4246 134.633 62.5155 134.813 62.496 134.826H62.4928Z" fill="#263238"/>
<path d="M62.6326 134.943C62.6131 134.943 62.6294 134.738 62.8371 134.506C63.0384 134.288 63.4832 134.053 63.9767 134.301C64.0124 134.33 64.0384 134.386 64.0351 134.438C64.0351 134.49 64.0091 134.532 63.9897 134.562C63.9442 134.62 63.8923 134.653 63.8533 134.682C63.7656 134.744 63.6715 134.796 63.5806 134.839C63.3988 134.924 63.2235 134.963 63.0741 134.979C62.7755 135.012 62.5969 134.953 62.6001 134.933C62.6001 134.907 62.7819 134.92 63.0547 134.858C63.191 134.829 63.3501 134.777 63.5124 134.695C63.5936 134.653 63.6747 134.604 63.7559 134.545C63.7949 134.516 63.8371 134.487 63.8566 134.457C63.876 134.425 63.8695 134.435 63.863 134.425C63.8501 134.412 63.7981 134.396 63.7527 134.382C63.704 134.369 63.6585 134.363 63.6098 134.36C63.5157 134.353 63.4215 134.36 63.3371 134.379C63.165 134.415 63.0254 134.5 62.9215 134.591C62.717 134.774 62.6586 134.953 62.6326 134.94V134.943Z" fill="#263238"/>
<g opacity="0.6">
<path d="M58.4218 135.324C58.6728 135.324 58.8763 135.12 58.8763 134.868C58.8763 134.616 58.6728 134.412 58.4218 134.412C58.1708 134.412 57.9673 134.616 57.9673 134.868C57.9673 135.12 58.1708 135.324 58.4218 135.324Z" fill="white"/>
</g>
<path d="M98.0069 76.2169H100.341C101.426 76.1778 102.033 76.1941 102.351 75.9235C102.776 75.5617 102.247 75.1478 102.247 75.1478C102.247 75.1478 103.046 74.9261 103 74.4437C102.971 74.1145 102.601 74.0558 102.601 74.0558C102.601 74.0558 103.305 73.8277 103.461 73.5474C103.669 73.166 103.195 72.9248 103.195 72.9248C104.169 72.4 104.12 71.8198 103.906 71.7481C103.692 71.6764 102.938 71.973 102.938 71.973C102.309 72.1132 100.588 72.5304 101.27 71.6308C101.951 70.7312 102.14 69.7859 102.01 69.4925C101.883 69.1992 101.432 69.2709 101.357 69.6132C101.296 69.8902 101.052 70.3172 100.854 70.6334C100.692 70.8941 100.487 71.1256 100.247 71.3146C99.9678 71.5362 99.7211 71.7123 99.5101 71.8557L97.1206 73.0258L98.0102 76.2136L98.0069 76.2169Z" fill="#FFBE9D"/>
<path d="M99.2505 70.806L100.494 77.0056L103.533 76.6927L103.62 70.3562L99.2505 70.806Z" fill="#E0E0E0"/>
<path d="M99.1692 69.9977C99.1692 69.9977 98.9419 70.278 98.9679 70.8549L103.906 70.3464C103.906 70.3464 103.948 69.8282 103.536 69.5479L99.1659 69.9977H99.1692Z" fill="#455A64"/>
<path d="M99.6723 69.3654L99.5684 70.001L103.299 69.6457L102.987 69.0166L99.6723 69.3654Z" fill="#455A64"/>
<path d="M99.3511 72.3804C99.3576 72.439 100.036 75.4932 100.036 75.4932L103.753 75.1086L103.783 71.9208L99.3511 72.3771V72.3804Z" fill="#455A64"/>
<path d="M105.049 71.8165C105.14 71.7611 105.146 71.6242 105.085 71.5362C105.023 71.4514 104.919 71.4091 104.815 71.3895C104.387 71.308 103.961 71.5231 103.578 71.7317C103.202 71.9371 102.818 72.1457 102.523 72.4554C102.439 72.5434 102.354 72.6672 102.4 72.7813C102.435 72.8758 102.543 72.9182 102.64 72.9345C102.867 72.9736 103.111 72.9247 103.302 72.7943C102.991 72.8921 102.708 73.0779 102.497 73.3256C102.422 73.4136 102.351 73.5245 102.37 73.6385C102.396 73.7754 102.552 73.8569 102.692 73.8504C102.831 73.8406 102.958 73.7689 103.075 73.694C102.793 73.7526 102.53 73.9058 102.338 74.1242C102.283 74.1861 102.231 74.2579 102.231 74.3393C102.231 74.5056 102.426 74.6001 102.588 74.5936C102.75 74.5871 102.913 74.5186 103.075 74.5382C102.744 74.5512 102.422 74.7435 102.25 75.0304C102.185 75.1379 102.146 75.2976 102.244 75.3791C102.306 75.4313 102.396 75.4313 102.478 75.4248C102.594 75.4182 102.711 75.4085 102.828 75.4019C103.017 75.3889 103.211 75.3759 103.387 75.3009C103.562 75.2292 103.718 75.0825 103.757 74.8967C103.792 74.7109 103.672 74.4925 103.484 74.4665C103.718 74.3654 103.955 74.2318 104.068 74.0036C104.182 73.7754 104.088 73.4365 103.841 73.3811C104.026 73.1105 104.5 73.1073 104.604 72.7976C104.672 72.589 104.526 72.3771 104.387 72.2044C104.672 72.1587 104.932 71.9827 105.081 71.735" fill="#FFBE9D"/>
<path d="M104.477 72.2305C104.487 72.2468 104.279 72.3804 103.929 72.5629C103.753 72.6542 103.539 72.7552 103.289 72.8432C103.162 72.8856 103.032 72.928 102.886 72.9606C102.812 72.9736 102.731 72.9834 102.646 72.9704C102.562 72.9573 102.464 72.9052 102.416 72.8172C102.321 72.6346 102.412 72.4358 102.526 72.3315C102.643 72.2207 102.766 72.162 102.877 72.0936C103.088 71.9697 103.289 71.8524 103.474 71.7448C103.818 71.5492 104.032 71.4384 104.045 71.4547C104.055 71.471 103.857 71.6144 103.529 71.8328C103.347 71.9501 103.153 72.0773 102.948 72.2109C102.841 72.2826 102.714 72.3478 102.627 72.4358C102.536 72.5173 102.494 72.6542 102.546 72.7487C102.594 72.84 102.734 72.8498 102.864 72.8269C102.994 72.8009 103.127 72.7618 103.25 72.7226C103.494 72.6444 103.711 72.5564 103.89 72.4782C104.25 72.3217 104.474 72.2207 104.484 72.2402L104.477 72.2305Z" fill="#EB996E"/>
<path d="M104.029 73.3126C104.039 73.3322 103.877 73.4137 103.607 73.5278C103.452 73.593 103.296 73.6582 103.13 73.7266C103.036 73.7625 102.942 73.8016 102.848 73.8374C102.75 73.87 102.627 73.9157 102.487 73.87C102.422 73.8472 102.354 73.8016 102.322 73.7299C102.289 73.6582 102.293 73.5832 102.309 73.5213C102.351 73.3909 102.442 73.3159 102.51 73.2507C102.656 73.1171 102.802 73.016 102.932 72.9411C103.192 72.7911 103.37 72.7455 103.377 72.7618C103.387 72.7814 103.224 72.8628 102.987 73.0258C102.87 73.1073 102.737 73.2149 102.601 73.3452C102.533 73.4104 102.465 73.4789 102.445 73.5539C102.426 73.6353 102.452 73.6973 102.533 73.7233C102.692 73.769 102.913 73.6419 103.088 73.5897C103.254 73.5343 103.413 73.4789 103.568 73.4235C103.844 73.3322 104.02 73.2866 104.029 73.3029V73.3126Z" fill="#EB996E"/>
<path d="M103.63 74.3035C103.63 74.3035 103.477 74.4501 103.166 74.5642C103.01 74.6196 102.818 74.6718 102.594 74.6881C102.484 74.6946 102.338 74.6783 102.231 74.5805C102.179 74.5316 102.133 74.4664 102.123 74.3849C102.111 74.3035 102.143 74.2187 102.188 74.16C102.283 74.0394 102.403 73.984 102.5 73.9286C102.604 73.8699 102.705 73.8178 102.799 73.7689C102.99 73.6711 103.169 73.5896 103.321 73.5277C103.623 73.4038 103.818 73.3484 103.825 73.368C103.831 73.3875 103.653 73.4755 103.364 73.6222C103.221 73.6972 103.049 73.7852 102.86 73.8895C102.766 73.9449 102.669 74.0003 102.568 74.0557C102.468 74.1144 102.364 74.1731 102.302 74.2513C102.244 74.3295 102.257 74.4175 102.325 74.4795C102.39 74.5414 102.49 74.561 102.588 74.5577C102.792 74.5512 102.981 74.5121 103.133 74.4697C103.442 74.3849 103.617 74.2872 103.63 74.3067V74.3035Z" fill="#EB996E"/>
<path d="M102.377 75.4801C102.377 75.4801 102.344 75.5029 102.289 75.4834C102.237 75.4671 102.159 75.4117 102.13 75.3041C102.101 75.1998 102.13 75.0662 102.215 74.9586C102.299 74.8543 102.416 74.7728 102.542 74.7174C103.039 74.4697 103.458 74.3393 103.474 74.3719C103.49 74.411 103.091 74.6066 102.614 74.8445C102.491 74.8999 102.39 74.9684 102.318 75.0433C102.25 75.1183 102.221 75.2096 102.231 75.2813C102.254 75.4345 102.383 75.4606 102.377 75.4768V75.4801Z" fill="#EB996E"/>
<path d="M58.5807 92.0352L58.4703 92.8207L56.4996 93.7985C56.0419 93.9387 55.7464 94.3853 55.7984 94.8644L55.9283 96.103C55.9769 96.5626 56.2984 96.9472 56.7399 97.0711L59.7267 97.9186C60.0254 98.0033 60.3371 97.824 60.415 97.5242C60.4832 97.2601 60.3533 96.9831 60.1066 96.8723L57.8145 95.94C57.7528 95.5293 58.0028 95.1349 58.3989 95.0176L60.4994 94.4016L60.7624 96.028C60.8111 96.3214 61.0578 96.5593 61.3565 96.5528C61.5091 96.5496 61.6389 96.4811 61.6552 96.2627C61.7006 95.7054 61.9019 92.6219 61.9019 92.6219L58.5742 92.0417L58.5807 92.0352Z" fill="#FFBE9D"/>
<path d="M49.1983 139.849C49.4418 140.709 48.9451 141.605 48.088 141.85C47.2309 142.094 46.3381 141.596 46.0946 140.735C45.8511 139.875 46.3478 138.978 47.2049 138.734C48.062 138.489 48.9548 138.988 49.1983 139.849Z" fill="#263238"/>
<path d="M47.9773 140.259L48.6851 138.105L48.1299 137.844L47.4644 140.083L47.9773 140.259Z" fill="#455A64"/>
<path d="M53.7271 114.134L57.6943 97.4524L58.9215 97.8794L55.1231 114.392L53.7271 114.134Z" fill="#263238"/>
<path d="M53.4069 110.261L54.8867 110.635C57.4275 111.277 58.971 113.868 58.3319 116.419L52.7688 138.622C52.6484 139.103 52.1598 139.396 51.6812 139.275L42.7333 137.015C42.2547 136.894 41.9625 136.404 42.0829 135.923L47.6468 113.717C48.2859 111.166 50.8669 109.617 53.4077 110.258L53.4069 110.261Z" fill="#31B9B9"/>
<path d="M56.6782 101.732L57.9574 102.068L59.4703 96.0247L58.097 95.6271L56.6782 101.732Z" fill="#263238"/>
<path d="M52.7432 138.972C52.7432 138.972 52.7497 138.923 52.7725 138.829C52.7952 138.727 52.8276 138.591 52.8666 138.408C52.9543 138.033 53.0841 137.495 53.2464 136.801C53.5841 135.4 54.0743 133.385 54.6749 130.895C55.282 128.401 56.006 125.435 56.8112 122.14C57.2137 120.494 57.639 118.763 58.0773 116.97C58.1877 116.524 58.2981 116.071 58.4085 115.614C58.5318 115.168 58.5286 114.695 58.4182 114.245C58.1877 113.342 57.441 112.58 56.5125 112.355C55.584 112.12 54.5678 112.443 53.9477 113.137C53.6425 113.486 53.4185 113.903 53.3211 114.353C53.2075 114.809 53.0971 115.262 52.9867 115.709C52.5452 117.502 52.1199 119.229 51.7141 120.878C50.8992 124.171 50.1655 127.137 49.5486 129.627C48.9285 132.111 48.4253 134.125 48.0779 135.523C47.9026 136.214 47.7663 136.752 47.6721 137.124C47.6267 137.303 47.5877 137.44 47.5617 137.538C47.5358 137.632 47.5195 137.678 47.5195 137.678C47.5195 137.678 47.526 137.629 47.5488 137.534C47.5715 137.433 47.6039 137.297 47.6429 137.117C47.7306 136.742 47.8604 136.205 48.0227 135.51C48.3604 134.109 48.8474 132.094 49.4512 129.604C50.0583 127.111 50.7823 124.141 51.5875 120.849C51.99 119.2 52.4153 117.472 52.8536 115.68C52.964 115.23 53.0744 114.78 53.1848 114.324C53.2854 113.854 53.5192 113.411 53.8406 113.046C54.4964 112.316 55.5677 111.974 56.5449 112.221C57.5254 112.459 58.3143 113.261 58.5546 114.213C58.6714 114.685 58.6714 115.191 58.5448 115.65C58.4312 116.107 58.3208 116.556 58.2104 117.006C57.7689 118.799 57.3436 120.526 56.9378 122.172C56.1229 125.465 55.3892 128.427 54.7723 130.921C54.1522 133.405 53.649 135.419 53.3016 136.817C53.1263 137.508 52.99 138.046 52.8958 138.418C52.8504 138.597 52.8114 138.734 52.7854 138.832C52.7595 138.926 52.7432 138.972 52.7432 138.972Z" fill="#263238"/>
<path d="M51.2109 122.903C51.2012 122.964 49.9675 122.658 48.4578 122.215C46.9482 121.772 45.734 121.364 45.7437 121.302C45.7535 121.24 46.9871 121.547 48.4968 121.99C50.0064 122.433 51.2206 122.841 51.2077 122.903H51.2109Z" fill="#263238"/>
<path d="M57.6719 97.3318C57.6654 97.3514 57.4219 97.2993 57.0486 97.1363C56.9544 97.0939 56.8538 97.0483 56.7499 96.9766C56.698 96.9374 56.6428 96.9016 56.5973 96.8299C56.5616 96.7712 56.5324 96.7093 56.5064 96.6441C56.4025 96.3801 56.3766 96.0835 56.3311 95.7836C56.2921 95.4837 56.2532 95.2001 56.2175 94.9263C56.2012 94.796 56.1818 94.6656 56.198 94.5319C56.2077 94.4635 56.2142 94.4081 56.2597 94.3396C56.2986 94.2842 56.3408 94.2484 56.3831 94.2158C56.7142 93.9615 56.9674 93.9029 56.9739 93.9224C56.9837 93.9452 56.7532 94.0463 56.461 94.3038C56.4253 94.3364 56.3928 94.3722 56.3701 94.4081C56.3538 94.4309 56.3408 94.4928 56.3376 94.5417C56.3311 94.646 56.3506 94.7666 56.3733 94.9003C56.4155 95.1708 56.4577 95.4576 56.4999 95.7542C56.5454 96.0574 56.5681 96.3475 56.6558 96.5854C56.6752 96.6441 56.7012 96.6995 56.7304 96.7517C56.7499 96.7875 56.7954 96.8266 56.8376 96.8592C56.9252 96.9244 57.0194 96.9798 57.107 97.0255C57.4577 97.2112 57.6882 97.3025 57.6784 97.3286L57.6719 97.3318Z" fill="#EB996E"/>
<path d="M69.8917 89.9751C69.6709 88.0194 69.593 80.415 69.593 80.415C69.3171 76.8719 69.184 73.0062 68.9762 70.4312C68.2652 61.7218 74.4141 62.1488 74.4141 62.1488L76.6023 62.1781C79.2125 62.3737 81.141 64.1436 81.5306 66.5654L86.5465 89.496L69.8949 89.9751H69.8917Z" fill="#31B9B9"/>
<path d="M71.7941 63.006L71.6643 61.3437C71.6318 60.9265 71.9694 60.5745 72.385 60.5908L78.2775 60.8222C78.6508 60.8352 78.943 61.1416 78.9463 61.5165L78.956 63.4461L71.7941 63.006Z" fill="#31B9B9"/>
<path d="M65.6093 77.4131L73.9887 69.8413C73.9887 69.8413 76.7547 64.7662 71.6577 62.8757C71.6577 62.8757 71.7096 62.7095 67.5508 66.3047C65.0412 68.4755 62.5219 70.6789 60.9181 72.087C59.8207 73.0486 59.1584 74.4111 59.0805 75.8713L58.2104 91.9732L63.8172 92.9511L65.6061 77.4131H65.6093Z" fill="#31B9B9"/>
<path d="M83.222 65.7701L87.5918 74.0231L97.6983 72.2662L98.9677 77.5825L87.1795 80.6627C86.6373 80.8322 86.0594 80.855 85.5075 80.7246C84.4362 80.4704 83.5726 79.6783 83.2252 78.6288L78.9235 67.3998C78.5307 66.3763 77.7158 64.2739 78.5177 63.534L77.9561 63.3874C79.2871 62.1618 82.3746 63.8144 83.222 65.7701Z" fill="#31B9B9"/>
<path d="M86.8255 77.5075C86.8092 77.514 86.6923 77.3282 86.6047 76.9827C86.517 76.6405 86.4781 76.1418 86.5917 75.6105C86.7086 75.0792 86.9521 74.6424 87.1761 74.3686C87.4001 74.0948 87.5819 73.971 87.5949 73.9873C87.6144 74.0068 87.4618 74.16 87.2735 74.4403C87.0819 74.7206 86.8709 75.1444 86.7573 75.6463C86.6469 76.1516 86.6664 76.6242 86.7216 76.9599C86.7768 77.2956 86.8514 77.4977 86.8255 77.5075Z" fill="#263238"/>
<path d="M65.6092 77.4848C65.5605 77.5043 65.3592 77.0056 64.8885 76.5623C64.4242 76.1125 63.9177 75.9332 63.934 75.8843C63.9372 75.842 64.5054 75.9593 65.0021 76.4417C65.5053 76.9176 65.6482 77.4815 65.6059 77.488L65.6092 77.4848Z" fill="#263238"/>
<path d="M84.6697 68.0485C84.6697 68.0941 80.4167 68.1332 75.1703 68.1332C69.9239 68.1332 65.6709 68.0941 65.6709 68.0485C65.6709 68.0029 69.9239 67.9637 75.1703 67.9637C80.4167 67.9637 84.6697 68.0029 84.6697 68.0485Z" fill="#FAFAFA"/>
<path d="M66.9565 66.8229H83.9263L80.8972 65.1378L78.1734 66.6665L74.7385 64.9911L71.6608 66.5915L69.2583 64.8379L66.9565 66.8229Z" fill="#FAFAFA"/>
<path d="M86.5529 72.188C86.5529 72.2336 80.8162 72.2728 73.7388 72.2728C66.6613 72.2728 60.9214 72.2336 60.9214 72.188C60.9214 72.1424 66.658 72.1033 73.7388 72.1033C80.8195 72.1033 86.5529 72.1424 86.5529 72.188Z" fill="#FAFAFA"/>
<path d="M65.9111 70.9657H83.436L80.407 69.2773L77.6831 70.806L74.2515 69.1306L71.1705 70.731L68.5408 69.1306L65.9111 70.9657Z" fill="#FAFAFA"/>
<path d="M85.0009 69.1306L83.436 70.9657H85.9716L85.0009 69.1306Z" fill="#FAFAFA"/>
<path d="M65.9826 70.9658L64.3691 69.072L62.2036 70.9658H65.9826Z" fill="#FAFAFA"/>
<path d="M73.401 70.7571C73.401 70.7571 73.3101 70.8646 73.1218 71.0374C72.9076 71.2297 72.6381 71.4709 72.3232 71.7577C71.6447 72.3607 70.6967 73.1821 69.6448 74.085C68.5929 74.9879 67.6352 75.7963 66.9339 76.3732C66.6028 76.6437 66.3236 76.8686 66.0995 77.0512C65.9015 77.2076 65.7879 77.2924 65.7781 77.2826C65.7716 77.2728 65.869 77.175 66.0573 76.999C66.2716 76.8067 66.5411 76.5655 66.856 76.2787C67.5345 75.6757 68.4825 74.8543 69.5344 73.9514C70.5863 73.0518 71.544 72.2434 72.242 71.6632C72.5732 71.3927 72.8524 71.1678 73.0764 70.9852C73.2744 70.8288 73.388 70.744 73.3978 70.7538L73.401 70.7571Z" fill="#263238"/>
<path d="M79.4233 62.8757L69.4629 86.3734L69.7616 89.1473L80.894 63.4494C80.894 63.4494 80.4005 62.6671 79.4233 62.8757Z" fill="#455A64"/>
<path d="M70.0765 86.3734H68.8395C67.8558 86.3734 67.041 87.1427 66.9793 88.127L66.3527 98.1761C66.2845 99.2973 67.2033 100.226 68.3201 100.161C69.307 100.102 70.0765 99.2843 70.0765 98.2934V86.3734Z" fill="#455A64"/>
<path d="M70.7454 86.908C70.7454 86.908 70.6058 87.2143 70.3688 87.7065C70.2487 87.951 70.109 88.2443 69.9435 88.5638C69.8623 88.7267 69.7487 88.9028 69.5799 89.0331C69.4208 89.17 69.1383 89.2417 68.9241 89.1048C68.713 88.9777 68.6059 88.7561 68.5799 88.541C68.5572 88.3226 68.6124 88.1237 68.6741 87.951C68.8104 87.6055 68.9533 87.3219 69.0669 87.0709C69.2974 86.5787 69.45 86.2756 69.4727 86.2854C69.4955 86.2952 69.3786 86.6113 69.1773 87.1198C69.0799 87.3708 68.9435 87.6739 68.8234 88.0031C68.7682 88.1661 68.726 88.3454 68.7487 88.5214C68.7715 88.6909 68.8656 88.8702 69.015 88.9582C69.1643 89.0494 69.3494 89.0103 69.4857 88.8995C69.6286 88.7919 69.7292 88.642 69.8136 88.4855C69.9792 88.1824 70.1318 87.9021 70.2714 87.6479C70.5343 87.1687 70.7291 86.8884 70.7519 86.9047L70.7454 86.908Z" fill="#263238"/>
<path d="M69.1707 89.0006C69.1707 89.0006 69.1902 89.1636 69.1967 89.4537C69.1967 89.7796 69.2032 90.1936 69.2097 90.6923C69.2097 91.7386 69.2032 93.1825 69.1837 94.7797C69.1707 95.575 69.161 96.3345 69.1512 97.0288C69.1415 97.7165 69.1253 98.3586 68.95 98.8671C68.7811 99.3789 68.4792 99.7178 68.2325 99.8873C68.1091 99.9721 68.0052 100.021 67.9305 100.047C67.8559 100.073 67.8169 100.08 67.8137 100.073C67.8072 100.057 67.9663 100.014 68.1903 99.8352C68.411 99.6592 68.6837 99.3234 68.8331 98.8313C68.9889 98.3391 68.9922 97.7198 68.9922 97.0288C68.9987 96.3345 69.0052 95.575 69.0116 94.7797C69.0311 93.1825 69.0571 91.7386 69.0863 90.6923C69.1025 90.1936 69.1188 89.7796 69.1285 89.4537C69.1415 89.1603 69.1545 89.0006 69.1675 89.0006H69.1707Z" fill="#263238"/>
<path d="M69.6836 88.1368C69.6836 88.3063 69.5472 88.4432 69.3784 88.4432C69.2096 88.4432 69.0732 88.3063 69.0732 88.1368C69.0732 87.9673 69.2096 87.8304 69.3784 87.8304C69.5472 87.8304 69.6836 87.9673 69.6836 88.1368Z" fill="#263238"/>
<path d="M85.5106 84.7729C85.5106 84.7729 85.4846 84.7175 85.4521 84.6067C85.4164 84.4763 85.3742 84.3198 85.319 84.1243C85.2086 83.7038 85.0528 83.0943 84.871 82.3381C84.5074 80.8257 84.0366 78.7298 83.5496 76.409C83.0627 74.0883 82.6439 71.9826 82.3484 70.4539C82.2088 69.7075 82.0919 69.098 82.0075 68.6449C81.9751 68.4461 81.9458 68.2831 81.9231 68.1527C81.9069 68.0387 81.9004 67.98 81.9036 67.98C81.9101 67.98 81.9264 68.0354 81.9556 68.1462C81.9881 68.2766 82.0238 68.4363 82.0725 68.6319C82.1699 69.0817 82.303 69.688 82.4653 70.4311C82.79 71.9729 83.2282 74.0622 83.7152 76.3732C84.2022 78.6939 84.6535 80.7931 84.9879 82.3087C85.1502 83.0486 85.2833 83.6582 85.3807 84.1047C85.4229 84.3035 85.4554 84.4633 85.4813 84.5936C85.5041 84.7077 85.5106 84.7664 85.5041 84.7664L85.5106 84.7729Z" fill="#263238"/>
<path d="M78.9561 62.9049C78.9561 62.9506 77.3491 62.9897 75.3687 62.9897C73.3883 62.9897 71.7812 62.9506 71.7812 62.9049C71.7812 62.8593 73.3883 62.8202 75.3687 62.8202C77.3491 62.8202 78.9561 62.8593 78.9561 62.9049Z" fill="#263238"/>
<path d="M72.9853 62.8757C72.9398 62.8757 72.9009 62.377 72.9009 61.7642C72.9009 61.1514 72.9398 60.6527 72.9853 60.6527C73.0307 60.6527 73.0697 61.1514 73.0697 61.7642C73.0697 62.377 73.0307 62.8757 72.9853 62.8757Z" fill="#263238"/>
<path d="M74.5991 62.8757C74.5536 62.8757 74.5146 62.3868 74.5146 61.787C74.5146 61.1873 74.5536 60.6984 74.5991 60.6984C74.6445 60.6984 74.6835 61.1873 74.6835 61.787C74.6835 62.3868 74.6445 62.8757 74.5991 62.8757Z" fill="#263238"/>
<path d="M76.0243 62.8267C75.9789 62.8267 75.9399 62.3574 75.9399 61.7804C75.9399 61.2035 75.9789 60.7341 76.0243 60.7341C76.0698 60.7341 76.1088 61.2035 76.1088 61.7804C76.1088 62.3574 76.0698 62.8267 76.0243 62.8267Z" fill="#263238"/>
<path d="M77.7289 62.9343C77.6835 62.9343 77.6445 62.4552 77.6445 61.8685C77.6445 61.2818 77.6835 60.8026 77.7289 60.8026C77.7744 60.8026 77.8133 61.2818 77.8133 61.8685C77.8133 62.4552 77.7744 62.9343 77.7289 62.9343Z" fill="#263238"/>
<path d="M77.4336 89.6231L91.9229 136.547L98.2505 133.6L86.4493 89.1439L77.4336 89.6231Z" fill="#306262"/>
<path d="M69.8917 89.9751L70.6449 114.405L58.8794 130.875L65.2459 134.982L79.2255 117.971C79.9268 117.117 80.3066 116.045 80.3034 114.936L80.1832 89.4927L69.8917 89.9718V89.9751Z" fill="#306262"/>
<path d="M73.7487 89.7958C73.7487 89.7958 73.7941 89.8675 73.8363 90.0044C73.8785 90.1445 73.9272 90.3499 73.9532 90.6139C74.0084 91.1354 73.9272 91.8851 73.5733 92.612C73.226 93.3421 72.6903 93.8669 72.2585 94.157C71.8235 94.4503 71.5085 94.5449 71.5053 94.5253C71.4923 94.4992 71.7877 94.3689 72.1903 94.0592C72.5929 93.7528 73.0929 93.2378 73.424 92.537C73.7616 91.8395 73.859 91.1257 73.8363 90.6204C73.8168 90.1119 73.7227 89.8023 73.7519 89.7958H73.7487Z" fill="#455A64"/>
<path d="M86.8937 92.6218C86.8872 92.6381 86.66 92.5794 86.3353 92.3937C86.0107 92.2111 85.5919 91.8819 85.2412 91.4256C84.8906 90.966 84.6861 90.4771 84.5952 90.112C84.501 89.7469 84.5043 89.5123 84.5238 89.509C84.5757 89.4927 84.6893 90.4347 85.3776 91.3213C86.0496 92.2209 86.9262 92.5762 86.897 92.6218H86.8937Z" fill="#455A64"/>
<path d="M76.6412 89.7306C76.6412 89.7306 76.6477 89.773 76.6575 89.8545C76.664 89.9425 76.6737 90.0631 76.6834 90.2163C76.7029 90.5422 76.7354 91.0083 76.7711 91.6015C76.8425 92.8043 76.9464 94.5481 77.0406 96.7027C77.1347 98.8572 77.2126 101.426 77.1964 104.281C77.1867 105.709 77.151 107.205 77.0893 108.756C77.0243 110.301 76.9594 111.931 76.5114 113.531C76.0731 115.145 75.1478 116.517 74.2258 117.752C73.2908 118.991 72.3785 120.174 71.5084 121.302C69.7651 123.554 68.1742 125.566 66.8302 127.247C65.4829 128.929 64.3823 130.279 63.6161 131.208C63.2362 131.664 62.9376 132.023 62.7298 132.274C62.6324 132.388 62.5545 132.479 62.496 132.547C62.4441 132.609 62.4149 132.639 62.4116 132.639C62.4116 132.639 62.4343 132.603 62.483 132.538C62.5382 132.466 62.6129 132.371 62.7038 132.254C62.9083 132 63.1973 131.635 63.5674 131.169C64.3238 130.217 65.4049 128.854 66.7393 127.176C68.0736 125.484 69.6547 123.466 71.3883 121.208C72.2519 120.077 73.1577 118.887 74.0959 117.655C75.0147 116.419 75.9238 115.07 76.3523 113.486C76.7938 111.911 76.862 110.295 76.9269 108.75C76.9919 107.201 77.0308 105.705 77.0438 104.281C77.0698 101.432 77.0049 98.8637 76.9269 96.7092C76.836 94.5612 76.7614 92.8206 76.7127 91.6048C76.6867 91.0083 76.6672 90.5455 76.6542 90.2163C76.651 90.0631 76.6445 89.9457 76.6445 89.8545C76.6445 89.773 76.6445 89.7306 76.6445 89.7306H76.6412Z" fill="#31B9B9"/>
<path d="M95.2669 134.611C95.2214 134.624 92.4002 124.496 88.9686 111.993C85.5337 99.4863 82.7871 89.3395 82.8326 89.3264C82.878 89.3134 85.6993 99.4407 89.1341 111.947C92.569 124.451 95.3156 134.598 95.2701 134.611H95.2669Z" fill="#31B9B9"/>
<path d="M146.18 92.2373H128.145V94.7243H146.18V92.2373Z" fill="#263238"/>
<path d="M146.212 94.7569H128.116V92.208H146.212V94.7569ZM128.177 94.695H146.15V92.2699H128.177V94.695Z" fill="#263238"/>
<path d="M129.817 93.8964L132.414 106.755H142.021L144.53 94.7243L129.817 93.8964Z" fill="#263238"/>
<path d="M129.817 105.539L131.203 107.449H142.878L144.53 105.539H129.817Z" fill="#263238"/>
<path d="M136.486 94.2745C136.45 94.2745 136.404 88.3161 136.384 80.9725C136.365 73.6223 136.375 67.6672 136.411 67.6672C136.446 67.6672 136.492 73.6223 136.512 80.9725C136.531 88.3194 136.522 94.2778 136.486 94.2778V94.2745Z" fill="#263238"/>
<path d="M140.504 79.3655C140.504 79.3655 140.491 79.4144 140.455 79.5057C140.413 79.6067 140.361 79.7338 140.293 79.8903C140.257 79.975 140.218 80.0663 140.176 80.1674C140.141 80.2717 140.098 80.3857 140.056 80.5063C140.014 80.6269 139.965 80.7573 139.917 80.8942C139.868 81.0311 139.829 81.1811 139.783 81.3375C139.585 81.9536 139.43 82.713 139.28 83.554C139.15 84.4014 139.05 85.3369 139.001 86.3278C138.913 88.3063 139.024 90.099 139.144 91.3931C139.202 92.0384 139.261 92.5632 139.303 92.9218C139.322 93.0913 139.335 93.2282 139.348 93.339C139.358 93.4335 139.361 93.4857 139.355 93.4857C139.348 93.4857 139.339 93.4368 139.322 93.3422C139.303 93.2347 139.28 93.0978 139.254 92.9283C139.196 92.5697 139.124 92.0482 139.053 91.3996C138.91 90.1056 138.784 88.3063 138.871 86.3213C138.92 85.3271 139.024 84.3851 139.163 83.5344C139.322 82.6869 139.488 81.9275 139.699 81.3114C139.748 81.155 139.79 81.0083 139.842 80.8681C139.894 80.7312 139.946 80.6041 139.991 80.4803C140.037 80.3597 140.082 80.2488 140.121 80.1445C140.167 80.0435 140.212 79.9522 140.251 79.8707C140.326 79.7175 140.387 79.5937 140.436 79.4926C140.478 79.4079 140.504 79.3623 140.507 79.3655H140.504Z" fill="#263238"/>
<path d="M140.043 74.5481C140.043 74.5481 140.027 74.6165 139.985 74.7436C139.939 74.8805 139.874 75.0663 139.796 75.2977C139.754 75.4183 139.709 75.552 139.66 75.6954C139.615 75.8453 139.566 76.0051 139.514 76.1778C139.41 76.5233 139.287 76.9145 139.176 77.3545C139.118 77.5729 139.06 77.8043 138.995 78.0422C138.939 78.2834 138.884 78.5344 138.826 78.7952C138.699 79.3134 138.608 79.8773 138.491 80.464C138.293 81.6472 138.118 82.9543 137.998 84.3363C137.884 85.7183 137.836 87.0352 137.816 88.2379C137.813 89.4374 137.829 90.5196 137.878 91.4257C137.894 91.8788 137.923 92.2895 137.946 92.648C137.965 93.0098 137.988 93.3195 138.011 93.5705C138.03 93.8149 138.043 94.0072 138.056 94.1539C138.066 94.2876 138.066 94.3593 138.063 94.3593C138.06 94.3593 138.047 94.2908 138.03 94.1572C138.014 94.0138 137.991 93.8182 137.962 93.577C137.933 93.326 137.9 93.0164 137.875 92.6546C137.845 92.296 137.81 91.8853 137.787 91.429C137.725 90.5229 137.702 89.4374 137.699 88.2347C137.709 87.0319 137.758 85.7086 137.871 84.3233C137.991 82.9413 138.17 81.6277 138.378 80.4412C138.498 79.8513 138.592 79.2874 138.725 78.7691C138.787 78.5083 138.845 78.2574 138.9 78.0162C138.965 77.7782 139.03 77.5468 139.089 77.3284C139.202 76.8884 139.332 76.4972 139.446 76.155C139.501 75.9855 139.553 75.8225 139.602 75.6758C139.657 75.5324 139.706 75.3988 139.751 75.2782C139.839 75.05 139.91 74.8675 139.962 74.7306C140.011 74.6067 140.04 74.5415 140.043 74.5448V74.5481Z" fill="#263238"/>
<path d="M135.345 95.3273C135.345 95.3273 135.339 95.3044 135.336 95.2588C135.332 95.2067 135.326 95.1382 135.319 95.0535C135.306 94.8644 135.29 94.6004 135.267 94.2647C135.225 93.5704 135.164 92.5795 135.086 91.3637C134.93 88.9158 134.703 85.5292 134.294 81.8101C134.083 79.9489 133.839 78.1823 133.589 76.5786C133.456 75.78 133.333 75.0173 133.193 74.31C133.066 73.5994 132.93 72.941 132.803 72.3413C132.683 71.7383 132.553 71.2005 132.446 70.7246C132.342 70.2487 132.242 69.8412 132.157 69.5088C132.076 69.1828 132.014 68.9253 131.969 68.7395C131.95 68.658 131.937 68.5929 131.924 68.5374C131.914 68.4918 131.911 68.469 131.914 68.469C131.914 68.469 131.924 68.4918 131.937 68.5342C131.953 68.5863 131.972 68.6515 131.995 68.733C132.047 68.9155 132.115 69.1698 132.206 69.4957C132.297 69.8249 132.407 70.2324 132.518 70.7083C132.631 71.1842 132.768 71.722 132.894 72.3217C133.027 72.9215 133.167 73.5799 133.3 74.2905C133.443 74.9978 133.57 75.7605 133.706 76.5591C133.966 78.1627 134.212 79.9326 134.423 81.7938C134.836 85.5194 135.047 88.906 135.18 91.3572C135.245 92.5828 135.293 93.5769 135.319 94.2614C135.332 94.5971 135.342 94.8611 135.349 95.0502C135.349 95.1349 135.349 95.2034 135.352 95.2555C135.352 95.3012 135.352 95.3273 135.352 95.3273H135.345Z" fill="#263238"/>
<path d="M136.339 70.529C136.261 69.6848 135.41 69.0492 134.566 69.0394C133.722 69.0297 132.936 69.5381 132.42 70.2096C131.904 70.8811 131.618 71.6992 131.388 72.5141C130.82 74.5024 130.508 76.5917 130.752 78.6452C130.995 80.6987 131.826 82.7228 133.294 84.1733C133.534 84.408 133.842 84.6459 134.17 84.5742C134.349 84.5351 134.495 84.4112 134.631 84.2874C137.514 81.6733 139.18 77.7553 139.066 73.8537C139.043 73.0714 138.943 72.2598 138.511 71.6079C138.079 70.956 137.076 70.265 136.342 70.529" fill="#31B9B9"/>
<path d="M130.035 63.7688C129.639 64.4892 129.243 65.2095 128.847 65.9299C128.817 65.9788 128.782 66.0374 128.726 66.0407C128.665 66.0472 128.616 65.9853 128.584 65.9331C127.535 64.3197 126.49 62.703 125.441 61.0895L126.165 60.6788L130.038 63.7688H130.035Z" fill="#0D8080"/>
<g opacity="0.2">
<path d="M130.035 63.7688C129.639 64.4892 129.243 65.2095 128.847 65.9299C128.817 65.9788 128.782 66.0374 128.726 66.0407C128.665 66.0472 128.616 65.9853 128.584 65.9331C127.535 64.3197 126.49 62.703 125.441 61.0895L126.165 60.6788L130.038 63.7688H130.035Z" fill="#0D8080"/>
</g>
<path d="M136.411 67.664C132.836 65.5453 129.262 63.4299 125.687 61.3112C125.577 61.246 125.46 61.171 125.428 61.0472C125.385 60.8875 125.506 60.7343 125.619 60.6169C127.093 59.0882 129.236 58.2049 131.349 58.3581C133.463 58.5113 135.495 59.7369 136.531 61.5915C137.566 63.4494 137.599 65.9038 136.414 67.664" fill="#31B9B9"/>
<path d="M127.236 59.2838C127.236 59.2838 127.285 59.274 127.375 59.2675C127.466 59.2642 127.606 59.2446 127.781 59.2479C128.132 59.2381 128.645 59.2609 129.268 59.3652C129.892 59.4696 130.622 59.6684 131.388 60.0106C132.151 60.3496 132.943 60.8451 133.664 61.4937C134.378 62.1489 134.946 62.8888 135.359 63.6189C135.774 64.349 136.047 65.0596 136.209 65.6724C136.375 66.2852 136.45 66.7936 136.476 67.1457C136.495 67.3217 136.492 67.4586 136.495 67.5531C136.495 67.6476 136.495 67.6965 136.492 67.6965C136.479 67.6965 136.466 67.501 136.424 67.1522C136.381 66.8034 136.294 66.3015 136.122 65.6985C135.784 64.499 134.995 62.8822 133.576 61.5915C132.154 60.3007 130.476 59.6782 129.252 59.4565C128.638 59.3424 128.129 59.3066 127.781 59.2968C127.431 59.2903 127.236 59.2968 127.236 59.2838Z" fill="#263238"/>
<path d="M134.959 63.2799C134.959 63.2799 134.758 63.3907 134.417 63.5276C134.076 63.6613 133.599 63.834 133.063 64.0068C132.528 64.1763 132.041 64.3132 131.684 64.4012C131.326 64.4892 131.102 64.5316 131.099 64.512C131.096 64.4957 131.31 64.4207 131.661 64.3132C132.057 64.1893 132.518 64.0459 133.028 63.8862C133.534 63.7232 133.995 63.5733 134.388 63.4461C134.735 63.3321 134.953 63.2669 134.959 63.2832V63.2799Z" fill="#263238"/>
<path d="M133.271 58.7264C133.307 58.7264 133.382 59.261 133.399 59.9259C133.415 60.5941 133.366 61.132 133.333 61.132C133.297 61.132 133.288 60.5909 133.271 59.9292C133.255 59.2675 133.235 58.7297 133.271 58.7264Z" fill="#263238"/>
<path d="M125.596 61.1905C125.59 61.1742 125.889 61.0667 126.376 60.9167C126.862 60.7668 127.541 60.5745 128.297 60.392C129.054 60.2094 129.745 60.0693 130.245 59.9813C130.749 59.8933 131.06 59.8541 131.064 59.8704C131.067 59.89 130.758 59.9584 130.262 60.0725C129.765 60.1834 129.08 60.3365 128.323 60.5191C127.57 60.7016 126.888 60.8776 126.395 61.0047C125.902 61.1319 125.596 61.2101 125.59 61.1905H125.596Z" fill="#263238"/>
<path d="M131.466 68.531C130.544 67.8302 129.57 67.6901 128.411 67.7357C127.255 67.7814 126.129 68.1366 125.07 68.6027C123.262 69.3981 121.564 70.5682 120.483 72.2273C119.402 73.8864 119.025 76.0833 119.837 77.8891C119.918 78.0683 120.022 78.2574 120.204 78.3356C120.395 78.4171 120.613 78.3552 120.808 78.29C122.863 77.6153 124.934 76.9373 126.827 75.8812C128.716 74.8251 130.44 73.3616 131.453 71.4418C131.696 70.9822 131.901 70.4867 131.94 69.9685C131.979 69.4502 131.836 68.8961 131.469 68.531" fill="#31B9B9"/>
<path d="M131.486 68.3127C131.486 68.3127 131.437 68.3388 131.336 68.3746C131.226 68.4138 131.083 68.4626 130.905 68.5246C130.81 68.5572 130.706 68.5898 130.593 68.6289C130.479 68.6713 130.359 68.7201 130.229 68.7723C129.969 68.8766 129.668 68.9842 129.349 69.1374C129.187 69.2123 129.022 69.2873 128.846 69.3688C128.671 69.4503 128.496 69.5481 128.311 69.6426C127.937 69.8251 127.561 70.0598 127.158 70.301C126.369 70.803 125.535 71.4027 124.723 72.1133C123.918 72.8304 123.217 73.5866 122.623 74.3069C122.337 74.6752 122.058 75.0208 121.827 75.3695C121.71 75.5423 121.59 75.702 121.486 75.865C121.386 76.0279 121.288 76.1877 121.194 76.3376C120.999 76.6342 120.856 76.921 120.72 77.1688C120.652 77.2926 120.587 77.4067 120.532 77.5143C120.48 77.6218 120.431 77.7196 120.389 77.8109C120.308 77.9804 120.24 78.114 120.188 78.2216C120.139 78.3161 120.113 78.3617 120.11 78.3617C120.106 78.3617 120.126 78.3096 120.165 78.2118C120.21 78.1042 120.272 77.9641 120.347 77.7913C120.389 77.7001 120.431 77.599 120.48 77.4882C120.532 77.3774 120.593 77.2633 120.658 77.1362C120.792 76.8852 120.928 76.5951 121.119 76.292C121.21 76.1388 121.308 75.979 121.405 75.8128C121.506 75.6466 121.626 75.4836 121.739 75.3076C121.967 74.9556 122.246 74.6035 122.532 74.232C123.126 73.5018 123.83 72.7391 124.642 72.0155C125.46 71.3017 126.301 70.6954 127.1 70.1967C127.505 69.9588 127.888 69.7273 128.265 69.5448C128.453 69.4503 128.629 69.3525 128.807 69.2743C128.986 69.196 129.155 69.1211 129.317 69.0494C129.638 68.8994 129.944 68.7984 130.21 68.7006C130.343 68.6517 130.466 68.6061 130.58 68.567C130.693 68.5344 130.801 68.5018 130.898 68.4724C131.077 68.4203 131.223 68.3779 131.336 68.3453C131.437 68.3192 131.489 68.3062 131.492 68.3095L131.486 68.3127Z" fill="#263238"/>
<path d="M124.281 72.2306C124.291 72.2664 123.288 72.5891 122.038 72.9574C120.788 73.3225 119.769 73.593 119.759 73.5604C119.749 73.5278 120.752 73.2019 122.002 72.8336C123.252 72.4685 124.272 72.198 124.281 72.2306Z" fill="#263238"/>
<path d="M124.187 77.198C124.171 77.198 124.148 76.9307 124.138 76.4972C124.125 76.0637 124.125 75.4639 124.142 74.8023C124.161 74.1406 124.197 73.5408 124.232 73.1073C124.268 72.6738 124.304 72.4098 124.32 72.4098C124.34 72.4098 124.336 72.6803 124.32 73.1138C124.307 73.5897 124.288 74.1667 124.268 74.8055C124.252 75.4444 124.239 76.0213 124.226 76.4972C124.213 76.9307 124.203 77.198 124.184 77.198H124.187Z" fill="#263238"/>
<path d="M128.43 75.0305C128.395 75.0305 128.281 73.8147 128.177 72.3088C128.073 70.803 128.018 69.5807 128.054 69.5774C128.09 69.5774 128.203 70.7932 128.307 72.2991C128.411 73.805 128.466 75.0273 128.43 75.0305Z" fill="#263238"/>
<path d="M123.151 69.46C123.151 69.4437 123.427 69.4339 123.869 69.4371C124.314 69.4371 124.924 69.4534 125.599 69.4763C126.275 69.4991 126.888 69.5252 127.33 69.5512C127.771 69.5773 128.047 69.6034 128.047 69.6197C128.047 69.636 127.771 69.6458 127.33 69.6425C126.885 69.6425 126.275 69.6262 125.596 69.6034C124.921 69.5806 124.307 69.5545 123.866 69.5284C123.424 69.5023 123.148 69.4763 123.151 69.46Z" fill="#263238"/>
<path d="M133.751 84.7503C133.751 84.7503 133.742 84.6981 133.735 84.6036C133.729 84.4928 133.725 84.3526 133.716 84.1798C133.699 83.8115 133.696 83.2802 133.709 82.6218C133.722 81.9634 133.764 81.1811 133.842 80.3141C133.927 79.447 134.047 78.4985 134.219 77.5109C134.397 76.5233 134.608 75.5911 134.829 74.7469C135.053 73.9059 135.284 73.1562 135.498 72.5369C135.712 71.9143 135.897 71.4156 136.04 71.0767C136.105 70.9169 136.16 70.7898 136.203 70.6855C136.241 70.5975 136.264 70.5519 136.267 70.5519C136.271 70.5519 136.258 70.604 136.225 70.6953C136.19 70.7996 136.141 70.9332 136.086 71.093C135.959 71.4385 135.787 71.9404 135.582 72.563C135.378 73.1856 135.16 73.9352 134.943 74.7762C134.732 75.6171 134.521 76.5461 134.346 77.5305C134.173 78.5148 134.05 79.4601 133.959 80.3239C133.875 81.1876 133.823 81.9666 133.8 82.6218C133.774 83.277 133.764 83.8083 133.764 84.1766C133.764 84.3493 133.761 84.4895 133.758 84.6003C133.758 84.6981 133.751 84.747 133.748 84.747L133.751 84.7503Z" fill="#263238"/>
<path d="M134.317 77.4066C134.317 77.4066 134.167 77.5989 133.888 77.8792C133.612 78.1563 133.216 78.5311 132.768 78.9255C132.317 79.3199 131.898 79.6654 131.589 79.9034C131.278 80.1446 131.08 80.2815 131.067 80.2685C131.057 80.2554 131.236 80.0924 131.531 79.8349C131.859 79.5481 132.252 79.2059 132.684 78.831C133.112 78.4497 133.498 78.1041 133.826 77.8141C134.119 77.5533 134.304 77.3968 134.317 77.4099V77.4066Z" fill="#263238"/>
<path d="M137.709 80.1511C137.709 80.1511 137.524 79.9164 137.254 79.5187C136.962 79.0885 136.599 78.5572 136.196 77.9672C135.784 77.3838 135.414 76.8557 135.115 76.4287C134.836 76.0376 134.667 75.7899 134.683 75.7801C134.696 75.7703 134.891 75.9952 135.19 76.3733C135.488 76.7514 135.884 77.286 136.303 77.8922C136.722 78.4985 137.082 79.0559 137.332 79.4698C137.582 79.8805 137.725 80.1446 137.712 80.1543L137.709 80.1511Z" fill="#263238"/>
<path d="M135.933 71.5199C135.953 71.5493 134.826 72.312 133.414 73.2214C132.005 74.1308 130.846 74.8446 130.826 74.8153C130.807 74.7859 131.933 74.0232 133.346 73.1138C134.755 72.2044 135.914 71.4906 135.933 71.5199Z" fill="#263238"/>
<path d="M139.112 74.962C139.086 74.9881 138.323 74.2775 137.407 73.3812C136.489 72.4815 135.768 71.7319 135.791 71.7058C135.817 71.6797 136.579 72.387 137.495 73.2866C138.411 74.1863 139.135 74.9359 139.112 74.962Z" fill="#263238"/>
<path d="M139.91 74.8936L140.878 74.8121C141.566 74.7534 142.231 74.5513 142.832 74.2123C143.127 74.0461 143.426 73.8799 143.744 73.7527C144.942 73.2703 146.277 73.3551 147.562 73.2931C149.663 73.1888 151.744 72.6543 153.64 71.7318C153.75 71.6797 153.848 71.5982 153.906 71.4906C154.104 71.1256 153.737 70.8029 153.419 70.6073C151.789 69.6001 150.13 68.5767 148.28 68.0747C146.429 67.5727 144.332 67.6575 142.754 68.7494C140.904 70.0304 140.228 72.6575 139.913 74.8936" fill="#31B9B9"/>
<path d="M153.926 71.3733C153.926 71.3733 153.867 71.3504 153.76 71.295C153.643 71.2331 153.491 71.1549 153.302 71.0538C152.903 70.8452 152.332 70.5323 151.608 70.1868C150.884 69.8413 150.007 69.4534 148.984 69.1731C147.968 68.8895 146.796 68.7396 145.585 68.896C144.381 69.0558 143.27 69.5251 142.485 70.2324C141.696 70.9365 141.212 71.7872 140.871 72.5076C140.53 73.2344 140.323 73.857 140.17 74.2807C140.099 74.4828 140.04 74.6458 139.998 74.7697C139.959 74.8805 139.933 74.9392 139.93 74.9392C139.926 74.9392 139.939 74.8772 139.972 74.7631C140.011 74.636 140.06 74.473 140.121 74.2644C140.261 73.8342 140.456 73.2084 140.787 72.4717C141.121 71.7383 141.598 70.8713 142.404 70.1444C143.202 69.4176 144.338 68.9319 145.566 68.7689C146.796 68.6092 147.988 68.7689 149.014 69.059C150.043 69.3491 150.922 69.75 151.643 70.1053C152.364 70.4671 152.932 70.7898 153.322 71.0115C153.507 71.119 153.656 71.207 153.77 71.2755C153.87 71.3374 153.922 71.37 153.922 71.3765L153.926 71.3733Z" fill="#263238"/>
<path d="M151.601 72.625C151.581 72.6543 150.315 71.8329 148.773 70.7899C147.231 69.7468 145.997 68.8765 146.017 68.8472C146.036 68.8179 147.302 69.6393 148.845 70.6823C150.387 71.7253 151.62 72.5956 151.601 72.625Z" fill="#263238"/>
<path d="M150.387 68.7265C150.393 68.7591 149.955 68.8764 149.4 68.9253C148.845 68.9775 148.39 68.9449 148.394 68.9123C148.394 68.8764 148.842 68.8504 149.39 68.7982C149.939 68.7493 150.384 68.6907 150.39 68.7265H150.387Z" fill="#263238"/>
<path d="M144.712 67.7031C144.741 67.7226 144.556 68.0942 144.296 68.5375C144.036 68.9808 143.799 69.323 143.77 69.3067C143.741 69.2872 143.926 68.9156 144.186 68.4723C144.445 68.029 144.682 67.6868 144.712 67.7031Z" fill="#263238"/>
<path d="M145.845 73.3745C145.845 73.3745 145.601 73.267 145.235 73.0421C144.868 72.8204 144.374 72.4912 143.848 72.1066C143.319 71.722 142.855 71.3569 142.52 71.0896C142.186 70.8224 141.985 70.6529 141.994 70.6366C142.004 70.6235 142.225 70.7669 142.576 71.0147C142.955 71.2917 143.416 71.6274 143.923 71.999C144.449 72.3836 144.933 72.7194 145.283 72.9606C145.634 73.2018 145.851 73.3517 145.842 73.368L145.845 73.3745Z" fill="#263238"/>
<path d="M141.335 79.0234C140.413 78.7789 139.313 79.6785 139.121 80.6205C138.93 81.5592 139.28 82.5208 139.693 83.3846C140.602 85.3011 141.858 87.0776 143.51 88.4009C145.163 89.7243 147.234 90.5685 149.348 90.5587C148.958 88.7399 149.452 86.8364 149.234 84.9882C149.046 83.3748 148.296 81.833 147.143 80.689C145.994 79.5449 144.449 78.8082 142.842 78.6355C142.251 78.5703 141.569 78.479 141.335 79.0266" fill="#31B9B9"/>
<path d="M149.348 90.5555C149.348 90.5555 149.299 90.5392 149.218 90.4935C149.134 90.4479 149.013 90.3729 148.874 90.2621C148.585 90.0405 148.251 89.6167 147.962 89.0398C147.816 88.753 147.65 88.44 147.488 88.0978C147.332 87.7523 147.166 87.384 146.991 86.9961C146.816 86.6115 146.621 86.2106 146.381 85.8194C146.14 85.4283 145.858 85.0436 145.54 84.6721C144.907 83.9256 144.228 83.2803 143.64 82.6642C143.05 82.0514 142.553 81.4582 142.192 80.9204C141.829 80.3826 141.611 79.9034 141.485 79.5644C141.426 79.3949 141.384 79.2613 141.361 79.1668C141.339 79.0755 141.329 79.0266 141.332 79.0234C141.345 79.0201 141.397 79.2124 141.53 79.5449C141.667 79.8741 141.897 80.3435 142.267 80.8682C142.631 81.393 143.131 81.9732 143.725 82.5795C144.316 83.189 144.998 83.8311 145.637 84.5841C145.955 84.9589 146.244 85.35 146.488 85.7477C146.731 86.1454 146.926 86.5528 147.098 86.9439C147.27 87.3318 147.432 87.7034 147.585 88.0489C147.741 88.3912 147.9 88.7073 148.043 88.9942C148.322 89.5743 148.63 89.9916 148.906 90.223C149.176 90.4577 149.358 90.5424 149.351 90.5555H149.348Z" fill="#263238"/>
<path d="M144.575 89.043C144.559 89.0397 144.588 88.8018 144.66 88.4204C144.731 88.0391 144.851 87.5143 145.01 86.9439C145.169 86.3735 145.341 85.865 145.478 85.4999C145.614 85.1349 145.715 84.9165 145.731 84.923C145.747 84.9295 145.679 85.1577 145.565 85.5293C145.452 85.8976 145.293 86.4093 145.134 86.9765C144.974 87.5436 144.841 88.0619 144.747 88.4367C144.653 88.8116 144.591 89.043 144.575 89.0397V89.043Z" fill="#263238"/>
<path d="M149.172 84.5775C149.166 84.5938 148.919 84.5318 148.523 84.4275C148.124 84.3232 147.575 84.1798 146.965 84.0429C146.354 83.906 145.796 83.7985 145.393 83.7202C144.991 83.642 144.741 83.5931 144.741 83.5768C144.741 83.5605 144.997 83.5768 145.406 83.6322C145.815 83.6876 146.377 83.7789 146.994 83.9191C147.607 84.0592 148.156 84.2157 148.549 84.3428C148.942 84.4699 149.179 84.5644 149.172 84.5807V84.5775Z" fill="#263238"/>
<path d="M141.147 85.8748C141.131 85.8716 141.166 85.5945 141.248 85.1512C141.329 84.7079 141.459 84.1017 141.631 83.4367C141.803 82.7718 141.988 82.1786 142.131 81.7516C142.277 81.3246 142.377 81.0671 142.394 81.0736C142.41 81.0801 142.338 81.3474 142.215 81.7809C142.092 82.2144 141.923 82.8077 141.751 83.4726C141.579 84.1343 141.436 84.7373 141.332 85.1741C141.228 85.6108 141.16 85.8814 141.144 85.8781L141.147 85.8748Z" fill="#263238"/>
<path d="M147.055 80.6824C147.052 80.7182 145.9 80.6237 144.481 80.4738C143.062 80.3238 141.916 80.1707 141.919 80.1348C141.923 80.0989 143.075 80.1935 144.494 80.3434C145.913 80.4933 147.059 80.6465 147.055 80.6824Z" fill="#263238"/>
<path d="M146.212 94.7145C146.212 94.7503 142.16 94.7797 137.164 94.7797C132.167 94.7797 128.116 94.7503 128.116 94.7145C128.116 94.6786 132.167 94.6493 137.164 94.6493C142.16 94.6493 146.212 94.6786 146.212 94.7145Z" fill="#455A64"/>
<path d="M143.394 99.9492C143.394 99.9851 140.663 100.014 137.297 100.014C133.93 100.014 131.2 99.9851 131.2 99.9492C131.2 99.9134 133.93 99.884 137.297 99.884C140.663 99.884 143.394 99.9134 143.394 99.9492Z" fill="#455A64"/>
<path d="M143.498 100.699C143.498 100.735 140.767 100.764 137.401 100.764C134.034 100.764 131.304 100.735 131.304 100.699C131.304 100.663 134.034 100.634 137.401 100.634C140.767 100.634 143.498 100.663 143.498 100.699Z" fill="#455A64"/>
<path d="M143.498 99.3333C143.498 99.3691 140.673 99.3985 137.193 99.3985C133.713 99.3985 130.888 99.3691 130.888 99.3333C130.888 99.2974 133.709 99.2681 137.193 99.2681C140.677 99.2681 143.498 99.2974 143.498 99.3333Z" fill="#455A64"/>
<path d="M7.96706 114.18C9.10985 114.229 10.178 114.865 10.9279 115.735C11.6746 116.605 12.1291 117.697 12.4148 118.809C12.97 120.963 12.5966 123.493 11.9668 125.628C9.65852 124.777 8.24951 122.283 7.61644 120.973C6.61325 118.903 6.0516 114.552 7.97031 114.18" fill="#31B9B9"/>
<path d="M15.2753 128.261C14.5546 127.202 14.5481 125.735 15.1357 124.594C15.7234 123.453 16.8402 122.639 18.0674 122.27C18.6355 122.101 19.2913 122.032 19.7783 122.368C20.2361 122.681 20.4276 123.287 20.3659 123.838C20.301 124.389 20.0186 124.891 19.6874 125.334C18.5479 126.856 17.1681 128.118 15.2753 128.258" fill="#31B9B9"/>
<g opacity="0.3">
<path d="M15.2753 128.261C14.5546 127.202 14.5481 125.735 15.1357 124.594C15.7234 123.453 16.8402 122.639 18.0674 122.27C18.6355 122.101 19.2913 122.032 19.7783 122.368C20.2361 122.681 20.4276 123.287 20.3659 123.838C20.301 124.389 20.0186 124.891 19.6874 125.334C18.5479 126.856 17.1681 128.118 15.2753 128.258" fill="#0D8080"/>
</g>
<path d="M12.8111 130.54C11.3956 128.235 8.8146 126.697 6.11997 126.557C5.43495 126.521 4.61357 126.654 4.32138 127.277C4.02919 127.903 4.45124 128.626 4.92848 129.122C6.91213 131.192 10.2106 131.86 12.8371 130.722" fill="#31B9B9"/>
<g opacity="0.3">
<path d="M12.8111 130.54C11.3956 128.235 8.8146 126.697 6.11997 126.557C5.43495 126.521 4.61357 126.654 4.32138 127.277C4.02919 127.903 4.45124 128.626 4.92848 129.122C6.91213 131.192 10.2106 131.86 12.8371 130.722" fill="#0D8080"/>
</g>
<path d="M15.2945 135.644C15.2945 135.644 15.2523 135.484 15.2004 135.188C15.1484 134.891 15.0803 134.464 15.0088 133.933C14.8725 132.873 14.7069 131.384 14.9147 129.748C15.1257 128.111 15.7815 126.713 16.46 125.878C16.7977 125.458 17.1158 125.158 17.3561 124.976C17.4697 124.878 17.5736 124.819 17.6353 124.774C17.7002 124.731 17.7359 124.708 17.7392 124.715C17.7652 124.744 17.1808 125.093 16.5412 125.94C15.8919 126.778 15.2686 128.154 15.0575 129.764C14.8498 131.377 14.9991 132.857 15.1095 133.92C15.1679 134.431 15.2166 134.855 15.2556 135.178C15.288 135.474 15.3043 135.641 15.2945 135.641V135.644Z" fill="#263238"/>
<path d="M8.68469 117.459C8.68469 117.459 8.7204 117.518 8.77559 117.635C8.83403 117.769 8.91194 117.942 9.00934 118.157C9.21063 118.61 9.48983 119.268 9.83072 120.086C10.5125 121.719 11.4248 123.988 12.3793 126.517C13.3305 129.047 14.1421 131.354 14.707 133.033C14.9895 133.871 15.2135 134.552 15.3596 135.025C15.4278 135.25 15.4862 135.432 15.5284 135.569C15.5641 135.693 15.5836 135.761 15.5771 135.761C15.5739 135.761 15.5446 135.699 15.4992 135.579C15.4505 135.442 15.3856 135.266 15.3044 135.044C15.1356 134.562 14.8986 133.89 14.6064 133.069C14.0188 131.4 13.1909 129.099 12.2397 126.57C11.2884 124.043 10.3924 121.768 9.73332 120.126C9.40867 119.317 9.14569 118.655 8.95415 118.18C8.86974 117.961 8.79831 117.785 8.74637 117.648C8.70092 117.528 8.67819 117.462 8.68469 117.459Z" fill="#263238"/>
<path d="M7.2173 128.339C7.2173 128.339 7.37638 128.339 7.65883 128.366C7.80168 128.375 7.97699 128.395 8.17503 128.437C8.37307 128.476 8.60357 128.509 8.85031 128.584C8.97368 128.62 9.10354 128.656 9.23665 128.692C9.36976 128.731 9.50611 128.786 9.64896 128.835C9.93791 128.929 10.2268 129.07 10.5353 129.21C11.1424 129.516 11.7819 129.907 12.3923 130.399C12.9994 130.901 13.5124 131.449 13.9344 131.98C14.1357 132.254 14.3305 132.512 14.4831 132.776C14.561 132.906 14.6422 133.027 14.7071 133.151C14.772 133.274 14.8337 133.395 14.8921 133.509C15.0155 133.734 15.0934 133.956 15.1746 134.141C15.2558 134.327 15.3109 134.497 15.3499 134.634C15.4343 134.907 15.4765 135.061 15.4668 135.064C15.4343 135.074 15.272 134.458 14.8012 133.555C14.7396 133.444 14.6779 133.327 14.6097 133.203C14.5415 133.082 14.4571 132.965 14.3792 132.838C14.2266 132.58 14.0286 132.329 13.8273 132.062C13.4052 131.54 12.8955 131.003 12.3014 130.51C11.6975 130.025 11.071 129.634 10.4768 129.327C10.1749 129.187 9.88921 129.044 9.60676 128.942C9.46716 128.89 9.33405 128.832 9.20419 128.793C9.07108 128.753 8.94446 128.714 8.82434 128.678C7.84713 128.398 7.21405 128.366 7.2173 128.33V128.339Z" fill="#263238"/>
<path d="M10.8989 133.564H19.2198V137.913C19.2198 140.123 17.431 141.919 15.2298 141.919H14.8889C12.6878 141.919 10.8989 140.123 10.8989 137.913V133.564Z" fill="#306262"/>
<path d="M10.8989 133.564H19.2198V137.913C19.2198 140.123 17.431 141.919 15.2298 141.919H14.8889C12.6878 141.919 10.8989 140.123 10.8989 137.913V133.564Z" fill="#0D8080"/>
<path d="M16.5188 133.587C16.5188 133.587 16.4961 133.682 16.4246 133.835C16.3532 133.988 16.2298 134.207 16.0545 134.454C15.7072 134.953 15.1 135.576 14.2657 136.003C13.4313 136.43 12.571 136.56 11.9671 136.55C11.662 136.55 11.4185 136.518 11.2496 136.488C11.0841 136.459 10.9932 136.43 10.9932 136.42C10.9964 136.394 11.3665 136.465 11.9639 136.446C12.558 136.43 13.3891 136.289 14.1975 135.872C15.0091 135.458 15.6098 134.865 15.9701 134.392C16.337 133.916 16.4928 133.574 16.5188 133.587Z" fill="#FAFAFA"/>
<path d="M19.1387 139.21C19.1387 139.21 19.038 139.203 18.8692 139.151C18.7004 139.102 18.4602 139.005 18.1842 138.842C17.6388 138.525 16.957 137.88 16.6291 136.941C16.3077 136.003 16.4473 135.07 16.6811 134.484C16.7979 134.187 16.9278 133.959 17.0284 133.815C17.1291 133.669 17.1973 133.597 17.2037 133.604C17.2297 133.62 16.9797 133.93 16.7752 134.519C16.5707 135.1 16.457 135.996 16.7655 136.896C17.0771 137.792 17.7199 138.428 18.2361 138.757C18.7588 139.096 19.1452 139.184 19.1354 139.213L19.1387 139.21Z" fill="#FAFAFA"/>
<path d="M17.009 141.687C16.9732 141.687 17.0577 141.195 16.8336 140.455C16.7233 140.087 16.5187 139.673 16.2135 139.269C15.9051 138.868 15.4863 138.486 14.9831 138.193C13.9637 137.603 12.8501 137.541 12.0969 137.636C11.3307 137.73 10.886 137.932 10.8795 137.903C10.8762 137.896 10.9834 137.838 11.1879 137.759C11.3924 137.681 11.6976 137.59 12.0839 137.531C12.8469 137.407 13.9994 137.453 15.0578 138.063C15.5805 138.366 16.009 138.763 16.3239 139.184C16.6356 139.604 16.8369 140.041 16.9343 140.422C17.0349 140.804 17.0576 141.126 17.0479 141.348C17.0382 141.566 17.0154 141.687 17.009 141.687Z" fill="#FAFAFA"/>
<path d="M110.087 34.9093C110.042 34.9093 110.003 28.035 110.003 19.557C110.003 11.0791 110.042 4.20154 110.087 4.20154C110.133 4.20154 110.172 11.0758 110.172 19.557C110.172 28.0382 110.133 34.9093 110.087 34.9093Z" fill="#263238"/>
<path d="M132.833 34.9093C132.787 34.9093 132.749 28.035 132.749 19.557C132.749 11.0791 132.787 4.20154 132.833 4.20154C132.878 4.20154 132.917 11.0758 132.917 19.557C132.917 28.0382 132.878 34.9093 132.833 34.9093Z" fill="#263238"/>
<path d="M135.443 27.4711H107.607C105.776 27.4711 104.289 25.9815 104.289 24.1399V19.456C104.289 17.6176 105.773 16.1248 107.607 16.1248H135.618C137.449 16.1248 138.936 17.6143 138.936 19.456V23.9638C138.936 25.9 137.371 27.4711 135.443 27.4711Z" fill="#31B9B9"/>
<path d="M108.516 24.0257C108.805 24.0257 109.042 23.7943 109.045 23.5042L109.071 20.2252L113.685 24.9351C113.889 25.1437 114.22 25.147 114.428 24.9417C114.636 24.7363 114.639 24.4038 114.434 24.1952L109.821 19.4853L113.087 19.5113C113.376 19.5113 113.613 19.2799 113.616 18.9898C113.616 18.6997 113.386 18.4618 113.097 18.4585L108.039 18.4161L107.997 23.4944C107.997 23.7845 108.227 24.0225 108.516 24.0257Z" fill="#FAFAFA"/>
<path d="M120.577 24.2442V24.9809H118.029V24.3974L119.252 23.2468C119.515 23.0023 119.551 22.8524 119.551 22.7155C119.551 22.5036 119.412 22.3765 119.129 22.3765C118.889 22.3765 118.675 22.4841 118.545 22.6959L117.856 22.3113C118.103 21.8974 118.567 21.6268 119.214 21.6268C119.967 21.6268 120.486 22.018 120.486 22.6275C120.486 22.9469 120.398 23.237 119.931 23.6705L119.314 24.2442H120.577Z" fill="#FAFAFA"/>
<path d="M120.847 23.3381C120.847 22.2527 121.454 21.6301 122.291 21.6301C123.129 21.6301 123.733 22.2559 123.733 23.3381C123.733 24.4203 123.126 25.0461 122.291 25.0461C121.457 25.0461 120.847 24.4203 120.847 23.3381ZM122.801 23.3381C122.801 22.6471 122.587 22.3896 122.291 22.3896C121.996 22.3896 121.778 22.6471 121.778 23.3381C121.778 24.0291 121.993 24.2866 122.291 24.2866C122.59 24.2866 122.801 24.0291 122.801 23.3381Z" fill="#FAFAFA"/>
<path d="M124.125 23.299H125.492V23.9834H124.125V23.299Z" fill="#FAFAFA"/>
<path d="M128.3 23.9541C128.3 24.5115 127.862 25.0493 126.875 25.0493C126.421 25.0493 125.94 24.9352 125.603 24.7266L125.94 24.0258C126.203 24.2051 126.538 24.2996 126.846 24.2996C127.154 24.2996 127.365 24.179 127.365 23.9574C127.365 23.7585 127.219 23.6379 126.865 23.6379H126.476V23.0512L127.06 22.4189H125.768V21.7018H128.135V22.2852L127.456 23.0186C128.008 23.136 128.297 23.4945 128.297 23.9639L128.3 23.9541Z" fill="#FAFAFA"/>
<path d="M131.128 23.9248C131.128 24.5115 130.69 25.0461 129.703 25.0461C129.249 25.0461 128.768 24.932 128.437 24.7234L128.768 24.0226C129.034 24.2019 129.362 24.2964 129.674 24.2964C129.986 24.2964 130.197 24.1693 130.197 23.9476C130.197 23.7455 130.06 23.6152 129.56 23.6152H128.671L128.833 21.6953H130.917V22.4124H129.599L129.557 22.8915H129.778C130.745 22.8915 131.125 23.3414 131.125 23.9248H131.128Z" fill="#FAFAFA"/>
<path d="M118.937 19.3549H119.106V19.8405C118.983 19.9448 118.811 20.0003 118.635 20.0003C118.256 20.0003 117.973 19.7297 117.973 19.3614C117.973 18.9931 118.252 18.7225 118.639 18.7225C118.837 18.7225 119.002 18.7877 119.116 18.9148L119.006 19.0257C118.902 18.9246 118.785 18.8823 118.645 18.8823C118.356 18.8823 118.152 19.0843 118.152 19.3614C118.152 19.6385 118.359 19.8405 118.645 19.8405C118.749 19.8405 118.846 19.8177 118.937 19.7591V19.3516V19.3549Z" fill="#FAFAFA"/>
<path d="M120.236 19.6743H119.577L119.441 19.9872H119.259L119.82 18.7421H119.996L120.561 19.9872H120.376L120.239 19.6743H120.236ZM120.174 19.5309L119.908 18.9213L119.639 19.5309H120.174Z" fill="#FAFAFA"/>
<path d="M120.928 18.8953H120.502V18.7389H121.528V18.8953H121.103V19.9873H120.928V18.8953Z" fill="#FAFAFA"/>
<path d="M122.622 19.8307V19.9872H121.72V18.7421H122.596V18.8985H121.898V19.2799H122.522V19.4298H121.898V19.8307H122.622Z" fill="#FAFAFA"/>
<path d="M122.797 19.8438L122.862 19.7037C122.953 19.7884 123.112 19.8471 123.271 19.8471C123.486 19.8471 123.58 19.7623 123.58 19.6548C123.58 19.3517 122.827 19.544 122.827 19.0811C122.827 18.8888 122.976 18.7258 123.301 18.7258C123.447 18.7258 123.596 18.7649 123.7 18.8367L123.641 18.9801C123.534 18.9116 123.411 18.879 123.301 18.879C123.09 18.879 122.999 18.967 122.999 19.0779C122.999 19.381 123.752 19.1919 123.752 19.6483C123.752 19.8373 123.599 20.0036 123.271 20.0036C123.083 20.0036 122.895 19.9384 122.797 19.8471V19.8438Z" fill="#FAFAFA"/>
<path d="M136.358 42.3964H106.692C105.364 42.3964 104.289 41.3175 104.289 39.9843V33.4621C104.289 32.1289 105.364 31.05 106.692 31.05H136.534C137.858 31.05 138.936 32.1289 138.936 33.4621V39.8083C138.936 41.236 137.784 42.3964 136.358 42.3964Z" fill="#31B9B9"/>
<path d="M111.571 33.0807C111.37 33.2926 111.38 33.625 111.587 33.8271L113.951 36.0892L107.373 36.2424C107.085 36.2489 106.854 36.4901 106.86 36.7835C106.867 37.0736 107.107 37.305 107.396 37.2985L113.974 37.1453L111.721 39.5182C111.519 39.7301 111.529 40.0625 111.737 40.2646C111.948 40.4667 112.279 40.4569 112.48 40.2483L115.974 36.5749L112.315 33.0676C112.104 32.8656 111.773 32.8753 111.571 33.0839V33.0807Z" fill="#FAFAFA"/>
<path d="M120.57 38.8761C120.57 39.4335 120.132 39.9713 119.145 39.9713C118.691 39.9713 118.21 39.8572 117.873 39.6486L118.21 38.9478C118.473 39.1271 118.808 39.2216 119.116 39.2216C119.424 39.2216 119.635 39.101 119.635 38.8794C119.635 38.6805 119.489 38.5599 119.135 38.5599H118.746V37.9732L119.33 37.3409H118.038V36.6238H120.405V37.2072L119.726 37.9406C120.278 38.058 120.567 38.4165 120.567 38.8859L120.57 38.8761Z" fill="#FAFAFA"/>
<path d="M123.671 38.8501C123.671 39.5346 123.1 39.9713 122.385 39.9713C121.47 39.9713 120.869 39.4172 120.869 38.3514C120.869 37.2073 121.574 36.5521 122.609 36.5521C122.979 36.5521 123.333 36.6369 123.574 36.7901L123.236 37.455C123.048 37.3246 122.843 37.2855 122.632 37.2855C122.165 37.2855 121.85 37.5495 121.804 38.0515C121.986 37.8918 122.233 37.807 122.544 37.807C123.161 37.807 123.671 38.2145 123.671 38.8436V38.8501ZM122.772 38.8924C122.772 38.6382 122.59 38.4785 122.324 38.4785C122.057 38.4785 121.869 38.648 121.869 38.8957C121.869 39.1434 122.048 39.3097 122.327 39.3097C122.59 39.3097 122.772 39.1499 122.772 38.8924Z" fill="#FAFAFA"/>
<path d="M123.992 38.2242H125.359V38.9087H123.992V38.2242Z" fill="#FAFAFA"/>
<path d="M128.839 39.2771H128.352V39.9062H127.45V39.2771H125.719V38.6708L127.187 36.6206H128.144L126.813 38.5404H127.476V37.9831H128.349V38.5404H128.836V39.2771H128.839Z" fill="#FAFAFA"/>
<path d="M131.511 36.6173V37.2008L130.355 39.9061H129.346L130.45 37.3572H129.589V37.8657H128.8V36.6206H131.511V36.6173Z" fill="#FAFAFA"/>
<path d="M118.937 34.2802H119.106V34.7658C118.983 34.8701 118.811 34.9255 118.635 34.9255C118.256 34.9255 117.973 34.655 117.973 34.2867C117.973 33.9184 118.252 33.6478 118.639 33.6478C118.837 33.6478 119.002 33.713 119.116 33.8401L119.006 33.951C118.902 33.8499 118.785 33.8075 118.645 33.8075C118.356 33.8075 118.152 34.0096 118.152 34.2867C118.152 34.5637 118.359 34.7658 118.645 34.7658C118.749 34.7658 118.846 34.743 118.937 34.6843V34.2769V34.2802Z" fill="#FAFAFA"/>
<path d="M120.236 34.5996H119.577L119.441 34.9125H119.259L119.82 33.6674H119.996L120.561 34.9125H120.376L120.239 34.5996H120.236ZM120.174 34.4562L119.908 33.8466L119.639 34.4562H120.174Z" fill="#FAFAFA"/>
<path d="M120.928 33.8205H120.502V33.6641H121.528V33.8205H121.103V34.9125H120.928V33.8205Z" fill="#FAFAFA"/>
<path d="M122.622 34.756V34.9125H121.72V33.6674H122.596V33.8238H121.898V34.2052H122.522V34.3551H121.898V34.756H122.622Z" fill="#FAFAFA"/>
<path d="M122.797 34.7691L122.862 34.629C122.953 34.7137 123.112 34.7724 123.271 34.7724C123.486 34.7724 123.58 34.6876 123.58 34.5801C123.58 34.2769 122.827 34.4693 122.827 34.0064C122.827 33.8141 122.976 33.6511 123.301 33.6511C123.447 33.6511 123.596 33.6902 123.7 33.7619L123.641 33.9054C123.534 33.8369 123.411 33.8043 123.301 33.8043C123.09 33.8043 122.999 33.8923 122.999 34.0031C122.999 34.3063 123.752 34.1172 123.752 34.5736C123.752 34.7626 123.599 34.9288 123.271 34.9288C123.083 34.9288 122.895 34.8637 122.797 34.7724V34.7691Z" fill="#FAFAFA"/>
<path d="M16.3007 16.4997C16.2553 16.4997 16.2163 13.7454 16.2163 10.3522C16.2163 6.95911 16.2553 4.20483 16.3007 4.20483C16.3462 4.20483 16.3851 6.95585 16.3851 10.3522C16.3851 13.7486 16.3462 16.4997 16.3007 16.4997Z" fill="#263238"/>
<path d="M57.5449 16.6822C57.4994 16.6822 57.4604 13.8888 57.4604 10.4435C57.4604 6.99822 57.4994 4.20483 57.5449 4.20483C57.5903 4.20483 57.6293 6.99822 57.6293 10.4435C57.6293 13.8888 57.5903 16.6822 57.5449 16.6822Z" fill="#263238"/>
<path d="M64.9829 16.1281H10.2364C8.92925 16.1281 7.86963 17.1919 7.86963 18.5042V28.4294C7.86963 29.7417 8.92925 30.8056 10.2364 30.8056H64.9829C66.29 30.8056 67.3497 29.7417 67.3497 28.4294V18.5042C67.3497 17.1919 66.29 16.1281 64.9829 16.1281Z" fill="#31B9B9"/>
<path d="M26.4526 22.1549H27.6474C28.5856 22.1549 29.2219 22.7611 29.2219 23.6282C29.2219 24.4952 28.5889 25.1015 27.6474 25.1015H26.4526V22.1516V22.1549ZM27.6311 24.8342C28.4103 24.8342 28.9135 24.3387 28.9135 23.6282C28.9135 22.9176 28.4103 22.4222 27.6311 22.4222H26.7611V24.8309H27.6311V24.8342Z" fill="#FAFAFA"/>
<path d="M31.777 24.0877H29.9297C29.9622 24.5506 30.3161 24.8602 30.7998 24.8602C31.0693 24.8602 31.3062 24.7625 31.4751 24.5701L31.6439 24.7625C31.4459 24.9971 31.1407 25.1243 30.7933 25.1243C30.105 25.1243 29.6343 24.6516 29.6343 23.9965C29.6343 23.3413 30.092 22.8719 30.7121 22.8719C31.3322 22.8719 31.7835 23.3315 31.7835 23.9965C31.7835 24.0226 31.7802 24.0551 31.7802 24.0877H31.777ZM29.9297 23.8628H31.4946C31.4556 23.4293 31.1407 23.1262 30.7089 23.1262C30.2771 23.1262 29.9654 23.4293 29.9297 23.8628Z" fill="#FAFAFA"/>
<path d="M34.6275 23.9964C34.6275 24.6712 34.1567 25.1242 33.5269 25.1242C33.173 25.1242 32.8711 24.971 32.6893 24.6874V25.9228H32.3906V22.8882H32.6763V23.325C32.8581 23.0316 33.1633 22.8687 33.5269 22.8687C34.1567 22.8687 34.6275 23.325 34.6275 23.9932V23.9964ZM34.3288 23.9964C34.3288 23.4814 33.9717 23.1327 33.5074 23.1327C33.0432 23.1327 32.6861 23.4814 32.6861 23.9964C32.6861 24.5114 33.0367 24.8602 33.5074 24.8602C33.9782 24.8602 34.3288 24.5147 34.3288 23.9964Z" fill="#FAFAFA"/>
<path d="M36.8872 23.7292V25.1015H36.6015V24.7559C36.4683 24.9841 36.2086 25.121 35.8418 25.121C35.3418 25.121 35.0366 24.8603 35.0366 24.4756C35.0366 24.1334 35.2541 23.8466 35.8872 23.8466H36.5885V23.7129C36.5885 23.3348 36.3742 23.1262 35.9619 23.1262C35.6762 23.1262 35.4067 23.2272 35.2282 23.387L35.0951 23.1621C35.3191 22.973 35.6437 22.8622 35.9944 22.8622C36.5657 22.8622 36.8872 23.149 36.8872 23.7227V23.7292ZM36.5885 24.4365V24.0747H35.897C35.4684 24.0747 35.3288 24.2442 35.3288 24.4691C35.3288 24.7266 35.5333 24.8863 35.8872 24.8863C36.2411 24.8863 36.4716 24.7266 36.5885 24.4365Z" fill="#FAFAFA"/>
<path d="M38.8089 22.8719V23.162C38.7829 23.162 38.7569 23.1588 38.7375 23.1588C38.2764 23.1588 37.994 23.4521 37.994 23.9769V25.1047H37.6953V22.8882H37.981V23.3218C38.1206 23.0284 38.3998 22.8719 38.8089 22.8719Z" fill="#FAFAFA"/>
<path d="M40.6076 24.9678C40.4908 25.0721 40.3155 25.1242 40.1434 25.1242C39.7278 25.1242 39.4973 24.8895 39.4973 24.4789V23.1392H39.1045V22.885H39.4973V22.3993H39.796V22.885H40.468V23.1392H39.796V24.4626C39.796 24.7233 39.9291 24.8667 40.1791 24.8667C40.2992 24.8667 40.4226 24.8276 40.507 24.7526L40.6109 24.9678H40.6076Z" fill="#FAFAFA"/>
<path d="M43.1366 22.8883V25.1048H42.8509V24.7006C42.695 24.9711 42.4093 25.1276 42.0587 25.1276C41.4971 25.1276 41.127 24.8114 41.127 24.1758V22.8916H41.4256V24.1465C41.4256 24.6191 41.6691 24.857 42.0879 24.857C42.5489 24.857 42.8379 24.5572 42.8379 24.0519V22.8883H43.1366Z" fill="#FAFAFA"/>
<path d="M45.0848 22.8719V23.162C45.0588 23.162 45.0361 23.1588 45.0133 23.1588C44.5523 23.1588 44.2699 23.4521 44.2699 23.9769V25.1047H43.9712V22.8882H44.2569V23.3218C44.3965 23.0284 44.6757 22.8719 45.0848 22.8719Z" fill="#FAFAFA"/>
<path d="M47.5226 24.0877H45.6753C45.7078 24.5506 46.0617 24.8602 46.5454 24.8602C46.8149 24.8602 47.0519 24.7625 47.2207 24.5701L47.3895 24.7625C47.1915 24.9971 46.8863 25.1243 46.5389 25.1243C45.8506 25.1243 45.3799 24.6516 45.3799 23.9965C45.3799 23.3413 45.8376 22.8719 46.4577 22.8719C47.0778 22.8719 47.5291 23.3315 47.5291 23.9965C47.5291 24.0226 47.5259 24.0551 47.5259 24.0877H47.5226ZM45.6753 23.8628H47.2402C47.2012 23.4293 46.8863 23.1262 46.4545 23.1262C46.0227 23.1262 45.711 23.4293 45.6753 23.8628Z" fill="#FAFAFA"/>
<path d="M47.8281 24.8505L47.9612 24.6158C48.1365 24.7559 48.4352 24.8635 48.7469 24.8635C49.1657 24.8635 49.3378 24.7201 49.3378 24.5017C49.3378 23.9248 47.906 24.3778 47.906 23.5043C47.906 23.1425 48.2177 22.8719 48.7794 22.8719C49.0651 22.8719 49.3767 22.9534 49.5585 23.0773L49.4287 23.3185C49.2371 23.1849 49.0034 23.1294 48.7794 23.1294C48.38 23.1294 48.2047 23.2859 48.2047 23.4945C48.2047 24.0943 49.6365 23.6412 49.6365 24.4919C49.6365 24.8765 49.3021 25.1243 48.7274 25.1243C48.3638 25.1243 48.0099 25.0069 47.8281 24.8505Z" fill="#FAFAFA"/>
<path d="M57.2365 22.1125C57.1132 22.2364 57.1099 22.4385 57.2365 22.5623L58.6261 23.9737L54.6458 23.9541C54.4705 23.9541 54.3276 24.0943 54.3276 24.2703C54.3276 24.4463 54.4672 24.5897 54.6426 24.5897L58.6228 24.6093L57.2171 26.0044C57.0937 26.1282 57.0905 26.3303 57.2171 26.4542C57.3404 26.578 57.5417 26.5813 57.6651 26.4542L59.8403 24.2931L57.6878 22.1093C57.5644 21.9854 57.3632 21.9821 57.2398 22.1093L57.2365 22.1125Z" fill="#FAFAFA"/>
<path d="M20.6026 26.0696H12.3823V26.6693H20.6026V26.0696Z" fill="#FAFAFA"/>
<path d="M21.4988 20.9163C21.4534 20.8511 21.3982 20.8022 21.3333 20.7565C21.3333 20.7565 20.4924 20.4567 20.0249 20.4567C19.3107 20.4567 18.7782 20.737 18.1841 21.089C17.9666 21.2194 17.7166 21.3693 17.4471 21.5258C17.4471 21.5258 17.4406 21.5258 17.4374 21.5258L14.8564 21.0792C14.8142 21.0727 14.772 21.0792 14.733 21.0955L14.324 21.2813C14.2233 21.327 14.2233 21.4704 14.324 21.516L16.0316 22.3439C16.0316 22.3439 16.0414 22.3602 16.0316 22.3667C15.0772 22.9339 14.259 23.4228 14.259 23.4228C14.2493 23.4293 14.2428 23.4326 14.2331 23.4391C13.8987 23.6314 13.5058 23.6933 13.1292 23.6053L12.2169 23.3967C12.1715 23.387 12.1228 23.387 12.0773 23.4033C11.9118 23.4619 11.8696 23.677 11.9962 23.7977L13.0221 24.7429C13.1812 24.8896 13.4149 24.932 13.6162 24.8505L14.1259 24.6419L17.0251 23.4163L21.1222 21.6855C21.5281 21.5193 21.6871 21.1835 21.4988 20.913V20.9163Z" fill="#FAFAFA"/>
<path d="M17.7975 23.4652L16.5833 23.977L16.3528 24.9874C16.3398 25.0461 16.3853 25.1015 16.4437 25.1047H16.5638C16.7262 25.1047 16.8788 25.0232 16.9664 24.8864L17.7975 23.4685V23.4652Z" fill="#FAFAFA"/>
</g>
<defs>
<clipPath id="clip0_1145_65">
<rect width="155" height="142" fill="white"/>
</clipPath>
</defs>
</svg>
