<svg width="151" height="142" viewBox="0 0 151 142" fill="none" xmlns="http://www.w3.org/2000/svg">
<g clip-path="url(#clip0_1139_4350)">
<path d="M134.954 40.0202C136.742 37.0317 135.456 33.0558 132.017 31.7815C129.855 30.9798 127.355 31.6414 125.844 33.3882C124.9 34.4799 124.467 35.777 124.457 37.0578V37.0838C124.457 37.5075 124.555 37.8725 124.594 38.3451L125.177 43.768C125.248 44.4426 125.945 44.8598 126.573 44.6056L131.539 42.5948C131.539 42.5948 132.424 42.2884 132.802 42.0831L132.822 42.0766C133.675 41.6073 134.424 40.9197 134.958 40.0234L134.954 40.0202ZM128.84 39.225C127.661 38.5178 127.277 36.9893 127.983 35.8096C128.69 34.6298 130.217 34.2453 131.396 34.9525C132.574 35.6597 132.958 37.1881 132.252 38.3679C131.545 39.5476 130.018 39.9322 128.84 39.225Z" fill="#EBEBEB"/>
<path d="M54.3358 45.3499L42.043 48.0912L50.7216 87.0805L63.0144 84.3392L54.3358 45.3499Z" fill="#F5F5F5"/>
<path d="M54.3334 45.3528L48.187 46.7234L56.8423 85.6077L62.9887 84.2371L54.3334 45.3528Z" fill="#EBEBEB"/>
<path d="M46.9335 42.9837L42.5923 43.9518L43.4441 47.7785L47.7853 46.8104L46.9335 42.9837Z" fill="#F5F5F5"/>
<path d="M46.9325 42.9854L45.8965 43.2164L46.7483 47.0432L47.7843 46.8121L46.9325 42.9854Z" fill="#EBEBEB"/>
<path d="M41.0191 48.3176L40.9702 48.096L54.6454 45.0424L54.6942 45.2672" fill="#E0E0E0"/>
<path d="M45.8786 48.9897L44.8394 49.2214L45.3279 51.4163L46.3671 51.1846L45.8786 48.9897Z" fill="#FAFAFA"/>
<path d="M49.2435 51.4462C49.25 51.469 47.876 51.7949 46.1796 52.173C44.4833 52.551 43.1027 52.841 43.0962 52.815C43.0897 52.7922 44.4637 52.4663 46.1601 52.0882C47.8565 51.7102 49.237 51.4201 49.2435 51.4462Z" fill="#E0E0E0"/>
<path d="M52.0812 47.5974L51.042 47.8293L51.5309 50.0241L52.5701 49.7922L52.0812 47.5974Z" fill="#E0E0E0"/>
<path d="M55.4398 50.0612C55.4463 50.084 54.0723 50.4099 52.3759 50.7879C50.6796 51.166 49.299 51.456 49.2925 51.43C49.286 51.4072 50.66 51.0813 52.3564 50.7032C54.0528 50.3252 55.4333 50.0351 55.4398 50.0612Z" fill="#E0E0E0"/>
<path d="M53.0519 51.9583L52.0127 52.1902L52.5016 54.385L53.5408 54.153L53.0519 51.9583Z" fill="#E0E0E0"/>
<path d="M56.4135 54.4218C56.42 54.4446 55.0459 54.7705 53.3496 55.1485C51.6532 55.5266 50.2726 55.8166 50.2661 55.7906C50.2596 55.7677 51.6337 55.4419 53.33 55.0638C55.0264 54.6858 56.4069 54.3957 56.4135 54.4218Z" fill="#E0E0E0"/>
<path d="M54.0533 56.4496L53.0142 56.6815L53.5031 58.8763L54.5423 58.6444L54.0533 56.4496Z" fill="#E0E0E0"/>
<path d="M57.413 58.9125C57.4195 58.9353 56.0454 59.2612 54.3491 59.6393C52.6527 60.0173 51.2722 60.3074 51.2656 60.2813C51.2591 60.2585 52.6332 59.9326 54.3295 59.5545C56.0259 59.1765 57.4065 58.8864 57.413 58.9125Z" fill="#E0E0E0"/>
<path d="M55.0577 60.9402L54.0186 61.1721L54.5075 63.3669L55.5467 63.135L55.0577 60.9402Z" fill="#E0E0E0"/>
<path d="M58.4125 63.4034C58.419 63.4262 57.045 63.7521 55.3486 64.1301C53.6522 64.5082 52.2717 64.7982 52.2652 64.7721C52.2586 64.7493 53.6327 64.4234 55.329 64.0454C57.0254 63.6673 58.406 63.3773 58.4125 63.4034Z" fill="#E0E0E0"/>
<path d="M56.0192 65.3131L54.98 65.5448L55.4685 67.7397L56.5078 67.5079L56.0192 65.3131Z" fill="#E0E0E0"/>
<path d="M59.3827 67.7673C59.3892 67.7901 58.0152 68.116 56.3188 68.494C54.6224 68.872 53.2419 69.1621 53.2354 69.136C53.2289 69.1132 54.6029 68.7873 56.2993 68.4093C57.9956 68.0312 59.3762 67.7412 59.3827 67.7673Z" fill="#E0E0E0"/>
<path d="M57.0031 69.6794L55.9639 69.9114L56.4528 72.1062L57.492 71.8742L57.0031 69.6794Z" fill="#E0E0E0"/>
<path d="M57.9826 74.129L56.9434 74.3607L57.4319 76.5556L58.4711 76.3238L57.9826 74.129Z" fill="#E0E0E0"/>
<path d="M60.3597 72.1473C60.3663 72.1701 58.9922 72.496 57.2959 72.874C55.5995 73.252 54.2189 73.5421 54.2124 73.516C54.2059 73.4932 55.5799 73.1673 57.2763 72.7893C58.9727 72.4112 60.3532 72.1212 60.3597 72.1473Z" fill="#E0E0E0"/>
<path d="M46.8693 53.4072L45.8301 53.6392L46.319 55.834L47.3582 55.602L46.8693 53.4072Z" fill="#FAFAFA"/>
<path d="M50.2269 55.872C50.2334 55.8948 48.8594 56.2207 47.163 56.5987C45.4667 56.9768 44.0861 57.2668 44.0796 57.2408C44.0731 57.2179 45.4471 56.892 47.1435 56.514C48.8399 56.136 50.2204 55.8459 50.2269 55.872Z" fill="#E0E0E0"/>
<path d="M47.8566 57.8313L46.8174 58.0632L47.3063 60.258L48.3455 60.0261L47.8566 57.8313Z" fill="#FAFAFA"/>
<path d="M51.2137 60.2976C51.2203 60.3205 49.8462 60.6464 48.1499 61.0244C46.4535 61.4024 45.0729 61.6925 45.0664 61.6664C45.0599 61.6436 46.4339 61.3177 48.1303 60.9397C49.8267 60.5616 51.2072 60.2716 51.2137 60.2976Z" fill="#E0E0E0"/>
<path d="M48.8419 62.2593L47.8027 62.4912L48.2917 64.686L49.3309 64.4541L48.8419 62.2593Z" fill="#FAFAFA"/>
<path d="M52.2001 64.7233C52.2066 64.7461 50.8326 65.072 49.1362 65.4501C47.4398 65.8281 46.0593 66.1181 46.0528 66.0921C46.0462 66.0693 47.4203 65.7434 49.1166 65.3653C50.813 64.9873 52.1936 64.6972 52.2001 64.7233Z" fill="#E0E0E0"/>
<path d="M49.82 66.6945L48.7808 66.9263L49.2693 69.1211L50.3086 68.8894L49.82 66.6945Z" fill="#FAFAFA"/>
<path d="M53.1835 69.149C53.19 69.1718 51.816 69.4977 50.1196 69.8757C48.4232 70.2538 47.0427 70.5438 47.0362 70.5177C47.0296 70.4949 48.4037 70.169 50.1 69.791C51.7964 69.4129 53.177 69.1229 53.1835 69.149Z" fill="#E0E0E0"/>
<path d="M50.8136 71.1107L49.7744 71.3427L50.2634 73.5374L51.3025 73.3055L50.8136 71.1107Z" fill="#FAFAFA"/>
<path d="M54.1698 73.5746C54.1763 73.5974 52.8023 73.9233 51.1059 74.3014C49.4095 74.6794 48.029 74.9695 48.0225 74.9434C48.016 74.9206 49.39 74.5947 51.0864 74.2166C52.7827 73.8386 54.1633 73.5486 54.1698 73.5746Z" fill="#E0E0E0"/>
<path d="M51.798 75.5355L50.7588 75.7675L51.2477 77.9622L52.2869 77.7303L51.798 75.5355Z" fill="#FAFAFA"/>
<path d="M74.199 63.1758L55.8994 64.9298L58.2108 89.0889L76.5104 87.3349L74.199 63.1758Z" fill="#EBEBEB"/>
<path d="M74.2005 63.1768L65.6211 63.9991L67.9325 88.1582L76.5118 87.3359L74.2005 63.1768Z" fill="#E0E0E0"/>
<path d="M61.7012 67.6767L60.0547 67.8345L60.4374 71.8345L62.0839 71.6767L61.7012 67.6767Z" fill="#F5F5F5"/>
<path d="M63.1953 83.3369L61.5488 83.4948L61.9315 87.4948L63.578 87.337L63.1953 83.3369Z" fill="#F5F5F5"/>
<path d="M66.4682 72.8381C66.4714 72.8837 64.2997 73.1282 61.6167 73.3856C58.9338 73.6431 56.7523 73.8158 56.749 73.7702C56.7458 73.7246 58.9175 73.4801 61.6005 73.2227C64.2834 72.9652 66.4649 72.7925 66.4682 72.8381Z" fill="#F5F5F5"/>
<path d="M62.4527 75.5665L60.8062 75.7244L61.1888 79.7244L62.8354 79.5666L62.4527 75.5665Z" fill="#F5F5F5"/>
<path d="M67.2235 80.7281C67.2268 80.7738 65.055 81.0182 62.3721 81.2756C59.6859 81.5331 57.5077 81.7058 57.5044 81.6602C57.5011 81.6146 59.6729 81.3702 62.3558 81.1127C65.0388 80.8552 67.2203 80.6825 67.2235 80.7281Z" fill="#F5F5F5"/>
<path d="M69.4033 66.9353L67.7568 67.0931L68.1395 71.0932L69.786 70.9353L69.4033 66.9353Z" fill="#F5F5F5"/>
<path d="M72.9717 66.5963L71.3252 66.7542L71.7079 70.7542L73.3544 70.5964L72.9717 66.5963Z" fill="#F5F5F5"/>
<path d="M70.1299 74.5324L68.4834 74.6902L68.8661 78.6902L70.5126 78.5324L70.1299 74.5324Z" fill="#F5F5F5"/>
<path d="M73.6983 74.1869L72.0518 74.3447L72.4345 78.3447L74.081 78.1869L73.6983 74.1869Z" fill="#F5F5F5"/>
<path d="M70.856 82.1229L69.2095 82.2808L69.5922 86.2808L71.2387 86.123L70.856 82.1229Z" fill="#F5F5F5"/>
<path d="M74.4278 81.7804L72.7812 81.9382L73.1639 85.9383L74.8105 85.7804L74.4278 81.7804Z" fill="#F5F5F5"/>
<path d="M75.4972 62.2032L54.4458 64.2209L54.5293 65.0936L75.5807 63.0759L75.4972 62.2032Z" fill="#E0E0E0"/>
<path d="M74.3412 63.2731C74.3444 63.3187 70.2581 63.7456 65.2146 64.2312C60.1678 64.7135 56.075 65.072 56.0718 65.0264C56.0685 64.9808 60.1548 64.5539 65.1983 64.0683C70.2419 63.5859 74.3379 63.2275 74.3412 63.2731Z" fill="#EBEBEB"/>
<path d="M58.152 89.7946L41.2013 97.2903L29.2876 70.5113L46.2383 63.0156L58.152 89.7946Z" fill="#EBEBEB"/>
<path d="M46.2362 63.0188L37.7603 66.7676L49.5979 93.5809L58.0738 89.832L46.2362 63.0188Z" fill="#E0E0E0"/>
<path d="M34.8768 61.7335L28.8906 64.3811L31.2213 69.6603L37.2074 67.0127L34.8768 61.7335Z" fill="#EBEBEB"/>
<path d="M34.8787 61.7323L33.4521 62.3633L35.7828 67.6425L37.2094 67.0115L34.8787 61.7323Z" fill="#E0E0E0"/>
<path d="M46.5971 62.4908L27.7393 70.8314L27.8748 71.1385L46.7327 62.7978L46.5971 62.4908Z" fill="#E0E0E0"/>
<path d="M35.0849 70.7054L33.6494 71.3403L34.9865 74.3689L36.422 73.734L35.0849 70.7054Z" fill="white"/>
<path d="M40.6411 73.2813C40.6541 73.3139 38.7689 74.1776 36.4311 75.2139C34.09 76.2503 32.182 77.0618 32.169 77.0292C32.156 76.9966 34.0412 76.1329 36.3823 75.0966C38.7233 74.0602 40.6313 73.2488 40.6444 73.2813H40.6411Z" fill="#E0E0E0"/>
<path d="M43.6308 66.922L42.1953 67.5569L43.5324 70.5855L44.9679 69.9506L43.6308 66.922Z" fill="#F5F5F5"/>
<path d="M49.1914 69.5009C49.2044 69.5335 47.3192 70.3972 44.9814 71.4335C42.6403 72.4699 40.7323 73.2814 40.7193 73.2488C40.7063 73.2162 42.5915 72.3526 44.9326 71.3162C47.2736 70.2798 49.1816 69.4684 49.1947 69.5009H49.1914Z" fill="#EBEBEB"/>
<path d="M46.2885 72.9339L44.853 73.5688L46.1901 76.5974L47.6256 75.9625L46.2885 72.9339Z" fill="#F5F5F5"/>
<path d="M51.8452 75.5105C51.8582 75.5431 49.973 76.4067 47.6352 77.443C45.2941 78.4794 43.3861 79.2909 43.3731 79.2583C43.3601 79.2257 45.2453 78.3621 47.5864 77.3257C49.9274 76.2894 51.8354 75.4779 51.8485 75.5105H51.8452Z" fill="#EBEBEB"/>
<path d="M49.018 79.1286L47.5825 79.7635L48.9196 82.7922L50.3551 82.1572L49.018 79.1286Z" fill="#F5F5F5"/>
<path d="M54.5801 81.7059C54.5931 81.7385 52.7079 82.6021 50.3701 83.6385C48.029 84.6748 46.121 85.4863 46.108 85.4537C46.095 85.4211 47.9802 84.5575 50.3212 83.5212C52.6623 82.4848 54.5703 81.6733 54.5833 81.7059H54.5801Z" fill="#EBEBEB"/>
<path d="M51.7553 85.3215L50.3198 85.9564L51.6569 88.985L53.0924 88.3501L51.7553 85.3215Z" fill="#F5F5F5"/>
<path d="M57.3154 87.8978C57.3285 87.9304 55.4432 88.794 53.1054 89.8304C50.7644 90.8667 48.8564 91.6782 48.8433 91.6456C48.8303 91.613 50.7155 90.7494 53.0566 89.713C55.3976 88.6767 57.3057 87.8652 57.3187 87.8978H57.3154Z" fill="#EBEBEB"/>
<path d="M37.7773 76.8049L36.3418 77.4398L37.6789 80.4684L39.1144 79.8335L37.7773 76.8049Z" fill="white"/>
<path d="M43.3374 79.3853C43.3504 79.4179 41.4652 80.2816 39.1274 81.3179C36.7863 82.3543 34.8783 83.1658 34.8653 83.1332C34.8523 83.1006 36.7375 82.237 39.0786 81.2006C41.4196 80.1642 43.3276 79.3528 43.3407 79.3853H43.3374Z" fill="#E0E0E0"/>
<path d="M40.4716 82.912L39.0361 83.5469L40.3732 86.5755L41.8087 85.9406L40.4716 82.912Z" fill="white"/>
<path d="M46.0332 85.4895C46.0462 85.5221 44.161 86.3857 41.8232 87.422C39.4821 88.4584 37.5741 89.2699 37.5611 89.2373C37.5481 89.2047 39.4333 88.3411 41.7744 87.3047C44.1154 86.2684 46.0234 85.4569 46.0365 85.4895H46.0332Z" fill="#E0E0E0"/>
<path d="M43.166 89.0145L41.7305 89.6494L43.0675 92.678L44.503 92.0431L43.166 89.0145Z" fill="white"/>
<path d="M48.7261 91.5903C48.7391 91.6229 46.8539 92.4865 44.5161 93.5229C42.175 94.5592 40.267 95.3707 40.254 95.3381C40.2409 95.3055 42.1262 94.4419 44.4672 93.4055C46.8083 92.3692 48.7163 91.5577 48.7293 91.5903H48.7261Z" fill="#E0E0E0"/>
<path d="M119.345 83.495L112.4 91.6522C112.25 91.8282 112.273 92.0922 112.446 92.2421L129.533 106.819C129.709 106.969 129.976 106.947 130.126 106.767L132.63 103.746C132.685 103.678 132.721 103.593 132.724 103.505L133.066 98.1343C133.076 98.0039 133.02 97.8768 132.923 97.7921L130.116 95.3609C129.944 95.211 129.924 94.9503 130.071 94.7743L131.122 93.5424C131.272 93.3664 131.249 93.1024 131.077 92.9525L119.935 83.4461C119.759 83.2962 119.495 83.319 119.345 83.4917V83.495Z" fill="#F5F5F5"/>
<path d="M129.989 96.4819L127.759 99.0989C127.671 99.1999 127.687 99.3531 127.788 99.4378L131.617 102.589C131.764 102.71 131.985 102.619 132.008 102.43L132.464 98.32C132.474 98.2385 132.441 98.157 132.376 98.1081L130.321 96.4493C130.22 96.3679 130.074 96.3809 129.989 96.4819Z" fill="#EBEBEB"/>
<path d="M129.987 107.623L111.58 91.9208L111.096 92.4888L129.504 108.191L129.987 107.623Z" fill="#F5F5F5"/>
<path d="M117.477 97.3325C116.62 98.3396 115.11 98.4601 114.103 97.603C113.097 96.7459 112.977 95.2338 113.833 94.2267C114.689 93.2197 116.2 93.0991 117.206 93.9562C118.212 94.8134 118.333 96.3255 117.477 97.3325Z" fill="#EBEBEB"/>
<path d="M116.728 96.6938C116.223 97.2869 115.334 97.3586 114.741 96.8535C114.149 96.3484 114.077 95.4587 114.582 94.8655C115.087 94.2724 115.975 94.2007 116.568 94.7058C117.161 95.211 117.229 96.1007 116.728 96.6938Z" fill="#FAFAFA"/>
<path d="M123.891 102.003C123.845 101.964 125.483 99.9625 127.55 97.5346C129.618 95.1067 131.331 93.1708 131.376 93.2099C131.422 93.249 129.784 95.25 127.716 97.678C125.649 100.106 123.936 102.042 123.891 102.003Z" fill="#EBEBEB"/>
<path d="M127.394 105.796C126.538 106.803 125.027 106.924 124.021 106.067C123.015 105.21 122.894 103.697 123.751 102.69C124.607 101.683 126.118 101.563 127.124 102.42C128.13 103.277 128.25 104.789 127.394 105.796Z" fill="#EBEBEB"/>
<path d="M126.645 105.157C126.14 105.751 125.251 105.822 124.659 105.317C124.066 104.812 123.995 103.922 124.499 103.329C125.004 102.736 125.893 102.664 126.486 103.169C127.078 103.675 127.15 104.564 126.645 105.157Z" fill="#FAFAFA"/>
<path d="M128.442 100.885C128.403 100.931 128.11 100.745 127.788 100.471C127.466 100.197 127.238 99.9366 127.277 99.8909C127.316 99.8453 127.609 100.031 127.931 100.305C128.254 100.579 128.482 100.839 128.442 100.885Z" fill="#EBEBEB"/>
<path d="M17.2308 81.2788C15.1307 78.4989 10.9663 78.2056 8.49827 80.9203C6.94516 82.628 6.62282 85.1961 7.6745 87.2493C8.33221 88.5333 9.37088 89.423 10.5528 89.9119L10.5789 89.9216C10.9728 90.0813 11.3473 90.1269 11.7966 90.2671L17.0387 91.7564C17.6899 91.9422 18.3379 91.4501 18.3379 90.7722V85.4079C18.3379 85.4079 18.3802 84.4694 18.3346 84.0424V84.0229C18.2207 83.0582 17.8625 82.1066 17.2341 81.2723L17.2308 81.2788ZM14.206 86.6561C13.1088 87.4839 11.5491 87.2688 10.7221 86.1705C9.89509 85.0723 10.11 83.5112 11.2073 82.6834C12.3045 81.8524 13.8641 82.0708 14.6912 83.169C15.5182 84.2673 15.3033 85.8284 14.206 86.6561Z" fill="#F5F5F5"/>
<path d="M33.4849 13.9615C32.1174 9.42498 26.9436 7.08504 22.5155 9.38588C19.7316 10.8329 18.1101 13.955 18.4845 17.0705C18.719 19.0194 19.6274 20.6424 20.9037 21.8254H20.9005L20.9298 21.8482C21.3563 22.2393 21.8122 22.4739 22.3201 22.865L28.3014 27.2385C29.047 27.7828 30.1052 27.4634 30.421 26.5965L32.9412 19.7559C32.9412 19.7559 33.4426 18.5827 33.5826 18.0156L33.5924 17.9896C33.9049 16.7023 33.8952 15.3205 33.4849 13.9615ZM27.0934 19.3942C25.3059 19.9352 23.4174 18.9216 22.8769 17.1325C22.3364 15.3433 23.349 13.4531 25.1365 12.9121C26.9241 12.3711 28.8126 13.3846 29.3531 15.1738C29.8936 16.963 28.8809 18.8532 27.0934 19.3942Z" fill="#EBEBEB"/>
<path d="M73.8886 8.96546C74.0417 7.86393 72.4853 6.95468 71.3164 6.86017C70.7596 6.81454 70.1801 6.89927 69.6526 6.71677C68.5097 6.31918 68.0506 4.8396 66.9371 4.36705C66.1036 4.01508 65.143 4.32794 64.3323 4.73532C63.5215 5.14269 62.7238 5.65435 61.8187 5.71301C61.034 5.76189 60.1776 5.47184 59.4906 5.8564C58.9794 6.14319 58.7092 6.73307 58.2371 7.08178C57.7747 7.42397 57.1724 7.49567 56.5993 7.525C56.0262 7.55759 55.4337 7.56085 54.9094 7.80201C54.3885 8.03992 53.9554 8.59394 54.0629 9.15774L73.8886 8.9622V8.96546Z" fill="#EBEBEB"/>
<path d="M28.044 52.1958C27.9366 51.4821 26.8035 51.2018 26.0579 51.355C25.703 51.43 25.3578 51.5864 24.9964 51.5701C24.2117 51.531 23.6582 50.6934 22.8768 50.6054C22.294 50.5403 21.7535 50.9085 21.3237 51.3126C20.8939 51.7135 20.4901 52.1795 19.9399 52.3816C19.4612 52.5576 18.8752 52.5315 18.517 52.8965C18.25 53.167 18.1914 53.5841 17.9602 53.8905C17.7356 54.187 17.3741 54.3435 17.0225 54.4673C16.6708 54.5912 16.3029 54.7052 16.0229 54.9496C15.7429 55.1941 15.5736 55.6177 15.7429 55.9469L28.0473 52.2023L28.044 52.1958Z" fill="#F5F5F5"/>
<path d="M120.439 64.0096C120.71 63.0906 119.502 62.1194 118.518 61.8913C118.049 61.7805 117.548 61.7805 117.121 61.5556C116.2 61.07 115.998 59.7534 115.109 59.2091C114.445 58.8017 113.589 58.9484 112.846 59.1896C112.107 59.434 111.362 59.7664 110.583 59.7012C109.909 59.6426 109.219 59.2873 108.584 59.5252C108.112 59.7045 107.809 60.1705 107.363 60.4084C106.927 60.6398 106.406 60.6235 105.914 60.5779C105.423 60.5323 104.918 60.4606 104.443 60.5974C103.967 60.7343 103.531 61.1482 103.55 61.6436L120.436 64.0063L120.439 64.0096Z" fill="#F5F5F5"/>
<path d="M106.995 136.734C106.94 135.971 107.578 135.296 108.281 134.97C108.985 134.635 109.776 134.534 110.502 134.24C110.789 134.12 111.108 133.914 111.117 133.608C111.117 133.152 110.479 132.966 110.316 132.542C110.141 132.063 110.635 131.617 110.844 131.151C111.293 130.085 110.173 129.01 109.086 128.573C108.008 128.14 106.702 127.823 106.198 126.777C105.966 126.298 105.944 125.744 105.846 125.223C105.592 123.906 104.615 122.635 103.277 122.417C101.926 122.198 100.431 123.385 100.653 124.711C100.783 125.441 101.333 126.005 101.629 126.68C101.935 127.354 101.851 128.355 101.148 128.573C99.9949 128.922 98.8846 126.833 97.9176 127.55C98.3115 128.886 98.6957 130.225 99.093 131.575C97.5757 132.337 95.7654 130.955 95.1174 129.388C94.4695 127.833 94.4467 126.047 93.6783 124.548C92.9098 123.036 90.8325 121.915 89.5138 122.981C89.4487 124.916 92.0307 125.699 93.1736 127.266C93.9973 128.397 93.8769 130.235 92.6559 130.952C91.4479 131.669 89.5269 130.421 89.986 129.104C90.152 128.648 90.5362 128.267 90.5786 127.778C90.6209 127.168 90.1064 126.68 89.6343 126.288C88.8985 125.669 88.1626 125.06 87.4268 124.45C86.9546 124.059 86.45 123.645 85.8541 123.473C84.3368 123.039 82.8228 124.255 82.0218 125.594C81.2208 126.944 80.7682 128.521 79.6612 129.642C78.069 131.275 75.0475 131.372 73.553 129.665C72.0487 127.957 72.8171 124.76 75.0247 124.141C75.8582 123.913 76.9131 123.936 77.3527 123.206C78.1211 121.912 75.9233 120.259 76.682 118.953C77.2648 117.952 78.8016 118.408 79.9217 118.073C81.032 117.737 81.6571 116.626 82.3148 115.668C82.9628 114.722 83.9852 113.764 85.128 114.015C85.0401 113.35 84.9522 112.633 85.2485 112.037C85.5448 111.428 86.3783 111.036 86.9286 111.428C86.3686 112.34 87.0393 113.614 88.0161 114.071C88.9929 114.527 90.1357 114.419 91.2135 114.299C92.2912 114.168 93.6424 113.777 93.7304 112.712C93.7629 112.363 93.6327 111.995 93.7629 111.669C94.235 110.398 96.6087 112.148 97.5203 111.124C98.0478 110.59 97.465 109.645 96.7291 109.472C96.003 109.286 95.2477 109.56 94.4988 109.58C93.7532 109.612 92.8415 109.221 92.8057 108.481C92.7731 107.751 93.5969 107.23 93.6848 106.513C93.828 105.294 91.7409 104.978 91.0051 105.969C90.279 106.96 90.533 108.319 90.7511 109.524C90.9823 110.73 91.093 112.158 90.1911 113.005C89.8069 113.582 88.8073 113.275 88.4784 112.669C88.1366 112.06 88.2147 111.32 88.1594 110.636C88.104 109.938 87.7979 109.156 87.1174 108.97C86.6453 108.84 86.1406 109.068 85.6555 109.133C83.7442 109.361 82.4158 106.914 83.0181 105.108C83.6107 103.293 85.3462 102.126 87.0263 101.204C88.257 100.53 89.7841 99.8973 91.0018 100.585C91.5716 100.901 91.9689 101.445 92.5289 101.771C93.4959 102.335 94.6941 102.13 95.8012 102.153C97.5464 102.195 99.2721 102.86 100.578 103.991C101.073 104.437 101.535 105.177 101.151 105.708C100.734 106.275 99.5358 106.392 99.7442 107.057C101.04 107.481 102.59 106.493 102.733 105.154C103.371 105.438 103.83 106.08 103.886 106.764C105.279 105.359 107.962 105.568 109.105 107.188C109.411 107.611 109.633 108.123 110.072 108.416C110.512 108.7 111.28 108.556 111.336 108.045C111.358 107.882 111.303 107.719 111.248 107.566C110.984 106.826 110.71 106.099 110.447 105.369C111.469 104.825 112.677 105.672 113.367 106.588C115.936 109.994 117.773 107.947 121.397 108.501C123.845 108.869 124.923 110.427 126.307 112.307C130.546 118.092 136.149 122.837 140.005 128.883C140.412 129.515 140.783 130.154 141.134 130.809C141.069 130.646 141.014 130.483 140.949 130.32C139.432 126.373 137.556 122.599 135.345 119.041C134.873 118.278 134.388 117.528 133.896 116.789C133.59 116.332 133.271 115.863 132.952 115.42C132.545 114.833 132.119 114.266 131.689 113.702C131.347 113.246 131.008 112.8 130.657 112.363C130.416 112.06 130.162 111.753 129.911 111.45C129.647 111.102 129.361 110.766 129.055 110.427L128.133 109.371C128.045 109.264 127.948 109.153 127.837 109.045C127.518 108.677 127.179 108.315 126.837 107.957C126.815 107.914 126.782 107.882 126.74 107.849C126.652 107.751 126.554 107.654 126.453 107.556C126.18 107.253 125.883 106.956 125.597 106.663C125.125 106.184 124.64 105.705 124.148 105.249C123.741 104.848 123.324 104.466 122.894 104.085C122.52 103.749 122.149 103.41 121.761 103.085C121.387 102.759 121.016 102.443 120.628 102.126C120.166 101.735 119.694 101.354 119.212 100.973H119.202C117.874 99.9169 116.5 98.9164 115.093 97.981C114.741 97.7431 114.399 97.5118 114.048 97.2836C113.696 97.0457 113.335 96.8274 112.983 96.609C112.622 96.3907 112.27 96.1625 111.905 95.9572C111.544 95.7291 111.179 95.5205 110.818 95.3152C110.522 95.1425 110.235 94.9795 109.939 94.8264C109.786 94.7286 109.642 94.6536 109.489 94.5754C108.864 94.2267 108.226 93.891 107.588 93.5749C107.269 93.412 106.95 93.249 106.621 93.0958C106.214 92.8905 105.797 92.695 105.38 92.5092C105.325 92.4766 105.26 92.4441 105.195 92.4212C104.82 92.2485 104.449 92.0725 104.062 91.9096C103.524 91.6814 102.984 91.4533 102.447 91.235C101.831 90.984 101.216 90.7331 100.591 90.505C99.8972 90.2442 99.2069 89.9933 98.5036 89.7652C97.8003 89.5273 97.0873 89.2959 96.371 89.0808C95.6579 88.8624 94.9416 88.6669 94.2188 88.4714C92.7926 88.0901 91.3405 87.7544 89.8785 87.4611C89.8557 87.4513 89.8232 87.4513 89.8004 87.4383C89.2403 87.3307 88.6803 87.2199 88.1203 87.1352C88.078 87.1254 88.0421 87.1124 88.0096 87.1124C87.7686 87.07 87.5147 87.0244 87.264 86.9918C86.2188 86.8191 85.1671 86.6757 84.0991 86.5583C83.9787 86.5355 83.8452 86.5258 83.7149 86.516C83.4089 86.4736 83.0995 86.4508 82.7804 86.4182C82.0772 86.353 81.3739 86.2976 80.6608 86.2553C79.9249 86.1999 79.1793 86.1673 78.4304 86.1477C77.6523 86.1151 76.8708 86.1053 76.0894 86.1053C74.0251 86.1053 71.9803 86.1933 69.9583 86.3758C69.4765 86.4084 69.0043 86.4508 68.529 86.5062C68.034 86.5616 67.5391 86.6137 67.0475 86.6789C66.5558 86.7441 66.0577 86.8093 65.5758 86.8842C65.0809 86.9592 64.599 87.0374 64.1041 87.1221C63.6873 87.1873 63.2575 87.2623 62.8407 87.3503C61.8086 87.5458 60.7862 87.7642 59.7768 88.0021C59.3047 88.1096 58.8326 88.2302 58.3605 88.3606C57.8884 88.4811 57.4163 88.6115 56.9539 88.7419C56.1757 88.9602 55.4171 89.1981 54.6584 89.436H54.6487C54.0333 89.6413 53.4081 89.8499 52.8025 90.0552C52.7927 90.0552 52.77 90.065 52.7569 90.078C52.1318 90.2964 51.5262 90.5245 50.9108 90.7624C50.8782 90.7722 50.8457 90.7852 50.8131 90.795C50.2531 91.0134 49.693 91.2415 49.1428 91.4696C48.4492 91.7532 47.7687 92.0562 47.098 92.3626C46.5282 92.6233 45.9682 92.884 45.4179 93.1578C44.8253 93.4511 44.2327 93.7444 43.6499 94.0507C43.6271 94.0605 43.6043 94.0735 43.5848 94.0833C43.0248 94.3766 42.4647 94.6797 41.9145 94.9958C41.3447 95.3119 40.7846 95.6378 40.2213 95.9866H40.2116C39.6841 96.3027 39.1697 96.6188 38.652 96.9447C38.4533 97.0653 38.2677 97.1956 38.0691 97.326C37.5189 97.6747 36.9914 98.0332 36.4542 98.4015C35.7964 98.8479 35.1583 99.314 34.5201 99.7833C33.9601 100.197 33.4098 100.621 32.8726 101.044C29.7631 103.502 26.862 106.21 24.2377 109.146C23.3032 110.17 22.4241 111.212 21.5678 112.278C20.8417 113.191 20.1384 114.116 19.4709 115.074C19.6467 115.052 19.8225 115.032 19.9984 115.019C20.9882 114.944 22.0301 114.977 22.919 114.553C23.7428 114.152 24.3256 113.422 25.0712 112.901C26.9825 111.551 30.1147 111.3 30.6292 109.039C30.805 108.276 30.5966 107.452 30.8832 106.722C31.4204 105.363 33.2568 105.167 34.7285 105.187C35.3536 105.187 36.0895 105.275 36.376 105.819C36.5844 106.2 36.4639 106.679 36.3109 107.08C35.409 109.625 33.5856 111.822 31.2674 113.213C29.3561 114.367 26.862 115.257 26.3345 117.411C26.5983 118.141 27.9397 118.086 28.0472 118.848C28.1253 119.458 27.3341 119.774 27.0476 120.318C26.6308 121.113 27.5848 122.081 28.4965 122.036C29.4082 121.993 30.1668 121.338 30.8376 120.729C32.8368 118.891 34.9336 116.912 35.6597 114.302C35.9658 113.227 36.0765 111.962 36.9556 111.245C38.0008 110.398 39.8664 110.984 40.2181 112.278C41.0874 111.799 42.4354 111.441 42.888 112.334C43.041 112.65 42.9987 113.018 43.0736 113.357C43.3601 114.748 45.2812 115.381 45.4798 116.782C45.7109 118.402 43.6108 119.239 41.9763 119.49C40.4916 119.718 39.0101 119.947 37.5286 120.188C36.8807 120.285 36.21 120.393 35.6825 120.774C35.155 121.165 34.8262 121.905 35.1322 122.482C35.3081 122.798 35.6499 123.003 35.9006 123.264C37.1314 124.483 36.1188 126.996 34.3833 127.048C33.7908 127.071 33.2079 126.852 32.6153 126.829C30.8571 126.755 29.4635 128.286 28.6267 129.821C27.7932 131.356 27.1648 133.106 25.7582 134.149C23.4953 135.834 19.5946 135.443 18.4974 138.031C18.0578 139.073 18.289 140.25 18.4648 141.371C18.4941 141.547 18.5169 141.73 18.5364 141.912H66.8261C67.8322 141.514 68.9229 141.218 69.7825 140.579C71.7589 139.113 72.0226 136.313 73.2697 134.201C74.5167 132.089 78.4207 131.197 78.997 133.576C83.1256 124.825 92.2489 137.825 97.6734 136.848C99.2493 136.564 100.789 135.814 102.375 136.033C105.107 136.411 106.546 139.324 107.5 141.912H109.766C109.506 141.009 109.519 140.012 108.988 139.24C108.373 138.337 107.067 137.815 106.979 136.727L106.995 136.734ZM70.17 97.9028C69.7434 98.887 69.9356 100.112 69.2811 100.966C68.7601 101.641 67.8582 101.882 67.0247 102.078C65.2762 102.488 63.5278 102.902 61.776 103.313C60.9978 103.495 60.2066 103.684 59.5196 104.092C58.1456 104.906 57.413 106.441 56.3515 107.631C55.2901 108.82 53.3886 109.668 52.135 108.677C51.5327 108.201 51.2624 107.416 51.194 106.653C51.0964 105.561 51.3601 104.44 51.9397 103.505C52.5388 102.54 53.4505 101.781 53.9551 100.767C54.4631 99.7539 54.3589 98.2678 53.3202 97.792C52.7602 97.5346 52.0536 97.6356 51.5555 97.2706C50.6601 96.6188 51.3015 95.074 52.3402 94.6862C53.3788 94.2952 54.5314 94.5982 55.6417 94.6699C59.6661 94.9241 62.6226 92.3137 65.6474 90.1497C67.9982 88.4648 73.0092 86.4736 75.7345 88.1944C76.822 88.882 77.2453 90.6484 76.2229 91.424C75.7638 91.7727 75.1321 91.8477 74.7056 92.2322C74.1944 92.695 74.1228 93.4511 73.8297 94.0703C73.0678 95.6835 70.8733 96.2668 70.1635 97.9061L70.17 97.9028Z" fill="#29B9B9"/>
<g opacity="0.3">
<path d="M69.2812 100.966C69.9389 100.112 69.7468 98.887 70.1701 97.9028C70.8766 96.2668 73.0744 95.6802 73.8363 94.067C74.1293 93.4478 74.201 92.6884 74.7122 92.2289C75.1387 91.8444 75.7704 91.7661 76.2295 91.4207C77.2518 90.6451 76.8286 88.8787 75.7411 88.1911C73.0191 86.4703 68.0081 88.4583 65.654 90.1464C62.6292 92.3137 59.6695 94.9208 55.6483 94.6666C54.538 94.5982 53.3854 94.2951 52.3467 94.6829C51.3081 95.074 50.6667 96.6155 51.5621 97.2673C52.0602 97.629 52.7668 97.528 53.3268 97.7887C54.3655 98.2645 54.4664 99.7506 53.9617 100.764C53.457 101.778 52.5421 102.537 51.9463 103.502C51.3667 104.437 51.0997 105.558 51.2006 106.65C51.269 107.409 51.5393 108.198 52.1416 108.674C53.3952 109.664 55.2967 108.817 56.3581 107.628C57.4196 106.438 58.1489 104.903 59.5262 104.088C60.2132 103.681 61.0044 103.495 61.7826 103.309C63.5311 102.899 65.2796 102.485 67.0313 102.074C67.8648 101.879 68.7667 101.638 69.2877 100.963L69.2812 100.966Z" fill="black"/>
<path d="M102.391 136.036C100.806 135.818 99.2655 136.567 97.6896 136.851C92.2651 137.828 83.1418 124.832 79.0132 133.579C78.4369 131.2 74.5329 132.093 73.2859 134.204C72.0389 136.316 71.7751 139.116 69.7987 140.582C68.9391 141.221 67.8484 141.518 66.8423 141.915H107.519C106.565 139.328 105.123 136.414 102.394 136.036H102.391Z" fill="black"/>
<path d="M45.4928 116.785C45.2942 115.381 43.3731 114.752 43.0866 113.36C43.0085 113.021 43.0541 112.653 42.901 112.337C42.4517 111.444 41.1005 111.802 40.2311 112.281C39.8795 110.988 38.0138 110.401 36.9686 111.248C36.0895 111.965 35.9788 113.227 35.6727 114.305C34.9466 116.916 32.8498 118.894 30.8506 120.732C30.1799 121.341 29.4212 121.993 28.5095 122.039C27.5978 122.081 26.6406 121.113 27.0606 120.321C27.3471 119.777 28.1383 119.461 28.0602 118.852C27.9495 118.089 26.6113 118.144 26.3475 117.414C26.875 115.26 29.3691 114.37 31.2804 113.217C33.5986 111.825 35.422 109.629 36.3239 107.083C36.4769 106.679 36.5974 106.203 36.389 105.822C36.1025 105.278 35.3666 105.19 34.7415 105.19C33.2698 105.167 31.4367 105.363 30.8962 106.725C30.6096 107.455 30.818 108.279 30.6422 109.042C30.1245 111.304 26.9955 111.555 25.0842 112.904C24.3386 113.425 23.7558 114.155 22.932 114.556C22.0431 114.98 20.9979 114.947 20.0114 115.022C19.8356 115.032 19.6597 115.055 19.4839 115.078C18.8816 115.909 18.2987 116.759 17.7354 117.62C17.1754 118.48 16.6317 119.357 16.1107 120.243C13.6492 124.408 11.6272 128.857 10.0904 133.533C9.55313 135.159 9.07775 136.812 8.66424 138.49C8.38748 139.621 8.14003 140.762 7.92188 141.915H8.25073C8.47214 141.162 8.63168 140.403 8.77169 139.745C8.80751 139.579 8.84007 139.419 8.87263 139.266C9.23404 137.623 9.77454 135.906 11.0574 134.807C12.3533 133.709 14.5934 133.579 15.593 134.948C16.3061 135.925 16.1433 137.265 15.9544 138.461C15.7721 139.611 15.5897 140.765 15.4042 141.915H18.5527C18.5332 141.733 18.5104 141.554 18.4811 141.374C18.3052 140.253 18.0741 139.08 18.5136 138.034C19.6109 135.446 23.5116 135.837 25.7745 134.152C27.1811 133.11 27.8062 131.356 28.643 129.824C29.4766 128.29 30.8734 126.758 32.6316 126.833C33.2242 126.856 33.807 127.071 34.3996 127.051C36.1351 126.996 37.1444 124.483 35.9169 123.267C35.6629 123.007 35.3243 122.801 35.1485 122.485C34.8424 121.908 35.1713 121.169 35.6988 120.778C36.2262 120.396 36.897 120.289 37.5449 120.191C39.0264 119.953 40.5111 119.722 41.9926 119.494C43.6304 119.243 45.7272 118.405 45.496 116.785H45.4928Z" fill="#306262"/>
<path d="M142.896 136.111C142.639 135.215 142.362 134.325 142.072 133.442C141.779 132.559 141.47 131.685 141.141 130.815V130.805C140.789 130.154 140.415 129.512 140.011 128.879C136.156 122.834 130.552 118.089 126.313 112.304C124.929 110.424 123.851 108.866 121.403 108.498C117.779 107.944 115.943 109.987 113.374 106.585C112.683 105.672 111.472 104.822 110.453 105.366C110.717 106.096 110.99 106.823 111.254 107.562C111.309 107.716 111.365 107.879 111.342 108.041C111.287 108.553 110.518 108.693 110.079 108.413C109.639 108.12 109.421 107.608 109.112 107.184C107.969 105.565 105.289 105.356 103.892 106.761C103.837 106.076 103.375 105.434 102.74 105.151C102.596 106.49 101.046 107.478 99.7506 107.054C99.5422 106.389 100.74 106.272 101.157 105.705C101.541 105.17 101.079 104.431 100.584 103.987C99.2785 102.856 97.5528 102.192 95.8076 102.149C94.6973 102.126 93.4991 102.335 92.5353 101.768C91.9753 101.442 91.5781 100.898 91.0083 100.582C89.7873 99.8973 88.2635 100.526 87.0327 101.201C85.3526 102.126 83.6172 103.29 83.0246 105.105C82.4222 106.911 83.7507 109.358 85.6619 109.13C86.1438 109.065 86.6517 108.837 87.1239 108.967C87.8044 109.153 88.1137 109.935 88.1658 110.632C88.2211 111.317 88.143 112.057 88.4849 112.666C88.8137 113.275 89.8133 113.578 90.1975 113.002C91.0994 112.154 90.9887 110.727 90.7576 109.521C90.5394 108.315 90.2854 106.953 91.0115 105.965C91.7474 104.975 93.8345 105.291 93.6912 106.51C93.6033 107.227 92.7795 107.748 92.8121 108.478C92.8446 109.218 93.7563 109.609 94.5052 109.576C95.2508 109.554 96.0095 109.283 96.7356 109.469C97.4714 109.642 98.0542 110.59 97.5268 111.121C96.6151 112.145 94.2415 110.391 93.7694 111.665C93.6391 111.991 93.7694 112.363 93.7368 112.708C93.6489 113.774 92.2976 114.165 91.2199 114.295C90.1422 114.416 89.0026 114.524 88.0225 114.067C87.0457 113.611 86.375 112.337 86.935 111.424C86.3848 111.033 85.5512 111.424 85.2549 112.034C84.9586 112.63 85.0465 113.35 85.1345 114.012C83.9916 113.761 82.9692 114.719 82.3213 115.664C81.6636 116.622 81.0352 117.73 79.9281 118.069C78.8081 118.405 77.2712 117.949 76.6884 118.949C75.9298 120.256 78.1276 121.908 77.3591 123.202C76.9196 123.932 75.8646 123.909 75.0311 124.138C72.8235 124.757 72.0551 127.954 73.5594 129.661C75.0539 131.369 78.0755 131.271 79.6676 129.639C80.7779 128.518 81.2273 126.94 82.0282 125.591C82.8292 124.255 84.3465 123.036 85.8605 123.469C86.4531 123.642 86.9578 124.056 87.4332 124.447C88.169 125.057 88.9049 125.666 89.6408 126.285C90.1129 126.676 90.6306 127.165 90.585 127.775C90.5427 128.263 90.1552 128.645 89.9924 129.101C89.5301 130.418 91.4543 131.669 92.6623 130.949C93.8833 130.232 94.0038 128.394 93.18 127.263C92.0372 125.695 89.4552 124.913 89.5203 122.977C90.839 121.912 92.913 123.033 93.6847 124.545C94.4531 126.047 94.4759 127.83 95.1238 129.384C95.7718 130.952 97.5854 132.331 99.0994 131.571C98.7022 130.222 98.318 128.886 97.924 127.546C98.891 126.829 100.001 128.918 101.154 128.57C101.857 128.351 101.945 127.351 101.636 126.676C101.34 126.002 100.789 125.438 100.659 124.708C100.441 123.381 101.932 122.195 103.283 122.414C104.622 122.632 105.602 123.903 105.852 125.22C105.95 125.741 105.973 126.295 106.204 126.774C106.709 127.817 108.018 128.133 109.092 128.57C110.18 129.006 111.3 130.082 110.85 131.148C110.642 131.617 110.147 132.06 110.323 132.539C110.489 132.963 111.124 133.149 111.124 133.605C111.114 133.908 110.795 134.117 110.508 134.237C109.782 134.53 108.991 134.628 108.288 134.967C107.585 135.293 106.946 135.968 107.002 136.73C107.09 137.819 108.395 138.34 109.011 139.243C109.541 140.012 109.528 141.009 109.789 141.915H117.831C117.541 141.335 117.258 140.762 116.965 140.178C117.613 139.634 118.645 139.862 119.316 140.397C119.83 140.814 120.192 141.377 120.582 141.915H144.276C143.902 139.953 143.443 138.014 142.899 136.111H142.896Z" fill="black"/>
</g>
<path d="M73.8363 94.067C74.1293 93.4478 74.201 92.6884 74.7122 92.2289C75.1387 91.8444 75.7704 91.7661 76.2295 91.4207C77.2518 90.6451 76.8286 88.8787 75.7411 88.1911C73.0191 86.4703 68.0081 88.4583 65.654 90.1464C62.6292 92.3137 59.6695 94.9208 55.6483 94.6666C54.538 94.5982 53.3854 94.2951 52.3467 94.6829C51.3081 95.074 50.6667 96.6155 51.5621 97.2673C52.0602 97.629 52.7668 97.528 53.3268 97.7887C54.3655 98.2645 54.4664 99.7506 53.9617 100.764C53.457 101.778 52.5421 102.537 51.9463 103.502C51.3667 104.437 51.0997 105.558 51.2006 106.65C51.269 107.409 51.5393 108.198 52.1416 108.674C53.3952 109.664 55.2967 108.817 56.3581 107.628C57.4196 106.438 58.1489 104.903 59.5262 104.088C60.2132 103.681 61.0044 103.495 61.7826 103.309C63.5311 102.899 65.2796 102.485 67.0313 102.074C67.8648 101.879 68.7667 101.638 69.2877 100.963C69.9454 100.109 69.7533 98.8837 70.1766 97.8995C70.8831 96.2635 73.0809 95.6769 73.8428 94.0637L73.8363 94.067Z" fill="#306262"/>
<path d="M102.391 136.036C100.806 135.818 99.2655 136.567 97.6896 136.851C92.2651 137.829 83.1418 124.832 79.0132 133.579C78.4369 131.2 74.5329 132.093 73.2859 134.205C72.0389 136.316 71.7751 139.116 69.7987 140.582C68.9391 141.221 67.8484 141.518 66.8423 141.915H107.519C106.565 139.328 105.123 136.414 102.394 136.036H102.391Z" fill="#306262"/>
<path d="M142.069 133.445C141.776 132.562 141.466 131.689 141.137 130.818V130.809C140.786 130.157 140.411 129.515 140.008 128.883C136.152 122.837 130.549 118.092 126.31 112.307C124.926 110.427 123.848 108.869 121.4 108.501C117.776 107.947 115.939 109.99 113.37 106.588C112.68 105.675 111.469 104.825 110.45 105.369C110.713 106.099 110.987 106.826 111.251 107.566C111.306 107.719 111.361 107.882 111.339 108.045C111.283 108.556 110.515 108.697 110.075 108.416C109.636 108.123 109.418 107.611 109.108 107.188C107.965 105.568 105.286 105.359 103.889 106.764C103.833 106.08 103.371 105.438 102.736 105.154C102.593 106.493 101.043 107.481 99.7472 107.057C99.5388 106.392 100.737 106.275 101.154 105.708C101.538 105.174 101.076 104.434 100.581 103.991C99.2751 102.86 97.5494 102.195 95.8042 102.153C94.6939 102.13 93.4957 102.338 92.5319 101.771C91.9719 101.445 91.5747 100.901 91.0049 100.585C89.7839 99.9006 88.2601 100.53 87.0293 101.204C85.3492 102.13 83.6137 103.293 83.0212 105.108C82.4188 106.914 83.7472 109.361 85.6585 109.133C86.1404 109.068 86.6483 108.84 87.1205 108.97C87.801 109.156 88.1103 109.938 88.1624 110.636C88.2177 111.32 88.1396 112.06 88.4815 112.669C88.8103 113.279 89.8099 113.582 90.1941 113.005C91.096 112.158 90.9853 110.73 90.7541 109.524C90.536 108.319 90.282 106.956 91.0081 105.969C91.744 104.978 93.8311 105.294 93.6878 106.513C93.5999 107.23 92.7761 107.751 92.8087 108.481C92.8412 109.221 93.7529 109.612 94.5018 109.58C95.2474 109.557 96.0061 109.286 96.7321 109.472C97.468 109.645 98.0508 110.593 97.5234 111.124C96.6117 112.148 94.2381 110.394 93.7659 111.669C93.6357 111.995 93.7659 112.366 93.7334 112.712C93.6455 113.777 92.2942 114.168 91.2165 114.299C90.1388 114.419 88.9992 114.527 88.0191 114.071C87.0423 113.614 86.3716 112.34 86.9316 111.428C86.3813 111.036 85.5478 111.428 85.2515 112.037C84.9552 112.633 85.0431 113.354 85.131 114.015C83.9882 113.764 82.9658 114.722 82.3179 115.667C81.6602 116.626 81.0317 117.734 79.9247 118.073C78.8046 118.408 77.2678 117.952 76.685 118.953C75.9263 120.259 78.1241 121.912 77.3557 123.205C76.9162 123.935 75.8612 123.913 75.0277 124.141C72.8201 124.76 72.0517 127.957 73.556 129.665C75.0505 131.372 78.072 131.275 79.6642 129.642C80.7745 128.521 81.2238 126.944 82.0248 125.594C82.8258 124.258 84.3431 123.039 85.8571 123.473C86.4497 123.645 86.9544 124.059 87.4298 124.45C88.1656 125.06 88.9015 125.669 89.6373 126.288C90.1095 126.68 90.6272 127.168 90.5816 127.778C90.5393 128.267 90.1518 128.648 89.989 129.104C89.5266 130.421 91.4509 131.672 92.6589 130.952C93.8799 130.235 94.0004 128.397 93.1766 127.266C92.0338 125.699 89.4517 124.916 89.5169 122.981C90.8355 121.915 92.9096 123.036 93.6813 124.548C94.4497 126.051 94.4725 127.833 95.1204 129.388C95.7684 130.955 97.582 132.334 99.096 131.575C98.6988 130.225 98.3146 128.889 97.9206 127.55C98.8876 126.833 99.9979 128.922 101.151 128.573C101.854 128.355 101.942 127.354 101.632 126.68C101.336 126.005 100.786 125.441 100.656 124.711C100.437 123.385 101.929 122.198 103.28 122.417C104.618 122.635 105.598 123.906 105.849 125.223C105.947 125.744 105.969 126.298 106.201 126.777C106.705 127.82 108.014 128.136 109.089 128.573C110.176 129.01 111.296 130.085 110.847 131.151C110.639 131.62 110.144 132.063 110.319 132.542C110.485 132.966 111.12 133.152 111.12 133.608C111.111 133.911 110.792 134.12 110.505 134.24C109.779 134.534 108.988 134.631 108.284 134.97C107.581 135.296 106.943 135.971 106.998 136.733C107.086 137.822 108.392 138.343 109.007 139.246C109.538 140.015 109.525 141.013 109.785 141.919H117.828C117.538 141.338 117.255 140.765 116.962 140.181C117.61 139.637 118.642 139.865 119.312 140.4C119.827 140.817 120.188 141.381 120.579 141.919H144.273C143.898 139.957 143.439 138.018 142.896 136.114C142.638 135.218 142.362 134.328 142.072 133.445H142.069Z" fill="#306262"/>
<path d="M119.309 140.397C118.639 139.862 117.606 139.634 116.958 140.178C117.252 140.758 117.538 141.335 117.825 141.915H120.576C120.185 141.378 119.824 140.814 119.309 140.397Z" fill="#455A64"/>
<path d="M18.5138 138.037C19.6111 135.45 23.5117 135.841 25.7747 134.156C27.1812 133.113 27.8064 131.359 28.6432 129.828C29.4767 128.293 30.8735 126.761 32.6318 126.836C33.2244 126.859 33.8072 127.074 34.3998 127.054C36.1352 126.999 37.1446 124.486 35.9171 123.271C35.6631 123.01 35.3245 122.805 35.1487 122.489C34.8426 121.912 35.1715 121.172 35.6989 120.781C36.2264 120.4 36.8971 120.292 37.5451 120.194C39.0266 119.956 40.5113 119.725 41.9928 119.497C43.6305 119.246 45.7274 118.408 45.4962 116.789C45.2976 115.384 43.3766 114.755 43.09 113.363C43.0119 113.025 43.0575 112.656 42.9044 112.34C42.4551 111.447 41.1039 111.806 40.2345 112.285C39.8829 110.991 38.0172 110.404 36.972 111.252C36.0929 111.969 35.9822 113.23 35.6761 114.309C34.95 116.919 32.8532 118.897 30.854 120.735C30.1833 121.345 29.4246 121.996 28.5129 122.042C27.6013 122.084 26.644 121.117 27.064 120.325C27.3506 119.78 28.1418 119.464 28.0636 118.855C27.9529 118.092 26.6147 118.148 26.351 117.418C26.8784 115.263 29.3725 114.374 31.2838 113.22C33.6021 111.828 35.4254 109.632 36.3273 107.087C36.4804 106.683 36.6008 106.207 36.3925 105.825C36.1059 105.281 35.3701 105.193 34.7449 105.193C33.2732 105.17 31.4401 105.366 30.8996 106.728C30.6131 107.458 30.8214 108.283 30.6456 109.045C30.1279 111.307 26.9989 111.558 25.0876 112.907C24.342 113.429 23.7592 114.159 22.9354 114.559C22.0465 114.983 21.0014 114.951 20.0148 115.026C19.839 115.035 19.6632 115.058 19.4873 115.081C18.885 115.912 18.3021 116.763 17.7389 117.623C17.1788 118.483 16.6351 119.36 16.1141 120.246C13.6526 124.411 11.6306 128.86 10.0938 133.536C9.55655 135.163 9.08117 136.815 8.66766 138.493C8.3909 139.624 8.14344 140.765 7.92529 141.919H8.25415C8.47556 141.166 8.6351 140.406 8.77511 139.748C8.81092 139.582 8.84348 139.422 8.87604 139.269C9.23746 137.626 9.77795 135.909 11.0608 134.811C12.3567 133.712 14.5968 133.582 15.5964 134.951C16.3095 135.929 16.1467 137.268 15.9578 138.464C15.7755 139.614 15.5932 140.768 15.4076 141.919H18.5561C18.5366 141.736 18.5138 141.557 18.4845 141.378C18.3087 140.256 18.0775 139.083 18.517 138.037H18.5138Z" fill="#306262"/>
<path d="M15.5898 134.948C14.5902 133.579 12.3501 133.709 11.0542 134.807C9.76811 135.906 9.23087 137.623 8.86945 139.266C8.83689 139.419 8.80433 139.579 8.76852 139.745C8.62851 140.403 8.46897 141.162 8.24756 141.915H15.4042C15.5898 140.765 15.7722 139.611 15.9545 138.461C16.1401 137.265 16.3061 135.925 15.5931 134.948H15.5898Z" fill="#29B9B9"/>
<path d="M59.9431 129.945C60.0928 128.85 58.5495 127.947 57.3871 127.853C56.8336 127.807 56.2573 127.892 55.7331 127.709C54.5967 127.312 54.1441 125.842 53.0338 125.376C52.2036 125.027 51.2496 125.337 50.4453 125.741C49.6411 126.145 48.8466 126.657 47.948 126.712C47.1665 126.761 46.32 126.471 45.6362 126.856C45.1283 127.139 44.8613 127.729 44.3924 128.074C43.9333 128.413 43.3342 128.485 42.7644 128.518C42.1946 128.55 41.6053 128.553 41.0876 128.791C40.5699 129.029 40.1401 129.577 40.2476 130.137L59.9431 129.942V129.945Z" fill="#FAFAFA"/>
<path d="M65.006 122.13C65.1102 121.38 64.052 120.761 63.2575 120.699C62.8798 120.67 62.4858 120.725 62.1244 120.602C61.3462 120.331 61.0369 119.324 60.275 119.005C59.7085 118.764 59.054 118.979 58.5038 119.256C57.9535 119.533 57.4097 119.881 56.7944 119.92C56.2604 119.956 55.6776 119.757 55.2119 120.018C54.8636 120.214 54.6812 120.615 54.3589 120.853C54.043 121.084 53.6328 121.133 53.2453 121.156C52.8546 121.178 52.4509 121.182 52.096 121.345C51.7411 121.508 51.448 121.882 51.5196 122.267L65.006 122.133V122.13Z" fill="#FAFAFA"/>
<path d="M38.8604 86.8907C38.8604 86.8907 38.8344 86.9135 38.7758 86.9494C38.7107 86.9885 38.626 87.0406 38.5218 87.1058C38.2874 87.2459 37.9553 87.4415 37.5353 87.6924C37.3204 87.8195 37.0794 87.9597 36.8189 88.1128C36.5617 88.2758 36.2817 88.4518 35.9822 88.6408C35.3863 89.0253 34.6928 89.4392 33.9634 89.9541C33.5955 90.2051 33.208 90.4691 32.8076 90.7428C32.4071 91.0198 32.0066 91.3294 31.58 91.6358C30.7237 92.2452 29.8544 92.9491 28.9297 93.6792C27.1063 95.175 25.169 96.899 23.248 98.8283C21.3399 100.771 19.6371 102.733 18.1621 104.571C17.4425 105.506 16.7457 106.383 16.1499 107.246C15.8471 107.673 15.541 108.081 15.2708 108.485C15.0005 108.889 14.7433 109.28 14.4958 109.651C13.9912 110.388 13.5809 111.085 13.2065 111.685C13.0209 111.985 12.8483 112.268 12.6888 112.526C12.539 112.79 12.4022 113.028 12.2753 113.246C12.0311 113.67 11.8357 114.002 11.6989 114.24C11.6338 114.348 11.585 114.432 11.5459 114.497C11.5101 114.556 11.4906 114.582 11.4873 114.582C11.4873 114.582 11.5003 114.55 11.5296 114.488C11.5654 114.419 11.611 114.331 11.6696 114.224C11.7999 113.983 11.9855 113.644 12.2166 113.213C12.3371 112.992 12.4706 112.751 12.6171 112.483C12.7669 112.219 12.9427 111.939 13.1218 111.633C13.4897 111.027 13.8902 110.323 14.3917 109.583C14.6359 109.208 14.8931 108.817 15.1601 108.41C15.4303 108.002 15.7331 107.595 16.0327 107.165C16.6285 106.298 17.322 105.415 18.0384 104.473C19.5101 102.622 21.213 100.653 23.1242 98.7078C25.0485 96.7719 26.9956 95.0479 28.8287 93.5553C29.7599 92.8253 30.6358 92.1246 31.4954 91.5185C31.9219 91.2121 32.3257 90.9058 32.7294 90.632C33.1332 90.3615 33.5239 90.1008 33.8951 89.8499C34.6309 89.3415 35.3277 88.9308 35.9301 88.5561C36.2329 88.3703 36.5129 88.1943 36.7734 88.0411C37.0371 87.8912 37.278 87.7576 37.4962 87.6338C37.926 87.3959 38.2613 87.2068 38.5023 87.0732C38.6097 87.0146 38.6976 86.9689 38.766 86.9298C38.8246 86.8972 38.8572 86.8842 38.8572 86.8874L38.8604 86.8907Z" fill="#263238"/>
<path d="M46.8768 80.0403C46.8768 80.0403 46.8117 80.0697 46.6847 80.112C46.5382 80.1577 46.3526 80.2131 46.1214 80.2848C45.8772 80.3565 45.5777 80.4477 45.2325 80.5618C44.8874 80.6758 44.4902 80.7932 44.0636 80.9528C43.1975 81.2494 42.1817 81.6372 41.0681 82.1065C39.9578 82.5856 38.7564 83.1494 37.5223 83.8012C36.2948 84.4595 35.1552 85.1439 34.1394 85.7989C33.13 86.4605 32.2379 87.0862 31.5118 87.6403C31.1406 87.9075 30.8215 88.1715 30.535 88.3931C30.2485 88.6147 30.0043 88.8135 29.8089 88.9764C29.6201 89.1296 29.4703 89.2502 29.3498 89.348C29.2424 89.4327 29.187 89.4718 29.1837 89.4685C29.1805 89.4653 29.2293 89.4131 29.3303 89.3219C29.4442 89.2209 29.5875 89.0872 29.7698 88.9276C29.9587 88.7548 30.1964 88.5495 30.4796 88.3214C30.7629 88.09 31.0755 87.8228 31.4434 87.5457C32.163 86.9787 33.0519 86.3399 34.0612 85.6686C35.0771 85.007 36.2167 84.3128 37.4507 83.6513C38.688 82.9962 39.896 82.4357 41.0128 81.9631C42.1328 81.5004 43.1585 81.1223 44.0311 80.8388C44.4641 80.6889 44.8646 80.5781 45.213 80.4705C45.5614 80.363 45.8642 80.2815 46.1117 80.2196C46.3461 80.1609 46.5349 80.112 46.6847 80.0762C46.815 80.0469 46.8866 80.0306 46.8866 80.0371L46.8768 80.0403Z" fill="#263238"/>
<path d="M6.83761 115.039C4.44446 113.833 1.47173 115.048 0.690294 117.76C0.198638 119.467 0.846581 121.351 2.26945 122.41C3.15834 123.072 4.17746 123.333 5.16077 123.271H5.18031C5.50591 123.248 5.77941 123.15 6.13757 123.095L10.2597 122.342C10.7741 122.247 11.0541 121.69 10.823 121.221L8.99959 117.519C8.99959 117.519 8.71307 116.857 8.53724 116.577L8.53073 116.564C8.12373 115.935 7.55393 115.4 6.83761 115.039ZM6.57388 119.78C6.0985 120.725 4.94913 121.107 4.0049 120.631C3.06066 120.155 2.67971 119.005 3.15508 118.06C3.63046 117.114 4.77982 116.733 5.72406 117.209C6.6683 117.685 7.04925 118.835 6.57388 119.78Z" fill="#31B9B9"/>
<path d="M112.778 86.1477C114.106 83.8208 113.055 80.7834 110.391 79.8579C108.714 79.2745 106.8 79.8221 105.67 81.1908C104.964 82.0447 104.648 83.0517 104.657 84.0359V84.0555C104.664 84.3814 104.745 84.6616 104.781 85.0234L105.312 89.1851C105.377 89.7033 105.921 90.0129 106.399 89.8075L110.189 88.1846C110.189 88.1846 110.867 87.9336 111.153 87.7707L111.166 87.7642C111.817 87.3894 112.381 86.8484 112.778 86.151V86.1477ZM108.063 85.6328C107.145 85.1081 106.826 83.9381 107.353 83.0191C107.878 82.1001 109.047 81.7807 109.965 82.3086C110.883 82.8333 111.202 84.0033 110.675 84.9223C110.15 85.8414 108.981 86.1608 108.063 85.6328Z" fill="#31B9B9"/>
<path d="M47.9248 84.0131C47.0067 82.6737 45.0726 82.4456 43.8646 83.6546C43.106 84.4172 42.8976 85.6068 43.3437 86.5877C43.6237 87.2004 44.086 87.6371 44.6265 87.8913L44.6395 87.8946C44.8186 87.9793 44.9912 88.0086 45.1996 88.0836L47.609 88.8918C47.9086 88.9928 48.2211 88.7778 48.2374 88.4616L48.3514 85.962C48.3514 85.962 48.3937 85.5253 48.3807 85.3265V85.3167C48.3481 84.8637 48.2016 84.414 47.9281 84.0099L47.9248 84.0131ZM46.3978 86.4541C45.8703 86.8159 45.1475 86.6822 44.7828 86.151C44.4214 85.6231 44.5549 84.8996 45.0856 84.5346C45.6131 84.1728 46.3359 84.3064 46.7006 84.8377C47.062 85.3656 46.9285 86.0891 46.3978 86.4541Z" fill="#31B9B9"/>
<path d="M81.3283 123.649C81.3283 122.023 79.8599 120.742 78.1798 121.058C77.1216 121.257 76.2783 122.12 76.0959 123.183C75.9787 123.844 76.1155 124.47 76.4183 124.985L76.4248 124.995C76.5257 125.164 76.6527 125.288 76.7797 125.467L78.31 127.498C78.5021 127.752 78.8798 127.752 79.0686 127.498L80.5762 125.5C80.5762 125.5 80.8562 125.164 80.9604 124.991L80.9669 124.985C81.1981 124.594 81.3316 124.138 81.3316 123.652L81.3283 123.649ZM78.6909 124.799C78.0495 124.799 77.5318 124.278 77.5318 123.639C77.5318 123 78.0528 122.476 78.6909 122.476C79.3291 122.476 79.8501 122.997 79.8501 123.639C79.8501 124.281 79.3291 124.799 78.6909 124.799Z" fill="#31B9B9"/>
<path d="M141.431 115.182C142.681 114.142 142.726 112.193 141.411 111.102C140.584 110.414 139.379 110.32 138.445 110.854C137.862 111.19 137.468 111.692 137.266 112.255V112.265C137.201 112.451 137.188 112.627 137.133 112.842L136.55 115.319C136.478 115.628 136.719 115.918 137.035 115.905L139.532 115.788C139.532 115.788 139.969 115.788 140.167 115.759H140.177C140.626 115.684 141.059 115.498 141.434 115.185L141.431 115.182ZM138.862 113.885C138.451 113.393 138.52 112.66 139.011 112.249C139.503 111.838 140.236 111.907 140.646 112.399C141.056 112.891 140.988 113.624 140.496 114.035C140.004 114.445 139.272 114.377 138.862 113.885Z" fill="#31B9B9"/>
<path d="M71.2872 27.1994L86.1345 22.8519L88.1435 27.9066L70.9062 30.7419L71.2872 27.1994Z" fill="#FFBE9D"/>
<path d="M71.287 27.1993C71.287 27.1993 68.4185 27.3916 68.1319 27.5709C67.8454 27.7534 64.876 27.9098 64.8727 28.3269C64.8694 28.7474 65.0127 28.529 65.4848 28.5583C65.9569 28.5877 67.0835 28.4149 67.0965 28.617C67.1128 28.8191 63.6224 29.3731 63.5117 29.523C63.3977 29.6729 63.0949 29.8196 63.5312 29.9434C63.5312 29.9434 62.9907 30.2074 63.1079 30.5268C63.2219 30.8461 63.4726 31.1003 63.7884 31.071C64.1075 31.0417 66.6895 30.9472 66.6895 30.9472C66.6895 30.9472 63.8373 31.0873 63.8536 31.3741C63.8666 31.6609 63.7689 31.625 64.1173 31.8303C64.469 32.0357 66.3444 32.0357 66.3444 32.0357L68.5259 31.5957C68.5259 31.5957 66.9956 32.342 66.81 32.6418C66.6244 32.9417 66.517 33.4957 66.8165 33.6814C67.1161 33.8672 67.2365 33.6 67.458 33.3686C67.6794 33.1372 69.5646 32.2149 69.9032 31.9672C70.2418 31.7195 71.9154 30.1063 71.9154 30.1063L71.2903 27.1993H71.287Z" fill="#FFBE9D"/>
<path d="M99.8415 3.16122C99.9294 3.03412 100.069 2.94939 100.209 2.88421C100.672 2.67563 101.216 2.65608 101.694 2.82555C101.443 2.43121 101.199 2.02058 101.115 1.56107C101.03 1.10155 101.137 0.583373 101.492 0.280289C101.841 -0.016278 102.349 -0.0423497 102.801 0.0293477C103.43 0.130376 104.048 0.400871 104.481 0.870163C104.914 1.33946 105.142 2.01406 104.996 2.63653L103.7 3.65658C103.325 4.13891 102.821 4.51695 102.254 4.74182C101.994 4.84285 101.668 4.90151 101.463 4.71575C101.287 4.55606 101.281 4.26927 101.382 4.05418C101.483 3.83909 101.668 3.67614 101.847 3.52297C101.362 3.74458 100.825 3.84561 100.294 3.80976C100.109 3.79672 99.9034 3.75435 99.8057 3.59792C99.7243 3.46431 99.7536 3.28506 99.8415 3.15796V3.16122Z" fill="#263238"/>
<path d="M101.245 0.319439C101.245 0.335734 101.476 0.342252 101.834 0.44328C102.189 0.541049 102.671 0.752883 103.088 1.13418C103.505 1.51548 103.759 1.97826 103.886 2.32371C104.016 2.67242 104.042 2.90381 104.058 2.90055C104.065 2.90055 104.062 2.84188 104.049 2.7376C104.035 2.63331 104.003 2.4834 103.944 2.30415C103.83 1.94567 103.576 1.4666 103.147 1.07226C102.717 0.677926 102.215 0.469352 101.851 0.384619C101.665 0.342252 101.515 0.322698 101.408 0.319439C101.304 0.312921 101.245 0.319439 101.245 0.322698V0.319439Z" fill="#455A64"/>
<path d="M103.641 3.4447C103.684 3.32737 103.765 3.2296 103.843 3.13835C104.166 2.76031 104.517 2.36598 104.996 2.23562C105.08 2.2128 105.178 2.20303 105.246 2.25517C105.357 2.3399 105.318 2.51915 105.23 2.62669C105.142 2.73424 105.015 2.81245 104.957 2.9363L104.257 3.66956C104.192 3.75756 104.104 3.83251 103.999 3.86184C103.895 3.89117 103.772 3.87162 103.697 3.79341C103.612 3.70541 103.602 3.56202 103.645 3.4447H103.641Z" fill="#455A64"/>
<path d="M100.906 9.87467C101.121 8.7438 101.343 7.60968 101.75 6.53422C102.157 5.45876 102.756 4.43544 103.625 3.68262C103.755 3.56855 104.739 2.85809 104.882 2.95586C104.986 3.02756 104.214 3.77061 104.218 3.89445C104.247 5.08397 103.794 6.24417 103.143 7.23816C102.489 8.23214 101.759 9.04689 100.91 9.87792" fill="#263238"/>
<path d="M98.204 14.8055L102.915 5.9737C104.221 3.40237 106.803 2.01731 109.336 3.39259L109.603 3.5588C111.863 4.96342 112.664 7.86716 111.449 10.2332C110.3 12.4656 108.998 14.9326 108.275 16.0635C106.787 18.3969 104.211 17.3019 104.211 17.3019C104.205 17.3019 103.287 18.9151 102.886 19.6223C102.886 19.6223 102.525 19.8243 100.268 18.5827C98.0086 17.3377 98.204 14.8023 98.204 14.8023V14.8055Z" fill="#FFBE9D"/>
<path d="M104.211 17.3051C104.211 17.3051 102.678 16.4708 101.714 14.4991C101.714 14.4991 101.398 16.6729 103.872 17.9178L104.208 17.3051H104.211Z" fill="#EB996E"/>
<path d="M109.815 11.6541C109.711 11.8366 109.473 11.8952 109.281 11.7909C109.089 11.6866 109.021 11.4553 109.125 11.2728C109.229 11.0903 109.467 11.0283 109.659 11.1359C109.851 11.2402 109.919 11.4715 109.818 11.6541H109.815Z" fill="#263238"/>
<path d="M110.394 10.81C110.326 10.8295 110.189 10.4808 109.828 10.2592C109.47 10.0311 109.089 10.0506 109.079 9.98221C109.072 9.94962 109.164 9.89747 109.33 9.88444C109.496 9.8714 109.74 9.91051 109.965 10.0506C110.189 10.1908 110.326 10.3928 110.381 10.546C110.44 10.6992 110.427 10.8035 110.394 10.81Z" fill="#263238"/>
<path d="M106.406 9.7737C106.302 9.9562 106.064 10.0149 105.872 9.91057C105.68 9.80629 105.611 9.5749 105.716 9.3924C105.82 9.2099 106.057 9.15123 106.25 9.25552C106.442 9.35981 106.51 9.5912 106.409 9.7737H106.406Z" fill="#263238"/>
<path d="M106.731 8.82207C106.663 8.83836 106.526 8.49291 106.165 8.2713C105.807 8.04318 105.426 8.06273 105.416 7.99429C105.409 7.9617 105.501 7.90956 105.667 7.89652C105.833 7.88349 106.077 7.92259 106.301 8.06273C106.526 8.20286 106.663 8.40492 106.718 8.55809C106.777 8.71126 106.764 8.81555 106.731 8.82207Z" fill="#263238"/>
<path d="M106.266 12.4689C106.276 12.4461 106.526 12.5471 106.917 12.7263C107.015 12.7752 107.112 12.8111 107.168 12.7557C107.23 12.7035 107.252 12.5797 107.275 12.4428C107.327 12.1658 107.383 11.8758 107.438 11.5694C107.679 10.3343 107.917 9.34027 107.966 9.35005C108.014 9.35982 107.858 10.3701 107.617 11.6053C107.555 11.9083 107.497 12.1984 107.441 12.4754C107.412 12.6025 107.396 12.7589 107.266 12.8665C107.197 12.9186 107.099 12.9284 107.031 12.9056C106.959 12.886 106.907 12.8567 106.862 12.8306C106.484 12.6221 106.256 12.4819 106.266 12.4624V12.4689Z" fill="#263238"/>
<path d="M107.435 8.00731C107.331 8.07249 107.034 7.76289 106.608 7.49891C106.188 7.22516 105.781 7.08828 105.794 6.96444C105.8 6.90578 105.924 6.86667 106.123 6.87971C106.318 6.89275 106.585 6.97096 106.839 7.13391C107.093 7.29686 107.278 7.50543 107.373 7.6749C107.471 7.84762 107.484 7.97472 107.435 8.00731Z" fill="#263238"/>
<path d="M110.899 10.0637C110.775 10.0995 110.538 9.83229 110.196 9.61068C109.857 9.37929 109.522 9.26523 109.509 9.13487C109.506 9.07621 109.603 9.0208 109.779 9.02406C109.955 9.02406 110.206 9.09576 110.44 9.25219C110.675 9.40862 110.834 9.61068 110.902 9.77037C110.971 9.93006 110.961 10.0409 110.902 10.0604L110.899 10.0637Z" fill="#263238"/>
<path d="M102.03 7.83463C102.001 7.79226 100.711 6.35506 99.767 7.99432C98.8195 9.63358 100.659 10.2463 100.692 10.2006C100.721 10.155 102.033 7.83463 102.033 7.83463H102.03Z" fill="#FFBE9D"/>
<path d="M100.545 9.28814C100.545 9.28814 100.506 9.2914 100.444 9.28814C100.385 9.28162 100.294 9.24903 100.229 9.17082C100.092 9.00787 100.105 8.64938 100.268 8.34956C100.35 8.19639 100.464 8.07254 100.584 7.98781C100.705 7.89656 100.828 7.85745 100.926 7.8933C101.024 7.92263 101.056 8.01062 101.05 8.06929C101.046 8.12795 101.017 8.15402 101.024 8.1638C101.024 8.17031 101.076 8.15728 101.102 8.08232C101.115 8.04647 101.118 7.99759 101.095 7.94219C101.076 7.88678 101.027 7.8379 100.962 7.80857C100.831 7.74339 100.649 7.79553 100.516 7.89004C100.376 7.98129 100.245 8.11817 100.154 8.2909C99.9752 8.62657 99.9654 9.03394 100.161 9.23926C100.258 9.33703 100.376 9.35658 100.447 9.3468C100.522 9.33703 100.551 9.30444 100.548 9.29792L100.545 9.28814Z" fill="#EB996E"/>
<path d="M111.905 6.94164C112.253 6.9449 111.944 5.62827 111.456 4.96018C110.72 3.9499 109.365 2.81904 108.307 2.56158C107.034 2.25197 105.81 2.28131 104.693 2.96895C103.576 3.65659 102.71 4.70598 102.095 5.86618C101.906 6.22141 101.736 6.60271 101.756 7.00356C101.779 7.49892 102.091 7.97799 101.789 8.4701C101.678 8.64934 101.626 8.86443 101.675 9.06975C101.795 9.56185 102.332 9.46734 102.674 9.26203C103.4 8.82207 103.876 8.0725 104.325 7.35227C104.644 6.84061 104.97 6.31592 105.106 5.72604C105.181 5.40666 105.198 5.07425 105.292 4.75813C105.383 4.44201 105.572 4.1324 105.875 4.00204C105.924 3.98249 105.995 3.95968 106.087 3.94338C106.783 3.79999 107.506 4.04441 107.972 4.58214C108.714 5.43599 110.02 6.82106 110.609 6.74284C111.459 6.62552 111.768 6.41043 111.768 6.41043L111.898 6.94164H111.905Z" fill="#263238"/>
<path d="M108.522 2.38563C109.597 2.5942 110.619 3.19386 111.218 4.11289C111.537 4.60173 111.729 5.20464 111.593 5.76844C111.453 6.33551 110.906 6.81783 110.329 6.74288H110.287C109.45 6.58319 109.046 6.23122 108.483 5.59246C108.011 5.05473 107.692 4.39316 107.213 3.85869C106.705 3.28837 106.025 2.87774 105.289 2.69197C106.324 2.33023 107.448 2.17706 108.526 2.38563H108.522Z" fill="#263238"/>
<path d="M105.611 2.55836C105.611 2.55836 105.703 2.56162 105.865 2.58769C106.028 2.61376 106.259 2.67894 106.513 2.82233C106.767 2.96573 107.037 3.19386 107.278 3.5002C107.523 3.80328 107.737 4.17807 107.952 4.57566C108.167 4.97326 108.379 5.35456 108.62 5.67068C108.858 5.99006 109.125 6.23448 109.382 6.39417C109.636 6.55386 109.873 6.63207 110.036 6.66141C110.118 6.6777 110.183 6.68422 110.228 6.68422C110.274 6.68422 110.297 6.68422 110.297 6.68422C110.303 6.66466 109.909 6.67444 109.418 6.34528C109.173 6.18234 108.916 5.94117 108.688 5.62505C108.457 5.31219 108.249 4.93415 108.034 4.53655C107.819 4.13896 107.597 3.76092 107.347 3.45132C107.099 3.14171 106.813 2.91033 106.546 2.77019C106.279 2.6268 106.038 2.57139 105.872 2.5551C105.787 2.54532 105.722 2.54532 105.68 2.54858C105.634 2.54858 105.611 2.5551 105.615 2.55836H105.611Z" fill="#455A64"/>
<path d="M106.611 2.41162C106.604 2.43117 106.963 2.41814 107.422 2.70493C107.65 2.84506 107.894 3.0569 108.112 3.33391C108.333 3.61092 108.525 3.95312 108.705 4.32464C108.884 4.69616 109.04 5.05791 109.212 5.37729C109.382 5.69667 109.561 5.97042 109.74 6.17899C109.916 6.38757 110.088 6.53422 110.212 6.61896C110.274 6.66132 110.326 6.69391 110.362 6.71347C110.398 6.73302 110.417 6.7428 110.417 6.73954C110.43 6.7265 110.124 6.56355 109.789 6.13989C109.623 5.93131 109.45 5.65756 109.287 5.34144C109.125 5.02532 108.968 4.66357 108.789 4.28879C108.607 3.91401 108.411 3.5653 108.18 3.28503C107.952 3.0015 107.695 2.78966 107.457 2.65279C107.22 2.51591 107.002 2.45073 106.852 2.42792C106.777 2.41814 106.718 2.41162 106.676 2.41162C106.637 2.41162 106.614 2.41162 106.614 2.41488L106.611 2.41162Z" fill="#455A64"/>
<path d="M103.71 3.53931C103.71 3.53931 103.687 3.58819 103.664 3.67944C103.638 3.77069 103.612 3.90757 103.593 4.07704C103.55 4.41597 103.55 4.89178 103.661 5.40344C103.772 5.9151 103.974 6.34854 104.153 6.63859C104.241 6.78524 104.322 6.89605 104.384 6.97101C104.442 7.04596 104.478 7.08507 104.485 7.07855C104.498 7.06877 104.371 6.90257 104.208 6.606C104.045 6.31269 103.86 5.88577 103.749 5.38389C103.641 4.88526 103.632 4.41597 103.658 4.08356C103.684 3.74788 103.726 3.54257 103.713 3.53931H103.71Z" fill="#455A64"/>
<path d="M102.847 4.58545C102.847 4.58545 102.818 4.62456 102.785 4.70929C102.753 4.79076 102.717 4.91786 102.704 5.07755C102.668 5.39693 102.743 5.84993 102.974 6.28338C103.205 6.71356 103.508 7.03946 103.726 7.26433C103.948 7.4892 104.094 7.61955 104.101 7.60978C104.11 7.6 103.98 7.45661 103.772 7.22196C103.567 6.98731 103.277 6.65816 103.052 6.24101C102.828 5.82386 102.749 5.39042 102.766 5.08407C102.779 4.77447 102.867 4.59197 102.847 4.58871V4.58545Z" fill="#455A64"/>
<path d="M110.756 4.07378C110.756 4.07378 110.779 4.23347 110.831 4.48767C110.88 4.74187 110.945 5.0971 110.912 5.48492C110.88 5.87274 110.733 6.20841 110.58 6.41047C110.427 6.61578 110.287 6.70052 110.297 6.71355C110.297 6.71681 110.336 6.70052 110.398 6.66141C110.46 6.6223 110.541 6.5506 110.629 6.44957C110.802 6.24752 110.968 5.89881 111 5.4947C111.033 5.09058 110.958 4.72558 110.889 4.47464C110.821 4.22044 110.762 4.07052 110.753 4.07378H110.756Z" fill="#455A64"/>
<path d="M111.453 5.51091C111.427 5.50113 111.368 5.92154 111.029 6.28329C110.7 6.65481 110.29 6.75258 110.3 6.77865C110.3 6.78843 110.407 6.77865 110.564 6.71999C110.72 6.65807 110.922 6.53749 111.094 6.34521C111.267 6.15293 111.371 5.94109 111.417 5.7814C111.462 5.62171 111.462 5.51417 111.453 5.51417V5.51091Z" fill="#455A64"/>
<path d="M99.744 9.62054C99.7636 9.63032 99.7017 9.74113 99.6659 9.92689C99.6496 10.0181 99.6463 10.1289 99.7017 10.2267C99.7505 10.3212 99.8678 10.3962 99.9947 10.406C100.122 10.4157 100.245 10.3538 100.324 10.2691C100.405 10.1876 100.447 10.0833 100.467 9.99207C100.503 9.80956 100.46 9.68572 100.483 9.68246C100.496 9.67595 100.574 9.79001 100.565 10.0051C100.558 10.1094 100.519 10.243 100.418 10.3538C100.324 10.4614 100.164 10.5526 99.985 10.5396C99.8091 10.5265 99.6529 10.4223 99.5877 10.2821C99.5226 10.142 99.5389 10.0018 99.5715 9.90082C99.6366 9.69876 99.731 9.60751 99.744 9.61729V9.62054Z" fill="#263238"/>
<path d="M99.4544 8.85796C99.4609 8.87752 99.3795 8.90359 99.3404 9.01113C99.3209 9.06328 99.3144 9.13172 99.3404 9.19038C99.3665 9.24904 99.4283 9.29792 99.5097 9.31422C99.6758 9.35333 99.806 9.23274 99.8549 9.12846C99.907 9.02091 99.907 8.93944 99.9265 8.93618C99.9428 8.93292 99.9819 9.01765 99.946 9.16105C99.9265 9.22949 99.8842 9.31422 99.8028 9.37614C99.7214 9.44132 99.5977 9.47065 99.4837 9.44458C99.3665 9.41851 99.2623 9.33703 99.2265 9.23274C99.1907 9.12846 99.2167 9.03069 99.2558 8.96551C99.3404 8.82863 99.4609 8.83841 99.4576 8.8547L99.4544 8.85796Z" fill="#263238"/>
<path d="M99.9785 7.71075C99.972 7.7303 99.8939 7.71075 99.7897 7.74334C99.6855 7.77593 99.565 7.88348 99.578 8.04643C99.5845 8.20937 99.718 8.30388 99.8255 8.32344C99.9329 8.34625 100.008 8.31692 100.018 8.33647C100.027 8.34951 99.9622 8.42121 99.8157 8.42121C99.7441 8.42121 99.6594 8.39839 99.5813 8.33647C99.5032 8.27455 99.4511 8.17027 99.4446 8.0562C99.438 7.9454 99.4771 7.83459 99.5487 7.76289C99.6171 7.6912 99.7018 7.65861 99.7701 7.64883C99.9134 7.63254 99.9883 7.69446 99.9785 7.70749V7.71075Z" fill="#263238"/>
<path d="M105.357 12.3711C105.413 12.4005 105.191 12.7622 105.338 13.2087C105.484 13.6552 105.891 13.854 105.865 13.9061C105.855 13.9322 105.735 13.9224 105.572 13.8246C105.409 13.7301 105.211 13.5346 105.12 13.2608C105.028 12.9871 105.081 12.7296 105.159 12.5732C105.24 12.4135 105.334 12.3516 105.357 12.3679V12.3711Z" fill="#263238"/>
<path d="M86.1958 73.9527L84.1966 79.3756C84.1966 79.3756 89.9304 82.25 89.8783 83.3613L78.3228 82.0936L81.0187 73.1151L86.1958 73.9527Z" fill="#455A64"/>
<path d="M80.6803 78.4826C80.4491 78.5185 80.2668 78.7531 80.2961 78.9845C80.3221 79.2159 80.5598 79.4049 80.791 79.3723C81.0222 79.3397 81.2501 79.066 81.1947 78.8378C81.1394 78.6097 80.8528 78.4044 80.6347 78.4924" fill="white"/>
<path d="M78.3231 82.0935L78.5966 81.181L89.4846 82.7258C89.4846 82.7258 89.973 83.0061 89.8753 83.3613L78.3198 82.0935H78.3231Z" fill="white"/>
<path d="M84.2066 79.444C84.2001 79.4994 83.9136 79.4961 83.6173 79.646C83.3145 79.7894 83.1452 80.0176 83.0963 79.9915C83.0442 79.9752 83.168 79.646 83.5294 79.4701C83.8908 79.2908 84.2262 79.3951 84.2066 79.444Z" fill="#263238"/>
<path d="M85.4407 80.1121C85.4472 80.1675 85.1932 80.2359 84.9751 80.4543C84.7504 80.6661 84.6755 80.9203 84.6169 80.9105C84.5616 80.9105 84.5616 80.5781 84.8351 80.3141C85.1086 80.0469 85.4439 80.0599 85.4374 80.1121H85.4407Z" fill="#263238"/>
<path d="M85.9782 81.6438C85.9261 81.6503 85.8772 81.3603 86.0563 81.067C86.2321 80.7737 86.5121 80.6792 86.5317 80.7281C86.5577 80.7769 86.3689 80.9236 86.2256 81.168C86.0758 81.4092 86.0335 81.6438 85.9782 81.6438Z" fill="#263238"/>
<path d="M84.6494 78.2349C84.6168 78.2806 84.3759 78.1535 84.0568 78.1078C83.7377 78.0589 83.474 78.1143 83.4544 78.0622C83.4316 78.0166 83.7116 77.8569 84.0861 77.9123C84.4605 77.9644 84.6852 78.1958 84.6494 78.2349Z" fill="#263238"/>
<path d="M49.8754 62.5658L43.9169 63.6999C43.9169 63.6999 44.07 70.1168 43.0639 70.5926L38.7627 59.7826L47.9511 57.9543L49.8754 62.5658Z" fill="#455A64"/>
<path d="M43.0543 60.1705C42.9142 59.9847 42.6212 59.9326 42.4291 60.0662C42.237 60.1998 42.1816 60.4964 42.3184 60.6854C42.4551 60.8744 42.8035 60.9461 42.9794 60.7929C43.1552 60.6397 43.2008 60.2878 43.0217 60.1379" fill="white"/>
<path d="M38.7627 59.7826L39.6972 59.5968L43.4416 69.9473C43.4416 69.9473 43.4253 70.5111 43.0639 70.5926L38.7627 59.7826Z" fill="white"/>
<path d="M43.8585 63.739C43.8064 63.7585 43.6762 63.5043 43.4027 63.312C43.1357 63.1132 42.8524 63.0709 42.8557 63.0122C42.8459 62.9601 43.1943 62.9112 43.5199 63.1524C43.8488 63.387 43.9139 63.7325 43.8585 63.739Z" fill="#263238"/>
<path d="M43.8486 65.1437C43.803 65.1763 43.6207 64.984 43.3277 64.8927C43.0346 64.795 42.7774 64.8438 42.7579 64.7917C42.7286 64.7461 43.0248 64.5864 43.3895 64.7037C43.7542 64.821 43.9007 65.1209 43.8486 65.1437Z" fill="#263238"/>
<path d="M42.7515 66.3365C42.7222 66.2941 42.9566 66.1149 43.2985 66.1344C43.6404 66.154 43.8553 66.356 43.8195 66.3951C43.7869 66.4408 43.5687 66.343 43.2887 66.33C43.0087 66.3104 42.7775 66.3854 42.7515 66.3332V66.3365Z" fill="#263238"/>
<path d="M45.1347 63.563C45.0794 63.5532 45.0794 63.2827 44.9687 62.9796C44.8645 62.6765 44.6887 62.468 44.7277 62.4256C44.757 62.3832 45.0273 62.556 45.1543 62.9144C45.2845 63.2697 45.1868 63.576 45.1347 63.563Z" fill="#263238"/>
<path d="M75.7347 26.7789C75.7347 26.7789 71.8373 28.7148 69.9195 31.7196C68.031 34.6852 62.587 49.4712 62.587 49.4712C62.587 49.4712 60.3534 50.8791 60.0082 51.9252C59.6631 52.9713 44.7539 57.837 44.7539 57.837L46.2158 63.7683C46.2158 63.7683 64.2508 59.864 65.4523 58.756C66.6537 57.6479 77.3985 44.9836 77.3985 44.9836L85.3399 58.681C85.3399 58.681 82.5788 64.5798 81.9146 66.7209C81.2373 68.9012 78.7758 76.1296 78.7758 76.1296L85.2552 76.5761C85.2552 76.5761 91.1974 63.7357 92.7017 61.2654C94.2059 58.7951 93.9976 57.1917 93.4571 55.7414C92.9166 54.2912 85.5027 36.3245 85.5027 36.3245L88.2572 33.8314L79.033 24.7225L75.7347 26.7757V26.7789Z" fill="#263238"/>
<path d="M63.6222 55.6664C63.6027 55.673 63.5018 55.409 63.3911 54.969C63.2771 54.5291 63.1632 53.9066 63.1111 53.2157C63.0264 52.1304 63.1436 51.2049 63.2152 50.8692L63.2673 50.8757C63.2413 50.98 63.225 51.0322 63.2152 51.0289C63.2055 51.0289 63.2055 50.9735 63.2152 50.866L63.2673 50.8725C63.2543 51.2147 63.1827 52.1304 63.2641 53.1994C63.3129 53.8838 63.4106 54.4997 63.4953 54.9429C63.5799 55.3862 63.645 55.6599 63.6222 55.6664Z" fill="#455A64"/>
<path d="M63.378 55.4579C63.3454 55.4807 62.844 54.8256 62.3881 53.9164C61.9323 53.0104 61.7076 52.2152 61.7434 52.2022C61.7858 52.1859 62.0723 52.9517 62.5216 53.8479C62.971 54.7442 63.4105 55.4318 63.3747 55.4579H63.378Z" fill="#455A64"/>
<path d="M89.5692 58.492C89.553 58.5376 88.8627 58.2345 87.9608 58.2834C87.0589 58.3192 86.3979 58.6908 86.3784 58.6451C86.3686 58.6288 86.5216 58.5148 86.7984 58.3942C87.0751 58.2704 87.4854 58.153 87.951 58.1302C88.4166 58.1074 88.8366 58.1856 89.1264 58.2801C89.4162 58.3746 89.5758 58.4724 89.5692 58.4887V58.492Z" fill="#455A64"/>
<path d="M88.5472 59.0396C88.5277 59.0819 87.9904 58.8473 87.2871 58.7788C86.5806 58.7006 86.0075 58.8147 85.9978 58.7691C85.9847 58.7332 86.5676 58.5442 87.3034 58.6257C88.0393 58.7006 88.57 59.007 88.5472 59.0396Z" fill="#455A64"/>
<path d="M80.4821 41.1609C80.4984 41.1739 80.3225 41.4444 80.0132 41.8648C79.7039 42.2852 79.2643 42.8555 78.7532 43.4682C78.242 44.0776 77.7568 44.6121 77.3987 44.9901C77.0372 45.3682 76.8028 45.5898 76.7865 45.5735C76.7703 45.5572 76.9786 45.3128 77.3173 44.9152C77.6852 44.4818 78.1378 43.9538 78.6359 43.3672C79.1243 42.774 79.5672 42.2363 79.9286 41.7964C80.2574 41.3922 80.4658 41.1446 80.4821 41.1576V41.1609Z" fill="#455A64"/>
<path d="M63.4758 51.1528C63.4758 51.1528 63.5018 51.0778 63.5637 50.9409C63.6255 50.8041 63.7265 50.6053 63.8404 50.3413C64.0814 49.8198 64.407 49.0572 64.7716 48.0991C65.1363 47.141 65.5303 45.9873 65.947 44.6935C66.3638 43.4029 66.8066 41.9788 67.3276 40.4992C67.8486 39.0196 68.4151 37.6345 69.0272 36.4157C69.6361 35.2001 70.284 34.1507 70.9027 33.3294C71.5181 32.5049 72.0846 31.889 72.5014 31.4946C72.7032 31.2893 72.8791 31.1524 72.9898 31.0514C73.1037 30.9536 73.1656 30.9015 73.1688 30.908C73.1721 30.9113 73.1167 30.9699 73.0093 31.0742C72.9051 31.1818 72.7358 31.3284 72.5404 31.537C72.1367 31.9444 71.5864 32.5636 70.9841 33.3914C70.3817 34.2159 69.7468 35.262 69.1477 36.4776C68.5486 37.6899 67.9886 39.0717 67.4676 40.5481C66.9499 42.0244 66.5038 43.4486 66.0773 44.7358C65.654 46.0264 65.247 47.1801 64.8693 48.135C64.4916 49.0898 64.1465 49.8492 63.8893 50.3641C63.7655 50.6248 63.6548 50.8171 63.5865 50.9507C63.5148 51.0843 63.4758 51.1528 63.4692 51.1495L63.4758 51.1528Z" fill="#455A64"/>
<path d="M62.815 51.5635C62.8248 51.6058 62.5318 51.6906 62.2322 51.8926C61.9261 52.0914 61.7373 52.3261 61.7015 52.3C61.6657 52.2804 61.8154 51.9839 62.1508 51.7655C62.4829 51.5439 62.815 51.5244 62.8183 51.5635H62.815Z" fill="#455A64"/>
<path d="M61.4602 52.7562C61.4602 52.7562 61.4113 52.7888 61.3137 52.8409C61.1997 52.8996 61.0564 52.9713 60.8774 53.0593C60.4997 53.2483 59.9429 53.509 59.2526 53.8186C57.8721 54.4411 55.9413 55.2493 53.7663 56.0282C51.5913 56.8071 49.5856 57.4067 48.1236 57.8011C47.3943 57.9966 46.7984 58.1465 46.3849 58.241C46.1928 58.2834 46.0333 58.3192 45.9095 58.3486C45.8021 58.3714 45.7435 58.3812 45.7402 58.3746C45.7402 58.3681 45.7956 58.3486 45.8998 58.3192C46.0235 58.2834 46.1765 58.241 46.3686 58.1856C46.7952 58.065 47.378 57.8988 48.0911 57.6968C49.5432 57.2764 51.5392 56.6604 53.7109 55.8848C55.8827 55.1059 57.8167 54.3172 59.2038 53.7208C59.881 53.4243 60.4378 53.1831 60.8448 53.0039C61.0271 52.9256 61.1737 52.8605 61.2909 52.8116C61.3951 52.7692 61.4504 52.7497 61.4504 52.7529L61.4602 52.7562Z" fill="#455A64"/>
<path d="M75.5132 34.0269C75.5132 34.0269 75.3732 34.2289 75.0508 34.4473C74.7317 34.6657 74.2271 34.8905 73.6345 34.9655C73.0419 35.0339 72.4981 34.9361 72.1367 34.7993C71.772 34.6624 71.5799 34.5125 71.5897 34.4994C71.6027 34.4766 71.8111 34.5907 72.1725 34.695C72.5307 34.8025 73.0517 34.8807 73.6182 34.8123C74.1847 34.7439 74.6731 34.5451 74.9955 34.356C75.3211 34.167 75.4969 34.0073 75.5132 34.0269Z" fill="#455A64"/>
<path d="M80.3582 76.1849C80.3582 76.1849 80.3648 76.1198 80.3941 75.9992C80.4299 75.8623 80.4722 75.6896 80.5276 75.4745C80.648 75.0215 80.8336 74.3664 81.0746 73.5615C81.5564 71.9515 82.2793 69.7452 83.191 67.3466C84.1026 64.9513 85.0306 62.8199 85.7437 61.298C86.0986 60.5354 86.3948 59.9259 86.6065 59.5055C86.7074 59.3067 86.7888 59.1503 86.8539 59.0232C86.9126 58.9124 86.9451 58.857 86.9484 58.8602C86.9516 58.8602 86.9288 58.9222 86.88 59.0362C86.8214 59.1633 86.7498 59.3263 86.6586 59.5283C86.4567 59.9748 86.18 60.5875 85.8381 61.3403C85.1543 62.872 84.2426 65.0034 83.331 67.3988C82.4225 69.7908 81.6834 71.9906 81.1755 73.5908C80.9313 74.3795 80.7294 75.0215 80.5829 75.4875C80.5178 75.6994 80.4624 75.8688 80.4201 76.0024C80.381 76.1198 80.3582 76.1817 80.355 76.1784L80.3582 76.1849Z" fill="#455A64"/>
<path d="M102.209 17.0771L98.7056 13.6877C98.7056 13.6877 95.3227 13.6356 93.4798 14.2157C91.6369 14.7958 72.814 28.2423 72.814 28.2423C75.3374 29.2493 77.5482 31.4948 79.632 34.2649C81.3903 36.3539 81.9828 39.4564 84.5421 40.4015C85.0825 40.6003 87.0264 40.0268 87.0264 40.0268L87.4724 38.0062L102.802 23.3669C102.802 23.3669 103.492 19.1433 102.209 17.0738V17.0771Z" fill="#31B9B9"/>
<g opacity="0.3">
<path d="M91.0346 28.0532C89.0582 28.1282 87.0623 27.4862 85.4994 26.2738C87.8665 25.0419 89.9211 23.2919 91.9528 21.5614C93.4896 20.248 96.0325 18.0775 98.0643 16.699C93.9194 17.2139 87.9968 19.1334 84.4021 21.2648C81.2992 23.1029 78.4567 25.5243 74.9891 26.5117L74.4746 26.4792C74.53 27.496 75.3407 28.3596 76.2882 28.7344C77.2357 29.1091 78.2939 29.0798 79.3032 28.9429C80.3126 28.8061 81.3122 28.5682 82.3313 28.5453C83.8779 28.5128 85.3854 28.9755 86.9125 29.2428C88.4363 29.51 90.1001 29.5524 91.4286 28.7539C91.5621 28.6724 91.7053 28.5649 91.7119 28.4085C91.7249 28.1217 91.3244 28.0435 91.0379 28.0565L91.0346 28.0532Z" fill="black"/>
</g>
<path d="M98.9272 25.9512C93.1446 27.1114 87.0917 26.8996 81.4067 25.3418L81.5598 27.3787C84.5195 28.0696 87.4987 28.7637 90.5365 28.881C93.5711 28.9984 96.7034 28.5095 99.3212 26.968C99.191 26.6291 99.0575 26.2902 98.9272 25.9545V25.9512Z" fill="#306262"/>
<g opacity="0.3">
<path d="M96.2767 28.0793C96.2181 25.3157 96.1888 22.6694 96.5014 19.9254L96.5632 19.6516C95.9641 20.2904 95.7851 21.2094 95.6744 22.0795C95.326 24.7584 95.326 27.3884 95.7069 30.064L96.3516 29.6273C96.3646 29.5165 96.2865 28.6268 96.2767 28.0826V28.0793Z" fill="black"/>
</g>
<path d="M101.388 15.7506C99.8386 14.4339 96.8984 15.1183 95.0165 15.8809L93.6294 18.7618C95.4821 18.1785 98.6176 16.1807 100.399 16.9564C102.18 17.732 102.808 19.355 103.228 21.255C103.674 19.2702 102.938 17.0672 101.388 15.7506Z" fill="#306262"/>
<path d="M95.0653 11.2076C93.4503 10.0572 91.36 10.1941 89.4324 10.4026C85.6913 10.8067 83.1907 12.6122 79.3486 13.9256C76.9652 14.7403 74.9172 16.3763 73.7581 18.6152C72.3124 21.4049 72.5143 23.9828 74.3865 26.5215L75.0312 27.1472C76.3922 28.4704 78.4141 28.8778 80.1691 28.1575C85.1313 26.1207 88.2733 22.8389 93.3559 19.6744C94.8374 18.7489 96.3547 17.7027 96.791 15.8516C97.2012 14.1113 96.5272 12.2472 95.0718 11.2109L95.0653 11.2076Z" fill="#306262"/>
<path d="M96.4197 12.9478C96.4197 12.9478 96.4132 13.0423 96.3872 13.2216C96.3481 13.3976 96.2895 13.6583 96.1397 13.9712C95.8597 14.6034 95.2183 15.3921 94.2675 16.1579C92.3628 17.6799 89.6407 19.6711 86.4824 21.633C84.9033 22.6172 83.3665 23.4971 81.9501 24.2662C81.2403 24.6508 80.563 25.0028 79.9249 25.3254C79.2867 25.6513 78.6843 25.9446 78.108 26.1532C76.9587 26.5899 75.9233 26.616 75.2558 26.4595C74.9204 26.3846 74.6729 26.2836 74.5101 26.2053C74.4287 26.1662 74.3701 26.1304 74.3311 26.1076C74.292 26.0848 74.2725 26.0685 74.2725 26.0685C74.2822 26.0456 74.6013 26.2705 75.2688 26.3976C75.9298 26.528 76.9391 26.4889 78.069 26.0424C78.6355 25.8273 79.2313 25.5307 79.863 25.2016C80.4979 24.8724 81.1752 24.5172 81.8785 24.1294C83.2883 23.357 84.8219 22.4738 86.3978 21.4896C89.5496 19.531 92.2781 17.5593 94.1959 16.0667C95.1466 15.3138 95.7913 14.5545 96.0844 13.9418C96.3872 13.3324 96.4002 12.9413 96.423 12.9478H96.4197Z" fill="#263238"/>
<path d="M85.8346 21.7797C85.7955 21.8058 84.5908 19.9807 83.1484 17.7092C81.7027 15.4345 80.5664 13.5736 80.6055 13.5475C80.6445 13.5214 81.8493 15.3432 83.2917 17.618C84.7373 19.8927 85.8737 21.7536 85.8346 21.7797Z" fill="#263238"/>
<path d="M84.5678 19.7787C84.5678 19.8015 84.405 19.8243 84.2715 20.0394C84.1998 20.1404 84.1445 20.2871 84.024 20.4337C83.9621 20.5054 83.884 20.5804 83.7668 20.6163C83.6431 20.6488 83.5161 20.6163 83.4184 20.5348C83.3696 20.4924 83.3272 20.437 83.3142 20.3621C83.3012 20.2871 83.324 20.2121 83.3663 20.1633C83.4542 20.059 83.5584 20.0362 83.6431 20.0101C83.7896 19.971 83.9361 19.9286 84.0859 19.8895C84.3398 19.8243 84.4994 19.795 84.5059 19.8178C84.5124 19.8406 84.3659 19.9091 84.1217 20.0036C83.9752 20.0557 83.8319 20.1079 83.6886 20.16C83.5193 20.2089 83.4086 20.3099 83.5291 20.4077C83.5845 20.4533 83.6659 20.4761 83.7245 20.4598C83.7928 20.4403 83.8547 20.3914 83.9068 20.336C84.011 20.2219 84.0826 20.0753 84.177 19.971C84.265 19.8667 84.3659 19.7982 84.444 19.7787C84.5222 19.7591 84.5678 19.7722 84.5678 19.782V19.7787Z" fill="#263238"/>
<path d="M91.4287 85.8935C91.4287 87.145 90.4161 88.1585 89.1658 88.1585C87.9155 88.1585 86.9028 87.145 86.9028 85.8935C86.9028 84.6421 87.9155 83.6285 89.1658 83.6285C90.4161 83.6285 91.4287 84.6421 91.4287 85.8935Z" fill="#263238"/>
<path d="M91.2041 85.8936C91.1878 85.8936 91.1943 85.7111 91.1129 85.4047C91.0315 85.1017 90.8232 84.6584 90.3673 84.3195C90.1427 84.1533 89.8594 84.0132 89.5338 83.9578C89.2115 83.9056 88.8468 83.9154 88.4984 84.049C88.1532 84.1728 87.8211 84.4108 87.59 84.7367C87.349 85.0593 87.2123 85.4699 87.209 85.8968C87.2123 86.3238 87.349 86.7344 87.59 87.057C87.8244 87.3829 88.1533 87.6208 88.5016 87.7447C88.8468 87.8783 89.2114 87.8913 89.537 87.8359C89.8626 87.7805 90.1459 87.6404 90.3706 87.4742C90.8264 87.132 91.0316 86.6888 91.1162 86.3889C91.2009 86.0793 91.1911 85.8968 91.2074 85.9001C91.2139 85.9001 91.2171 85.9457 91.2171 86.0305C91.2171 86.1152 91.2106 86.2456 91.1748 86.4052C91.1064 86.7214 90.9111 87.1939 90.439 87.5622C90.2045 87.7447 89.9082 87.8979 89.5631 87.963C89.2212 88.025 88.8305 88.0184 88.4593 87.8783C88.0881 87.7479 87.73 87.497 87.476 87.1483C87.2155 86.8028 87.069 86.3564 87.0625 85.9001C87.0658 85.4406 87.2155 84.9974 87.476 84.6519C87.73 84.3032 88.0849 84.0523 88.4593 83.9219C88.8305 83.7818 89.2212 83.7753 89.5631 83.8372C89.9082 83.9024 90.2078 84.0588 90.439 84.238C90.9111 84.6096 91.1097 85.0788 91.1748 85.395C91.2106 85.5546 91.2204 85.6817 91.2171 85.7697C91.2171 85.8545 91.2139 85.9001 91.2074 85.9001L91.2041 85.8936Z" fill="#455A64"/>
<path d="M60.5976 86.6756C60.5976 87.9271 59.585 88.9406 58.3347 88.9406C57.0844 88.9406 56.0718 87.9271 56.0718 86.6756C56.0718 85.4242 57.0844 84.4106 58.3347 84.4106C59.585 84.4106 60.5976 85.4242 60.5976 86.6756Z" fill="#263238"/>
<path d="M60.3731 86.6756C60.3568 86.6756 60.3633 86.4931 60.2819 86.1867C60.2005 85.8836 59.9921 85.4404 59.5363 85.1015C59.3116 84.9353 59.0283 84.7951 58.7027 84.7397C58.3804 84.6876 58.0157 84.6974 57.6673 84.831C57.3222 84.9548 56.9901 85.1927 56.7589 85.5186C56.518 85.8413 56.3812 86.2519 56.378 86.6788C56.3812 87.1058 56.518 87.5164 56.7589 87.839C56.9934 88.1649 57.3222 88.4028 57.6706 88.5267C58.0157 88.6603 58.3804 88.6733 58.706 88.6179C59.0316 88.5625 59.3149 88.4224 59.5395 88.2562C59.9954 87.914 60.2005 87.4708 60.2852 87.1709C60.3698 86.8613 60.36 86.6788 60.3763 86.6821C60.3828 86.6821 60.3861 86.7277 60.3861 86.8124C60.3861 86.8972 60.3796 87.0275 60.3438 87.1872C60.2754 87.5033 60.08 87.9759 59.6079 88.3442C59.3735 88.5267 59.0772 88.6798 58.7321 88.745C58.3902 88.8069 57.9995 88.8004 57.6283 88.6603C57.2571 88.5299 56.8989 88.279 56.645 87.9303C56.3845 87.5848 56.238 87.1383 56.2314 86.6821C56.2347 86.2226 56.3845 85.7793 56.645 85.4339C56.8989 85.0852 57.2538 84.8342 57.6283 84.7039C57.9995 84.5638 58.3902 84.5572 58.7321 84.6192C59.0772 84.6843 59.3767 84.8408 59.6079 85.02C60.08 85.3915 60.2786 85.8608 60.3438 86.1769C60.3796 86.3366 60.3894 86.4637 60.3861 86.5517C60.3861 86.6365 60.3828 86.6821 60.3763 86.6821L60.3731 86.6756Z" fill="#455A64"/>
<path d="M96.2962 85.3851C96.2767 85.4405 95.6645 85.3102 94.5738 85.0266C94.3003 84.9549 93.9975 84.8735 93.6686 84.7855C93.3332 84.7073 92.9718 84.6225 92.5811 84.5345C91.7997 84.3618 90.9206 84.1239 89.9307 83.9512C89.4391 83.8534 88.9214 83.7524 88.3841 83.6448C87.8469 83.5406 87.2804 83.4689 86.6975 83.3711C85.5351 83.1658 84.2783 83.0354 82.9629 82.879C80.3223 82.6248 77.4049 82.4684 74.3443 82.5205C71.2837 82.5955 68.3761 82.8692 65.7452 83.231C64.4363 83.4428 63.186 83.622 62.0334 83.8762C61.4538 83.9968 60.8938 84.0913 60.3598 84.2184C59.8258 84.3455 59.3146 84.4694 58.8262 84.5867C57.8429 84.8018 56.9736 85.0723 56.2019 85.2776C55.8177 85.3851 55.4595 85.4829 55.1274 85.5742C54.8018 85.6752 54.5023 85.7664 54.232 85.8512C53.1543 86.1771 52.5454 86.3335 52.5259 86.2781C52.5063 86.2227 53.0729 85.962 54.1246 85.5383C54.3883 85.434 54.6813 85.3167 55.0004 85.1896C55.3228 85.069 55.6809 84.955 56.0619 84.8246C56.827 84.5737 57.6899 84.2608 58.6732 84.0066C59.1616 83.8697 59.676 83.7296 60.2068 83.5829C60.7408 83.4395 61.3073 83.3255 61.8869 83.1886C63.046 82.9018 64.3061 82.6965 65.628 82.4586C68.2816 82.0479 71.2251 81.7481 74.328 81.6732C77.4277 81.621 80.3809 81.8035 83.0508 82.1033C84.3825 82.2858 85.6491 82.4423 86.818 82.6802C87.4041 82.7943 87.9739 82.8822 88.5144 83.0061C89.0549 83.1332 89.5726 83.2538 90.0642 83.3678C91.0573 83.5829 91.9332 83.8599 92.7081 84.0783C93.0956 84.1923 93.4537 84.2934 93.7826 84.4009C94.1082 84.515 94.4045 84.6193 94.6715 84.7138C95.7394 85.0951 96.319 85.333 96.2995 85.3884L96.2962 85.3851Z" fill="#31B9B9"/>
<path d="M107.05 45.5703C107.109 45.7365 107.464 46.473 107.464 46.473L108.786 49.4941L108.913 53.7145C108.913 53.7145 108.252 53.9817 108.092 53.281C107.93 52.5836 107.89 51.28 107.89 51.28L105.895 53.8448C105.895 53.8448 105.247 53.3657 105.65 52.7563L104.82 53.2028C104.82 53.2028 104.455 52.7205 104.579 52.1892C104.703 51.658 106.136 50.1361 106.136 50.1361L103.635 50.0351C103.635 50.0351 103.202 49.6961 103.615 49.4387C104.029 49.1812 105.53 48.7836 105.53 48.7836C105.53 48.7836 104.716 48.6337 104.306 47.8353C103.895 47.0368 104.006 46.121 104.006 46.121L107.047 45.567L107.05 45.5703Z" fill="#FFBE9D"/>
<path d="M97.4941 24.2501C97.4941 24.2501 99.1384 35.4968 99.158 36.2333C99.1742 36.9666 99.4868 38.645 99.4868 38.645C99.4868 38.645 99.4412 38.57 100.053 39.6324C100.665 40.6949 104.547 47.5615 104.547 47.5615L107.471 46.4763C107.471 46.4763 104.452 37.5141 104.185 36.1584C103.918 34.8026 104.387 27.962 103.674 25.1137C102.961 22.2621 97.5007 24.2533 97.5007 24.2533L97.4941 24.2501Z" fill="#FFBE9D"/>
<path d="M98.9202 16.8881C98.7899 16.9207 98.6662 16.9696 98.549 17.038C97.9792 17.3671 96.3773 18.5208 96.2633 22.0242C96.1233 26.4271 96.3545 29.6274 96.3545 29.6274L104.498 28.9724C104.459 28.9235 104 15.6497 98.9234 16.8881H98.9202Z" fill="#31B9B9"/>
<path d="M104.495 28.9716C104.495 28.9716 104.442 28.9847 104.338 28.9977C104.221 29.0107 104.071 29.027 103.886 29.0466C103.469 29.0857 102.899 29.1411 102.189 29.2063C100.724 29.3301 98.6956 29.5061 96.3578 29.7049L96.2764 29.7114L96.2699 29.6267C96.2146 28.7142 96.1722 27.7332 96.1494 26.7229C96.1169 25.1912 96.1267 23.7312 96.1918 22.4048C96.2471 21.0816 96.4002 19.866 96.8267 18.9372C97.2435 18.0052 97.8751 17.4186 98.357 17.135C98.6012 16.9884 98.8096 16.9134 98.9496 16.8678C99.0929 16.8287 99.1678 16.8124 99.171 16.8189C99.1775 16.8385 98.865 16.8939 98.3928 17.1937C97.9305 17.4902 97.3281 18.0736 96.9374 18.9894C96.5337 19.9019 96.3937 21.0979 96.3481 22.4146C96.2927 23.7377 96.2862 25.1945 96.3188 26.7229C96.3416 27.7332 96.3806 28.7109 96.4327 29.6202L96.3448 29.5419C98.6826 29.366 100.714 29.2128 102.183 29.102C102.893 29.0563 103.466 29.0172 103.882 28.9912C104.068 28.9814 104.218 28.9749 104.338 28.9684C104.442 28.9651 104.495 28.9684 104.498 28.9684L104.495 28.9716Z" fill="#263238"/>
<path d="M151 141.915C151 141.961 117.196 142 75.5033 142C33.8102 142 0 141.961 0 141.915C0 141.87 33.7972 141.831 75.5033 141.831C117.209 141.831 151 141.87 151 141.915Z" fill="#263238"/>
</g>
<defs>
<clipPath id="clip0_1139_4350">
<rect width="151" height="142" fill="white"/>
</clipPath>
</defs>
</svg>
