<svg width="521" height="360" viewBox="0 0 521 360" fill="none" xmlns="http://www.w3.org/2000/svg">
<path d="M327.202 9.62292L327.939 12.3136L325.541 29.3925L321.085 30.6466L323.437 14.3202L317.569 15.9695L318.373 18.8882L314.728 19.9143L313 13.6133L327.195 9.62292H327.202Z" fill="#E0E0E0"/>
<path d="M345.364 17.7558C346.236 20.9329 344.695 24.3456 339.631 25.767C337.174 26.4586 334.401 26.489 332.342 25.7442L333.086 22.111C334.709 22.7571 336.715 22.8255 338.564 22.3086C340.615 21.731 341.637 20.5072 341.239 19.0479C340.848 17.6418 339.691 16.9729 336.475 17.8774L331.944 19.1543L330.08 8.8097L340.886 5.76941L341.802 9.09854L334.416 11.1735L335.07 14.6547L336.512 14.2518C341.75 12.7773 344.478 14.5787 345.357 17.7482L345.364 17.7558Z" fill="#E0E0E0"/>
<path d="M345.034 9.71416C344.23 6.79548 345.319 4.39364 347.694 3.72478C350.046 3.06351 352.217 4.52286 353.029 7.46435C353.84 10.4058 352.721 12.7925 350.369 13.4537C347.987 14.1226 345.838 12.6328 345.034 9.71416ZM351.766 7.82158C351.128 5.49575 349.655 4.41645 348.009 4.88009C346.341 5.35134 345.665 7.0539 346.296 9.35693C346.927 11.66 348.378 12.7697 350.053 12.2984C351.699 11.8348 352.405 10.1474 351.766 7.81398V7.82158ZM358.462 0.836497L359.957 0.418457L352.788 21.7385L351.293 22.1566L358.462 0.836497ZM358.214 15.1107C357.41 12.192 358.522 9.78257 360.874 9.12131C363.256 8.45244 365.405 9.94219 366.209 12.8609C367.013 15.7796 365.924 18.1814 363.549 18.8503C361.197 19.5115 359.018 18.0294 358.214 15.1107ZM364.947 13.2181C364.315 10.9151 362.865 9.80537 361.19 10.2766C359.544 10.7403 358.838 12.4276 359.476 14.7611C360.115 17.0869 361.588 18.1662 363.233 17.7025C364.902 17.2313 365.578 15.5287 364.947 13.2257V13.2181Z" fill="#E0E0E0"/>
<path d="M452.44 306.143L505.347 306.563L505.872 239.01L452.965 238.59L452.44 306.143Z" fill="#EBEBEB"/>
<path d="M485.171 241.008L484.224 306.42L475.868 306.352L477.657 240.955L485.171 241.008Z" fill="#FAFAFA"/>
<path d="M422.577 240.514L452.935 240.758L505.843 241.176L452.875 248.221L452.424 306.169L422.088 305.926L422.577 240.514Z" fill="#E0E0E0"/>
<path d="M439.101 240.651L437.898 306.055L428.889 305.979L430.361 240.575L439.101 240.651Z" fill="#FAFAFA"/>
<path d="M463.124 220.745C463.124 220.882 462.23 221.041 460.607 221.208C458.976 221.368 456.617 221.543 453.671 221.52C450.718 221.474 447.216 221.269 443.316 220.144C442.82 219.977 442.309 219.772 441.798 219.46C441.295 219.156 440.784 218.73 440.416 218.138C440.033 217.552 439.867 216.823 439.86 216.177C439.852 215.523 439.957 214.93 440.085 214.383C440.596 212.3 441.122 210.134 442.046 207.953C442.512 206.873 443.076 205.824 443.76 204.867C444.451 203.932 445.225 203.02 446.277 202.351C446.803 202.016 447.389 201.75 448.028 201.621C448.667 201.492 449.343 201.507 449.952 201.659C451.176 201.971 452.093 202.647 452.875 203.278C455.971 205.802 458.232 208.644 459.773 211.229C461.313 213.813 462.132 216.131 462.561 217.742C462.974 219.369 463.019 220.296 462.906 220.327C462.576 220.433 461.832 216.769 458.608 211.989C456.992 209.625 454.738 207.018 451.762 204.722C451.034 204.16 450.282 203.673 449.531 203.506C448.794 203.339 448.043 203.506 447.314 203.993C446.585 204.464 445.939 205.209 445.345 206.03C444.767 206.858 444.271 207.77 443.85 208.751C443.016 210.704 442.482 212.825 441.964 214.839C441.723 215.812 441.678 216.617 442.016 217.142C442.339 217.704 443.098 218.13 443.918 218.426C444.737 218.715 445.661 218.936 446.525 219.126C447.397 219.323 448.246 219.475 449.08 219.605C450.741 219.863 452.311 220.015 453.746 220.121C456.624 220.319 458.976 220.357 460.607 220.441C462.237 220.517 463.139 220.608 463.147 220.745H463.124Z" fill="#E0E0E0"/>
<path d="M462.027 221.231C462.005 221.094 462.989 220.806 464.77 220.395C466.551 219.977 469.143 219.445 472.307 218.677C475.463 217.902 479.198 216.884 483.112 215.227C484.089 214.824 485.051 214.368 485.825 213.767C486.208 213.471 486.524 213.136 486.697 212.794C486.877 212.452 486.915 212.118 486.847 211.685C486.779 211.259 486.577 210.773 486.336 210.24C486.081 209.701 485.825 209.154 485.57 208.606C485.051 207.519 484.488 206.455 483.841 205.46C483.188 204.464 482.459 203.559 481.625 202.807C480.791 202.047 479.874 201.401 478.935 201.059C477.988 200.702 477.026 200.648 476.147 200.937C475.253 201.211 474.426 201.796 473.652 202.473C470.496 205.285 468.076 208.34 466.416 211.099C464.732 213.858 463.771 216.321 463.207 218.054C462.643 219.787 462.418 220.79 462.268 220.768C462.155 220.752 462.117 219.703 462.471 217.856C462.824 216.017 463.62 213.372 465.221 210.4C466.814 207.421 469.203 204.16 472.472 201.104C473.314 200.344 474.313 199.569 475.591 199.143C476.868 198.703 478.333 198.779 479.596 199.242C480.234 199.47 480.828 199.782 481.384 200.147C481.925 200.512 482.451 200.907 482.932 201.355C483.917 202.237 484.758 203.278 485.487 204.38C486.208 205.49 486.81 206.638 487.336 207.763C487.591 208.325 487.854 208.888 488.11 209.442C488.358 210.012 488.636 210.636 488.756 211.388C488.891 212.125 488.778 213.022 488.388 213.714C488.012 214.406 487.493 214.9 486.975 215.287C485.93 216.063 484.841 216.519 483.811 216.929C479.701 218.556 475.846 219.445 472.615 220.061C469.376 220.669 466.739 220.98 464.913 221.17C463.087 221.353 462.065 221.376 462.05 221.246L462.027 221.231Z" fill="#FAFAFA"/>
<path d="M412.951 240.422L490.722 241.04L490.896 218.679L413.125 218.061L412.951 240.422Z" fill="#E0E0E0"/>
<path d="M441.553 240.642L511.848 241.2L512.021 218.84L441.727 218.281L441.553 240.642Z" fill="#EBEBEB"/>
<path d="M490.446 218.693L489.95 241.153L481.752 240.985L482.323 218.632L490.446 218.693Z" fill="#FAFAFA"/>
<path d="M432.195 218.343L431.398 240.606L422.389 240.53L422.87 218.161L432.195 218.343Z" fill="#FAFAFA"/>
<path d="M492.798 306.935L516.963 307.127L517.202 276.269L493.037 276.077L492.798 306.935Z" fill="#EBEBEB"/>
<path d="M507.736 277.195L507.308 307.074L503.491 307.043L504.302 277.165L507.736 277.195Z" fill="#FAFAFA"/>
<path d="M479.144 276.967L493.008 277.081L517.174 277.271L492.986 280.494L492.783 306.96L478.919 306.846L479.144 276.967Z" fill="#E0E0E0"/>
<path d="M486.696 277.028L486.14 306.907L482.03 306.876L482.699 276.998L486.696 277.028Z" fill="#FAFAFA"/>
<path d="M497.667 267.938C497.667 268.189 496.059 268.569 493.331 268.667C491.956 268.69 490.348 268.645 488.455 268.128C487.974 267.961 487.342 267.733 486.862 267.018C486.629 266.668 486.531 266.22 486.523 265.855C486.523 265.49 486.576 265.179 486.636 264.905C486.869 263.932 487.102 262.929 487.553 261.872C487.778 261.348 488.056 260.839 488.395 260.367C488.733 259.911 489.123 259.448 489.694 259.083C490.236 258.718 491.062 258.513 491.761 258.71C492.452 258.893 492.911 259.258 493.286 259.562C494.729 260.778 495.766 262.138 496.45 263.377C497.81 265.886 497.795 267.71 497.562 267.74C497.269 267.816 496.796 266.205 495.285 264.137C494.526 263.111 493.497 261.994 492.174 260.998C491.859 260.763 491.558 260.588 491.34 260.557C491.137 260.527 490.979 260.557 490.724 260.725C490.483 260.884 490.22 261.181 489.972 261.523C489.732 261.865 489.529 262.245 489.349 262.663C488.996 263.491 488.748 264.449 488.507 265.353C488.394 265.779 488.425 265.969 488.455 266.015C488.477 266.098 488.718 266.288 489.056 266.402C489.755 266.646 490.589 266.836 491.31 266.972C492.046 267.109 492.753 267.2 493.399 267.269C495.999 267.52 497.675 267.641 497.675 267.93L497.667 267.938Z" fill="#E0E0E0"/>
<path d="M497.164 268.158C497.111 267.877 498.93 267.39 501.778 266.623C503.198 266.22 504.866 265.726 506.609 264.958C507.038 264.776 507.443 264.571 507.721 264.343C507.857 264.236 507.947 264.122 507.969 264.061C507.992 264 507.992 264 507.977 263.886C507.954 263.689 507.654 263.096 507.428 262.625C507.195 262.138 506.947 261.675 506.669 261.249C506.391 260.823 506.091 260.451 505.745 260.139C505.399 259.82 505.031 259.562 504.693 259.44C504.347 259.311 504.047 259.288 503.746 259.379C503.446 259.463 503.108 259.683 502.777 259.965C501.372 261.188 500.252 262.526 499.471 263.719C497.885 266.136 497.547 267.998 497.246 267.945C497.119 267.93 497.036 267.436 497.141 266.562C497.246 265.688 497.562 264.434 498.276 263.02C498.982 261.599 500.064 260.056 501.59 258.589C501.995 258.216 502.499 257.813 503.183 257.578C503.874 257.335 504.686 257.373 505.347 257.616C505.685 257.737 505.993 257.897 506.279 258.08C506.549 258.262 506.812 258.452 507.053 258.68C507.541 259.113 507.954 259.63 508.308 260.162C508.653 260.702 508.939 261.241 509.187 261.773C509.307 262.032 509.42 262.29 509.54 262.549C509.66 262.815 509.803 263.142 509.871 263.575C509.946 264 509.87 264.563 509.645 264.966C509.42 265.376 509.127 265.642 508.849 265.847C508.292 266.25 507.767 266.463 507.286 266.646C505.362 267.375 503.566 267.755 502.063 267.991C499.057 268.432 497.201 268.409 497.156 268.158H497.164Z" fill="#FAFAFA"/>
<path d="M474.758 276.912L510.277 277.194L510.356 266.979L474.837 266.697L474.758 276.912Z" fill="#E0E0E0"/>
<path d="M487.826 277.018L519.934 277.273L520.013 267.058L487.906 266.803L487.826 277.018Z" fill="#EBEBEB"/>
<path d="M510.148 267.003L509.916 277.264L506.173 277.18L506.436 266.972L510.148 267.003Z" fill="#FAFAFA"/>
<path d="M483.541 266.843L483.18 277.013L479.062 276.975L479.28 266.76L483.541 266.843Z" fill="#FAFAFA"/>
<path d="M32.9711 306.831L76.3125 307.175L76.7422 251.836L33.4008 251.492L32.9711 306.831Z" fill="#EBEBEB"/>
<path d="M59.7914 253.458L59.0174 307.036L52.1719 306.983L53.6372 253.405L59.7914 253.458Z" fill="#FAFAFA"/>
<path d="M8.51368 253.048L33.3786 253.245L76.7214 253.587L33.3336 259.364L32.9654 306.831L8.10791 306.633L8.51368 253.048Z" fill="#E0E0E0"/>
<path d="M22.0471 253.162L21.0627 306.739L13.6836 306.679L14.8934 253.101L22.0471 253.162Z" fill="#FAFAFA"/>
<path d="M41.727 236.851C41.7345 237.124 41.0056 237.413 39.6756 237.687C38.3455 237.953 36.3993 238.226 33.9496 238.31C32.7248 238.348 31.3647 238.333 29.9069 238.211C29.178 238.143 28.4191 238.059 27.6376 237.93C26.8486 237.793 26.0896 237.664 25.1579 237.383C24.6995 237.231 24.211 237.048 23.6926 236.737C23.1816 236.433 22.618 235.984 22.1972 235.315C21.7614 234.646 21.566 233.81 21.5585 233.134C21.5435 232.45 21.6562 231.872 21.7614 231.386C22.1747 229.637 22.5955 227.836 23.407 225.913C23.8203 224.963 24.3238 224.036 24.9399 223.169C25.2631 222.736 25.5787 222.341 25.9694 221.938C26.3601 221.535 26.8035 221.155 27.3295 220.821C27.848 220.494 28.4566 220.22 29.1405 220.083C29.8167 219.947 30.5607 219.969 31.1919 220.129C32.4768 220.471 33.3184 221.14 33.9947 221.695C36.6022 223.891 38.4582 226.369 39.6756 228.604C40.8929 230.846 41.4715 232.853 41.6969 234.244C41.9148 235.65 41.8021 236.448 41.5541 236.509C40.9755 236.653 40.0738 233.78 37.3461 230.124C35.9785 228.315 34.1375 226.324 31.7705 224.568C31.2144 224.15 30.6809 223.861 30.3428 223.815C30.0347 223.777 29.8167 223.815 29.3809 224.097C29.178 224.233 28.9601 224.431 28.7497 224.659C28.5393 224.895 28.2988 225.191 28.096 225.48C27.6827 226.08 27.3145 226.749 26.9989 227.494C26.3677 228.961 25.9243 230.664 25.496 232.283C25.4058 232.64 25.3607 232.921 25.3532 233.088C25.3532 233.263 25.3532 233.278 25.3683 233.316C25.3683 233.4 25.759 233.734 26.3376 233.94C26.9012 234.16 27.6601 234.358 28.3289 234.525C29.0127 234.7 29.689 234.836 30.3428 234.966C31.6578 235.216 32.9127 235.384 34.0699 235.52C36.3843 235.786 38.308 235.946 39.6455 236.151C40.9831 236.349 41.727 236.585 41.7345 236.858L41.727 236.851Z" fill="#E0E0E0"/>
<path d="M40.8327 237.253C40.735 236.683 43.9887 235.779 49.0835 234.358C51.6233 233.62 54.6065 232.716 57.7099 231.34C58.4764 231.006 59.1903 230.641 59.6637 230.253C59.8966 230.071 60.0319 229.881 60.0544 229.812C60.0769 229.736 60.0694 229.797 60.0544 229.622C60.0243 229.463 59.9116 229.151 59.7087 228.733C59.5059 228.3 59.2955 227.859 59.085 227.418C58.6642 226.552 58.2284 225.731 57.74 224.978C57.244 224.226 56.718 223.564 56.1169 223.025C55.8238 222.744 55.5007 222.508 55.1851 222.28C54.8845 222.075 54.584 221.915 54.2984 221.801C53.7123 221.581 53.2239 221.55 52.7279 221.687C52.2245 221.824 51.6459 222.189 51.0522 222.69C48.5349 224.857 46.5361 227.228 45.1234 229.364C42.2604 233.651 41.6067 236.965 41.0131 236.873C40.7576 236.843 40.5847 235.954 40.7425 234.373C40.9079 232.799 41.4639 230.527 42.7263 227.965C43.9812 225.396 45.9199 222.599 48.6702 219.954C49.4066 219.278 50.3233 218.533 51.5933 218.092C52.8707 217.636 54.3736 217.712 55.5909 218.16C56.2071 218.381 56.7781 218.67 57.2966 219.012C57.7926 219.346 58.266 219.696 58.7093 220.099C59.6035 220.889 60.355 221.831 60.9937 222.797C61.6249 223.77 62.1359 224.758 62.5792 225.708C62.7896 226.179 63.0075 226.643 63.2104 227.106C63.4208 227.593 63.6913 228.193 63.8191 228.999C63.9619 229.789 63.8266 230.854 63.3833 231.621C62.9549 232.397 62.4064 232.891 61.9029 233.271C60.881 234.008 59.9191 234.388 59.0475 234.722C55.5759 236.03 52.3372 236.691 49.647 237.101C46.9494 237.497 44.7627 237.633 43.2373 237.649C41.7194 237.656 40.8628 237.527 40.8177 237.261L40.8327 237.253Z" fill="#FAFAFA"/>
<path d="M0.641558 252.984L64.3462 253.49L64.4884 235.173L0.783789 234.667L0.641558 252.984Z" fill="#E0E0E0"/>
<path d="M24.0579 253.166L81.646 253.623L81.7882 235.306L24.2001 234.849L24.0579 253.166Z" fill="#EBEBEB"/>
<path d="M64.1124 235.171L63.7066 253.572L56.9888 253.435L57.4547 235.118L64.1124 235.171Z" fill="#FAFAFA"/>
<path d="M16.3888 234.89L15.7426 253.124L8.35596 253.063L8.75422 234.738L16.3888 234.89Z" fill="#FAFAFA"/>
<path d="M82.6349 24.7368L83.3713 27.6326L71.9119 30.6121L71.3258 28.3091L75.7593 21.2024C76.7737 19.5607 76.8113 18.7094 76.6234 17.9645C76.3153 16.756 75.3159 16.2695 73.7154 16.6876C72.4154 17.022 71.4385 17.8201 70.9651 19.0362L67.9819 18.0329C68.7108 15.9959 70.5518 14.3313 73.2795 13.6169C76.661 12.7352 79.3586 13.9057 80.065 16.6876C80.4407 18.1773 80.3731 19.6443 78.7575 22.1905L76.1125 26.4317L82.6349 24.7368Z" fill="#E0E0E0"/>
<path d="M82.8301 19.5911C81.5451 14.529 83.589 10.9338 87.3161 9.96852C91.0658 8.99563 94.5449 11.1542 95.8299 16.2163C97.1148 21.2784 95.0935 24.866 91.3438 25.8389C87.6167 26.8042 84.115 24.6532 82.8301 19.5911ZM92.2981 17.1284C91.4115 13.6473 89.8334 12.5148 88.0751 12.9708C86.3393 13.4193 85.4977 15.1826 86.3768 18.6638C87.2635 22.1525 88.8416 23.2774 90.5774 22.829C92.3357 22.3729 93.1773 20.6096 92.2981 17.1284Z" fill="#E0E0E0"/>
<path d="M96.6943 12.1347C96.0631 9.63405 97.0249 7.61225 99.0613 7.0802C101.075 6.55575 102.901 7.83267 103.54 10.3561C104.179 12.8796 103.187 14.8862 101.173 15.4106C99.1364 15.9427 97.3255 14.6353 96.6943 12.1347ZM102.458 10.6373C101.954 8.64595 100.722 7.70346 99.3093 8.0683C97.8815 8.44073 97.2729 9.87727 97.7763 11.8535C98.2798 13.8221 99.4896 14.795 100.925 14.4225C102.33 14.0577 102.961 12.6287 102.458 10.6373ZM108.274 4.80758L109.551 4.47314L103.089 22.5021L101.812 22.8365L108.274 4.80758ZM107.823 16.9536C107.192 14.4529 108.176 12.4235 110.19 11.8991C112.226 11.367 114.037 12.6743 114.669 15.175C115.3 17.6756 114.338 19.6974 112.302 20.2295C110.288 20.7539 108.454 19.4542 107.823 16.9536ZM113.587 15.4562C113.083 13.48 111.873 12.5147 110.438 12.8872C109.025 13.252 108.402 14.6809 108.905 16.6723C109.409 18.6637 110.641 19.6062 112.054 19.2414C113.481 18.8689 114.09 17.4324 113.587 15.4562Z" fill="#E0E0E0"/>
<path d="M224.987 72.7961C225.039 75.9276 222.702 78.8463 217.472 78.9375C214.895 78.9831 212.235 78.3143 210.424 77.0678L212.024 73.7462C213.437 74.7875 215.391 75.3576 217.307 75.3272C219.434 75.2892 220.733 74.3923 220.703 72.8797C220.681 71.4736 219.644 70.6147 217.224 70.6527L215.278 70.6831L215.233 67.8405L218.938 63.4472L211.108 63.584L211.048 60.1333L223.92 59.9053L223.965 62.6947L219.899 67.5516C223.221 68.0229 224.934 70.0675 224.979 72.8037L224.987 72.7961Z" fill="#E0E0E0"/>
<path d="M226.896 69.1476C226.79 63.0138 230.097 59.4719 234.613 59.3959C239.159 59.3199 242.548 62.7402 242.653 68.874C242.758 75.0078 239.482 78.5498 234.936 78.6258C230.42 78.7018 227.001 75.2814 226.896 69.1476ZM238.37 68.95C238.295 64.724 236.799 62.9986 234.673 63.0367C232.569 63.0747 231.134 64.8532 231.201 69.0792C231.276 73.3053 232.772 75.0306 234.876 74.9926C237.002 74.9546 238.445 73.176 238.37 68.95Z" fill="#E0E0E0"/>
<path d="M244.727 64.4506C244.674 61.4255 246.32 59.3733 248.792 59.3277C251.234 59.2821 252.978 61.2506 253.03 64.3061C253.083 67.3616 251.407 69.3834 248.965 69.429C246.493 69.4746 244.779 67.4833 244.727 64.4506ZM251.715 64.3289C251.678 61.9119 250.52 60.4982 248.815 60.5286C247.079 60.559 246.004 62.0411 246.042 64.4278C246.079 66.822 247.214 68.2585 248.942 68.2281C250.648 68.1977 251.753 66.746 251.715 64.3289ZM259.928 59.2668L261.476 59.2365L249.235 78.0559L247.687 78.0863L259.921 59.2668H259.928ZM256.141 73.0166C256.088 69.9915 257.764 67.9393 260.206 67.8937C262.679 67.8481 264.392 69.8395 264.444 72.8722C264.497 75.8973 262.851 77.9495 260.379 77.9951C257.937 78.0407 256.194 76.0493 256.141 73.0166ZM263.129 72.895C263.092 70.5007 261.957 69.0642 260.229 69.0946C258.523 69.125 257.419 70.5768 257.456 72.9938C257.494 75.4108 258.651 76.8246 260.357 76.7942C262.092 76.7638 263.167 75.2816 263.129 72.895Z" fill="#E0E0E0"/>
<path d="M12.3385 79.8497L9.58828 91.7297L6.86809 91.0836L9.10736 81.4079L6.75537 80.853L7.26635 78.6488L12.331 79.8497H12.3385Z" fill="#F5F5F5"/>
<path d="M13.0073 86.2723C13.9166 82.3503 16.5767 80.6402 19.4622 81.3242C22.3627 82.0159 23.9783 84.7446 23.0766 88.659C22.1673 92.5809 19.5223 94.2987 16.6217 93.607C13.7362 92.923 12.1056 90.1943 13.0073 86.2723ZM20.3413 88.0129C20.965 85.3146 20.2812 83.9693 18.9286 83.6501C17.5836 83.3308 16.3888 84.2277 15.7651 86.926C15.1414 89.6243 15.8177 90.9696 17.1628 91.2888C18.5229 91.6081 19.7252 90.7112 20.3489 88.0129H20.3413Z" fill="#F5F5F5"/>
<path d="M35.5879 85.3526L36.5798 85.5883L25.8117 95.568L24.8198 95.3324L35.5879 85.3526ZM25.0979 86.1811C25.5487 84.2429 26.9163 83.2092 28.4943 83.5817C30.0573 83.9541 30.8538 85.4818 30.3955 87.4352C29.9446 89.3886 28.562 90.3995 26.999 90.0347C25.421 89.6623 24.647 88.1193 25.0903 86.1811H25.0979ZM29.5614 87.2376C29.9221 85.6947 29.4111 84.6078 28.3215 84.3493C27.2169 84.0909 26.2926 84.851 25.9395 86.3787C25.5863 87.9065 26.0747 89.0086 27.1793 89.267C28.2689 89.5254 29.2007 88.7806 29.5614 87.2376ZM30.9966 93.4854C31.4475 91.5472 32.8376 90.5211 34.3931 90.886C35.9711 91.2584 36.7451 92.8014 36.2942 94.7396C35.8434 96.6777 34.4758 97.7114 32.8977 97.339C31.3348 96.9666 30.5458 95.4236 30.9891 93.4854H30.9966ZM35.4601 94.5419C35.8133 93.0142 35.3249 91.9121 34.2203 91.6536C33.1307 91.3952 32.1989 92.1401 31.8382 93.683C31.4775 95.226 31.9885 96.3129 33.0781 96.5713C34.1827 96.8374 35.107 96.0697 35.4601 94.5419Z" fill="#F5F5F5"/>
<path d="M83.4622 202.738C70.3797 189.194 49.8881 183.509 31.8086 188.396C47.5136 199.044 65.1648 204.753 84.0708 204.912" fill="#31B9B9"/>
<path d="M65.9383 139.979C68.0874 124.58 62.1736 107.266 50.7819 96.0697C50.4062 111.332 56.7708 128.502 65.9383 139.979Z" fill="#31B9B9"/>
<path d="M75.0534 169.067C66.9304 153.364 53.6 140.481 37.7222 132.987C42.4787 150.712 57.4699 165.214 75.1887 169.235" fill="#31B9B9"/>
<path d="M76.9394 174.677C67.7494 174.935 58.4391 174.608 49.5496 172.229C40.6601 169.85 32.1464 165.274 26.2251 158.153C44.1092 158.175 61.9558 163.686 76.7966 173.772" fill="#31B9B9"/>
<path d="M72.2729 156.192C76.9394 138.497 84.6416 126.26 98.3853 116.349C99.4223 124.953 97.3333 133.914 92.5992 141.142C87.8652 148.37 80.5162 153.805 72.2729 156.192Z" fill="#31B9B9"/>
<path d="M106.975 186.701C107.215 176.417 100.663 166.316 91.2471 162.447C92.0135 171.583 99.1071 182.148 106.975 186.701Z" fill="#31B9B9"/>
<path d="M111.37 171.788C112.415 157.012 122.792 143.339 136.641 138.505C133.462 153.288 125.016 165.594 111.37 171.788Z" fill="#31B9B9"/>
<path d="M104.75 198.254C107.989 193.564 113.279 190.646 118.757 189.194C124.235 187.742 129.953 187.621 135.611 187.499C127.977 195.989 116.517 200.823 105.186 200.321" fill="#31B9B9"/>
<path d="M98.1826 235.961C108.38 232.777 119.749 233.598 129.397 238.219C139.046 242.84 146.876 251.216 150.896 261.219C131.749 257.54 112.851 248.943 98.1826 235.961Z" fill="#31B9B9"/>
<path d="M77.1647 222.858C80.3433 232.366 79.7346 243.866 72.6636 252.06C69.7856 242.3 71.4839 231.264 77.1647 222.858Z" fill="#31B9B9"/>
<path d="M64.7439 217.575C63.8572 229.805 56.1325 241.29 45.2066 246.61C44.6656 246.876 44.0344 247.127 43.4783 246.899C42.6142 246.542 42.539 245.356 42.6442 244.421C44.0269 232.237 52.9539 220.456 64.7439 217.583" fill="#31B9B9"/>
<path d="M56.6283 216.344C51.248 222.219 43.403 225.716 35.4904 225.754C27.5703 225.792 19.6953 222.386 14.2549 216.564C27.7281 215.075 43.2678 214.079 56.6283 216.344Z" fill="#31B9B9"/>
<path d="M54.6143 107.418C54.6143 107.418 54.6443 107.554 54.7345 107.82C54.8322 108.102 54.9749 108.482 55.1478 108.976C55.531 110.009 56.072 111.492 56.7709 113.384C57.4998 115.292 58.3339 117.648 59.3032 120.377C59.7916 121.745 60.3101 123.204 60.8662 124.755C61.3997 126.313 61.9558 127.955 62.5494 129.68C64.939 136.582 67.584 144.859 70.447 154.079C73.2573 163.313 76.203 173.514 79.111 184.269C81.974 195.039 84.5138 205.353 86.6704 214.771C88.7669 224.195 90.5779 232.708 91.8779 239.899C92.216 241.692 92.5316 243.403 92.8322 245.021C93.1027 246.64 93.3582 248.176 93.5987 249.605C94.0871 252.463 94.5079 254.933 94.7859 256.955C95.0865 258.954 95.327 260.519 95.4923 261.606C95.5749 262.116 95.6426 262.518 95.6877 262.815C95.7327 263.088 95.7628 263.225 95.7703 263.225C95.7778 263.225 95.7703 263.081 95.7403 262.807C95.7027 262.511 95.6576 262.108 95.5975 261.591C95.4547 260.497 95.2518 258.931 94.9888 256.924C94.7408 254.895 94.3501 252.425 93.8917 249.559C93.6663 248.123 93.4183 246.587 93.1628 244.968C92.8698 243.349 92.5617 241.632 92.2461 239.838C90.9837 232.632 89.2178 224.112 87.1438 214.672C85.0098 205.247 82.485 194.925 79.6145 184.14C76.7139 173.377 73.7458 163.177 70.9129 153.942C68.0274 144.722 65.3372 136.452 62.9101 129.566C62.3089 127.841 61.7379 126.199 61.1893 124.648C60.6257 123.106 60.0922 121.646 59.5888 120.286C58.5969 117.557 57.7327 115.216 56.9738 113.316C56.2374 111.431 55.6588 109.964 55.2605 108.938C55.0651 108.459 54.9148 108.079 54.8021 107.805C54.6969 107.554 54.6368 107.425 54.6293 107.425L54.6143 107.418Z" fill="#263238"/>
<path d="M128.6 146.394C128.6 146.394 128.518 146.463 128.367 146.615C128.202 146.789 127.992 147.017 127.721 147.299C127.157 147.907 126.346 148.811 125.324 150.012C123.288 152.406 120.425 155.956 117.396 160.706C114.368 165.449 111.265 171.484 109.1 178.652C106.876 185.796 105.501 193.914 104.126 202.404C101.383 219.392 98.0244 234.608 95.5972 245.614C94.3724 251.087 93.373 255.533 92.6816 258.642C92.351 260.154 92.088 261.34 91.9077 262.191C91.8325 262.579 91.7649 262.883 91.7198 263.119C91.6822 263.332 91.6672 263.438 91.6747 263.438C91.6822 263.438 91.7198 263.339 91.7724 263.134C91.8325 262.898 91.9152 262.602 92.0129 262.222C92.2233 261.386 92.5088 260.2 92.8845 258.695C93.6209 255.594 94.6654 251.163 95.9654 245.705C98.4902 234.722 101.909 219.506 104.652 202.495C106.027 194.005 107.387 185.91 109.574 178.804C111.7 171.674 114.744 165.662 117.719 160.912C120.695 156.154 123.513 152.574 125.497 150.149C126.489 148.933 127.278 148.006 127.819 147.375C128.067 147.078 128.27 146.843 128.427 146.653C128.563 146.485 128.63 146.402 128.623 146.394H128.6Z" fill="#263238"/>
<path d="M52.6079 215.759C52.6079 215.759 52.7732 215.804 53.0963 215.85C53.4721 215.895 53.9379 215.941 54.494 216.009C54.8021 216.04 55.1402 216.07 55.5009 216.108C55.8691 216.161 56.2674 216.222 56.6957 216.291C57.5523 216.42 58.5292 216.549 59.5887 216.785C60.1223 216.891 60.6783 217.005 61.2644 217.119C61.843 217.263 62.4367 217.423 63.0528 217.575C64.3002 217.856 65.5852 218.32 66.9603 218.738C69.6655 219.696 72.581 220.935 75.4891 222.538C78.3821 224.165 80.9445 226.042 83.1387 227.912C84.1982 228.885 85.2277 229.797 86.0693 230.762C86.9785 231.674 87.7149 232.617 88.3912 233.468C89.1051 234.297 89.6085 235.156 90.112 235.863C90.623 236.569 90.9912 237.223 91.2917 237.755C91.5773 238.242 91.8102 238.644 92.0056 238.979C92.1709 239.252 92.2686 239.397 92.2836 239.389C92.2987 239.382 92.231 239.222 92.0958 238.933C91.9229 238.591 91.7125 238.166 91.4646 237.664C91.1941 237.109 90.8484 236.44 90.3524 235.711C89.864 234.981 89.3831 234.099 88.6768 233.248C88.008 232.366 87.2791 231.401 86.3774 230.466C85.5358 229.478 84.5063 228.543 83.4393 227.547C81.2451 225.632 78.6601 223.724 75.7295 222.082C72.7914 220.456 69.8383 219.224 67.1031 218.282C65.7129 217.872 64.4129 217.423 63.1505 217.149C62.5268 216.997 61.9182 216.853 61.3396 216.716C60.7535 216.61 60.1899 216.511 59.6488 216.412C58.5743 216.192 57.5899 216.093 56.7258 215.994C56.2974 215.949 55.8992 215.895 55.5235 215.857C55.1553 215.835 54.8171 215.819 54.509 215.804C53.9455 215.781 53.4871 215.759 53.1039 215.743C52.7807 215.736 52.6154 215.743 52.6154 215.759H52.6079Z" fill="#263238"/>
<path d="M48.7681 146.721C48.7681 146.721 49.0912 147.086 49.7374 147.664C50.4663 148.302 51.3981 149.123 52.5102 150.096C54.8622 152.133 58.146 154.922 61.7829 157.97C65.4274 161.026 68.7412 163.762 71.1533 165.731C72.3105 166.658 73.2723 167.425 74.0313 168.034C74.7151 168.566 75.1058 168.854 75.1284 168.824C75.1509 168.794 74.8053 168.459 74.159 167.874C73.4301 167.235 72.4984 166.415 71.3862 165.442C69.0342 163.405 65.758 160.623 62.1135 157.567C58.4766 154.519 55.1628 151.776 52.7507 149.815C51.5935 148.887 50.6316 148.12 49.8727 147.512C49.1889 146.979 48.7981 146.691 48.7681 146.721Z" fill="#263238"/>
<path d="M45.4621 164.742C45.4245 164.879 52.4955 167.114 61.2572 169.736C70.0264 172.358 77.1576 174.365 77.2026 174.228C77.2402 174.091 70.1692 171.857 61.4075 169.234C52.6458 166.612 45.5071 164.606 45.4696 164.742H45.4621Z" fill="#263238"/>
<path d="M71.5745 157.567C71.5745 157.567 71.86 157.218 72.3034 156.541C72.7993 155.774 73.423 154.808 74.1669 153.668C75.745 151.251 77.9917 147.945 80.6443 144.433C83.3044 140.922 85.8593 137.859 87.7454 135.67C88.6396 134.644 89.3835 133.777 89.9846 133.085C90.5106 132.47 90.7962 132.12 90.7661 132.097C90.7436 132.074 90.413 132.378 89.8344 132.949C89.2557 133.519 88.4517 134.362 87.4673 135.426C85.5061 137.555 82.8986 140.587 80.231 144.114C77.5634 147.641 75.3617 150.993 73.8513 153.471C73.0999 154.709 72.5063 155.72 72.123 156.435C71.7323 157.149 71.5369 157.552 71.567 157.567H71.5745Z" fill="#263238"/>
<path d="M96.1385 167.57C96.0784 167.616 96.7397 168.649 97.7992 170.329C98.8587 172.009 100.286 174.342 101.774 176.98C103.255 179.617 104.51 182.057 105.396 183.836C106.283 185.614 106.824 186.716 106.892 186.686C106.952 186.655 106.531 185.5 105.719 183.676C104.915 181.852 103.705 179.374 102.218 176.721C100.722 174.069 99.2345 171.75 98.0998 170.124C96.9651 168.49 96.1911 167.532 96.1385 167.57Z" fill="#263238"/>
<path d="M104.54 198.748C104.577 198.817 105.922 198.155 108.131 197.144C110.341 196.141 113.422 194.826 116.908 193.587C120.395 192.356 123.618 191.436 125.963 190.828C128.307 190.22 129.773 189.893 129.758 189.81C129.758 189.772 129.374 189.81 128.706 189.924C128.029 190.022 127.068 190.213 125.88 190.471C123.506 190.988 120.245 191.854 116.743 193.093C113.241 194.34 110.16 195.715 107.981 196.81C106.892 197.357 106.02 197.821 105.434 198.17C104.84 198.513 104.525 198.718 104.54 198.748Z" fill="#263238"/>
<path d="M97.9272 236.022C97.9272 236.022 98.07 236.091 98.3631 236.174C98.7162 236.265 99.1295 236.372 99.633 236.501C100.828 236.782 102.413 237.147 104.337 237.596C108.305 238.53 113.828 239.693 119.704 241.7C125.58 243.722 130.622 246.298 134.041 248.51C135.754 249.612 137.092 250.585 137.994 251.292C138.895 251.991 139.391 252.387 139.421 252.356C139.436 252.341 139.324 252.227 139.106 252.022C138.88 251.817 138.565 251.505 138.121 251.14C137.257 250.388 135.942 249.362 134.244 248.206C130.855 245.896 125.79 243.243 119.877 241.214C113.955 239.192 108.41 238.082 104.42 237.246C102.481 236.866 100.88 236.547 99.6781 236.311C98.5584 236.098 97.9348 235.999 97.9272 236.03V236.022Z" fill="#263238"/>
<path d="M74.0012 245.211C74.144 245.234 74.9856 240.218 75.8798 234.008C76.7815 227.798 77.3902 222.744 77.2474 222.728C77.1046 222.706 76.263 227.722 75.3688 233.94C74.4671 240.149 73.8585 245.204 74.0012 245.219V245.211Z" fill="#263238"/>
<path d="M49.0912 236.06C49.1514 236.106 49.9855 235.057 51.338 233.362C52.6831 231.667 54.5467 229.334 56.6582 226.795C58.7697 224.256 60.7234 221.999 62.1437 220.365C63.5639 218.731 64.4355 217.712 64.3829 217.666C64.3604 217.644 64.1049 217.864 63.6691 218.282C63.2332 218.7 62.6171 219.331 61.8731 220.114C60.3853 221.687 58.379 223.914 56.2674 226.46C54.1559 229.007 52.3299 231.386 51.0525 233.142C50.4138 234.016 49.9103 234.738 49.5722 235.247C49.234 235.756 49.0612 236.045 49.0912 236.068V236.06Z" fill="#263238"/>
<path d="M115.007 259.425V271.875H111.934L100.993 306.8H76.7293L66.1341 272.224L62.0312 271.875V259.425H115.007Z" fill="#455A64"/>
<path d="M64.0825 272.224C64.0825 272.368 74.798 272.482 88.0082 272.482C101.218 272.482 111.934 272.368 111.934 272.224C111.934 272.08 101.226 271.966 88.0082 271.966C74.7905 271.966 64.0825 272.08 64.0825 272.224Z" fill="#263238"/>
<path d="M46.6343 192.143C46.6343 192.143 47.1828 192.325 48.1897 192.569C49.2793 192.835 50.7146 193.184 52.4504 193.61C56.0422 194.507 60.9641 195.875 66.3143 197.692C71.657 199.516 76.4061 201.439 79.8026 202.913C81.4332 203.635 82.7858 204.236 83.8152 204.692C84.762 205.118 85.2956 205.338 85.3106 205.3C85.3256 205.27 84.8222 204.988 83.9054 204.502C82.9887 204.015 81.6361 203.354 79.9529 202.571C76.5864 201.005 71.8524 199.022 66.4872 197.19C61.1219 195.366 56.1625 194.058 52.5405 193.245C50.7296 192.842 49.2643 192.538 48.2423 192.363C47.2204 192.181 46.6568 192.105 46.6493 192.135L46.6343 192.143Z" fill="#263238"/>
<path d="M72.1377 291.614C72.1377 291.758 79.652 291.872 88.9247 291.872C98.1974 291.872 105.712 291.758 105.712 291.614C105.712 291.469 98.1974 291.356 88.9247 291.356C79.652 291.356 72.1377 291.469 72.1377 291.614Z" fill="#FAFAFA"/>
<path d="M71.1909 288.725C71.1909 288.87 79.1561 288.984 88.9774 288.984C98.7986 288.984 106.764 288.87 106.764 288.725C106.764 288.581 98.7986 288.467 88.9774 288.467C79.1561 288.467 71.1909 288.581 71.1909 288.725Z" fill="#FAFAFA"/>
<path d="M431.372 200.928L368.939 159.043C363.968 155.71 357.804 154.659 351.964 156.159L191.531 197.4C180.056 200.354 173.079 212.116 175.998 223.583L204.888 337.171C207.792 348.579 219.381 355.354 230.757 352.287L390.164 309.351C396.127 307.749 401.135 303.622 403.887 298.049L438.449 228.041C443.201 218.42 440.173 206.827 431.37 200.92L431.372 200.928ZM409.276 227.811C407.938 237.456 399.085 244.27 389.505 243.032C379.924 241.794 373.243 232.97 374.581 223.325C375.919 213.68 384.771 206.865 394.352 208.103C403.933 209.342 410.614 218.166 409.276 227.811Z" fill="#0D8080"/>
<g opacity="0.4">
<path d="M431.397 200.903L368.971 159.053C364 155.723 357.836 154.675 351.995 156.176L191.534 197.46C180.057 200.416 173.077 212.177 175.992 223.639L204.85 337.18C207.751 348.583 219.339 355.352 230.718 352.281L390.153 309.304C396.116 307.7 401.126 303.573 403.88 298.001L438.466 228.005C443.222 218.385 440.197 206.797 431.395 200.895L431.397 200.903ZM409.291 227.784C407.95 237.427 399.094 244.242 389.513 243.008C379.932 241.773 373.252 232.954 374.594 223.312C375.935 213.67 384.79 206.854 394.372 208.089C403.953 209.323 410.632 218.142 409.291 227.784Z" fill="#0D8080"/>
</g>
<path d="M439.725 198.78L377.278 156.822C372.305 153.484 366.142 152.428 360.303 153.925L199.927 195.08C188.456 198.027 181.488 209.793 184.414 221.269L213.369 334.955C216.279 346.373 227.871 353.161 239.243 350.099L398.593 307.248C404.553 305.649 409.557 301.523 412.306 295.948L446.817 225.917C451.562 216.293 448.528 204.69 439.723 198.773L439.725 198.78ZM417.65 225.666C416.318 235.316 407.471 242.129 397.892 240.883C388.312 239.638 381.626 230.803 382.958 221.152C384.29 211.501 393.137 204.689 402.716 205.934C412.296 207.18 418.981 216.015 417.65 225.666Z" fill="#31B9B9"/>
<path d="M247.362 245.496C244.013 231.655 250.288 220.716 262.2 217.69C274.119 214.655 284.51 221.224 287.889 235.183C291.267 249.141 285.08 259.932 273.162 262.967C261.251 266.001 250.705 259.347 247.356 245.506L247.362 245.496ZM276.211 238.154C274.08 229.361 269.675 226 264.531 227.306C259.512 228.587 257.055 233.818 259.156 242.494C261.257 251.17 265.809 254.617 270.837 253.342C275.981 252.036 278.342 246.948 276.211 238.154ZM311.135 206.231L325.037 202.694L289.089 299.005L275.187 302.541L311.135 206.231ZM312.336 270.053C308.98 256.213 315.261 245.272 327.057 242.277C338.968 239.244 349.514 245.897 352.862 259.739C356.211 273.58 349.937 284.519 338.017 287.547C326.223 290.55 315.677 283.896 312.328 270.055L312.336 270.053ZM341.068 262.741C338.967 254.065 334.525 250.589 329.388 251.893C324.369 253.174 321.882 258.288 324.013 267.081C326.144 275.874 330.668 279.212 335.694 277.929C340.838 276.623 343.17 271.418 341.068 262.741Z" fill="white"/>
<path d="M442.83 234.601C442.861 234.538 443.508 234.789 444.712 235.331C445.916 235.872 447.679 236.689 449.927 237.791C452.174 238.886 454.92 240.263 458.05 241.961C461.181 243.658 464.707 245.689 468.45 248.179C472.188 250.678 476.184 253.617 480.038 257.29C480.52 257.749 481.004 258.215 481.495 258.68C481.96 259.167 482.435 259.659 482.911 260.159C483.873 261.132 484.806 262.207 485.69 263.334C487.444 265.599 489.069 268.18 489.931 271.229C490.359 272.742 490.553 274.38 490.423 276.025C490.3 277.669 489.837 279.324 489.068 280.817C487.544 283.825 484.964 286.259 481.924 287.822C478.868 289.389 475.421 290.082 472 290.197C468.564 290.316 465.126 289.904 461.712 289.212C454.877 287.806 448.612 284.982 443.044 281.614C440.258 279.927 437.633 278.072 435.181 276.132C432.741 274.205 430.391 272.269 428.142 270.33C419.158 262.556 411.747 254.726 406.469 247.379C405.15 245.546 403.954 243.767 402.878 242.034C402.348 241.165 401.838 240.315 401.38 239.458C400.93 238.6 400.471 237.798 400.171 236.885C399.471 235.13 399.47 233.176 400.128 231.649C400.776 230.109 401.891 229.032 402.987 228.312C403.53 227.933 404.099 227.689 404.623 227.449C405.171 227.273 405.68 227.068 406.176 226.999C407.157 226.778 408.008 226.819 408.681 226.891C409.35 227.012 409.852 227.152 410.149 227.34C410.454 227.501 410.603 227.595 410.586 227.623C410.57 227.651 410.391 227.62 410.078 227.523C409.769 227.409 409.276 227.336 408.647 227.284C408.008 227.281 407.209 227.296 406.304 227.567C405.844 227.657 405.386 227.88 404.881 228.069C404.406 228.319 403.894 228.572 403.411 228.942C402.443 229.644 401.497 230.653 401.001 231.989C400.486 233.314 400.534 234.927 401.196 236.473C401.471 237.252 401.953 238.055 402.407 238.866C402.87 239.682 403.395 240.497 403.934 241.34C405.033 243.012 406.251 244.754 407.588 246.536C412.917 253.65 420.354 261.309 429.317 268.933C431.566 270.84 433.906 272.739 436.339 274.637C438.754 276.524 441.317 278.318 444.042 279.951C449.48 283.204 455.555 285.922 462.126 287.272C465.402 287.938 468.717 288.328 471.947 288.225C475.169 288.123 478.324 287.476 481.066 286.086C483.778 284.704 486.083 282.538 487.402 279.952C488.763 277.379 488.933 274.409 488.191 271.712C487.454 269.006 485.982 266.564 484.33 264.397C483.496 263.312 482.627 262.275 481.69 261.31C481.232 260.822 480.774 260.333 480.325 259.849C479.851 259.388 479.384 258.926 478.918 258.47C475.198 254.832 471.312 251.872 467.673 249.331C464.02 246.794 460.572 244.703 457.512 242.916C454.453 241.129 451.77 239.665 449.582 238.461C447.401 237.255 445.709 236.318 444.541 235.673C443.396 235.022 442.812 234.652 442.843 234.59L442.83 234.601Z" fill="#263238"/>
<path d="M337.865 140.073C337.765 140.115 332.052 126.269 325.119 109.152C318.176 92.029 312.634 78.1142 312.734 78.0723C312.834 78.0304 318.546 91.8765 325.482 109.001C332.423 126.116 337.966 140.038 337.866 140.08L337.865 140.073Z" fill="#263238"/>
<path d="M378.058 45.6561C378.058 45.6561 378.064 45.7408 378.048 45.894C378.03 46.0711 378.003 46.3055 377.974 46.5952C377.893 47.2357 377.784 48.1419 377.644 49.2917C377.348 51.658 376.929 55.0283 376.406 59.1942C375.374 67.5535 374.006 79.1125 372.679 91.8907C371.354 104.676 370.314 116.266 369.611 124.656C369.262 128.83 368.981 132.219 368.788 134.589C368.688 135.744 368.611 136.65 368.553 137.292C368.524 137.582 368.497 137.816 368.479 137.993C368.465 138.154 368.445 138.23 368.445 138.23C368.445 138.23 368.439 138.145 368.439 137.988C368.448 137.806 368.46 137.575 368.472 137.282C368.513 136.637 368.566 135.729 368.635 134.575C368.779 132.225 369.018 128.824 369.337 124.626C369.969 116.232 370.968 104.637 372.291 91.8443C373.624 79.0568 375.033 67.5028 376.136 59.1481C376.689 54.9744 377.151 51.5925 377.495 49.2606C377.669 48.1176 377.801 47.2129 377.899 46.5759C377.944 46.2897 377.987 46.0588 378.013 45.8797C378.044 45.7227 378.054 45.6414 378.064 45.6468L378.058 45.6561Z" fill="#263238"/>
<path d="M435.363 91.0493C435.449 91.1124 427.06 102.088 416.636 115.562C406.205 129.038 397.686 139.899 397.6 139.836C397.514 139.773 405.896 128.8 416.327 115.324C426.753 101.857 435.277 90.9862 435.363 91.0493Z" fill="#263238"/>
<path d="M313.286 149.331C313.223 149.419 307.868 145.315 301.341 140.177C294.812 135.032 289.572 130.797 289.636 130.709C289.7 130.622 295.054 134.725 301.584 139.871C308.113 145.016 313.352 149.251 313.288 149.339L313.286 149.331Z" fill="#263238"/>
<path d="M446.934 157.634C446.931 157.744 440.092 157.654 431.66 157.442C423.229 157.23 416.401 156.967 416.404 156.858C416.407 156.748 423.246 156.837 431.678 157.049C440.11 157.261 446.938 157.524 446.934 157.634Z" fill="#263238"/>
<path d="M355.168 181.497L359.212 177.495L360.499 171.941L364.433 175.994L369.933 177.254L365.887 181.248L364.6 186.803L360.665 182.75L355.168 181.497Z" fill="white"/>
<path d="M327.676 180.572L329.095 179.172L329.545 177.229L330.924 178.651L332.848 179.091L331.428 180.491L330.986 182.432L329.607 181.01L327.676 180.572Z" fill="white"/>
<path d="M352.604 210.109L355.343 207.406L356.212 203.645L358.875 206.389L362.598 207.24L359.859 209.943L358.99 213.704L356.328 210.96L352.604 210.109Z" fill="white"/>
<ellipse cx="169.5" cy="309.5" rx="69.5" ry="3.5" fill="#535353" fill-opacity="0.46"/>
<path d="M150.948 293.324C150.948 293.324 119.568 302.111 118.306 302.559C116.412 303.235 116.735 310.236 119.674 310.129C121.064 310.076 143.78 310.988 146.642 310.806C149.513 310.623 157.238 307.537 157.238 307.537L150.941 293.332L150.948 293.324Z" fill="#455A64"/>
<path d="M137.881 305.44C137.723 305.463 137.513 303.783 136.498 302.035C135.514 300.271 134.184 299.237 134.281 299.116C134.334 298.994 135.897 299.891 136.957 301.776C138.031 303.646 138.016 305.463 137.881 305.447V305.44Z" fill="#263238"/>
<path d="M141.149 303.935C140.999 303.965 140.676 302.46 139.842 300.803C139.023 299.139 138.023 297.983 138.136 297.877C138.226 297.771 139.451 298.812 140.315 300.568C141.195 302.316 141.285 303.927 141.157 303.935H141.149Z" fill="#263238"/>
<path d="M144.215 303.106C144.058 303.099 144.178 301.51 143.479 299.754C142.81 297.983 141.661 296.904 141.773 296.782C141.833 296.661 143.246 297.641 143.975 299.557C144.726 301.465 144.343 303.152 144.223 303.106H144.215Z" fill="#263238"/>
<path d="M143.659 299.009C143.607 299.025 143.329 298.135 143.321 296.646C143.321 295.901 143.411 295.019 143.637 294.054C143.75 293.575 143.907 293.081 144.103 292.579C144.208 292.328 144.321 292.04 144.606 291.804C144.899 291.538 145.433 291.591 145.681 291.857C145.966 292.108 146.057 292.465 146.102 292.754C146.132 293.043 146.147 293.316 146.139 293.59C146.132 294.137 146.064 294.662 145.944 295.141C145.711 296.114 145.335 296.919 144.974 297.565C144.246 298.85 143.607 299.511 143.562 299.473C143.487 299.42 144.013 298.683 144.644 297.39C144.952 296.744 145.275 295.946 145.47 295.034C145.568 294.578 145.621 294.092 145.621 293.582C145.606 293.096 145.621 292.488 145.335 292.252C145.185 292.131 145.05 292.116 144.922 292.214C144.787 292.321 144.666 292.541 144.576 292.769C144.381 293.24 144.223 293.712 144.103 294.168C143.855 295.08 143.735 295.931 143.689 296.646C143.599 298.082 143.742 298.979 143.652 298.994L143.659 299.009Z" fill="#263238"/>
<path d="M143.704 298.683C143.689 298.622 144.448 298.363 145.726 298.356C146.364 298.356 147.131 298.424 147.95 298.629C148.356 298.743 148.792 298.85 149.235 299.108C149.663 299.329 150.114 299.929 149.941 300.56C149.806 301.153 149.31 301.563 148.814 301.692C148.318 301.837 147.83 301.784 147.409 301.692C146.545 301.495 145.876 301.062 145.373 300.682C144.366 299.883 143.877 299.275 143.915 299.23C143.967 299.161 144.561 299.686 145.583 300.378C146.094 300.712 146.74 301.069 147.507 301.221C147.89 301.297 148.296 301.32 148.671 301.206C149.04 301.1 149.348 300.818 149.438 300.454C149.528 300.096 149.318 299.777 148.972 299.564C148.634 299.351 148.22 299.23 147.837 299.116C147.063 298.888 146.334 298.789 145.726 298.743C144.501 298.66 143.727 298.781 143.712 298.698L143.704 298.683Z" fill="#263238"/>
<path d="M133.056 305.782C132.899 305.767 133.056 304.406 132.44 302.916C131.854 301.419 130.802 300.552 130.907 300.431C130.96 300.302 132.267 301.054 132.929 302.719C133.605 304.376 133.184 305.835 133.064 305.782H133.056Z" fill="#263238"/>
<path d="M154.954 307.241C154.954 307.241 154.533 307.477 153.736 307.819C152.932 308.13 151.752 308.556 150.242 308.913C147.244 309.681 142.961 310.114 138.264 310.061C133.56 310.008 129.322 309.795 126.249 309.666C124.791 309.59 123.574 309.521 122.612 309.468C121.755 309.407 121.282 309.362 121.282 309.324C121.282 309.286 121.763 309.263 122.619 309.263C123.581 309.263 124.806 309.278 126.264 309.286C129.442 309.346 133.635 309.43 138.272 309.521C142.953 309.575 147.176 309.202 150.167 308.541C153.165 307.918 154.916 307.135 154.954 307.233V307.241Z" fill="#263238"/>
<path d="M155.878 307.963C155.833 308.039 154.976 307.53 153.526 306.884C152.091 306.261 149.949 305.516 147.589 305.888C145.222 306.253 143.547 307.864 142.457 308.974C141.36 310.129 140.714 310.897 140.646 310.844C140.601 310.806 141.135 309.962 142.179 308.723C142.705 308.108 143.381 307.401 144.261 306.755C145.132 306.109 146.252 305.561 147.499 305.364C150.032 304.968 152.256 305.827 153.676 306.549C155.119 307.294 155.9 307.917 155.87 307.971L155.878 307.963Z" fill="#263238"/>
<path d="M124.4 309.339C124.34 309.301 124.61 308.883 124.858 308.138C125.106 307.401 125.302 306.314 125.091 305.158C124.881 303.996 124.317 303.053 123.821 302.453C123.325 301.852 122.927 301.556 122.972 301.495C122.995 301.449 123.468 301.662 124.047 302.247C124.625 302.817 125.279 303.821 125.512 305.075C125.745 306.337 125.482 307.507 125.144 308.244C124.806 308.997 124.445 309.362 124.407 309.331L124.4 309.339Z" fill="#263238"/>
<path d="M183.695 294.267C183.695 294.267 215.887 299.215 217.187 299.511C219.141 299.952 219.652 306.945 216.721 307.188C215.331 307.302 192.893 310.935 190.023 311.102C187.152 311.269 178.15 308.883 178.15 308.883L183.703 294.267H183.695Z" fill="#455A64"/>
<path d="M198.093 304.718C198.251 304.718 198.266 303.03 199.062 301.168C199.836 299.298 201.031 298.112 200.918 297.998C200.851 297.884 199.408 298.956 198.574 300.955C197.725 302.947 197.958 304.74 198.085 304.71L198.093 304.718Z" fill="#263238"/>
<path d="M194.666 303.623C194.824 303.631 194.959 302.103 195.598 300.355C196.214 298.599 197.078 297.337 196.951 297.246C196.853 297.155 195.756 298.333 195.102 300.18C194.433 302.019 194.531 303.638 194.666 303.631V303.623Z" fill="#263238"/>
<path d="M191.526 303.167C191.683 303.137 191.375 301.578 191.864 299.747C192.315 297.907 193.337 296.699 193.209 296.592C193.134 296.478 191.849 297.626 191.353 299.61C190.834 301.594 191.405 303.22 191.526 303.159V303.167Z" fill="#263238"/>
<path d="M191.593 299.032C191.653 299.032 191.819 298.128 191.653 296.646C191.563 295.908 191.375 295.034 191.037 294.115C190.864 293.651 190.654 293.18 190.398 292.708C190.271 292.473 190.12 292.199 189.805 291.994C189.482 291.766 188.963 291.88 188.738 292.176C188.482 292.465 188.437 292.83 188.43 293.119C188.43 293.415 188.452 293.681 188.49 293.955C188.565 294.495 188.693 295.011 188.866 295.475C189.211 296.41 189.677 297.17 190.113 297.77C190.992 298.964 191.698 299.541 191.736 299.496C191.804 299.435 191.195 298.766 190.421 297.558C190.038 296.95 189.624 296.205 189.324 295.315C189.174 294.875 189.061 294.396 189.001 293.894C188.956 293.408 188.881 292.807 189.129 292.534C189.264 292.389 189.392 292.366 189.534 292.45C189.685 292.541 189.827 292.739 189.94 292.959C190.188 293.408 190.398 293.856 190.579 294.289C190.932 295.163 191.15 295.992 191.285 296.699C191.548 298.113 191.511 299.025 191.593 299.025V299.032Z" fill="#263238"/>
<path d="M191.518 298.713C191.525 298.652 190.744 298.485 189.466 298.629C188.835 298.705 188.084 298.865 187.287 299.169C186.897 299.329 186.476 299.488 186.07 299.8C185.672 300.073 185.296 300.727 185.536 301.328C185.739 301.898 186.288 302.247 186.791 302.316C187.302 302.399 187.776 302.285 188.189 302.141C189.023 301.837 189.632 301.335 190.09 300.887C190.992 299.975 191.413 299.306 191.368 299.268C191.308 299.207 190.774 299.8 189.842 300.606C189.369 301.001 188.775 301.434 188.031 301.677C187.663 301.799 187.257 301.867 186.874 301.799C186.498 301.738 186.16 301.495 186.025 301.145C185.897 300.803 186.07 300.454 186.386 300.21C186.694 299.959 187.092 299.792 187.46 299.625C188.204 299.306 188.91 299.116 189.519 299.002C190.729 298.766 191.51 298.804 191.51 298.713H191.518Z" fill="#263238"/>
<path d="M202.925 304.482C203.075 304.444 202.767 303.114 203.203 301.563C203.608 300.005 204.548 299.025 204.435 298.911C204.367 298.789 203.158 299.694 202.692 301.419C202.211 303.144 202.804 304.55 202.917 304.474L202.925 304.482Z" fill="#263238"/>
<path d="M181.351 308.564C181.351 308.564 181.794 308.746 182.621 308.989C183.455 309.194 184.68 309.483 186.22 309.658C189.286 310.053 193.592 309.97 198.251 309.354C202.917 308.738 207.095 308.009 210.131 307.522C211.566 307.271 212.768 307.059 213.715 306.891C214.557 306.732 215.023 306.625 215.023 306.587C215.023 306.549 214.542 306.587 213.685 306.686C212.731 306.808 211.521 306.967 210.071 307.15C206.922 307.591 202.767 308.184 198.175 308.83C193.532 309.445 189.293 309.582 186.25 309.286C183.199 309.027 181.366 308.465 181.343 308.564H181.351Z" fill="#263238"/>
<path d="M180.517 309.4C180.569 309.468 181.358 308.86 182.726 308.047C184.079 307.256 186.122 306.26 188.504 306.344C190.894 306.42 192.75 307.819 193.96 308.792C195.185 309.802 195.921 310.494 195.974 310.426C196.019 310.38 195.388 309.605 194.2 308.503C193.599 307.955 192.855 307.332 191.901 306.8C190.962 306.261 189.789 305.85 188.52 305.812C185.965 305.728 183.846 306.846 182.523 307.727C181.178 308.64 180.472 309.354 180.509 309.4H180.517Z" fill="#263238"/>
<path d="M283.809 160.486C283.546 159.855 282.87 159.551 282.87 159.551L283.636 158C283.636 158 283.561 157.096 283.193 156.435C282.825 155.781 281.502 155.834 281.502 155.834L281.697 155.401C281.983 154.778 281.923 154.048 281.532 153.486C281.472 153.402 281.412 153.318 281.337 153.227C280.803 152.566 279.669 152.368 279.669 152.368C279.669 152.368 280.42 150.909 280.082 150.301C279.638 149.495 278.053 148.629 276.881 149.024C275.611 149.457 272.913 150.78 271.057 151.836C270.321 152.254 269.396 151.905 269.103 151.114C268.54 149.594 267.555 147.283 266.255 145.702C264.843 143.985 263.513 144.121 262.746 144.418C262.378 144.562 262.22 145.011 262.431 145.353C263.017 146.333 264.166 148.294 264.475 149.123C264.843 150.111 265.248 157.605 265.248 157.605L263.22 161.512L242.721 194.248C242.721 194.248 211.799 173.164 211.919 172.639L210.461 196.81L233.771 212.467C237.821 215.188 242.856 215.948 247.515 214.55C252.151 213.159 255.946 209.769 257.877 205.292L273.559 170.868L275.46 168.056L282.847 163.268C282.847 163.268 284.049 161.124 283.794 160.493L283.809 160.486Z" fill="#FFBE9D"/>
<path d="M280.405 152.421C280.405 152.421 280.36 152.475 280.255 152.558C280.134 152.657 279.992 152.771 279.811 152.916C279.398 153.242 278.842 153.676 278.158 154.215C277.452 154.762 276.618 155.409 275.693 156.123C275.22 156.473 274.762 156.876 274.206 157.218C273.665 157.552 272.921 157.772 272.244 157.476C271.914 157.324 271.658 157.035 271.515 156.723C271.373 156.404 271.328 156.055 271.343 155.72C271.38 155.036 271.741 154.466 272.124 154.018C272.522 153.569 272.958 153.212 273.356 152.878C273.755 152.543 274.123 152.231 274.469 151.943C275.137 151.388 275.686 150.932 276.084 150.605C276.264 150.46 276.415 150.339 276.527 150.248C276.633 150.164 276.685 150.126 276.693 150.134C276.693 150.134 276.648 150.187 276.55 150.278C276.437 150.377 276.295 150.506 276.129 150.666C275.738 151.008 275.205 151.479 274.551 152.057C274.213 152.345 273.845 152.665 273.454 153.007C273.063 153.349 272.628 153.706 272.252 154.139C271.884 154.572 271.553 155.112 271.523 155.735C271.478 156.336 271.726 157.043 272.312 157.309C272.597 157.438 272.928 157.461 273.236 157.4C273.544 157.347 273.837 157.218 274.1 157.058C274.634 156.731 275.107 156.328 275.581 155.986C276.512 155.287 277.354 154.648 278.068 154.116C278.767 153.6 279.338 153.182 279.759 152.87C279.947 152.733 280.097 152.627 280.225 152.535C280.33 152.459 280.39 152.421 280.397 152.429L280.405 152.421Z" fill="#EB996E"/>
<path d="M282.051 155.941C282.051 155.941 281.938 156.055 281.713 156.229C281.487 156.404 281.149 156.647 280.728 156.944C279.887 157.537 278.707 158.32 277.362 159.125C277.024 159.323 276.7 159.528 276.355 159.68C276.009 159.832 275.641 159.923 275.28 159.885C274.559 159.802 274.048 159.27 273.89 158.753C273.732 158.228 273.86 157.78 273.988 157.522C274.055 157.392 274.123 157.301 274.176 157.24C274.228 157.187 274.258 157.157 274.266 157.164C274.281 157.172 274.168 157.294 274.063 157.552C273.958 157.81 273.868 158.236 274.025 158.707C274.183 159.171 274.664 159.642 275.31 159.711C275.626 159.741 275.964 159.657 276.295 159.505C276.625 159.361 276.941 159.156 277.279 158.958C278.617 158.16 279.811 157.392 280.661 156.83C281.066 156.564 281.404 156.343 281.675 156.161C281.915 156.001 282.051 155.925 282.058 155.933L282.051 155.941Z" fill="#EB996E"/>
<path d="M283.005 159.369C283.005 159.369 282.885 159.452 282.652 159.581C282.381 159.718 282.043 159.893 281.652 160.091C280.803 160.516 279.631 161.086 278.323 161.71C278 161.862 277.685 162.029 277.346 162.135C277.016 162.249 276.663 162.295 276.332 162.219C276.009 162.15 275.716 161.945 275.581 161.672C275.438 161.398 275.423 161.109 275.468 160.866C275.558 160.364 275.866 160.06 276.054 159.885C276.257 159.711 276.392 159.642 276.4 159.65C276.407 159.665 276.287 159.749 276.107 159.939C275.934 160.121 275.663 160.433 275.596 160.881C275.566 161.102 275.596 161.368 275.716 161.588C275.836 161.816 276.084 161.983 276.37 162.036C276.655 162.097 276.978 162.059 277.286 161.945C277.602 161.839 277.91 161.672 278.241 161.52C279.548 160.896 280.728 160.349 281.592 159.954C281.998 159.771 282.336 159.619 282.614 159.498C282.855 159.391 282.997 159.346 282.997 159.353L283.005 159.369Z" fill="#EB996E"/>
<path d="M283.538 162.553C283.538 162.553 283.095 162.698 282.366 162.865C281.637 163.032 280.623 163.252 279.503 163.48C279.225 163.534 278.947 163.595 278.684 163.648C278.421 163.701 278.158 163.754 277.895 163.747C277.632 163.739 277.377 163.655 277.196 163.496C277.008 163.336 276.918 163.1 276.926 162.895C276.956 162.477 277.211 162.226 277.377 162.097C277.557 161.968 277.677 161.953 277.677 161.96C277.677 161.976 277.572 162.021 277.422 162.158C277.279 162.287 277.068 162.546 277.061 162.895C277.061 163.07 277.136 163.252 277.294 163.374C277.452 163.503 277.67 163.572 277.903 163.572C278.136 163.572 278.383 163.526 278.654 163.465C278.917 163.412 279.195 163.351 279.473 163.298C280.593 163.07 281.607 162.872 282.344 162.736C283.08 162.599 283.538 162.53 283.546 162.561L283.538 162.553Z" fill="#EB996E"/>
<path d="M275.521 161.04C275.505 161.101 274.589 160.767 273.416 160.828C272.244 160.873 271.365 161.298 271.343 161.238C271.312 161.2 272.192 160.691 273.409 160.638C274.626 160.577 275.543 161.002 275.521 161.04Z" fill="#EB996E"/>
<path d="M165.113 153.873C165.113 153.873 154.713 144.996 157.125 138.885C159.537 132.774 166.21 129.741 169.486 118.629C172.109 109.751 187.731 92.6493 206.246 105.502C206.246 105.502 212.513 104.499 216.075 107.387C219.637 110.275 220.494 116.037 222.012 122.687C224.341 132.941 225.618 140.823 221.11 145.832C216.594 150.841 214.948 152.201 215.188 157.902C215.504 165.343 218.75 164.347 215.947 169.774L200.415 164.651L200.257 160.326L198.687 164.393L189.655 161.109L165.113 153.866V153.873Z" fill="#263238"/>
<path d="M216.819 116.455C215.812 118.803 216.639 121.509 217.593 123.873C218.555 126.237 219.659 128.745 219.179 131.253C218.322 135.7 212.859 138.178 212.258 142.67C211.935 145.079 213.129 147.527 212.664 149.906C212.22 152.209 210.312 153.949 208.29 155.105C206.269 156.268 204.03 157.035 202.136 158.388C202.136 158.388 197.958 161.854 190.759 156.138" fill="#263238"/>
<path d="M187.325 110.648C185.394 110.192 183.433 111.309 182.816 113.217L167.893 163.306C165.969 169.166 173.251 175.421 179.473 177.458C185.747 179.518 187.025 176.501 189.016 170.983C192.352 161.77 193.547 158.289 193.532 158.342C193.532 158.342 201.858 159.787 207.065 149.966C209.65 145.087 212.31 136.521 214.256 129.437C216.007 123.067 214.557 113.977 208.185 112.48L187.318 110.64L187.325 110.648Z" fill="#FFBE9D"/>
<path d="M208.982 134.689C208.764 135.403 207.99 135.806 207.246 135.586C206.509 135.373 206.081 134.621 206.299 133.906C206.517 133.192 207.291 132.789 208.027 133.009C208.764 133.222 209.192 133.974 208.974 134.689H208.982Z" fill="#263238"/>
<path d="M211.048 132.872C210.822 132.986 210.086 131.892 208.666 131.398C207.253 130.881 205.961 131.253 205.871 131.025C205.818 130.919 206.096 130.668 206.667 130.493C207.231 130.319 208.102 130.265 208.981 130.577C209.861 130.889 210.492 131.481 210.807 131.968C211.131 132.462 211.168 132.827 211.063 132.872H211.048Z" fill="#263238"/>
<path d="M194.922 130.151C194.704 130.866 193.93 131.269 193.186 131.048C192.45 130.835 192.022 130.083 192.239 129.368C192.457 128.654 193.231 128.251 193.968 128.471C194.704 128.684 195.133 129.437 194.915 130.151H194.922Z" fill="#263238"/>
<path d="M196.899 128.585C196.673 128.7 195.929 127.605 194.516 127.111C193.104 126.594 191.811 126.967 191.721 126.739C191.676 126.632 191.947 126.381 192.518 126.206C193.081 126.032 193.953 125.978 194.832 126.29C195.711 126.609 196.342 127.195 196.658 127.681C196.974 128.175 197.019 128.54 196.914 128.585H196.899Z" fill="#263238"/>
<path d="M198.386 141.028C198.409 140.944 199.341 141.096 200.836 141.416C201.212 141.507 201.58 141.552 201.723 141.324C201.896 141.089 201.881 140.64 201.85 140.154C201.813 139.151 201.775 138.094 201.738 136.992C201.618 132.5 201.663 128.852 201.843 128.852C202.023 128.852 202.264 132.485 202.391 136.984C202.414 138.086 202.437 139.143 202.452 140.154C202.452 140.618 202.519 141.172 202.144 141.659C201.956 141.894 201.618 142.001 201.362 141.986C201.107 141.978 200.904 141.91 200.716 141.856C199.25 141.431 198.356 141.119 198.379 141.036L198.386 141.028Z" fill="#263238"/>
<path d="M193.532 158.342C193.532 158.342 186.461 156.366 181.051 149.792C181.051 149.792 182.065 158.16 192.683 160.805L193.532 158.342Z" fill="#EB996E"/>
<path d="M196.598 144.273C196.32 143.415 195.561 142.723 194.637 142.51C193.998 142.358 193.277 142.442 192.728 142.814C192.179 143.187 191.856 143.878 192.029 144.486C192.225 145.163 192.983 145.573 193.727 145.619C194.471 145.664 195.208 145.414 195.914 145.163C196.109 145.094 196.312 145.018 196.463 144.882C196.613 144.745 196.711 144.532 196.643 144.349" fill="#EB996E"/>
<path d="M197.958 124.474C197.733 124.854 196.297 124.375 194.532 124.253C192.766 124.093 191.27 124.337 191.113 123.926C191.045 123.729 191.36 123.394 191.999 123.113C192.63 122.832 193.592 122.627 194.652 122.71C195.711 122.794 196.628 123.143 197.214 123.523C197.8 123.903 198.063 124.283 197.958 124.466V124.474Z" fill="#263238"/>
<path d="M213.092 128.114C212.694 128.358 211.597 127.673 210.161 127.248C208.741 126.777 207.449 126.716 207.261 126.29C207.186 126.085 207.471 125.811 208.087 125.644C208.696 125.477 209.643 125.477 210.627 125.781C211.604 126.085 212.378 126.632 212.784 127.119C213.197 127.605 213.265 127.993 213.084 128.114H213.092Z" fill="#263238"/>
<path d="M169.96 143.513C172.755 134.035 175.558 124.557 178.353 115.079C178.924 113.133 179.593 111.058 181.186 109.835C182.696 108.679 184.725 108.542 186.619 108.504C194.787 108.337 202.985 109.15 210.965 110.937C211.349 112.867 209.695 114.699 207.854 115.322C206.013 115.946 204.007 115.725 202.061 115.748C200.115 115.771 198.003 116.12 196.681 117.572C195.283 119.115 195.14 121.494 193.818 123.105C191.541 125.872 186.777 125.287 184.515 128.076C182.802 130.182 183.268 133.26 182.704 135.92C182.278 137.932 181.286 140.417 179.728 143.377C178.293 146.105 181.9 151.304 178.308 158.046L171.335 156.039L174.393 145.626L170.245 155.393L169.952 143.513H169.96Z" fill="#263238"/>
<path d="M194.178 140.853C194.329 140.937 194.253 141.317 194.238 141.864C194.223 142.404 194.298 143.141 194.644 143.818C194.997 144.494 195.553 144.973 195.997 145.269C196.448 145.573 196.793 145.725 196.786 145.9C196.786 146.052 196.357 146.212 195.681 146.052C195.02 145.9 194.118 145.368 193.6 144.372C193.089 143.377 193.164 142.32 193.419 141.689C193.675 141.036 194.043 140.777 194.171 140.861L194.178 140.853Z" fill="#263238"/>
<path d="M192.104 118.005C192.104 118.005 191.977 118.097 191.714 118.226C191.451 118.347 191.075 118.56 190.609 118.841C189.677 119.419 188.385 120.392 187.167 121.95C185.965 123.493 184.823 125.644 184.455 128.228C184.259 129.52 184.319 130.889 184.485 132.31C184.635 133.731 184.86 135.221 184.748 136.779C184.695 137.554 184.537 138.322 184.267 139.037C183.996 139.751 183.628 140.397 183.267 141.013C182.531 142.244 181.862 143.437 181.697 144.73C181.502 146.006 181.637 147.261 181.787 148.416C181.945 149.571 182.148 150.651 182.23 151.661C182.403 153.668 182.08 155.34 181.539 156.336C181.284 156.845 180.991 157.172 180.795 157.392C180.577 157.598 180.465 157.696 180.457 157.681C180.419 157.651 180.93 157.263 181.404 156.26C181.885 155.272 182.163 153.645 181.952 151.677C181.855 150.696 181.637 149.617 181.464 148.454C181.291 147.291 181.141 146.014 181.336 144.669C181.629 141.872 184.297 139.819 184.357 136.741C184.462 135.244 184.244 133.769 184.101 132.34C183.944 130.911 183.884 129.49 184.101 128.16C184.5 125.5 185.702 123.311 186.949 121.76C188.219 120.194 189.564 119.237 190.526 118.689C191.015 118.416 191.405 118.233 191.676 118.127C191.946 118.013 192.089 117.967 192.097 117.975L192.104 118.005Z" fill="#263238"/>
<path d="M225.783 160.744C225.783 160.744 225.746 160.782 225.656 160.851C225.565 160.912 225.445 161.018 225.257 161.124C224.897 161.345 224.333 161.626 223.552 161.831C222.77 162.036 221.771 162.128 220.636 161.938C219.509 161.748 218.231 161.223 217.179 160.197C216.135 159.179 215.323 157.689 215.105 155.963C214.993 155.105 215.03 154.192 215.278 153.296C215.526 152.406 215.955 151.54 216.518 150.757C217.638 149.176 219.201 147.891 220.674 146.47C221.402 145.756 222.124 144.996 222.718 144.137C223.311 143.278 223.777 142.305 224.115 141.279C224.791 139.219 224.957 137.06 224.904 135.008C224.852 132.948 224.596 130.965 224.295 129.087C223.687 125.34 222.748 122.034 221.793 119.328C220.839 116.614 219.862 114.509 219.156 113.065C218.803 112.343 218.517 111.788 218.322 111.415C218.126 111.035 218.036 110.838 218.044 110.83C218.059 110.83 218.171 111.013 218.389 111.377C218.607 111.742 218.915 112.282 219.291 112.996C220.035 114.425 221.057 116.523 222.049 119.237C223.048 121.942 224.017 125.256 224.649 129.034C224.957 130.919 225.227 132.91 225.287 135.001C225.34 137.083 225.182 139.28 224.483 141.408C224.13 142.465 223.649 143.468 223.033 144.365C222.417 145.262 221.681 146.029 220.937 146.751C219.449 148.188 217.901 149.45 216.811 150.97C216.263 151.722 215.857 152.543 215.609 153.387C215.368 154.23 215.331 155.105 215.429 155.925C215.616 157.575 216.383 159.019 217.367 159.999C218.359 160.995 219.576 161.52 220.666 161.725C221.763 161.93 222.748 161.862 223.514 161.687C225.062 161.322 225.753 160.699 225.783 160.759V160.744Z" fill="#263238"/>
<path d="M161.859 150.438C161.829 150.369 162.888 150.331 164.271 149.222C165.631 148.142 167.134 145.854 167.472 142.685C167.668 141.112 167.638 139.371 167.6 137.494C167.577 135.624 167.54 133.579 168.058 131.497C168.306 130.455 168.697 129.422 169.268 128.449C169.847 127.491 170.636 126.602 171.643 125.986C173.679 124.724 176.181 124.785 178.398 124.002C179.518 123.622 180.48 122.938 181.276 122.102C182.073 121.258 182.704 120.286 183.312 119.32C184.515 117.405 185.664 115.391 187.498 114.205C188.392 113.612 189.414 113.278 190.406 113.133C191.398 112.981 192.375 112.981 193.307 113.004C195.163 113.065 196.883 113.194 198.439 112.966C201.557 112.533 203.842 111.225 205.262 110.207C205.983 109.698 206.479 109.226 206.832 108.915C206.983 108.77 207.11 108.649 207.216 108.55C207.306 108.466 207.351 108.428 207.358 108.436C207.358 108.436 206.772 109.242 205.36 110.336C203.954 111.4 201.655 112.768 198.491 113.247C196.913 113.506 195.163 113.384 193.314 113.338C191.496 113.3 189.429 113.369 187.708 114.517C185.98 115.642 184.853 117.603 183.651 119.533C183.042 120.506 182.403 121.502 181.577 122.376C180.758 123.25 179.721 123.987 178.548 124.382C176.234 125.188 173.769 125.135 171.868 126.328C169.959 127.499 168.93 129.604 168.434 131.595C167.916 133.617 167.938 135.631 167.946 137.501C167.968 139.371 167.983 141.134 167.765 142.731C167.382 145.953 165.804 148.279 164.384 149.351C163.67 149.898 163.024 150.172 162.573 150.301C162.355 150.377 162.175 150.392 162.054 150.423C161.934 150.445 161.874 150.453 161.874 150.445L161.859 150.438Z" fill="#455A64"/>
<path d="M169.388 118.955C169.403 118.91 169.892 119.214 170.869 119.358C171.838 119.51 173.318 119.427 174.926 118.682C176.542 117.952 178.15 116.523 179.781 114.813C180.607 113.962 181.464 113.05 182.448 112.191C183.425 111.339 184.537 110.526 185.837 109.994C187.13 109.462 188.497 109.28 189.797 109.257C191.097 109.234 192.337 109.356 193.517 109.462C194.689 109.576 195.809 109.69 196.846 109.705C197.883 109.721 198.852 109.637 199.724 109.47C201.459 109.143 202.767 108.451 203.496 107.79C204.24 107.136 204.525 106.635 204.563 106.665C204.578 106.665 204.503 106.794 204.36 107.015C204.292 107.129 204.195 107.265 204.067 107.41C203.947 107.562 203.796 107.729 203.601 107.904C202.88 108.618 201.55 109.378 199.776 109.743C198.889 109.933 197.905 110.032 196.846 110.032C195.786 110.032 194.659 109.926 193.487 109.827C192.314 109.728 191.082 109.614 189.812 109.644C188.542 109.675 187.227 109.85 185.995 110.359C183.508 111.4 181.719 113.399 180.051 115.064C178.398 116.766 176.737 118.211 175.054 118.925C173.386 119.662 171.845 119.7 170.861 119.495C170.365 119.404 169.997 119.244 169.756 119.145C169.523 119.024 169.403 118.955 169.403 118.94L169.388 118.955Z" fill="#455A64"/>
<path d="M223.762 140.268C223.709 140.245 224.04 139.781 224.13 138.824C224.243 137.874 223.957 136.445 223.056 134.985C222.184 133.488 220.568 132.188 218.93 130.569C218.119 129.748 217.307 128.814 216.744 127.651C216.18 126.495 215.902 125.173 215.812 123.828C215.639 121.129 216.097 118.606 216.037 116.318C216.022 114.038 215.474 111.978 214.384 110.648C213.332 109.295 212.017 108.656 211.085 108.504C210.146 108.345 209.612 108.52 209.605 108.466C209.605 108.451 209.733 108.421 209.981 108.368C210.236 108.322 210.612 108.292 211.1 108.352C212.07 108.459 213.467 109.09 214.587 110.473C215.759 111.834 216.353 113.992 216.383 116.31C216.458 118.644 216.015 121.167 216.188 123.797C216.278 125.104 216.541 126.374 217.074 127.476C217.6 128.578 218.382 129.498 219.171 130.311C220.764 131.922 222.402 133.275 223.274 134.841C224.168 136.369 224.431 137.866 224.258 138.847C224.19 139.341 224.048 139.705 223.942 139.933C223.822 140.162 223.754 140.276 223.739 140.276L223.762 140.268Z" fill="#455A64"/>
<path d="M157.26 144.821C157.26 144.821 157.087 144.745 156.779 144.555C156.479 144.357 156.05 144.023 155.607 143.491C154.72 142.464 153.774 140.458 154.164 137.942C154.285 137.326 154.487 136.695 154.803 136.087C155.141 135.487 155.592 134.932 156.126 134.43C157.208 133.435 158.598 132.713 160.033 131.998C161.461 131.276 162.994 130.531 164.211 129.308C165.436 128.091 166.12 126.366 166.578 124.58C167.036 122.779 167.344 120.954 167.931 119.267C168.502 117.58 169.261 116.029 170.11 114.638C171.808 111.849 173.889 109.72 175.828 108.216C177.759 106.703 179.54 105.791 180.795 105.266C181.419 104.985 181.922 104.826 182.26 104.712C182.599 104.598 182.779 104.544 182.786 104.56C182.801 104.605 182.08 104.833 180.855 105.411C179.63 105.981 177.887 106.916 175.993 108.444C174.107 109.956 172.071 112.077 170.418 114.836C169.591 116.211 168.847 117.739 168.291 119.396C167.72 121.053 167.42 122.855 166.954 124.679C166.495 126.495 165.781 128.304 164.481 129.581C163.197 130.866 161.626 131.611 160.191 132.325C158.748 133.032 157.388 133.731 156.343 134.674C155.825 135.153 155.397 135.677 155.066 136.239C154.758 136.81 154.555 137.41 154.435 137.995C154.224 139.181 154.345 140.298 154.615 141.21C154.893 142.13 155.306 142.867 155.727 143.392C156.569 144.463 157.298 144.767 157.26 144.821Z" fill="#263238"/>
<path d="M225.873 140.975C225.873 140.975 226.197 140.61 226.67 139.895C227.151 139.181 227.707 138.041 228 136.528C228.293 135.016 228.293 133.138 227.812 131.162C227.339 129.178 226.347 127.134 225.122 125.12C223.882 123.105 222.552 121.281 221.425 119.548C220.298 117.823 219.381 116.189 218.765 114.745C218.149 113.3 217.826 112.062 217.683 111.195C217.615 110.762 217.57 110.427 217.563 110.192C217.548 109.964 217.548 109.842 217.563 109.842C217.6 109.842 217.645 110.321 217.841 111.165C218.028 112.008 218.389 113.217 219.028 114.631C219.667 116.044 220.591 117.641 221.733 119.343C222.868 121.053 224.213 122.87 225.468 124.907C226.707 126.936 227.707 129.026 228.18 131.071C228.654 133.108 228.624 135.039 228.286 136.582C227.947 138.132 227.331 139.28 226.805 139.979C226.535 140.329 226.317 140.587 226.144 140.739C225.979 140.899 225.888 140.982 225.881 140.967L225.873 140.975Z" fill="#263238"/>
<path d="M147.83 246.937L141.66 257.798C141.66 257.798 110.994 246.45 93.0425 249.757C86.2195 251.011 78.908 266.676 88.857 276.739C98.558 286.552 115.916 300.431 148.468 304.923C149.28 305.037 162.618 307.933 161.791 307.834C160.972 307.735 180.487 310.859 180.487 310.859L185.071 293.332L221.433 299.101C242.863 297.618 253.353 274.444 240.444 266.98C228.406 260.018 205.765 259.463 205.765 259.463L197.559 246.45L147.822 246.937H147.83Z" fill="#263238"/>
<path d="M181.208 311.482C181.306 310.889 181.561 309.293 182.095 306.017C182.38 304.269 182.741 302.141 183.199 299.686C183.432 298.462 183.688 297.155 183.996 295.779C184.154 295.095 184.319 294.388 184.515 293.674C184.62 293.316 184.725 292.952 184.853 292.594C184.988 292.23 185.101 291.865 185.401 291.515L185.454 291.781C177.714 288.999 168.036 285.328 157.726 280.935C151.384 278.206 145.402 275.455 140.142 272.582C137.52 271.137 135.048 269.686 132.929 268.059C130.787 266.463 128.886 264.867 127.097 263.476C123.558 260.656 120.35 258.832 117.952 258.049C117.366 257.821 116.818 257.692 116.352 257.57C115.886 257.433 115.48 257.357 115.157 257.312C114.849 257.251 114.601 257.213 114.413 257.175C114.248 257.145 114.158 257.122 114.158 257.114C114.158 257.114 114.248 257.114 114.413 257.137C114.601 257.16 114.849 257.198 115.165 257.236C115.495 257.274 115.901 257.335 116.374 257.464C116.848 257.578 117.404 257.692 117.998 257.912C119.215 258.277 120.635 258.923 122.206 259.805C123.776 260.694 125.467 261.872 127.263 263.256C129.066 264.639 130.982 266.22 133.116 267.801C135.235 269.412 137.685 270.841 140.308 272.27C145.56 275.113 151.542 277.857 157.876 280.578C168.178 284.971 177.842 288.672 185.559 291.492L185.777 291.568L185.619 291.758C185.416 291.994 185.266 292.374 185.146 292.716C185.018 293.066 184.913 293.423 184.808 293.773C184.605 294.479 184.439 295.179 184.274 295.863C183.958 297.231 183.688 298.531 183.447 299.754C182.967 302.202 182.583 304.322 182.268 306.063C181.952 307.788 181.704 309.141 181.531 310.091C181.441 310.555 181.366 310.905 181.313 311.14C181.261 311.376 181.216 311.49 181.216 311.49L181.208 311.482Z" fill="#455A64"/>
<path d="M233.388 269.093C233.388 269.093 233.32 269.093 233.192 269.078C233.042 269.055 232.854 269.024 232.629 268.986C232.133 268.918 231.412 268.728 230.457 268.637C228.571 268.356 225.798 268.173 222.394 268.348C218.983 268.515 214.955 269.176 210.589 270.317C208.41 270.909 206.141 271.601 203.819 272.414C201.497 273.228 199.13 274.17 196.703 275.143C194.276 276.139 191.826 276.906 189.444 277.568C187.062 278.229 184.74 278.753 182.516 279.187C178.067 280.061 174.025 280.6 170.621 281.026C167.224 281.444 164.466 281.725 162.565 281.923C161.633 282.014 160.904 282.09 160.371 282.143C160.138 282.159 159.95 282.181 159.8 282.189C159.672 282.197 159.604 282.197 159.604 282.189C159.604 282.189 159.672 282.166 159.792 282.143C159.943 282.121 160.13 282.09 160.356 282.06C160.889 281.991 161.618 281.893 162.543 281.771C164.474 281.528 167.209 281.178 170.583 280.745C173.972 280.289 178.007 279.719 182.441 278.829C184.657 278.389 186.972 277.864 189.339 277.195C191.706 276.534 194.14 275.766 196.553 274.778C198.98 273.805 201.354 272.863 203.691 272.05C206.021 271.236 208.305 270.552 210.499 269.967C214.895 268.842 218.953 268.204 222.387 268.067C225.813 267.922 228.601 268.15 230.487 268.485C231.442 268.599 232.155 268.812 232.651 268.91C232.877 268.964 233.065 269.009 233.207 269.04C233.335 269.07 233.395 269.093 233.395 269.1L233.388 269.093Z" fill="#455A64"/>
<path d="M177.369 262.784C177.391 263.043 175.738 263.461 173.018 263.719C170.298 263.978 166.503 264.031 162.348 263.582C158.192 263.126 154.488 262.267 151.888 261.431C149.28 260.595 147.755 259.835 147.83 259.584C148.003 259.03 154.442 260.762 162.55 261.614C170.651 262.518 177.316 262.207 177.361 262.784H177.369Z" fill="#263238"/>
<path d="M206.111 259.706C206.111 259.706 205.69 259.85 204.909 260.033C204.518 260.116 204.044 260.238 203.503 260.405C202.962 260.557 202.339 260.732 201.67 260.975C200.31 261.401 198.747 262.07 197.026 262.837C195.328 263.651 193.494 264.624 191.631 265.756C187.911 268.029 184.755 270.431 182.531 272.232C181.419 273.129 180.525 273.874 179.916 274.39C179.3 274.907 178.954 275.181 178.939 275.166C178.924 275.143 179.232 274.831 179.818 274.276C180.397 273.722 181.268 272.946 182.358 272.011C184.545 270.149 187.686 267.702 191.435 265.414C193.314 264.282 195.162 263.309 196.883 262.503C198.619 261.743 200.212 261.097 201.595 260.702C202.279 260.474 202.91 260.322 203.458 260.185C204.007 260.04 204.488 259.934 204.886 259.881C205.675 259.744 206.111 259.683 206.118 259.706H206.111Z" fill="#455A64"/>
<path d="M172.018 275.158C172.003 275.204 171.162 275.021 169.862 274.535C168.562 274.056 166.818 273.258 164.94 272.285C163.136 271.328 161.498 270.461 160.168 269.754C158.951 269.108 158.184 268.728 158.207 268.675C158.23 268.629 159.034 268.918 160.289 269.503C161.543 270.081 163.242 270.963 165.113 271.928C166.984 272.893 168.69 273.729 169.959 274.269C171.222 274.816 172.026 275.09 172.011 275.151L172.018 275.158Z" fill="#455A64"/>
<path d="M175.339 248.221C175.399 248.221 175.294 249.361 175.182 251.193C175.069 253.025 174.964 255.556 175.016 258.361C175.069 261.158 175.272 263.689 175.452 265.513C175.64 267.337 175.783 268.47 175.723 268.477C175.693 268.477 175.625 268.204 175.527 267.702C175.422 267.2 175.302 266.463 175.174 265.551C174.919 263.727 174.678 261.188 174.618 258.368C174.565 255.556 174.708 253.01 174.896 251.17C174.986 250.251 175.084 249.513 175.166 249.004C175.249 248.495 175.302 248.214 175.332 248.221H175.339Z" fill="#455A64"/>
<path d="M178.751 249.354C178.751 249.354 178.624 249.475 178.428 249.696C178.233 249.916 178.022 250.296 177.947 250.813C177.887 251.322 177.977 251.991 178.421 252.478C178.849 252.979 179.661 253.124 180.382 252.85C181.103 252.584 181.622 251.938 181.629 251.277C181.652 250.615 181.291 250.045 180.915 249.703C180.525 249.361 180.119 249.209 179.833 249.171C179.54 249.126 179.375 249.156 179.367 249.118C179.367 249.103 179.525 249.019 179.841 249.019C180.156 249.019 180.63 249.133 181.088 249.491C181.532 249.848 181.99 250.471 181.982 251.284C181.997 252.113 181.351 252.918 180.51 253.222C179.676 253.549 178.669 253.359 178.15 252.721C177.624 252.098 177.564 251.33 177.669 250.767C177.789 250.19 178.067 249.787 178.315 249.582C178.556 249.369 178.736 249.331 178.744 249.346L178.751 249.354Z" fill="#455A64"/>
<path d="M188.084 236.828C188.084 236.828 187.896 237.117 187.498 237.603C187.107 238.089 186.491 238.758 185.694 239.534C184.898 240.316 183.876 241.175 182.688 242.049C181.486 242.908 180.111 243.775 178.593 244.55C177.068 245.31 175.557 245.903 174.152 246.351C172.747 246.785 171.454 247.089 170.357 247.264C169.26 247.446 168.366 247.537 167.75 247.56C167.134 247.59 166.788 247.59 166.788 247.56C166.788 247.484 168.148 247.408 170.312 246.982C171.394 246.777 172.664 246.443 174.047 246.002C175.422 245.538 176.917 244.945 178.42 244.193C179.916 243.433 181.283 242.581 182.478 241.753C183.665 240.902 184.687 240.073 185.506 239.328C187.144 237.839 188.031 236.782 188.084 236.828Z" fill="#263238"/>
<path d="M201.805 245.264C201.805 245.386 200.453 245.386 198.86 245.789C197.259 246.177 196.064 246.815 196.004 246.709C195.944 246.625 197.101 245.812 198.762 245.401C200.423 244.983 201.82 245.166 201.805 245.264Z" fill="#263238"/>
<g opacity="0.3">
<path d="M170.267 247.165C176.745 245.987 182.771 242.467 187.017 237.375C187.821 239.762 187.152 242.589 185.371 244.352C187.28 245.265 189.511 244.656 191.608 244.368C193.704 244.079 196.252 244.368 197.251 246.245C187.903 247.119 178.503 247.393 169.125 247.058" fill="black"/>
</g>
<path d="M151.602 232.275C151.542 232.358 150.61 231.044 148.363 230.147C147.258 229.698 145.831 229.402 144.253 229.447C142.675 229.493 140.954 229.911 139.338 230.778C136.062 232.495 134.123 235.429 132.635 237.314C131.937 238.302 131.478 239.184 131.163 239.784C130.847 240.392 130.667 240.727 130.644 240.712C130.622 240.704 130.749 240.347 131.027 239.716C131.305 239.093 131.726 238.181 132.41 237.155C133.101 236.128 134.003 234.996 135.048 233.742C136.115 232.518 137.49 231.31 139.158 230.428C140.819 229.539 142.614 229.105 144.245 229.083C145.876 229.052 147.341 229.394 148.468 229.888C149.61 230.367 150.407 230.998 150.91 231.462C151.158 231.697 151.339 231.895 151.451 232.039C151.564 232.184 151.617 232.26 151.609 232.267L151.602 232.275Z" fill="#263238"/>
<path d="M171.282 159.369L160.784 161.626L166.029 181.487L184.605 185.523L197.349 176.371L199.1 165.426L188.174 161.246L171.282 159.369Z" fill="#FFBE9D"/>
<path d="M163.895 160.805C163.895 160.805 170.996 181.662 184.116 179.739C197.236 177.816 196.139 164.294 196.139 164.294C196.139 164.294 209.83 168.512 214.069 173.012C218.299 177.504 215.819 187.271 215.819 187.271L212.265 204.92L204.54 238.728C204.54 238.728 207.494 247.948 199.949 250.228L197.567 246.443L152.278 247.735C152.278 247.735 142.592 259.029 139.571 255.138C136.551 251.239 133.643 243.646 133.643 243.646L154.427 163.291L163.888 160.797L163.895 160.805Z" fill="#306262"/>
<path d="M210.476 170.344C210.845 170.557 242.63 193.929 242.63 193.929C242.63 193.929 240.136 213.151 255.382 210.088C255.382 210.088 249.22 226.164 240.879 222.789C238.505 221.831 209.214 203.073 209.214 203.073L202.992 189.657L210.484 170.344H210.476Z" fill="#306262"/>
<path d="M163.895 161.839C163.895 161.839 163.174 161.862 161.964 161.976C155.742 162.584 132.778 167.395 130.652 183.782C129.54 192.356 129.224 217.431 128.014 227.942C128.014 227.942 129.938 242.551 130.652 245.264C131.922 250.083 154.961 242.369 154.961 242.369L155.006 195.966L163.174 161.854" fill="#306262"/>
<path d="M149.362 203.955C149.362 203.955 149.385 204.084 149.4 204.335C149.4 204.578 149.415 204.943 149.475 205.406C149.573 206.334 149.851 207.664 150.444 209.222C151.031 210.788 151.925 212.566 152.819 214.603C153.262 215.622 153.698 216.716 154.021 217.894C154.337 219.072 154.547 220.327 154.645 221.619C154.84 224.203 154.645 226.658 154.465 228.87C154.277 231.082 154.096 233.081 153.818 234.745C153.555 236.41 153.21 237.74 152.909 238.629C152.759 239.078 152.631 239.42 152.533 239.648C152.436 239.876 152.383 239.99 152.368 239.99C152.338 239.974 152.511 239.488 152.759 238.584C153.007 237.679 153.307 236.356 153.54 234.7C153.773 233.043 153.931 231.051 154.096 228.832C154.262 226.62 154.442 224.18 154.247 221.641C154.157 220.372 153.946 219.148 153.646 217.993C153.337 216.838 152.917 215.759 152.488 214.74C151.617 212.711 150.745 210.902 150.181 209.305C149.618 207.709 149.37 206.349 149.317 205.406C149.28 204.935 149.295 204.57 149.317 204.319C149.332 204.069 149.347 203.939 149.362 203.939V203.955Z" fill="#263238"/>
<path d="M150.399 198.11C150.46 198.11 150.52 199.288 150.783 201.173C151.038 203.058 151.542 205.642 152.458 208.393C152.691 209.077 152.924 209.746 153.18 210.377C153.24 210.522 153.3 210.727 153.368 210.81C153.458 210.955 153.548 211.092 153.638 211.228C153.811 211.51 153.976 211.798 154.119 212.087C154.705 213.235 154.976 214.398 154.968 215.378C154.968 216.359 154.72 217.127 154.525 217.621C154.284 218.107 154.134 218.358 154.112 218.343C154.006 218.312 154.743 217.271 154.698 215.378C154.668 214.444 154.39 213.349 153.811 212.255C153.668 211.981 153.503 211.707 153.33 211.434C153.24 211.297 153.15 211.16 153.06 211.016C152.932 210.818 152.909 210.689 152.834 210.522C152.571 209.883 152.331 209.207 152.098 208.515C151.173 205.733 150.708 203.111 150.52 201.203C150.415 200.253 150.392 199.47 150.377 198.938C150.377 198.398 150.384 198.11 150.415 198.102L150.399 198.11Z" fill="#263238"/>
<path d="M151.331 191.14C151.271 191.162 150.926 190.19 150.249 188.692C149.573 187.187 148.514 185.173 147.071 183.121C145.62 181.069 144.08 179.396 142.9 178.256C141.721 177.116 140.924 176.47 140.969 176.425C140.984 176.402 141.202 176.546 141.57 176.812C141.946 177.078 142.464 177.504 143.088 178.051C144.328 179.146 145.921 180.81 147.386 182.893C148.844 184.968 149.881 187.043 150.505 188.586C150.813 189.361 151.038 189.992 151.166 190.44C151.301 190.889 151.361 191.14 151.331 191.147V191.14Z" fill="#263238"/>
<path d="M216.465 177.519C216.518 177.527 216.443 178.234 216.308 179.359C216.172 180.491 215.984 182.049 215.804 183.775C215.624 185.5 215.496 187.066 215.398 188.198C215.301 189.331 215.233 190.038 215.173 190.03C215.12 190.03 215.09 189.323 215.12 188.183C215.15 187.043 215.241 185.462 215.413 183.729C215.594 181.996 215.827 180.438 216.03 179.313C216.232 178.188 216.405 177.504 216.458 177.512L216.465 177.519Z" fill="#263238"/>
<path d="M222.996 197.038C223.003 197.114 222.004 197.205 220.463 197.653C218.93 198.079 216.864 199.029 215.166 200.793C214.324 201.674 213.678 202.655 213.144 203.574C212.648 204.517 212.258 205.399 211.98 206.159C211.852 206.524 211.724 206.873 211.611 207.192C211.529 207.481 211.446 207.74 211.371 207.983C211.236 208.416 211.145 208.659 211.123 208.652C211.093 208.652 211.13 208.393 211.228 207.945C211.281 207.694 211.341 207.42 211.401 207.132C211.499 206.805 211.604 206.448 211.717 206.067C211.965 205.285 212.333 204.373 212.821 203.4C213.347 202.45 214.008 201.431 214.88 200.519C216.638 198.687 218.81 197.745 220.381 197.38C220.779 197.281 221.14 197.205 221.455 197.159C221.771 197.106 222.049 197.068 222.274 197.053C222.725 197.015 222.981 197.007 222.981 197.038H222.996Z" fill="#263238"/>
<path d="M244.05 218.198C244.05 218.198 243.848 217.909 243.539 217.347C243.382 217.066 243.201 216.724 243.021 216.306C242.833 215.888 242.608 215.424 242.412 214.884C241.976 213.82 241.563 212.521 241.202 211.046C240.864 209.564 240.586 207.914 240.466 206.166C240.361 204.418 240.413 202.738 240.556 201.226C240.722 199.713 240.962 198.368 241.248 197.258C241.368 196.696 241.533 196.209 241.668 195.768C241.796 195.328 241.931 194.963 242.044 194.666C242.269 194.066 242.412 193.747 242.435 193.754C242.51 193.777 242.007 195.1 241.518 197.319C241.27 198.429 241.06 199.766 240.917 201.256C240.797 202.754 240.752 204.403 240.864 206.136C240.985 207.861 241.248 209.495 241.563 210.962C241.901 212.422 242.285 213.721 242.683 214.786C243.464 216.921 244.133 218.16 244.065 218.198H244.05Z" fill="#263238"/>
<path d="M235.785 212.483C235.785 212.483 235.657 212.201 235.492 211.669C235.334 211.137 235.146 210.347 235.018 209.359C234.755 207.39 234.808 204.555 235.725 201.636C236.627 198.71 238.197 196.361 239.565 194.917C240.271 194.195 241.045 193.807 241.631 193.792C241.917 193.785 242.135 193.861 242.27 193.914C242.398 193.99 242.465 194.036 242.458 194.043C242.443 194.081 242.172 193.883 241.646 193.944C241.12 193.997 240.421 194.393 239.767 195.107C238.483 196.567 236.98 198.885 236.101 201.75C235.199 204.608 235.101 207.375 235.296 209.321C235.484 211.282 235.86 212.452 235.785 212.475V212.483Z" fill="#263238"/>
<path d="M184.109 208.697C184.109 208.697 184.071 209.024 183.921 209.602C183.853 209.891 183.756 210.24 183.613 210.636C183.47 211.031 183.335 211.494 183.11 211.973C182.711 212.961 182.133 214.086 181.389 215.272C180.63 216.45 179.691 217.681 178.571 218.844C177.444 220 176.249 220.973 175.099 221.771C173.942 222.546 172.837 223.162 171.876 223.58C171.402 223.815 170.951 223.967 170.561 224.119C170.17 224.271 169.832 224.378 169.546 224.454C168.983 224.613 168.667 224.689 168.659 224.659C168.637 224.583 169.892 224.241 171.755 223.329C172.695 222.88 173.762 222.249 174.889 221.467C176.001 220.661 177.173 219.696 178.285 218.563C179.382 217.415 180.314 216.207 181.081 215.067C181.825 213.904 182.426 212.809 182.847 211.852C183.703 209.944 184.019 208.667 184.094 208.69L184.109 208.697Z" fill="#263238"/>
<g opacity="0.3">
<path d="M158.087 216.23C156.644 210.902 155.201 205.566 153.758 200.23C153.548 199.447 153.195 198.535 152.406 198.391C151.677 198.262 151.001 198.953 150.865 199.698C150.73 200.435 150.753 201.287 150.828 202.039C151.166 205.513 151.436 207.869 153.037 210.56C156.155 215.804 154.097 218.35 154.097 218.35C154.345 224.735 153.811 233.445 151.85 240.005L153.706 247.917C155.464 242.034 159.484 237.132 160.161 231.021C160.709 226.042 159.394 221.064 158.087 216.23Z" fill="black"/>
</g>
<g opacity="0.3">
<path d="M212.257 205.019C217.405 207.725 221.981 211.464 226.993 214.36C225.024 210.218 221.748 206.121 217.758 203.924C216.683 203.331 215.481 202.822 214.271 202.989C213.061 203.164 212.182 203.856 212.37 205.079" fill="black"/>
</g>
<g opacity="0.3">
<path d="M241.759 193.564C240.001 193.519 238.67 195.138 237.814 196.688C235.387 201.059 234.38 206.219 234.973 211.19C235.079 212.087 235.409 213.167 236.288 213.341C236.927 213.471 237.558 212.999 237.844 212.406C238.129 211.814 238.137 211.137 238.137 210.476C238.129 207.428 237.934 204.365 238.362 201.347C238.791 198.33 239.918 195.297 242.142 193.237" fill="black"/>
</g>
<path d="M162.272 199.272C162.272 199.272 162.332 199.257 162.445 199.25C162.58 199.242 162.746 199.227 162.964 199.212C163.444 199.189 164.121 199.151 165 199.105C166.796 199.022 169.403 198.9 172.695 198.748C179.33 198.459 188.745 198.056 199.949 197.578H200.129V197.752C200.355 207.025 200.61 217.689 200.881 228.991C200.888 229.371 200.896 229.751 200.911 230.124V230.322H200.716C188.37 230.458 176.858 231.492 167.164 232.853L167.014 232.875L166.976 232.731C164.309 222.804 163.332 214.246 162.971 208.279C162.791 205.292 162.761 202.936 162.761 201.34C162.761 200.542 162.776 199.926 162.783 199.508C162.783 199.31 162.791 199.158 162.798 199.037C162.798 198.93 162.806 198.877 162.813 198.877C162.813 198.877 162.821 198.93 162.828 199.037C162.828 199.158 162.828 199.31 162.843 199.508C162.843 199.941 162.858 200.549 162.866 201.332C162.896 202.936 162.964 205.285 163.166 208.264C163.58 214.216 164.602 222.744 167.299 232.64L167.111 232.518C176.812 231.12 188.347 230.063 200.708 229.926L200.513 230.132C200.505 229.759 200.498 229.379 200.483 228.999C200.227 217.704 199.979 207.033 199.769 197.76L199.949 197.935C188.745 198.36 179.33 198.71 172.687 198.961C169.388 199.075 166.788 199.158 164.985 199.219C164.106 199.242 163.429 199.265 162.949 199.272C162.731 199.272 162.558 199.272 162.423 199.272C162.302 199.272 162.242 199.272 162.242 199.272H162.272Z" fill="white"/>
<path d="M172.176 222.318C172.071 222.333 171.131 217.203 170.079 210.848C169.027 204.494 168.261 199.326 168.366 199.31C168.471 199.295 169.411 204.426 170.463 210.78C171.515 217.134 172.281 222.295 172.176 222.318Z" fill="white"/>
<path d="M173.31 232.115C173.205 232.13 172.83 230.276 172.469 227.973C172.116 225.67 171.913 223.785 172.018 223.77C172.123 223.754 172.499 225.609 172.86 227.912C173.213 230.215 173.416 232.1 173.31 232.115Z" fill="white"/>
<path d="M179.78 217.225C179.78 217.225 179.683 216.982 179.57 216.519C179.457 216.063 179.314 215.386 179.157 214.558C178.841 212.893 178.488 210.582 178.232 208.013C177.977 205.444 177.879 203.103 177.864 201.408C177.857 200.565 177.864 199.881 177.887 199.402C177.902 198.93 177.932 198.664 177.954 198.664C178.014 198.664 178.052 199.706 178.142 201.393C178.232 203.08 178.375 205.406 178.623 207.968C178.879 210.529 179.187 212.832 179.435 214.504C179.675 216.177 179.84 217.203 179.78 217.218V217.225Z" fill="white"/>
<path d="M178.931 231.097C178.826 231.112 178.443 228.702 178.075 225.723C177.706 222.744 177.504 220.319 177.609 220.304C177.714 220.288 178.097 222.698 178.465 225.677C178.834 228.657 179.036 231.082 178.931 231.097Z" fill="white"/>
<path d="M187.423 230.481C187.423 230.481 187.34 230.04 187.272 229.227C187.197 228.353 187.1 227.198 186.979 225.807C186.731 222.918 186.363 218.936 185.867 214.542C185.364 210.149 184.83 206.182 184.425 203.316C184.229 201.933 184.064 200.785 183.944 199.919C183.831 199.113 183.786 198.672 183.808 198.664C183.838 198.664 183.936 199.098 184.094 199.896C184.252 200.694 184.462 201.849 184.695 203.278C185.176 206.136 185.755 210.104 186.258 214.504C186.754 218.898 187.077 222.896 187.257 225.791C187.348 227.236 187.4 228.414 187.43 229.219C187.453 230.033 187.46 230.481 187.43 230.481H187.423Z" fill="white"/>
<path d="M194.644 230.892C194.644 230.892 194.599 230.436 194.591 229.615C194.584 228.725 194.576 227.555 194.561 226.141C194.531 223.207 194.456 219.148 194.246 214.679C194.035 210.202 193.735 206.159 193.487 203.232C193.367 201.819 193.269 200.656 193.194 199.767C193.126 198.946 193.104 198.497 193.126 198.49C193.149 198.482 193.231 198.938 193.344 199.751C193.464 200.565 193.607 201.743 193.765 203.202C194.08 206.121 194.434 210.172 194.644 214.656C194.854 219.141 194.884 223.2 194.847 226.141C194.824 227.608 194.794 228.801 194.749 229.622C194.712 230.443 194.674 230.899 194.652 230.899L194.644 230.892Z" fill="white"/>
<g opacity="0.3">
<path d="M169.276 224.735C170.418 225.525 171.853 225.799 173.236 225.708C174.618 225.617 175.956 225.183 177.233 224.644C178.924 223.937 180.577 223.009 181.779 221.611C183.072 220.121 183.771 218.183 184.071 216.222C184.379 214.269 184.319 212.27 184.267 210.293C184.267 210.21 184.267 210.119 184.207 210.043C184.116 209.913 183.906 209.929 183.778 210.035C183.65 210.141 183.605 210.301 183.553 210.453C181.321 217.073 175.715 222.432 169.058 224.309" fill="black"/>
</g>
<path d="M164.616 288.391L160.025 279.681L149.7 230.8C149.7 230.8 140.202 225.29 132.432 237.375C132.117 237.861 143.125 272.87 146.199 282.607L146.627 291.918C146.627 291.918 146.078 302.947 146.627 303.912C147.176 304.877 148.536 305.432 148.536 305.432C148.536 305.432 148.13 308.191 151.263 308.465C151.263 308.465 151.534 311.497 153.856 311.087C156.17 310.676 156.989 309.156 156.989 309.156C156.989 309.156 156.989 313.018 159.033 312.6C161.077 312.189 161.408 310.532 161.791 309.977C162.167 309.422 162.603 303.775 162.603 303.775L162.565 294.434L167.885 298.797C169.426 299.572 171.672 300.53 172.95 299.374L164.616 288.384V288.391Z" fill="#FFBE9D"/>
<path d="M162.557 293.978C162.67 293.963 162.993 296.22 162.858 299.009C162.798 300.302 162.738 301.48 162.693 302.559C162.648 303.463 162.618 304.026 162.557 304.034C162.437 304.034 162.332 301.768 162.467 299.002C162.603 296.235 162.452 294.001 162.557 293.985V293.978Z" fill="#EB996E"/>
<path d="M156.696 300.484C156.801 300.484 156.922 302.551 156.952 305.098C156.989 307.651 156.929 309.719 156.816 309.719C156.711 309.719 156.591 307.651 156.561 305.105C156.523 302.551 156.584 300.484 156.696 300.484Z" fill="#EB996E"/>
<path d="M151.782 302.179C151.887 302.171 152.06 303.623 151.887 305.417C151.722 307.211 151.271 308.601 151.173 308.571C151.06 308.541 151.331 307.135 151.496 305.379C151.669 303.623 151.669 302.186 151.782 302.179Z" fill="#EB996E"/>
<path d="M148.619 301.1C148.724 301.107 148.724 302.05 148.611 303.197C148.498 304.345 148.318 305.265 148.213 305.257C148.108 305.25 148.108 304.307 148.22 303.159C148.333 302.012 148.513 301.092 148.619 301.1Z" fill="#EB996E"/>
<path d="M158.936 110.655L152.023 98.3269C155.081 93.3028 156.847 87.3894 156.847 81.0656C156.847 62.8618 142.254 48.1012 124.257 48.1012C106.26 48.1012 91.6675 62.8618 91.6675 81.0656C91.6675 99.2694 106.26 114.03 124.257 114.03C131.772 114.03 138.692 111.453 144.2 107.129V107.144L158.936 110.655Z" fill="white"/>
<path d="M158.936 110.655C158.252 110.496 153.578 109.417 144.17 107.243C144.118 107.228 144.088 107.174 144.095 107.129C144.095 107.114 144.103 107.098 144.11 107.091V107.076L144.26 107.212C142.404 108.672 140.173 110.101 137.558 111.302C134.935 112.48 131.937 113.437 128.616 113.886C126.962 114.099 125.234 114.235 123.453 114.152C122.567 114.099 121.665 114.076 120.748 114C119.839 113.863 118.922 113.719 117.99 113.582C114.301 112.844 110.529 111.431 107.004 109.219C103.488 107.015 100.226 104.028 97.619 100.356C95.0115 96.6929 93.0352 92.3453 92.1109 87.6176C91.1942 82.8976 91.2693 77.8431 92.4942 72.9482C93.7265 68.0685 96.0334 63.3105 99.4825 59.3885L100.813 57.9063C101.248 57.4047 101.774 56.9942 102.248 56.5382C102.744 56.105 103.195 55.6185 103.728 55.2309L105.291 54.0452C105.795 53.6347 106.358 53.3003 106.914 52.9582C107.47 52.6162 108.019 52.2818 108.567 51.9397C109.146 51.6585 109.725 51.3697 110.296 51.0885C110.874 50.8148 111.438 50.4956 112.046 50.3056C116.781 48.4054 121.83 47.6833 126.662 48.033C131.494 48.3826 136.107 49.7887 140.075 52.0386C144.05 54.2808 147.401 57.2679 149.994 60.6046C152.586 63.9413 154.42 67.6277 155.555 71.2988C156.682 74.9852 156.982 78.6412 156.975 82.0235C156.877 85.4134 156.268 88.5373 155.382 91.2812C154.487 94.0251 153.323 96.3889 152.113 98.3803V98.2815C156.479 106.194 158.62 110.063 158.944 110.655C158.613 110.07 156.419 106.224 151.948 98.3803C151.933 98.3499 151.933 98.3119 151.948 98.2815C153.135 96.2977 154.285 93.9415 155.156 91.2128C156.028 88.4841 156.622 85.383 156.704 82.0159C156.704 78.6564 156.389 75.0384 155.269 71.3901C154.134 67.7569 152.316 64.1161 149.738 60.8174C147.169 57.5187 143.847 54.5696 139.91 52.3578C135.987 50.1308 131.418 48.755 126.647 48.413C121.875 48.071 116.886 48.7854 112.204 50.6704C111.603 50.8604 111.055 51.1797 110.476 51.4457C109.905 51.7269 109.334 52.0082 108.763 52.2894C108.222 52.6238 107.673 52.9583 107.132 53.2927C106.584 53.6271 106.035 53.9539 105.532 54.3644L103.984 55.5349C103.458 55.9149 103.014 56.3938 102.526 56.827C102.06 57.2755 101.541 57.6859 101.106 58.18L99.7906 59.6469C96.3791 63.5233 94.1022 68.2281 92.8849 73.047C91.6751 77.8811 91.5924 82.8824 92.4942 87.5416C93.4034 92.2085 95.3571 96.5105 97.927 100.144C100.504 103.777 103.721 106.741 107.2 108.93C110.679 111.127 114.414 112.54 118.065 113.278C118.99 113.422 119.899 113.567 120.793 113.703C121.695 113.779 122.589 113.81 123.468 113.863C125.227 113.954 126.947 113.825 128.586 113.62C131.877 113.187 134.86 112.252 137.468 111.096C140.075 109.918 142.292 108.504 144.148 107.068C144.193 107.038 144.253 107.045 144.283 107.083C144.313 107.121 144.306 107.167 144.283 107.205V107.22L144.215 107.068C153.593 109.363 158.26 110.511 158.936 110.678V110.655Z" fill="#263238"/>
<path d="M114.684 74.7876C114.203 74.5292 113.617 74.438 113.061 74.362C111.325 74.1415 109.845 74.6356 108.583 76.0341C112.114 78.1015 116.908 80.8454 120.342 82.8292L124.678 80.321C121.56 78.5804 117.637 76.3914 114.684 74.7876Z" fill="#0D8080"/>
<g opacity="0.3">
<path d="M114.684 74.7876C114.203 74.5292 113.617 74.438 113.061 74.362C111.325 74.1415 109.845 74.6356 108.583 76.0341C112.114 78.1015 116.908 80.8454 120.342 82.8292L124.678 80.321C121.56 78.5804 117.637 76.3914 114.684 74.7876Z" fill="#0D8080"/>
</g>
<path d="M127.962 87.4504C127.85 87.3592 127.827 87.3364 127.805 87.3212C126.722 86.6903 125.58 85.4894 124.491 85.5122C124.077 85.5198 123.627 85.8846 122.552 86.4927C120.764 87.5112 117.75 89.2974 115.947 90.3083C114.406 91.1672 112.535 91.8132 110.785 91.2508C109.935 90.9771 109.252 90.4983 108.357 89.7686C115.068 85.8314 121.477 82.0767 127.962 78.2763C127.857 77.9799 127.759 77.6986 127.662 77.4098C126.865 75.0308 127.722 72.4085 129.758 70.9568C131.81 69.4974 134.582 69.6038 136.551 71.2152C138.467 72.7886 139.121 75.4944 138.152 77.8051C137.175 80.1385 134.838 81.499 132.358 81.2406C131.93 81.195 131.441 81.3166 131.051 81.5066C130.307 81.8638 129.608 82.3275 128.714 82.8519C130.224 83.536 131.246 84.6305 133.004 84.4633C135.439 84.2353 137.603 86.0215 138.34 88.4005C139.061 90.7263 138.219 93.2574 136.251 94.6863C134.267 96.1228 131.562 96.0924 129.6 94.6103C127.669 93.1433 126.88 90.5819 127.654 88.2713C127.744 88.0052 127.85 87.7468 127.955 87.458L127.962 87.4504ZM132.967 78.3143C134.492 78.3143 135.695 77.0982 135.68 75.5476C135.665 74.0655 134.455 72.8418 132.989 72.8342C131.509 72.8342 130.239 74.1187 130.262 75.616C130.284 77.0906 131.502 78.3067 132.974 78.3067L132.967 78.3143ZM132.937 92.8165C134.395 92.8393 135.642 91.6308 135.68 90.1563C135.717 88.5981 134.545 87.3592 133.019 87.3364C131.547 87.3212 130.314 88.4993 130.262 89.9814C130.209 91.4712 131.457 92.7937 132.944 92.8165H132.937Z" fill="#31B9B9"/>
<path d="M125.677 82.7379C125.61 82.7607 125.64 82.2211 125.091 81.8182C124.828 81.6282 124.415 81.537 124.032 81.689C123.649 81.8334 123.318 82.2515 123.325 82.7303C123.325 83.2168 123.649 83.6272 124.032 83.7716C124.422 83.9236 124.836 83.8324 125.091 83.6424C125.64 83.2396 125.61 82.7075 125.677 82.7227C125.7 82.7227 125.738 82.8367 125.715 83.0571C125.685 83.27 125.572 83.5968 125.264 83.8628C124.964 84.1288 124.438 84.2961 123.912 84.106C123.393 83.9388 122.927 83.3764 122.935 82.7227C122.935 82.0614 123.393 81.5066 123.912 81.3394C124.438 81.157 124.964 81.3242 125.264 81.5826C125.572 81.8486 125.692 82.1755 125.722 82.3883C125.753 82.6087 125.707 82.7227 125.685 82.7227L125.677 82.7379Z" fill="#263238"/>
<path d="M130.472 81.7726C130.472 81.7726 130.337 81.8791 130.074 82.0387C129.728 82.2515 129.36 82.4719 128.961 82.7227C127.887 83.3612 126.632 84.1061 125.257 84.927C123.867 85.7326 122.612 86.4623 121.53 87.0856C121.116 87.3136 120.741 87.5264 120.388 87.724C120.117 87.8684 119.967 87.952 119.959 87.9368C119.952 87.9216 120.095 87.8304 120.358 87.6708C120.703 87.458 121.071 87.2376 121.47 86.9868C122.544 86.3483 123.792 85.6034 125.174 84.7825C126.564 83.9769 127.819 83.2472 128.901 82.6239C129.315 82.3959 129.69 82.1831 130.044 81.9855C130.314 81.8411 130.464 81.7574 130.472 81.7726Z" fill="#263238"/>
<path d="M127.21 78.7323C127.21 78.7323 127.15 78.7779 127.03 78.8615C126.865 78.9603 126.692 79.0743 126.489 79.2035C125.948 79.538 125.279 79.9408 124.49 80.4273C122.8 81.4534 120.463 82.8671 117.848 84.3645C115.27 85.8466 112.941 87.1843 111.152 88.2104C110.348 88.6665 109.672 89.0465 109.116 89.3581C108.906 89.4722 108.725 89.571 108.56 89.6622C108.432 89.7306 108.365 89.761 108.357 89.761C108.349 89.761 108.417 89.7154 108.545 89.6394C108.71 89.5406 108.891 89.4341 109.086 89.3049C109.634 88.9781 110.303 88.5829 111.1 88.1116C112.888 87.0703 115.21 85.7174 117.772 84.2276C120.387 82.7303 122.732 81.3318 124.438 80.3285C125.234 79.8648 125.911 79.4696 126.459 79.1503C126.662 79.0363 126.85 78.9299 127.015 78.8387C127.143 78.7703 127.21 78.7323 127.21 78.7399V78.7323Z" fill="#263238"/>
<path d="M251.347 120.126L252.775 122.763L255.382 124.2L252.775 125.644L251.347 128.282L249.919 125.644L247.319 124.2L249.919 122.763L251.347 120.126Z" fill="#0D8080"/>
<path d="M260.875 83.9997L262.363 83.9009L263.558 83.0116L263.655 84.5089L264.534 85.7175L263.054 85.8163L261.859 86.7132L261.762 85.2082L260.875 83.9997Z" fill="#0D8080"/>
<path d="M501.229 203.939L502.717 203.841L503.912 202.951L504.009 204.449L504.888 205.657L503.408 205.756L502.213 206.645L502.116 205.148L501.229 203.939Z" fill="#0D8080"/>
<path d="M331.923 128.897L333.411 128.798L334.606 127.909L334.704 129.407L335.583 130.615L334.102 130.714L332.908 131.611L332.81 130.106L331.923 128.897Z" fill="#0D8080"/>
<path d="M340.956 64.6786L342.436 64.5797L343.631 63.6829L343.728 65.1878L344.615 66.3963L343.127 66.4951L341.932 67.3844L341.835 65.8871L340.956 64.6786Z" fill="#0D8080"/>
<path d="M295.456 104.537L297.71 103.222L298.913 100.881L300.205 103.169L302.52 104.377L300.265 105.692L299.063 108.026L297.763 105.745L295.456 104.537Z" fill="#0D8080"/>
<path d="M484.855 234.13L487.109 232.822L488.304 230.481L489.604 232.761L491.918 233.978L489.657 235.285L488.462 237.626L487.162 235.346L484.855 234.13Z" fill="#0D8080"/>
<path d="M473.531 192.439L475.793 191.132L476.988 188.791L478.288 191.071L480.595 192.287L478.34 193.595L477.146 195.936L475.846 193.655L473.531 192.439Z" fill="#0D8080"/>
</svg>
