<svg width="158" height="26" viewBox="0 0 158 26" fill="none" xmlns="http://www.w3.org/2000/svg">
<path d="M40.3749 19.092H41.2389C41.5359 19.092 41.7249 18.903 41.7789 18.606L44.0469 7.698C44.1009 7.374 44.2359 6.861 44.2359 6.618C44.2359 6.348 44.0199 6.132 43.7499 6.132H43.0209C42.7239 6.132 42.5349 6.267 42.4809 6.591L41.2659 13.584C41.1579 14.178 40.9419 15.528 40.9419 15.69C40.9419 15.852 40.9149 15.96 40.8069 15.96C40.6989 15.96 40.6719 15.852 40.6719 15.69C40.6719 15.528 40.4559 14.205 40.3479 13.584L39.1329 6.591C39.0789 6.267 38.8899 6.132 38.5929 6.132H37.8639C37.5939 6.132 37.3779 6.348 37.3779 6.618C37.3779 6.861 37.5129 7.374 37.5669 7.698L39.8349 18.606C39.8889 18.903 40.0779 19.092 40.3749 19.092Z" fill="#545459"/>
<path d="M48.2174 17.742C47.1374 17.742 46.7054 17.067 46.7054 15.447C46.7054 14.043 47.0834 12.882 48.5684 12.882C48.9194 12.882 49.2164 12.909 49.6214 12.963V17.013C49.2704 17.391 48.8654 17.742 48.2174 17.742ZM47.5424 19.254C48.6224 19.254 49.3514 18.903 49.6754 18.228C49.8104 19.011 50.2694 19.254 50.8094 19.254C51.7544 19.254 52.1324 18.795 52.1324 18.417V18.093C51.6734 18.093 51.4574 17.85 51.4574 17.229V9.156C51.4574 7.077 50.4314 5.97 48.4604 5.97C46.4894 5.97 45.3014 6.861 45.3014 9.507C45.3014 9.993 45.6254 10.155 45.9494 10.155H46.5434C46.9214 10.155 47.0564 9.858 47.0294 9.345C46.9754 8.508 47.1644 7.563 48.3254 7.563C49.2434 7.563 49.6214 8.211 49.6214 9.183V11.532C49.1894 11.478 48.7844 11.451 48.4334 11.451C45.5444 11.451 44.8694 13.476 44.8694 15.474C44.8694 17.58 45.6524 19.254 47.5424 19.254Z" fill="#545459"/>
<path d="M54.0698 19.092H54.8798C55.1768 19.092 55.3928 18.876 55.3928 18.579V8.157C55.9598 7.86 56.6888 7.671 57.1748 7.671C58.0118 7.671 58.3088 8.13 58.3088 8.913V18.579C58.3088 18.876 58.5248 19.092 58.8218 19.092H59.6318C59.9288 19.092 60.1448 18.876 60.1448 18.579V8.913C60.1448 6.726 59.0378 5.97 57.6608 5.97C56.7428 5.97 55.9868 6.321 55.3928 6.726V6.645C55.3928 6.348 55.1768 6.132 54.8798 6.132H54.0698C53.7728 6.132 53.5568 6.348 53.5568 6.645V18.579C53.5568 18.876 53.7728 19.092 54.0698 19.092Z" fill="#545459"/>
<path d="M64.2843 19.227C64.8513 19.227 65.4453 19.146 65.8503 18.984C66.2283 18.822 66.4173 18.633 66.4173 18.201V17.877C66.4173 17.634 66.3093 17.526 66.0933 17.526C66.0123 17.526 65.8503 17.58 65.7423 17.634C65.5533 17.715 65.3373 17.769 65.0943 17.769C64.5543 17.769 64.3653 17.445 64.3653 16.851V7.59H65.5803C65.8773 7.59 66.0933 7.374 66.0933 7.077V6.645C66.0933 6.348 65.8773 6.132 65.5803 6.132H64.3653V3.513C64.3653 3.216 64.1493 3 63.8523 3H63.0423C62.7453 3 62.5293 3.216 62.5293 3.513V6.132H61.6113C61.3143 6.132 61.0983 6.348 61.0983 6.645V7.077C61.0983 7.374 61.3143 7.59 61.6113 7.59H62.5293V17.256C62.5293 18.579 63.1773 19.227 64.2843 19.227Z" fill="#545459"/>
<path d="M70.3658 17.742C69.2858 17.742 68.8538 17.067 68.8538 15.447C68.8538 14.043 69.2318 12.882 70.7168 12.882C71.0678 12.882 71.3648 12.909 71.7698 12.963V17.013C71.4188 17.391 71.0138 17.742 70.3658 17.742ZM69.6908 19.254C70.7708 19.254 71.4998 18.903 71.8238 18.228C71.9588 19.011 72.4178 19.254 72.9578 19.254C73.9028 19.254 74.2808 18.795 74.2808 18.417V18.093C73.8218 18.093 73.6058 17.85 73.6058 17.229V9.156C73.6058 7.077 72.5798 5.97 70.6088 5.97C68.6378 5.97 67.4498 6.861 67.4498 9.507C67.4498 9.993 67.7738 10.155 68.0978 10.155H68.6918C69.0698 10.155 69.2048 9.858 69.1778 9.345C69.1238 8.508 69.3128 7.563 70.4738 7.563C71.3918 7.563 71.7698 8.211 71.7698 9.183V11.532C71.3378 11.478 70.9328 11.451 70.5818 11.451C67.6928 11.451 67.0178 13.476 67.0178 15.474C67.0178 17.58 67.8008 19.254 69.6908 19.254Z" fill="#545459"/>
<path d="M78.4863 25.113C80.8623 25.113 82.1313 23.358 82.1313 21.306C82.1313 19.254 80.8623 17.418 78.4863 17.418C78.2973 17.418 78.0003 17.445 77.8383 17.472C77.5143 17.256 77.3253 16.878 77.3253 16.257C77.3253 15.582 77.6223 15.15 78.0003 14.961C78.0813 14.961 78.1893 14.988 78.2703 14.988C80.1603 14.988 81.4023 13.557 81.4023 10.479C81.4023 8.886 81.0783 7.752 80.5113 7.023C80.6733 6.996 80.8353 6.969 80.9973 6.969C81.2133 6.969 81.3483 6.996 81.5913 7.131C81.7263 7.212 81.8073 7.239 81.9423 7.239C82.2123 7.239 82.3473 7.077 82.3473 6.807V5.997C82.3473 5.43 81.9423 5.16 81.3753 5.16C80.8083 5.16 80.1333 5.565 79.7553 6.348C79.4853 6.213 79.0803 5.97 78.2703 5.97C76.3803 5.97 75.1383 7.401 75.1383 10.479C75.1383 12.423 75.6513 13.719 76.4883 14.394C75.9483 14.826 75.6513 15.42 75.6513 16.257C75.6513 17.04 75.9213 17.58 76.3803 18.039C75.3813 18.741 74.8413 19.983 74.8413 21.306C74.8413 23.358 76.1103 25.113 78.4863 25.113ZM78.2703 13.557C77.1093 13.557 76.8123 12.234 76.8123 10.479C76.8123 8.724 77.1093 7.401 78.2703 7.401C79.3773 7.401 79.7283 8.724 79.7283 10.479C79.7283 12.234 79.3773 13.557 78.2703 13.557ZM78.4863 23.52C77.1363 23.52 76.5153 22.548 76.5153 21.306C76.5153 20.064 77.1363 19.092 78.4863 19.092C79.8363 19.092 80.4573 20.064 80.4573 21.306C80.4573 22.548 79.8363 23.52 78.4863 23.52Z" fill="#545459"/>
<path d="M84.5191 11.37C84.5191 8.616 84.9241 7.563 86.0311 7.563C87.1651 7.563 87.3541 8.589 87.3541 10.074C87.3541 10.668 87.3271 11.046 87.3001 11.37H84.5191ZM86.0041 19.254C88.0561 19.254 88.9471 18.012 88.9471 15.582C88.9471 15.096 88.6231 14.934 88.2991 14.934H87.8401C87.4621 14.934 87.3271 15.231 87.3541 15.744C87.3811 16.311 87.3001 17.661 86.0581 17.661C84.7621 17.661 84.4921 16.203 84.4921 12.801H88.8121C88.9201 12.099 89.0011 11.127 89.0011 10.587C89.0011 7.158 88.0831 5.97 86.0311 5.97C83.2501 5.97 82.6561 8.67 82.6561 12.612C82.6561 16.554 83.2231 19.254 86.0041 19.254Z" fill="#545459"/>
<path d="M91.2212 19.092H92.0312C92.3282 19.092 92.5442 18.876 92.5442 18.579V8.157C93.1112 7.86 93.8402 7.671 94.3262 7.671C95.1632 7.671 95.4602 8.13 95.4602 8.913V18.579C95.4602 18.876 95.6762 19.092 95.9732 19.092H96.7832C97.0802 19.092 97.2962 18.876 97.2962 18.579V8.913C97.2962 6.726 96.1892 5.97 94.8122 5.97C93.8942 5.97 93.1382 6.321 92.5442 6.726V6.645C92.5442 6.348 92.3282 6.132 92.0312 6.132H91.2212C90.9242 6.132 90.7082 6.348 90.7082 6.645V18.579C90.7082 18.876 90.9242 19.092 91.2212 19.092Z" fill="#545459"/>
<path d="M101.868 19.254C104.433 19.254 105 17.31 105 15.609C105 13.746 103.164 12.369 102.03 11.532C101.301 10.992 100.599 10.263 100.599 9.183C100.599 8.211 101.085 7.563 102.003 7.563C103.164 7.563 103.272 8.508 103.218 9.345C103.191 9.858 103.326 10.155 103.704 10.155H104.298C104.622 10.155 104.946 9.993 104.946 9.507C104.946 6.861 103.974 5.97 102.003 5.97C100.032 5.97 98.9516 7.266 98.9516 9.426C98.9516 11.127 100.41 12.423 101.436 13.179C102.3 13.8 103.353 14.61 103.353 15.771C103.353 16.797 103.056 17.661 101.868 17.661C100.734 17.661 100.518 16.581 100.572 15.609C100.599 15.096 100.464 14.799 100.086 14.799H99.4916C99.1406 14.799 98.8436 14.988 98.8436 15.447C98.8436 18.12 99.9236 19.254 101.868 19.254Z" fill="#545459"/>
<path d="M115.14 12.612C115.14 7.833 113.925 5.997 111.63 5.997C110.685 5.997 109.848 6.375 109.524 7.077C109.227 6.348 108.606 6.132 107.85 6.132H106.905C106.608 6.132 106.392 6.348 106.392 6.645V24.411C106.392 24.708 106.608 24.924 106.905 24.924H109.2C109.497 24.924 109.713 24.708 109.713 24.411V18.282C109.956 18.795 110.604 19.227 111.63 19.227C113.925 19.227 115.14 17.391 115.14 12.612ZM111.819 12.612C111.819 16.446 111.279 16.77 110.496 16.77C110.172 16.77 109.929 16.689 109.713 16.581V8.643C109.929 8.535 110.172 8.454 110.496 8.454C111.279 8.454 111.819 8.805 111.819 12.612Z" fill="#545459"/>
<path d="M122.673 9.129V6.969C122.673 6.402 122.268 6.132 121.701 6.132C120.891 6.132 120.108 6.51 119.487 7.185C119.298 6.537 118.758 6.132 118.002 6.132H117.03C116.733 6.132 116.517 6.348 116.517 6.645V18.579C116.517 18.876 116.733 19.092 117.03 19.092H119.325C119.622 19.092 119.838 18.876 119.838 18.579V9.804C119.838 9.804 120.486 9.291 121.296 9.291C121.512 9.291 121.755 9.345 121.917 9.453C122.052 9.534 122.187 9.588 122.295 9.588C122.565 9.588 122.673 9.399 122.673 9.129Z" fill="#545459"/>
<path d="M131.954 12.612C131.954 7.482 130.064 5.97 127.58 5.97C125.123 5.97 123.206 7.482 123.206 12.612C123.206 17.742 125.123 19.254 127.58 19.254C130.064 19.254 131.954 17.742 131.954 12.612ZM128.633 12.612C128.633 16.446 128.282 16.743 127.58 16.743C126.878 16.743 126.527 16.446 126.527 12.612C126.527 8.778 126.878 8.481 127.58 8.481C128.282 8.481 128.633 8.778 128.633 12.612Z" fill="#545459"/>
<path d="M147.488 18.579V9.345C147.488 7.158 146.57 5.97 144.599 5.97C143.276 5.97 142.358 6.51 141.602 7.212C141.17 6.429 140.387 5.97 139.172 5.97C137.93 5.97 137.066 6.537 136.553 7.05C136.364 6.429 135.797 6.132 135.149 6.132H133.826C133.529 6.132 133.313 6.348 133.313 6.645V18.579C133.313 18.876 133.529 19.092 133.826 19.092H136.121C136.418 19.092 136.634 18.876 136.634 18.579V8.805C137.066 8.589 137.552 8.481 137.903 8.481C138.47 8.481 138.74 8.751 138.74 9.426V18.579C138.74 18.876 138.956 19.092 139.253 19.092H141.548C141.845 19.092 142.061 18.876 142.061 18.579V8.805C142.493 8.589 142.979 8.481 143.33 8.481C143.897 8.481 144.167 8.751 144.167 9.426V18.579C144.167 18.876 144.383 19.092 144.68 19.092H146.975C147.272 19.092 147.488 18.876 147.488 18.579Z" fill="#545459"/>
<path d="M157.556 12.612C157.556 7.482 155.666 5.97 153.182 5.97C150.725 5.97 148.808 7.482 148.808 12.612C148.808 17.742 150.725 19.254 153.182 19.254C155.666 19.254 157.556 17.742 157.556 12.612ZM154.235 12.612C154.235 16.446 153.884 16.743 153.182 16.743C152.48 16.743 152.129 16.446 152.129 12.612C152.129 8.778 152.48 8.481 153.182 8.481C153.884 8.481 154.235 8.778 154.235 12.612Z" fill="#545459"/>
<circle cx="4.5" cy="4.5" r="4.5" transform="matrix(-4.37114e-08 -1 -1 4.37114e-08 25 9)" fill="#31B9B9"/>
<circle cx="4.5" cy="4.5" r="4.5" transform="matrix(-4.37114e-08 -1 -1 4.37114e-08 9 25)" fill="#31B9B9"/>
<path d="M0 0L8 -6.99382e-07L25 25L17 25L0 0Z" fill="#0D8080"/>
</svg>
