<svg width="158" height="26" viewBox="0 0 158 26" fill="none" xmlns="http://www.w3.org/2000/svg">
<path d="M40.3749 19.6188H41.2389C41.5359 19.6188 41.7249 19.4246 41.7789 19.1194L44.0469 7.91049C44.1009 7.57755 44.2359 7.0504 44.2359 6.80069C44.2359 6.52324 44.0199 6.30129 43.7499 6.30129H43.0209C42.7239 6.30129 42.5349 6.44001 42.4809 6.77295L41.2659 13.9589C41.1579 14.5692 40.9419 15.9565 40.9419 16.123C40.9419 16.2894 40.9149 16.4004 40.8069 16.4004C40.6989 16.4004 40.6719 16.2894 40.6719 16.123C40.6719 15.9565 40.4559 14.597 40.3479 13.9589L39.1329 6.77295C39.0789 6.44001 38.8899 6.30129 38.5929 6.30129H37.8639C37.5939 6.30129 37.3779 6.52324 37.3779 6.80069C37.3779 7.0504 37.5129 7.57755 37.5669 7.91049L39.8349 19.1194C39.8889 19.4246 40.0779 19.6188 40.3749 19.6188Z" fill="white"/>
<path d="M48.2174 18.2316C47.1374 18.2316 46.7054 17.5379 46.7054 15.8733C46.7054 14.4305 47.0834 13.2375 48.5684 13.2375C48.9194 13.2375 49.2164 13.2652 49.6214 13.3207V17.4825C49.2704 17.8709 48.8654 18.2316 48.2174 18.2316ZM47.5424 19.7853C48.6224 19.7853 49.3514 19.4246 49.6754 18.731C49.8104 19.5356 50.2694 19.7853 50.8094 19.7853C51.7544 19.7853 52.1324 19.3136 52.1324 18.9252V18.5922C51.6734 18.5922 51.4574 18.3425 51.4574 17.7044V9.40871C51.4574 7.27235 50.4314 6.13482 48.4604 6.13482C46.4894 6.13482 45.3014 7.0504 45.3014 9.76939C45.3014 10.2688 45.6254 10.4353 45.9494 10.4353H46.5434C46.9214 10.4353 47.0564 10.1301 47.0294 9.60292C46.9754 8.74283 47.1644 7.77176 48.3254 7.77176C49.2434 7.77176 49.6214 8.43764 49.6214 9.43645V11.8503C49.1894 11.7948 48.7844 11.767 48.4334 11.767C45.5444 11.767 44.8694 13.8479 44.8694 15.901C44.8694 18.0651 45.6524 19.7853 47.5424 19.7853Z" fill="white"/>
<path d="M54.0698 19.6188H54.8798C55.1768 19.6188 55.3928 19.3968 55.3928 19.0917V8.38215C55.9598 8.07696 56.6888 7.88274 57.1748 7.88274C58.0118 7.88274 58.3088 8.3544 58.3088 9.159V19.0917C58.3088 19.3968 58.5248 19.6188 58.8218 19.6188H59.6318C59.9288 19.6188 60.1448 19.3968 60.1448 19.0917V9.159C60.1448 6.91167 59.0378 6.13482 57.6608 6.13482C56.7428 6.13482 55.9868 6.4955 55.3928 6.91167V6.82844C55.3928 6.52324 55.1768 6.30129 54.8798 6.30129H54.0698C53.7728 6.30129 53.5568 6.52324 53.5568 6.82844V19.0917C53.5568 19.3968 53.7728 19.6188 54.0698 19.6188Z" fill="white"/>
<path d="M64.2843 19.7575C64.8513 19.7575 65.4453 19.6743 65.8503 19.5078C66.2283 19.3414 66.4173 19.1471 66.4173 18.7032V18.3703C66.4173 18.1206 66.3093 18.0096 66.0933 18.0096C66.0123 18.0096 65.8503 18.0651 65.7423 18.1206C65.5533 18.2038 65.3373 18.2593 65.0943 18.2593C64.5543 18.2593 64.3653 17.9264 64.3653 17.316V7.79951H65.5803C65.8773 7.79951 66.0933 7.57755 66.0933 7.27236V6.82844C66.0933 6.52324 65.8773 6.30129 65.5803 6.30129H64.3653V3.61004C64.3653 3.30485 64.1493 3.08289 63.8523 3.08289H63.0423C62.7453 3.08289 62.5293 3.30485 62.5293 3.61004V6.30129H61.6113C61.3143 6.30129 61.0983 6.52324 61.0983 6.82844V7.27236C61.0983 7.57755 61.3143 7.79951 61.6113 7.79951H62.5293V17.7322C62.5293 19.0917 63.1773 19.7575 64.2843 19.7575Z" fill="white"/>
<path d="M70.3658 18.2316C69.2858 18.2316 68.8538 17.5379 68.8538 15.8733C68.8538 14.4305 69.2318 13.2375 70.7168 13.2375C71.0678 13.2375 71.3648 13.2652 71.7698 13.3207V17.4825C71.4188 17.8709 71.0138 18.2316 70.3658 18.2316ZM69.6908 19.7853C70.7708 19.7853 71.4998 19.4246 71.8238 18.731C71.9588 19.5356 72.4178 19.7853 72.9578 19.7853C73.9028 19.7853 74.2808 19.3136 74.2808 18.9252V18.5922C73.8218 18.5922 73.6058 18.3425 73.6058 17.7044V9.40871C73.6058 7.27235 72.5798 6.13482 70.6088 6.13482C68.6378 6.13482 67.4498 7.0504 67.4498 9.76939C67.4498 10.2688 67.7738 10.4353 68.0978 10.4353H68.6918C69.0698 10.4353 69.2048 10.1301 69.1778 9.60292C69.1238 8.74283 69.3128 7.77176 70.4738 7.77176C71.3918 7.77176 71.7698 8.43764 71.7698 9.43645V11.8503C71.3378 11.7948 70.9328 11.767 70.5818 11.767C67.6928 11.767 67.0178 13.8479 67.0178 15.901C67.0178 18.0651 67.8008 19.7853 69.6908 19.7853Z" fill="white"/>
<path d="M78.4863 25.8059C80.8623 25.8059 82.1313 24.0025 82.1313 21.8939C82.1313 19.7853 80.8623 17.8986 78.4863 17.8986C78.2973 17.8986 78.0003 17.9264 77.8383 17.9541C77.5143 17.7322 77.3253 17.3437 77.3253 16.7056C77.3253 16.012 77.6223 15.5681 78.0003 15.3738C78.0813 15.3738 78.1893 15.4016 78.2703 15.4016C80.1603 15.4016 81.4023 13.9311 81.4023 10.7682C81.4023 9.13126 81.0783 7.96598 80.5113 7.21687C80.6733 7.18912 80.8353 7.16138 80.9973 7.16138C81.2133 7.16138 81.3483 7.18912 81.5913 7.32784C81.7263 7.41108 81.8073 7.43882 81.9423 7.43882C82.2123 7.43882 82.3473 7.27235 82.3473 6.99491V6.16256C82.3473 5.57992 81.9423 5.30247 81.3753 5.30247C80.8083 5.30247 80.1333 5.71864 79.7553 6.52324C79.4853 6.38452 79.0803 6.13482 78.2703 6.13482C76.3803 6.13482 75.1383 7.60529 75.1383 10.7682C75.1383 12.7658 75.6513 14.0976 76.4883 14.7912C75.9483 15.2351 75.6513 15.8455 75.6513 16.7056C75.6513 17.5102 75.9213 18.0651 76.3803 18.5368C75.3813 19.2581 74.8413 20.5344 74.8413 21.8939C74.8413 24.0025 76.1103 25.8059 78.4863 25.8059ZM78.2703 13.9311C77.1093 13.9311 76.8123 12.5716 76.8123 10.7682C76.8123 8.96479 77.1093 7.60529 78.2703 7.60529C79.3773 7.60529 79.7283 8.96479 79.7283 10.7682C79.7283 12.5716 79.3773 13.9311 78.2703 13.9311ZM78.4863 24.169C77.1363 24.169 76.5153 23.1701 76.5153 21.8939C76.5153 20.6176 77.1363 19.6188 78.4863 19.6188C79.8363 19.6188 80.4573 20.6176 80.4573 21.8939C80.4573 23.1701 79.8363 24.169 78.4863 24.169Z" fill="white"/>
<path d="M84.5191 11.6838C84.5191 8.85381 84.9241 7.77176 86.0311 7.77176C87.1651 7.77176 87.3541 8.82607 87.3541 10.352C87.3541 10.9624 87.3271 11.3508 87.3001 11.6838H84.5191ZM86.0041 19.7853C88.0561 19.7853 88.9471 18.509 88.9471 16.012C88.9471 15.5126 88.6231 15.3461 88.2991 15.3461H87.8401C87.4621 15.3461 87.3271 15.6513 87.3541 16.1784C87.3811 16.7611 87.3001 18.1483 86.0581 18.1483C84.7621 18.1483 84.4921 16.6501 84.4921 13.1543H88.8121C88.9201 12.4329 89.0011 11.4341 89.0011 10.8792C89.0011 7.35559 88.0831 6.13482 86.0311 6.13482C83.2501 6.13482 82.6561 8.9093 82.6561 12.96C82.6561 17.0108 83.2231 19.7853 86.0041 19.7853Z" fill="white"/>
<path d="M91.2212 19.6188H92.0312C92.3282 19.6188 92.5442 19.3968 92.5442 19.0917V8.38215C93.1112 8.07696 93.8402 7.88274 94.3262 7.88274C95.1632 7.88274 95.4602 8.3544 95.4602 9.159V19.0917C95.4602 19.3968 95.6762 19.6188 95.9732 19.6188H96.7832C97.0802 19.6188 97.2962 19.3968 97.2962 19.0917V9.159C97.2962 6.91167 96.1892 6.13482 94.8122 6.13482C93.8942 6.13482 93.1382 6.4955 92.5442 6.91167V6.82844C92.5442 6.52324 92.3282 6.30129 92.0312 6.30129H91.2212C90.9242 6.30129 90.7082 6.52324 90.7082 6.82844V19.0917C90.7082 19.3968 90.9242 19.6188 91.2212 19.6188Z" fill="white"/>
<path d="M101.868 19.7853C104.433 19.7853 105 17.7876 105 16.0397C105 14.1253 103.164 12.7103 102.03 11.8503C101.301 11.2954 100.599 10.5462 100.599 9.43645C100.599 8.43764 101.085 7.77176 102.003 7.77176C103.164 7.77176 103.272 8.74283 103.218 9.60292C103.191 10.1301 103.326 10.4353 103.704 10.4353H104.298C104.622 10.4353 104.946 10.2688 104.946 9.76939C104.946 7.0504 103.974 6.13482 102.003 6.13482C100.032 6.13482 98.9516 7.46657 98.9516 9.68615C98.9516 11.4341 100.41 12.7658 101.436 13.5427C102.3 14.1808 103.353 15.0132 103.353 16.2062C103.353 17.2605 103.056 18.1483 101.868 18.1483C100.734 18.1483 100.518 17.0385 100.572 16.0397C100.599 15.5126 100.464 15.2074 100.086 15.2074H99.4916C99.1406 15.2074 98.8436 15.4016 98.8436 15.8733C98.8436 18.62 99.9236 19.7853 101.868 19.7853Z" fill="white"/>
<path d="M115.14 12.96C115.14 8.04921 113.925 6.16256 111.63 6.16256C110.685 6.16256 109.848 6.55099 109.524 7.27236C109.227 6.52324 108.606 6.30129 107.85 6.30129H106.905C106.608 6.30129 106.392 6.52324 106.392 6.82844V25.0845C106.392 25.3897 106.608 25.6117 106.905 25.6117H109.2C109.497 25.6117 109.713 25.3897 109.713 25.0845V18.7865C109.956 19.3136 110.604 19.7575 111.63 19.7575C113.925 19.7575 115.14 17.8709 115.14 12.96ZM111.819 12.96C111.819 16.8998 111.279 17.2327 110.496 17.2327C110.172 17.2327 109.929 17.1495 109.713 17.0385V8.88156C109.929 8.77058 110.172 8.68734 110.496 8.68734C111.279 8.68734 111.819 9.04802 111.819 12.96Z" fill="white"/>
<path d="M122.673 9.38096V7.16138C122.673 6.57873 122.268 6.30129 121.701 6.30129C120.891 6.30129 120.108 6.68971 119.487 7.38333C119.298 6.71746 118.758 6.30129 118.002 6.30129H117.03C116.733 6.30129 116.517 6.52324 116.517 6.82844V19.0917C116.517 19.3968 116.733 19.6188 117.03 19.6188H119.325C119.622 19.6188 119.838 19.3968 119.838 19.0917V10.0746C119.838 10.0746 120.486 9.54743 121.296 9.54743C121.512 9.54743 121.755 9.60292 121.917 9.7139C122.052 9.79713 122.187 9.85262 122.295 9.85262C122.565 9.85262 122.673 9.65841 122.673 9.38096Z" fill="white"/>
<path d="M131.954 12.96C131.954 7.68853 130.064 6.13482 127.58 6.13482C125.123 6.13482 123.206 7.68853 123.206 12.96C123.206 18.2316 125.123 19.7853 127.58 19.7853C130.064 19.7853 131.954 18.2316 131.954 12.96ZM128.633 12.96C128.633 16.8998 128.282 17.205 127.58 17.205C126.878 17.205 126.527 16.8998 126.527 12.96C126.527 9.02028 126.878 8.71509 127.58 8.71509C128.282 8.71509 128.633 9.02028 128.633 12.96Z" fill="white"/>
<path d="M147.488 19.0917V9.60292C147.488 7.35559 146.57 6.13482 144.599 6.13482C143.276 6.13482 142.358 6.68971 141.602 7.41108C141.17 6.60648 140.387 6.13482 139.172 6.13482C137.93 6.13482 137.066 6.71746 136.553 7.24461C136.364 6.60648 135.797 6.30129 135.149 6.30129H133.826C133.529 6.30129 133.313 6.52324 133.313 6.82844V19.0917C133.313 19.3968 133.529 19.6188 133.826 19.6188H136.121C136.418 19.6188 136.634 19.3968 136.634 19.0917V9.04802C137.066 8.82606 137.552 8.71509 137.903 8.71509C138.47 8.71509 138.74 8.99253 138.74 9.68615V19.0917C138.74 19.3968 138.956 19.6188 139.253 19.6188H141.548C141.845 19.6188 142.061 19.3968 142.061 19.0917V9.04802C142.493 8.82606 142.979 8.71509 143.33 8.71509C143.897 8.71509 144.167 8.99253 144.167 9.68615V19.0917C144.167 19.3968 144.383 19.6188 144.68 19.6188H146.975C147.272 19.6188 147.488 19.3968 147.488 19.0917Z" fill="white"/>
<path d="M157.556 12.96C157.556 7.68853 155.666 6.13482 153.182 6.13482C150.725 6.13482 148.808 7.68853 148.808 12.96C148.808 18.2316 150.725 19.7853 153.182 19.7853C155.666 19.7853 157.556 18.2316 157.556 12.96ZM154.235 12.96C154.235 16.8998 153.884 17.205 153.182 17.205C152.48 17.205 152.129 16.8998 152.129 12.96C152.129 9.02028 152.48 8.71509 153.182 8.71509C153.884 8.71509 154.235 9.02028 154.235 12.96Z" fill="white"/>
<ellipse cx="4.62414" cy="4.5" rx="4.62414" ry="4.5" transform="matrix(4.25379e-08 1 1 -4.49172e-08 0 16.4414)" fill="white" fill-opacity="0.7"/>
<ellipse cx="4.62414" cy="4.5" rx="4.62414" ry="4.5" transform="matrix(4.25379e-08 1 1 -4.49172e-08 16 0)" fill="white" fill-opacity="0.7"/>
<path d="M25 25.6896L17 25.6896L-2.18557e-06 -1.68276e-05L8 -1.75463e-05L25 25.6896Z" fill="white"/>
</svg>
