<svg width="197" height="53" viewBox="0 0 197 53" fill="none" xmlns="http://www.w3.org/2000/svg">
<path d="M86.2227 17.596H68.2465V43.7073H86.2227V17.596Z" fill="white" stroke="black" stroke-miterlimit="10"/>
<path fill-rule="evenodd" clip-rule="evenodd" d="M70.2516 44.8733V45.792C70.2516 46.4633 70.7793 46.9933 71.4477 46.9933C72.1161 46.9933 72.6438 46.4633 72.6438 45.792V44.8733H81.9661V45.792C81.9661 46.4633 82.4938 46.9933 83.1622 46.9933C83.8306 46.9933 84.3583 46.4633 84.3583 45.792V44.8733H85.1322C86.6449 44.8733 87.8761 43.6367 87.8761 42.1173V19.6453C87.8761 18.126 86.6449 16.8893 85.1322 16.8893H81.4384V7.03134H83.0566V5.68867C83.0566 5.088 82.5641 4.59334 81.9661 4.59334H72.5734C71.9754 4.59334 71.4829 5.088 71.4829 5.68867V7.03134H73.1363V16.8893H69.4425C67.9299 16.8893 66.6986 18.126 66.6986 19.6453V42.1527C66.6986 43.672 67.9299 44.9087 69.4425 44.9087H70.2516V44.8733ZM74.4731 7.03134H80.2072V16.8893H74.4731V7.03134ZM69.6888 18.656H85.097C85.695 18.656 86.1875 19.1507 86.1875 19.7513V23.0727H68.5982V19.7513C68.5982 19.1507 69.0908 18.656 69.6888 18.656ZM69.7943 24.4153H84.9211C85.6247 24.4153 86.1875 24.9807 86.1875 25.6873V41.7287C86.1875 42.4353 85.6247 43.0007 84.9211 43.0007H69.7943C69.0907 43.0007 68.5279 42.4353 68.5279 41.7287V25.6873C68.5631 24.9807 69.1259 24.4153 69.7943 24.4153Z" fill="#3F4A53"/>
<path d="M83.2325 47.3467C82.3882 47.3467 81.6846 46.64 81.6846 45.792V45.2267H73.0658V45.792C73.0658 46.64 72.3623 47.3467 71.518 47.3467C70.6737 47.3467 69.9701 46.64 69.9701 45.792V45.2267H69.548C67.8242 45.2267 66.4523 43.8487 66.4523 42.1527V19.6453C66.4523 17.9493 67.8242 16.5713 69.548 16.5713H72.89V7.38467H71.2366V5.68867C71.2366 4.87601 71.8698 4.24001 72.6789 4.24001H82.0716C82.8807 4.24001 83.5139 4.87601 83.5139 5.68867V7.38467H81.8957V16.5713H85.2376C86.9614 16.5713 88.3333 17.9493 88.3333 19.6453V42.1527C88.3333 43.8487 86.9614 45.2267 85.2376 45.2267H84.7803V45.792C84.7803 46.64 84.0767 47.3467 83.2325 47.3467ZM72.3271 44.52H82.353V45.7567C82.353 46.216 82.74 46.6047 83.2325 46.6047C83.725 46.6047 84.0767 46.216 84.0767 45.7567V44.52H85.2024C86.5392 44.52 87.5946 43.46 87.5946 42.1173V19.6453C87.5946 18.338 86.5041 17.2427 85.2024 17.2427H81.1569V6.67801H82.7751V5.68867C82.7751 5.26467 82.4233 4.94667 82.0364 4.94667H72.6437C72.2216 4.94667 71.9049 5.30001 71.9049 5.68867V6.67801H73.5583V17.2427H69.5128C68.176 17.2427 67.1207 18.3027 67.1207 19.6453V42.1527C67.1207 43.46 68.2112 44.5553 69.5128 44.5553H70.6033V45.792C70.6033 46.2513 70.9903 46.64 71.4476 46.64C71.9401 46.64 72.3271 46.2513 72.3271 45.792V44.52ZM84.921 43.354H69.7942C68.9148 43.354 68.176 42.6473 68.176 41.7287V25.6873C68.176 24.804 68.9148 24.062 69.7942 24.062H84.921C85.8005 24.062 86.5392 24.7687 86.5392 25.6873V41.7287C86.5392 42.612 85.8005 43.354 84.921 43.354ZM69.7942 24.7687C69.3017 24.7687 68.8796 25.1927 68.8796 25.6873V41.7287C68.8796 42.2233 69.3017 42.6473 69.7942 42.6473H84.921C85.4135 42.6473 85.8357 42.2233 85.8357 41.7287V25.6873C85.8357 25.1927 85.4135 24.7687 84.921 24.7687H69.7942ZM86.5392 23.3907H68.2464V19.7513C68.2464 18.9387 68.8796 18.3027 69.6887 18.3027H85.0969C85.906 18.3027 86.5392 18.9387 86.5392 19.7513V23.3907ZM68.95 22.7193H85.8708V19.7513C85.8708 19.3273 85.5191 19.0093 85.1321 19.0093H69.7239C69.3017 19.0093 68.9851 19.3627 68.9851 19.7513V22.7193H68.95ZM80.5589 17.2427H74.1212V6.67801H80.5589V17.2427ZM74.8248 16.536H79.8553V7.34934H74.8248V16.536Z" fill="#3F4A53"/>
<path d="M92.3438 45.3327V18.868C92.3438 18.5853 92.3789 18.338 92.4845 18.0907C92.59 17.8433 92.7307 17.6313 92.8714 17.4547C93.0473 17.278 93.2584 17.1367 93.4695 17.0307C93.6805 16.9247 93.962 16.8893 94.2082 16.8893C94.947 16.8893 95.5098 17.2427 95.8968 17.9847L106.591 40.8453L117.285 17.9847C117.707 17.2427 118.27 16.8893 118.974 16.8893C119.22 16.8893 119.466 16.9247 119.713 17.0307C119.959 17.1367 120.135 17.278 120.311 17.4547C120.487 17.6313 120.627 17.8433 120.698 18.0907C120.803 18.338 120.838 18.5853 120.838 18.868V45.3327C120.838 45.898 120.662 46.3573 120.276 46.746C119.924 47.1347 119.466 47.3467 118.939 47.3467C118.411 47.3467 117.954 47.1347 117.602 46.746C117.25 46.3573 117.039 45.8627 117.039 45.3327V27.4187L108.174 46.322C107.822 46.9933 107.259 47.3467 106.521 47.3467C105.747 47.3467 105.149 46.9227 104.797 46.11L96.0375 27.4187V45.2973C96.0375 45.8627 95.8616 46.322 95.4746 46.7107C95.1229 47.0993 94.6655 47.3113 94.1379 47.3113C93.6102 47.3113 93.1529 47.0993 92.8011 46.7107C92.5196 46.3573 92.3438 45.8627 92.3438 45.3327Z" fill="#3F4A53"/>
<path d="M140.011 45.368V44.9793C139.131 45.7567 138.146 46.322 137.091 46.746C136.036 47.17 134.91 47.3467 133.749 47.3467C131.005 47.3467 128.648 46.322 126.678 44.2373C124.743 42.1527 123.758 39.644 123.758 36.676C123.758 33.7433 124.743 31.1993 126.678 29.1147C128.613 27.03 130.97 26.0053 133.749 26.0053C136.493 26.0053 138.85 27.0653 140.82 29.1147C142.755 31.1993 143.74 33.708 143.74 36.676V45.368C143.74 45.898 143.564 46.3927 143.212 46.7813C142.86 47.17 142.403 47.3467 141.91 47.3467C141.383 47.3467 140.961 47.17 140.574 46.7813C140.187 46.3573 140.011 45.898 140.011 45.368ZM133.749 29.9627C132.869 29.9627 132.06 30.1393 131.286 30.4927C130.512 30.846 129.879 31.3407 129.316 31.9413C128.754 32.542 128.331 33.2487 127.98 34.0613C127.663 34.874 127.487 35.722 127.487 36.6407C127.487 37.5593 127.663 38.4073 127.98 39.22C128.296 40.0327 128.754 40.7393 129.316 41.34C129.879 41.9407 130.548 42.4353 131.286 42.7887C132.06 43.142 132.869 43.3187 133.749 43.3187C134.628 43.3187 135.437 43.142 136.176 42.7887C136.95 42.4353 137.583 41.9407 138.181 41.34C138.744 40.7393 139.202 40.0327 139.518 39.22C139.835 38.4073 140.011 37.5593 140.011 36.6407C140.011 35.722 139.835 34.874 139.518 34.0613C139.202 33.2487 138.744 32.542 138.181 31.9413C137.619 31.3407 136.95 30.846 136.176 30.4927C135.437 30.1393 134.593 29.9627 133.749 29.9627Z" fill="#3F4A53"/>
<path d="M146.413 45.368V18.8327C146.413 18.2673 146.589 17.808 146.941 17.4193C147.293 17.0307 147.75 16.854 148.278 16.854C148.805 16.854 149.263 17.0307 149.614 17.4193C149.966 17.808 150.142 18.2673 150.142 18.8327V43.354H150.986C151.514 43.354 151.936 43.5307 152.288 43.9193C152.64 44.308 152.816 44.7673 152.816 45.3327C152.816 45.8627 152.64 46.3573 152.288 46.746C151.936 47.1347 151.479 47.3113 150.986 47.3113H148.242C147.715 47.3113 147.293 47.1347 146.941 46.746C146.589 46.3573 146.413 45.898 146.413 45.368Z" fill="#3F4A53"/>
<path d="M171.39 45.368V44.9793C170.51 45.7567 169.525 46.322 168.47 46.746C167.415 47.17 166.289 47.3467 165.128 47.3467C162.384 47.3467 160.027 46.322 158.057 44.2373C156.122 42.1527 155.137 39.644 155.137 36.676C155.137 33.7433 156.122 31.1993 158.057 29.1147C159.992 27.03 162.349 26.0053 165.128 26.0053C167.872 26.0053 170.229 27.0653 172.199 29.1147C174.134 31.1993 175.119 33.708 175.119 36.676V45.368C175.119 45.898 174.943 46.3927 174.591 46.7813C174.239 47.17 173.782 47.3467 173.29 47.3467C172.762 47.3467 172.34 47.17 171.953 46.7813C171.566 46.3573 171.39 45.898 171.39 45.368ZM165.128 29.9627C164.249 29.9627 163.44 30.1393 162.666 30.4927C161.892 30.846 161.259 31.3407 160.696 31.9413C160.133 32.542 159.711 33.2487 159.359 34.0613C159.042 34.874 158.866 35.722 158.866 36.6407C158.866 37.5593 159.042 38.4073 159.359 39.22C159.675 40.0327 160.133 40.7393 160.696 41.34C161.259 41.9407 161.927 42.4353 162.666 42.7887C163.44 43.142 164.249 43.3187 165.128 43.3187C166.008 43.3187 166.817 43.142 167.555 42.7887C168.329 42.4353 168.963 41.9407 169.561 41.34C170.124 40.7393 170.581 40.0327 170.897 39.22C171.214 38.4073 171.39 37.5593 171.39 36.6407C171.39 35.722 171.214 34.874 170.897 34.0613C170.581 33.2487 170.124 32.542 169.561 31.9413C168.998 31.3407 168.329 30.846 167.555 30.4927C166.817 30.1393 166.008 29.9627 165.128 29.9627Z" fill="#3F4A53"/>
<path d="M181.627 37.1707C180.501 36.7113 179.727 36.252 179.27 35.7573H179.305C178.391 34.768 177.933 33.6373 177.933 32.2947C177.933 31.3407 178.179 30.4573 178.672 29.68C179.164 28.9027 179.798 28.2313 180.572 27.7013C181.346 27.1713 182.225 26.7473 183.175 26.4293C184.16 26.1467 185.11 25.97 186.095 25.97C189.085 25.97 191.618 27.242 193.764 29.786C194.01 30.104 194.151 30.528 194.151 30.9873C194.151 31.5527 193.975 32.0473 193.623 32.4007C193.271 32.7893 192.814 32.966 192.286 32.966C191.899 32.966 191.583 32.86 191.301 32.6127C191.02 32.4007 190.773 32.1533 190.527 31.8707C189.331 30.5633 187.854 29.9273 186.095 29.9273C184.371 29.9273 182.999 30.4927 181.979 31.588C181.803 31.8 181.697 32.0827 181.697 32.436C181.697 32.7893 181.838 33.0367 182.155 33.178L190.492 36.1107C191.653 36.6053 192.427 37.0647 192.849 37.524H192.814C193.728 38.5133 194.186 39.644 194.186 40.9867C194.186 41.976 193.939 42.8593 193.447 43.6013C192.954 44.3787 192.321 45.05 191.547 45.58C190.773 46.1453 189.894 46.5693 188.944 46.852C187.994 47.1347 187.009 47.276 186.024 47.276C183.034 47.276 180.466 46.004 178.355 43.4953C178.109 43.142 177.968 42.718 177.968 42.2587C177.968 41.6933 178.144 41.1987 178.496 40.8453C178.848 40.4567 179.305 40.28 179.833 40.28C180.22 40.28 180.572 40.4213 180.818 40.6687C181.099 40.916 181.346 41.1633 181.557 41.3753C182.753 42.6827 184.265 43.3187 185.989 43.3187C187.678 43.3187 189.05 42.7533 190.105 41.5873C190.281 41.3753 190.386 41.128 190.386 40.81C190.386 40.4567 190.211 40.2093 189.894 40.068L181.627 37.1707Z" fill="#3F4A53"/>
<path d="M27.3689 42.506C27.3689 43.036 27.1578 43.5307 26.7709 43.9547C24.1325 46.216 21.1423 47.3467 17.8003 47.3467C13.8603 47.3467 10.4832 45.8627 7.70407 42.8947C4.92497 39.9267 3.51782 36.3227 3.51782 32.0827C3.51782 27.878 4.92497 24.274 7.70407 21.306C10.4832 18.3027 13.8603 16.8187 17.8003 16.8187C21.1775 16.8187 24.238 18.02 26.9468 20.3873C27.2634 20.7053 27.4393 21.1647 27.4393 21.7653C27.4393 22.048 27.4041 22.3307 27.2985 22.578C27.193 22.8253 27.0523 23.0373 26.9116 23.214C26.7357 23.3907 26.5246 23.532 26.3135 23.638C26.0673 23.744 25.821 23.7793 25.5748 23.7793C25.0823 23.7793 24.6601 23.6027 24.2732 23.214C23.3585 22.4367 22.3735 21.8713 21.283 21.4473C20.1925 21.0233 19.0316 20.8467 17.8003 20.8467C14.8805 20.8467 12.418 21.942 10.3776 24.1327C8.33729 26.3233 7.31711 28.938 7.31711 32.0473C7.31711 35.1567 8.33729 37.8067 10.3776 39.962C12.418 42.1527 14.9157 43.248 17.8003 43.248C19.9462 43.248 21.881 42.6473 23.5696 41.446V35.5453H18.6446C18.1169 35.5453 17.6596 35.3687 17.3078 34.98C16.956 34.5913 16.7801 34.0967 16.7801 33.5313C16.7801 33.2487 16.8153 33.0013 16.9209 32.754C17.0264 32.5067 17.1671 32.2947 17.3078 32.118C17.4837 31.9413 17.6948 31.8 17.9059 31.694C18.1169 31.588 18.3984 31.5527 18.6446 31.5527H25.4693C25.7155 31.5527 25.9618 31.6233 26.1728 31.7293C26.3839 31.8353 26.595 31.9767 26.7709 32.1533C26.9468 32.33 27.0875 32.542 27.193 32.7893C27.2985 33.0367 27.3337 33.284 27.3337 33.5667V42.506H27.3689Z" fill="#00F57E"/>
<path d="M45.521 41.34C46.0487 41.34 46.506 41.5167 46.8578 41.9053C47.2096 42.294 47.3855 42.7533 47.3855 43.3187C47.3855 43.884 47.2096 44.3433 46.8578 44.732C45.0285 46.4633 42.8474 47.3113 40.3146 47.3113C37.5706 47.3113 35.2137 46.2867 33.2437 44.202C31.3089 42.1173 30.3239 39.6087 30.3239 36.6407C30.3239 33.708 31.3089 31.164 33.2437 29.0793C35.1785 26.9947 37.5355 25.97 40.3146 25.97C43.0585 25.97 45.4155 27.03 47.3855 29.0793C48.3705 30.104 49.1092 31.27 49.5665 32.5067C50.059 33.7787 50.3053 35.1567 50.3053 36.6053C50.3053 37.1707 50.1294 37.6653 49.7776 38.0187C49.4258 38.372 48.9685 38.584 48.4408 38.584H34.299C34.5101 39.2907 34.7915 39.9267 35.1785 40.492C35.5655 41.0573 36.0228 41.552 36.5505 41.976C37.0781 42.4 37.6762 42.718 38.3094 42.93C38.9426 43.142 39.611 43.2833 40.3146 43.2833C41.0885 43.2833 41.8272 43.142 42.4605 42.8947C43.1289 42.6473 43.7269 42.2587 44.2897 41.764C44.6415 41.5167 45.0637 41.34 45.521 41.34ZM46.3301 34.6973C46.119 33.9907 45.8376 33.3547 45.4155 32.7893C45.0285 32.224 44.536 31.7293 44.0083 31.3053C43.4806 30.8813 42.8826 30.5633 42.2494 30.3513C41.6162 30.1393 40.9478 29.998 40.2794 29.998C39.611 29.998 38.9426 30.104 38.3094 30.3513C37.6762 30.5633 37.0781 30.9167 36.5505 31.3053C36.0228 31.7293 35.5655 32.224 35.1433 32.7893C34.7564 33.3547 34.4749 33.9907 34.2639 34.6973H46.3301Z" fill="#00F57E"/>
<path d="M53.2955 26.0053H54.1398V18.8327C54.1398 18.3027 54.3157 17.808 54.6675 17.4193C55.0192 17.0307 55.4766 16.854 56.0042 16.854C56.5319 16.854 56.9541 17.0307 57.3059 17.4193C57.6576 17.808 57.8335 18.2673 57.8335 18.8327V26.0053H60.0498C60.5775 26.0053 60.9996 26.182 61.3514 26.5707C61.7032 26.9593 61.8791 27.4187 61.8791 27.984C61.8791 28.5493 61.7032 29.0087 61.3514 29.3973C60.9996 29.786 60.5775 29.9627 60.0498 29.9627H57.8335V39.5733C57.8335 42.1173 59.0296 43.354 61.3866 43.354C61.9142 43.354 62.3364 43.5307 62.6882 43.9193C63.04 44.308 63.2159 44.7673 63.2159 45.3327C63.2159 45.898 63.04 46.3573 62.6882 46.746C62.3364 47.1347 61.9142 47.3113 61.3866 47.3113C56.5319 47.3113 54.1046 44.732 54.1046 39.538V29.9627H53.2603C52.7678 29.9627 52.3457 29.786 51.9587 29.3973C51.6069 29.0087 51.431 28.5493 51.431 27.984C51.431 27.454 51.6069 26.9593 51.9587 26.5707C52.3809 26.182 52.803 26.0053 53.2955 26.0053Z" fill="#00F57E"/>
</svg>
