<svg width="138" height="75" viewBox="0 0 138 75" fill="none" xmlns="http://www.w3.org/2000/svg">
<path d="M57.9128 0.0628052H37.3872C37.3872 7.24006 43.187 13.0628 50.336 13.0628H64.3872V6.56281C64.3872 2.97005 61.4914 0.0628052 57.9128 0.0628052Z" fill="#006AB1"/>
<path d="M78.4876 0H58.0527C61.6155 0 64.4985 2.88299 64.4985 6.44578V7.28938V12.8916V38.6665C71.6077 38.6665 77.3655 32.8759 77.3901 25.7749H78.4958C85.6131 25.7749 91.3873 20.0008 91.3873 12.8834C91.3873 5.76599 85.6049 0 78.4876 0Z" fill="#004985"/>
<path d="M49.3872 13.0628C49.3872 20.2401 55.3685 26.0628 62.7413 26.0628H64.3872V13.0628H49.3872Z" fill="#008AFF"/>
<path d="M0.936523 74.3137V55.0763C0.936523 54.757 1.16822 54.519 1.49386 54.519H1.58153C2.10755 54.519 2.42692 54.6943 2.72124 55.2767C3.07193 54.5754 3.82965 54.3437 4.65 54.3437C6.96074 54.3437 8.06915 56.3914 8.06915 61.5326C8.06915 66.6739 6.96074 68.7279 4.65 68.7279C3.62926 68.7279 3.1596 68.3208 2.9279 68.0578V74.3137C2.9279 74.6331 2.6962 74.8711 2.37056 74.8711H1.49386C1.16822 74.8648 0.936523 74.6331 0.936523 74.3137ZM6.08403 61.5389C6.08403 56.598 5.20733 56.0157 4.09892 56.0157C3.62926 56.0157 3.25353 56.1346 2.9279 56.31V66.7741C3.24727 66.9494 3.62926 67.0684 4.09892 67.0684C5.20107 67.0621 6.08403 66.4798 6.08403 61.5389Z" fill="#545459"/>
<path d="M9.87769 64.6393C9.87769 62.4788 10.6104 60.2871 13.7352 60.2871C14.1172 60.2871 14.5555 60.3184 15.0189 60.3747V57.8323C15.0189 56.7802 14.6119 56.0789 13.6162 56.0789C12.3575 56.0789 12.1571 57.0996 12.2135 58.0076C12.2448 58.565 12.0945 58.8843 11.6875 58.8843H11.0425C10.6918 58.8843 10.3411 58.709 10.3411 58.183C10.3411 55.3212 11.6248 54.3568 13.7602 54.3568C15.8956 54.3568 17.004 55.5529 17.004 57.8072V66.5492C17.004 67.2193 17.2357 67.4823 17.7367 67.4823V67.833C17.7367 68.24 17.3297 68.741 16.3027 68.741C15.7203 68.741 15.2193 68.478 15.0753 67.6326C14.7246 68.3653 13.9356 68.741 12.7646 68.741C10.7293 68.7285 9.87769 66.9187 9.87769 64.6393ZM15.0252 66.305V61.9215C14.5868 61.8651 14.2675 61.8338 13.8855 61.8338C12.2761 61.8338 11.8691 63.0925 11.8691 64.608C11.8691 66.3614 12.3387 67.094 13.5035 67.094C14.2049 67.094 14.6432 66.712 15.0252 66.305Z" fill="#545459"/>
<path d="M19.3269 64.6077C19.3269 64.113 19.6463 63.9063 20.0283 63.9063H20.6733C21.0803 63.9063 21.2306 64.2257 21.1993 64.7831C21.1429 65.8351 21.3746 67.0061 22.602 67.0061C23.8858 67.0061 24.2114 66.0731 24.2114 64.9584C24.2114 63.6997 23.0717 62.823 22.1386 62.1529C21.0302 61.3326 19.4521 59.9299 19.4521 58.0888C19.4521 55.753 20.6232 54.3503 22.7523 54.3503C24.8877 54.3503 25.9398 55.3146 25.9398 58.1764C25.9398 58.7025 25.5891 58.8778 25.2384 58.8778H24.5934C24.1864 58.8778 24.0361 58.5584 24.0674 58.0011C24.1237 57.0931 24.011 56.0724 22.7523 56.0724C21.7566 56.0724 21.2306 56.7737 21.2306 57.8258C21.2306 58.9968 21.9883 59.7858 22.7774 60.3682C24.0048 61.2762 25.9899 62.7666 25.9899 64.7831C25.9899 66.6241 25.3762 68.7282 22.602 68.7282C20.4979 68.7282 19.3269 67.5008 19.3269 64.6077Z" fill="#545459"/>
<path d="M27.7388 64.6076C27.7388 64.1129 28.0581 63.9062 28.4401 63.9062H29.0851C29.4922 63.9062 29.6425 64.2256 29.6112 64.7829C29.5548 65.835 29.7865 67.006 31.0139 67.006C32.2976 67.006 32.6233 66.0729 32.6233 64.9583C32.6233 63.6996 31.4836 62.8229 30.5505 62.1528C29.4421 61.3325 27.864 59.9297 27.864 58.0887C27.864 55.7529 29.035 54.3501 31.1642 54.3501C33.2996 54.3501 34.3516 55.3145 34.3516 58.1763C34.3516 58.7023 34.001 58.8777 33.6503 58.8777H33.0053C32.5982 58.8777 32.4479 58.5583 32.4792 58.001C32.5356 57.093 32.4229 56.0722 31.1642 56.0722C30.1685 56.0722 29.6425 56.7736 29.6425 57.8256C29.6425 58.9967 30.4002 59.7857 31.1892 60.3681C32.4166 61.2761 34.4017 62.7665 34.4017 64.7829C34.4017 66.624 33.788 68.7281 31.0139 68.7281C28.9098 68.7281 27.7388 67.5007 27.7388 64.6076Z" fill="#545459"/>
<path d="M36.1294 64.6393C36.1294 62.4788 36.8621 60.2871 39.9869 60.2871C40.3689 60.2871 40.8072 60.3184 41.2706 60.3747V57.8323C41.2706 56.7802 40.8636 56.0789 39.8679 56.0789C38.6092 56.0789 38.4088 57.0996 38.4652 58.0076C38.4965 58.565 38.3462 58.8843 37.9392 58.8843H37.2942C36.9435 58.8843 36.5928 58.709 36.5928 58.183C36.5928 55.3212 37.8765 54.3568 40.0119 54.3568C42.1474 54.3568 43.2558 55.5529 43.2558 57.8072V66.5492C43.2558 67.2193 43.4875 67.4823 43.9884 67.4823V67.833C43.9884 68.24 43.5814 68.741 42.5544 68.741C41.972 68.741 41.471 68.478 41.327 67.6326C40.9763 68.3653 40.1873 68.741 39.0163 68.741C36.9748 68.7285 36.1294 66.9187 36.1294 64.6393ZM41.2706 66.305V61.9215C40.8323 61.8651 40.5129 61.8338 40.1309 61.8338C38.5215 61.8338 38.1145 63.0925 38.1145 64.608C38.1145 66.3614 38.5842 67.094 39.7489 67.094C40.4566 67.094 40.8949 66.712 41.2706 66.305Z" fill="#545459"/>
<path d="M52.7607 54.4439C52.2597 54.4439 51.6836 54.7382 51.264 55.3018C51.1012 55.1327 50.7568 54.8759 50.5125 54.7507C50.2182 54.6067 49.7799 54.3437 48.9032 54.3437C46.8554 54.3437 45.5153 55.8779 45.5153 59.1718C45.5153 61.2508 46.0727 62.641 46.9744 63.3612C46.392 63.8246 46.0664 64.4571 46.0664 65.3526C46.0664 66.1917 46.3607 66.7678 46.8554 67.2625C45.7721 68.014 45.1897 69.3416 45.1897 70.7568C45.1897 72.9549 46.5611 74.8335 49.1349 74.8335C51.7086 74.8335 53.08 72.9549 53.08 70.7568C53.08 68.5588 51.7086 66.5925 49.1349 66.5925C48.9282 66.5925 48.6088 66.6238 48.4335 66.6488C48.0828 66.4171 47.8762 66.0101 47.8762 65.3463C47.8762 64.6262 48.1955 64.1628 48.6088 63.9561C48.6965 63.9561 48.8155 63.9874 48.9032 63.9874C50.9509 63.9874 52.291 62.4532 52.291 59.1593C52.291 58.0383 52.1345 57.1303 51.8589 56.4164C52.0217 56.3914 52.1845 56.3663 52.3536 56.3663C52.5853 56.3663 52.7356 56.3977 52.9986 56.5417C53.1427 56.6294 53.2303 56.6544 53.3806 56.6544C53.6749 56.6544 53.819 56.4791 53.819 56.191V55.3268C53.8127 54.7319 53.3744 54.4439 52.7607 54.4439ZM49.1349 68.2457C50.594 68.2457 51.2703 69.3666 51.2703 70.7944C51.2703 72.2284 50.6002 73.3431 49.1349 73.3431C47.6758 73.3431 46.9995 72.2222 46.9995 70.7944C46.9995 69.3666 47.6758 68.2457 49.1349 68.2457ZM48.9032 62.5596C47.6445 62.5596 47.3251 61.1256 47.3251 59.2282C47.3251 57.3307 47.6445 55.8967 48.9032 55.8967C50.0992 55.8967 50.4812 57.3307 50.4812 59.2282C50.4812 61.1256 50.0992 62.5596 48.9032 62.5596Z" fill="#545459"/>
<path d="M54.2241 61.5391C54.2241 57.2746 54.8691 54.3501 57.875 54.3501C60.098 54.3501 61.0875 55.6339 61.0875 59.3473C61.0875 59.9297 60.9998 60.9818 60.8808 61.7458H56.203C56.203 65.4279 56.4973 67.006 57.9 67.006C59.2464 67.006 59.3341 65.5469 59.3027 64.9332C59.2714 64.3759 59.4217 64.0565 59.8288 64.0565H60.3235C60.6742 64.0565 61.0248 64.2318 61.0248 64.7579C61.0248 67.388 60.0605 68.7343 57.8374 68.7343C54.8378 68.7281 54.2241 65.8036 54.2241 61.5391ZM59.2526 60.1927C59.284 59.8421 59.309 59.435 59.309 58.79C59.309 57.1806 59.1024 56.0722 57.875 56.0722C56.6789 56.0722 56.2405 57.2119 56.2405 60.1927H59.2526Z" fill="#545459"/>
<path d="M63.5159 67.9952V55.0763C63.5159 54.757 63.7476 54.519 64.0732 54.519H64.9499C65.2693 54.519 65.5072 54.7507 65.5072 55.0763V55.164C66.1522 54.7256 66.9663 54.3437 67.962 54.3437C69.4524 54.3437 70.6485 55.164 70.6485 57.5311V67.9952C70.6485 68.3146 70.4168 68.5525 70.0912 68.5525H69.2145C68.8951 68.5525 68.6571 68.3208 68.6571 67.9952V57.5311C68.6571 56.6857 68.3377 56.1847 67.4297 56.1847C66.9037 56.1847 66.1147 56.3914 65.501 56.7108V67.9952C65.501 68.3146 65.2693 68.5525 64.9436 68.5525H64.0669C63.7476 68.5525 63.5159 68.3208 63.5159 67.9952Z" fill="#545459"/>
<path d="M72.8979 64.6076C72.8979 64.1129 73.2173 63.9062 73.5993 63.9062H74.2443C74.6514 63.9062 74.8017 64.2256 74.7703 64.7829C74.714 65.835 74.9457 67.006 76.1731 67.006C77.4568 67.006 77.7825 66.0729 77.7825 64.9583C77.7825 63.6996 76.6427 62.8229 75.7097 62.1528C74.6013 61.3325 73.0232 59.9297 73.0232 58.0887C73.0232 55.7529 74.1942 54.3501 76.3234 54.3501C78.4588 54.3501 79.5108 55.3145 79.5108 58.1763C79.5108 58.7023 79.1601 58.8777 78.8095 58.8777H78.1645C77.7574 58.8777 77.6071 58.5583 77.6384 58.001C77.6948 57.093 77.5821 56.0722 76.3234 56.0722C75.3277 56.0722 74.8017 56.7736 74.8017 57.8256C74.8017 58.9967 75.5594 59.7857 76.3484 60.3681C77.5758 61.2761 79.5609 62.7665 79.5609 64.7829C79.5609 66.624 78.9472 68.7281 76.1731 68.7281C74.069 68.7281 72.8979 67.5007 72.8979 64.6076Z" fill="#545459"/>
<path d="M87.3444 68.6716C86.236 68.6716 85.5347 68.202 85.2717 67.6509V74.2888C85.2717 74.6082 85.04 74.8461 84.7143 74.8461H82.2282C81.9089 74.8461 81.6709 74.6144 81.6709 74.2888V55.0514C81.6709 54.732 81.9026 54.494 82.2282 54.494H83.249C84.0693 54.494 84.7394 54.7257 85.0587 55.5148C85.4094 54.7571 86.3174 54.3438 87.3382 54.3438C89.8243 54.3438 91.1393 56.3289 91.1393 61.5077C91.1393 66.6865 89.8305 68.6716 87.3444 68.6716ZM86.117 57.0052C85.7664 57.0052 85.5034 57.0928 85.2717 57.2118V65.8035C85.5034 65.9225 85.7664 66.0102 86.117 66.0102C86.9624 66.0102 87.5511 65.6595 87.5511 61.5077C87.5511 57.3872 86.9624 57.0052 86.117 57.0052Z" fill="#545459"/>
<path d="M98.8887 58.0885C98.7697 58.0885 98.6257 58.0322 98.4817 57.9445C98.3063 57.8255 98.0433 57.7692 97.8116 57.7692C96.9349 57.7692 96.2336 58.3265 96.2336 58.3265V67.8262C96.2336 68.1456 96.0019 68.3835 95.6762 68.3835H93.1901C92.8708 68.3835 92.6328 68.1518 92.6328 67.8262V54.9011C92.6328 54.5817 92.8645 54.3438 93.1901 54.3438H94.2422C95.0625 54.3438 95.6449 54.7821 95.8516 55.4835C96.5216 54.7508 97.3733 54.3438 98.25 54.3438C98.8637 54.3438 99.302 54.6381 99.302 55.2518V57.5876C99.2958 57.8819 99.1768 58.0885 98.8887 58.0885Z" fill="#545459"/>
<path d="M104.618 68.553C101.957 68.553 99.884 66.9186 99.884 61.364C99.884 55.8095 101.957 54.175 104.618 54.175C107.305 54.175 109.352 55.8095 109.352 61.364C109.352 66.9186 107.305 68.553 104.618 68.553ZM104.618 56.8928C103.861 56.8928 103.479 57.2122 103.479 61.364C103.479 65.5159 103.861 65.8352 104.618 65.8352C105.376 65.8352 105.758 65.5159 105.758 61.364C105.758 57.2122 105.376 56.8928 104.618 56.8928Z" fill="#545459"/>
<path d="M125.601 68.3776H123.115C122.796 68.3776 122.558 68.1459 122.558 67.8203V57.9135C122.558 57.1808 122.263 56.8928 121.65 56.8928C121.268 56.8928 120.742 57.0118 120.278 57.2435V67.8265C120.278 68.1459 120.047 68.3839 119.721 68.3839H117.235C116.916 68.3839 116.678 68.1522 116.678 67.8265V57.9135C116.678 57.1808 116.383 56.8928 115.77 56.8928C115.388 56.8928 114.862 57.0118 114.398 57.2435V67.8265C114.398 68.1459 114.166 68.3839 113.841 68.3839H111.355C111.035 68.3839 110.797 68.1522 110.797 67.8265V54.9014C110.797 54.582 111.029 54.3441 111.355 54.3441H112.789C113.49 54.3441 114.104 54.6634 114.31 55.3398C114.868 54.7824 115.801 54.1687 117.147 54.1687C118.462 54.1687 119.308 54.6634 119.777 55.5151C120.598 54.7574 121.587 54.1687 123.021 54.1687C125.157 54.1687 126.146 55.4525 126.146 57.8196V67.814C126.158 68.1459 125.921 68.3776 125.601 68.3776Z" fill="#545459"/>
<path d="M132.329 68.553C129.668 68.553 127.595 66.9186 127.595 61.364C127.595 55.8095 129.668 54.175 132.329 54.175C135.016 54.175 137.064 55.8095 137.064 61.364C137.064 66.9186 135.016 68.553 132.329 68.553ZM132.329 56.8928C131.572 56.8928 131.19 57.2122 131.19 61.364C131.19 65.5159 131.572 65.8352 132.329 65.8352C133.087 65.8352 133.469 65.5159 133.469 61.364C133.469 57.2122 133.087 56.8928 132.329 56.8928Z" fill="#545459"/>
</svg>
