<svg width="169" height="27" viewBox="0 0 169 27" fill="none" xmlns="http://www.w3.org/2000/svg">
<path fill-rule="evenodd" clip-rule="evenodd" d="M13.428 0C15.9 0 17.904 1.95809 17.904 4.37347V4.9454V8.74693V26.2408C22.8397 26.2408 26.8424 22.3134 26.8559 17.4939C31.8001 17.4939 35.808 13.5777 35.808 8.74693C35.808 3.91612 31.8001 0 26.856 0H13.428Z" fill="#004985"/>
<path fill-rule="evenodd" clip-rule="evenodd" d="M14.2046 0.0168547C14.3172 0.00570916 14.4314 0 14.547 0C16.401 0 17.904 1.46855 17.904 3.2801L17.904 8.74693H8.952C4.00793 8.74693 0 4.83081 0 0H14.1932C14.197 0.00563271 14.2008 0.0112509 14.2046 0.0168547Z" fill="#006AB1"/>
<path fill-rule="evenodd" clip-rule="evenodd" d="M8.61377 8.74689C8.61377 13.5777 12.6217 17.4938 17.5658 17.4938H17.9041V8.74689H8.61377Z" fill="#008AFF"/>
<path fill-rule="evenodd" clip-rule="evenodd" d="M49.8278 11.3836C49.8278 6.99909 49.0312 6.48022 48.0222 6.48022C47.5974 6.48022 47.2522 6.58402 46.9602 6.73965V16.0275C47.2522 16.1831 47.5974 16.2869 48.0222 16.2869C49.0312 16.2869 49.8278 15.7681 49.8278 11.3836ZM45.1545 22.721V5.65002C45.1545 5.36463 45.367 5.1571 45.659 5.1571H45.7387C46.2167 5.1571 46.5086 5.31274 46.7742 5.83166C47.0928 5.209 47.7832 5.0014 48.5268 5.0014C50.6242 5.0014 51.6332 6.8175 51.6332 11.3836C51.6332 15.9496 50.6242 17.7657 48.5268 17.7657C47.5974 17.7657 47.1725 17.4025 46.9602 17.169V22.721C46.9602 23.0064 46.7478 23.2139 46.4556 23.2139H45.659C45.367 23.2139 45.1545 23.0064 45.1545 22.721Z" fill="#3A3D3D"/>
<path fill-rule="evenodd" clip-rule="evenodd" d="M57.953 15.6124V11.7208C57.5547 11.6689 57.2626 11.643 56.9175 11.643C55.4572 11.643 55.0855 12.7586 55.0855 14.1076C55.0855 15.6643 55.5102 16.3128 56.5723 16.3128C57.2095 16.3128 57.6078 15.9755 57.953 15.6124ZM53.2798 14.1336C53.2798 12.2137 53.9436 10.268 56.7848 10.268C57.1299 10.268 57.5281 10.2939 57.953 10.3458V8.08866C57.953 7.15472 57.5812 6.53206 56.6784 6.53206C55.5368 6.53206 55.351 7.44011 55.404 8.24436C55.4305 8.73728 55.2977 9.02266 54.9261 9.02266H54.3419C54.0233 9.02266 53.7047 8.86702 53.7047 8.40005C53.7047 5.85755 54.873 5.0014 56.8112 5.0014C58.7496 5.0014 59.7585 6.06509 59.7585 8.06277V15.8199C59.7585 16.4166 59.971 16.6501 60.4223 16.6501V16.9614C60.4223 17.3247 60.0507 17.7657 59.1213 17.7657C58.5902 17.7657 58.1389 17.5322 58.0061 16.7798C57.6875 17.4284 56.9706 17.7657 55.9085 17.7657C54.0498 17.7657 53.2798 16.1572 53.2798 14.1336Z" fill="#3A3D3D"/>
<path fill-rule="evenodd" clip-rule="evenodd" d="M61.8562 14.1076C61.8562 13.6666 62.1482 13.4849 62.4934 13.4849H63.0776C63.4492 13.4849 63.582 13.7703 63.5555 14.2633C63.5024 15.1972 63.7148 16.235 64.8299 16.235C65.9984 16.235 66.2904 15.4048 66.2904 14.4189C66.2904 13.3034 65.2549 12.525 64.4052 11.9283C63.3961 11.2019 61.9623 9.9566 61.9623 8.32215C61.9623 6.24668 63.0245 5.0014 64.9627 5.0014C66.9011 5.0014 67.8569 5.8575 67.8569 8.39999C67.8569 8.86702 67.5383 9.02266 67.2197 9.02266H66.6356C66.2638 9.02266 66.131 8.73728 66.1576 8.24436C66.2106 7.44011 66.1045 6.53206 64.9627 6.53206C64.0599 6.53206 63.582 7.15472 63.582 8.08866C63.582 9.1264 64.2724 9.82691 64.9893 10.3458C66.1045 11.15 67.91 12.4731 67.91 14.2633C67.91 15.8977 67.3525 17.7657 64.8299 17.7657C62.9183 17.7657 61.8562 16.6761 61.8562 14.1076Z" fill="#3A3D3D"/>
<path fill-rule="evenodd" clip-rule="evenodd" d="M69.5032 14.1076C69.5032 13.6666 69.7952 13.4849 70.1404 13.4849H70.7245C71.0963 13.4849 71.2289 13.7703 71.2025 14.2633C71.1494 15.1972 71.3617 16.235 72.4769 16.235C73.6451 16.235 73.9373 15.4048 73.9373 14.4189C73.9373 13.3034 72.9018 12.525 72.0522 11.9283C71.0431 11.2019 69.6093 9.9566 69.6093 8.32215C69.6093 6.24668 70.6714 5.0014 72.6097 5.0014C74.548 5.0014 75.5039 5.8575 75.5039 8.39999C75.5039 8.86702 75.1852 9.02266 74.8667 9.02266H74.2825C73.9107 9.02266 73.7779 8.73728 73.8045 8.24436C73.8576 7.44011 73.7515 6.53206 72.6097 6.53206C71.7069 6.53206 71.2289 7.15472 71.2289 8.08866C71.2289 9.1264 71.9194 9.82691 72.6362 10.3458C73.7515 11.15 75.557 12.4731 75.557 14.2633C75.557 15.8977 74.9995 17.7657 72.4769 17.7657C70.5653 17.7657 69.5032 16.6761 69.5032 14.1076Z" fill="#3A3D3D"/>
<path fill-rule="evenodd" clip-rule="evenodd" d="M81.7965 15.6124V11.7208C81.3982 11.6689 81.1061 11.643 80.761 11.643C79.3007 11.643 78.9289 12.7586 78.9289 14.1076C78.9289 15.6643 79.3537 16.3128 80.4158 16.3128C81.053 16.3128 81.4513 15.9755 81.7965 15.6124ZM77.1233 14.1336C77.1233 12.2137 77.7871 10.268 80.6283 10.268C80.9733 10.268 81.3716 10.2939 81.7965 10.3458V8.08866C81.7965 7.15472 81.4247 6.53206 80.522 6.53206C79.3803 6.53206 79.1945 7.44011 79.2475 8.24436C79.274 8.73728 79.1413 9.02266 78.7696 9.02266H78.1854C77.8668 9.02266 77.5482 8.86702 77.5482 8.40005C77.5482 5.85755 78.7165 5.0014 80.6547 5.0014C82.5931 5.0014 83.602 6.06509 83.602 8.06277V15.8199C83.602 16.4166 83.8145 16.6501 84.2659 16.6501V16.9614C84.2659 17.3247 83.8941 17.7657 82.9648 17.7657C82.4337 17.7657 81.9824 17.5322 81.8497 16.7798C81.531 17.4284 80.8141 17.7657 79.752 17.7657C77.8935 17.7657 77.1233 16.1572 77.1233 14.1336Z" fill="#3A3D3D"/>
<path fill-rule="evenodd" clip-rule="evenodd" d="M88.7267 12.2916C87.5849 12.2916 87.293 11.0203 87.293 9.33399C87.293 7.64764 87.5849 6.37642 88.7267 6.37642C89.8153 6.37642 90.1605 7.64764 90.1605 9.33399C90.1605 11.0203 89.8153 12.2916 88.7267 12.2916ZM88.9391 17.3356C90.2667 17.3356 90.8774 18.3299 90.8774 19.6002C90.8774 20.8706 90.2667 21.8648 88.9391 21.8648C87.6115 21.8648 87.0008 20.8706 87.0008 19.6002C87.0008 18.3299 87.6115 17.3356 88.9391 17.3356ZM92.2314 5.08689C91.7754 5.08689 91.2512 5.34831 90.871 5.84857C90.7223 5.69591 90.4112 5.47006 90.187 5.36049C89.9214 5.23226 89.5231 5.0014 88.7267 5.0014C86.868 5.0014 85.6467 6.36091 85.6467 9.28501C85.6467 11.1318 86.1511 12.3631 86.9742 13.0043C86.4431 13.4147 86.1511 13.979 86.1511 14.7742C86.1511 15.5181 86.4167 16.0311 86.868 16.4671C85.8856 17.134 85.3545 18.3139 85.3545 19.5708C85.3545 21.5202 86.6025 23.1875 88.9391 23.1875C91.2757 23.1875 92.5235 21.5202 92.5235 19.5708C92.5235 17.6214 91.2757 15.8772 88.9391 15.8772C88.7532 15.8772 88.4612 15.9028 88.3018 15.9285C87.9832 15.7232 87.7974 15.3641 87.7974 14.7742C87.7974 14.1329 88.0893 13.7225 88.4612 13.543C88.5408 13.543 88.647 13.5686 88.7267 13.5686C90.5853 13.5686 91.8066 12.2091 91.8066 9.28501C91.8066 8.28879 91.6661 7.48518 91.4127 6.8522C91.5616 6.82835 91.7107 6.80555 91.8597 6.80555C92.072 6.80555 92.2047 6.83115 92.4438 6.95943C92.5766 7.03635 92.6561 7.06201 92.7888 7.06201C93.0544 7.06201 93.1871 6.90812 93.1871 6.6516V5.8821C93.1871 5.34341 92.7888 5.08689 92.2314 5.08689Z" fill="#3A3D3D"/>
<path fill-rule="evenodd" clip-rule="evenodd" d="M98.1262 10.1901C98.1527 9.87881 98.1793 9.51558 98.1793 8.94487C98.1793 7.51795 97.9934 6.53206 96.8783 6.53206C95.7897 6.53206 95.3914 7.54384 95.3914 10.1901H98.1262ZM93.5593 11.3835C93.5593 7.59574 94.1435 5.0014 96.8783 5.0014C98.8962 5.0014 99.7989 6.14288 99.7989 9.43779C99.7989 9.9566 99.7192 10.8906 99.6131 11.5652H95.3648C95.3648 14.8341 95.6303 16.235 96.9047 16.235C98.1262 16.235 98.2059 14.9378 98.1793 14.393C98.1527 13.9001 98.2854 13.6147 98.6573 13.6147H99.1087C99.4272 13.6147 99.7459 13.7703 99.7459 14.2373C99.7459 16.5723 98.8696 17.7657 96.8517 17.7657C94.1168 17.7657 93.5593 15.1713 93.5593 11.3835Z" fill="#3A3D3D"/>
<path fill-rule="evenodd" clip-rule="evenodd" d="M102.003 17.1171V5.65002C102.003 5.36463 102.215 5.1571 102.507 5.1571H103.304C103.596 5.1571 103.809 5.36463 103.809 5.65002V5.72781C104.393 5.33869 105.136 5.0014 106.039 5.0014C107.393 5.0014 108.482 5.72781 108.482 7.82929V17.1171C108.482 17.4025 108.269 17.61 107.977 17.61H107.181C106.888 17.61 106.676 17.4025 106.676 17.1171V7.82929C106.676 7.07693 106.384 6.63585 105.561 6.63585C105.083 6.63585 104.366 6.81744 103.809 7.10282V17.1171C103.809 17.4025 103.596 17.61 103.304 17.61H102.507C102.215 17.61 102.003 17.4025 102.003 17.1171Z" fill="#3A3D3D"/>
<path fill-rule="evenodd" clip-rule="evenodd" d="M110.526 14.1076C110.526 13.6666 110.818 13.4849 111.164 13.4849H111.748C112.12 13.4849 112.252 13.7703 112.226 14.2633C112.173 15.1972 112.385 16.235 113.5 16.235C114.668 16.235 114.961 15.4048 114.961 14.4189C114.961 13.3034 113.925 12.525 113.075 11.9283C112.066 11.2019 110.633 9.9566 110.633 8.32215C110.633 6.24668 111.695 5.0014 113.633 5.0014C115.571 5.0014 116.527 5.8575 116.527 8.39999C116.527 8.86702 116.208 9.02266 115.89 9.02266H115.306C114.934 9.02266 114.801 8.73728 114.828 8.24436C114.881 7.44011 114.775 6.53206 113.633 6.53206C112.73 6.53206 112.252 7.15472 112.252 8.08866C112.252 9.1264 112.943 9.82691 113.659 10.3458C114.775 11.15 116.58 12.4731 116.58 14.2633C116.58 15.8977 116.023 17.7657 113.5 17.7657C111.588 17.7657 110.526 16.6761 110.526 14.1076Z" fill="#3A3D3D"/>
<path fill-rule="evenodd" clip-rule="evenodd" d="M122.528 7.36183C122.209 7.36183 121.97 7.43968 121.758 7.54348V15.1709C121.97 15.2747 122.209 15.3525 122.528 15.3525C123.298 15.3525 123.829 15.0412 123.829 11.3572C123.829 7.69911 123.298 7.36183 122.528 7.36183ZM123.643 17.7134C122.634 17.7134 121.997 17.2983 121.758 16.8054V22.6946C121.758 22.9799 121.545 23.1875 121.253 23.1875H118.996C118.704 23.1875 118.492 22.9799 118.492 22.6946V5.62358C118.492 5.33826 118.704 5.13066 118.996 5.13066H119.926C120.669 5.13066 121.28 5.33826 121.572 6.03871C121.891 5.36415 122.714 5.00098 123.643 5.00098C125.9 5.00098 127.095 6.76517 127.095 11.3572C127.095 15.9492 125.9 17.7134 123.643 17.7134Z" fill="#3A3D3D"/>
<path fill-rule="evenodd" clip-rule="evenodd" d="M134.131 8.32178C134.025 8.32178 133.892 8.26988 133.76 8.19203C133.6 8.08829 133.361 8.03639 133.149 8.03639C132.352 8.03639 131.715 8.52931 131.715 8.52931V16.9611C131.715 17.2464 131.503 17.454 131.211 17.454H128.954C128.662 17.454 128.449 17.2464 128.449 16.9611V5.4939C128.449 5.20851 128.662 5.00098 128.954 5.00098H129.91C130.653 5.00098 131.184 5.39016 131.37 6.01282C131.981 5.36421 132.751 5.00098 133.547 5.00098C134.105 5.00098 134.503 5.26041 134.503 5.80523V7.88076C134.503 8.14013 134.397 8.32178 134.131 8.32178Z" fill="#3A3D3D"/>
<path fill-rule="evenodd" clip-rule="evenodd" d="M139.336 7.25809C138.646 7.25809 138.301 7.54347 138.301 11.2274C138.301 14.9115 138.646 15.1969 139.336 15.1969C140.026 15.1969 140.372 14.9115 140.372 11.2274C140.372 7.54347 140.026 7.25809 139.336 7.25809ZM139.336 17.6096C136.92 17.6096 135.035 16.1568 135.035 11.2274C135.035 6.29814 136.92 4.84534 139.336 4.84534C141.779 4.84534 143.637 6.29814 143.637 11.2274C143.637 16.1568 141.779 17.6096 139.336 17.6096Z" fill="#3A3D3D"/>
<path fill-rule="evenodd" clip-rule="evenodd" d="M158.4 17.454H156.143C155.851 17.454 155.639 17.2464 155.639 16.9611V8.16614C155.639 7.51752 155.373 7.25809 154.816 7.25809C154.471 7.25809 153.993 7.36189 153.568 7.56942V16.9611C153.568 17.2464 153.355 17.454 153.063 17.454H150.806C150.514 17.454 150.302 17.2464 150.302 16.9611V8.16614C150.302 7.51752 150.036 7.25809 149.479 7.25809C149.133 7.25809 148.656 7.36189 148.231 7.56942V16.9611C148.231 17.2464 148.018 17.454 147.726 17.454H145.469C145.177 17.454 144.965 17.2464 144.965 16.9611V5.49395C144.965 5.20857 145.177 5.00097 145.469 5.00097H146.77C147.408 5.00097 147.965 5.28636 148.151 5.88307C148.656 5.39015 149.505 4.84534 150.727 4.84534C151.922 4.84534 152.692 5.28636 153.116 6.03877C153.86 5.3642 154.763 4.84534 156.064 4.84534C158.002 4.84534 158.905 5.98687 158.905 8.08829V16.9611C158.905 17.2464 158.692 17.454 158.4 17.454Z" fill="#3A3D3D"/>
<path fill-rule="evenodd" clip-rule="evenodd" d="M164.508 7.25809C163.817 7.25809 163.472 7.54347 163.472 11.2274C163.472 14.9115 163.817 15.1969 164.508 15.1969C165.198 15.1969 165.543 14.9115 165.543 11.2274C165.543 7.54347 165.198 7.25809 164.508 7.25809ZM164.508 17.6096C162.091 17.6096 160.206 16.1568 160.206 11.2274C160.206 6.29814 162.091 4.84534 164.508 4.84534C166.951 4.84534 168.809 6.29814 168.809 11.2274C168.809 16.1568 166.951 17.6096 164.508 17.6096Z" fill="#3A3D3D"/>
</svg>
